<?xml version="1.0" encoding="UTF-8" standalone="no"?><!DOCTYPE svg PUBLIC "-//W3C//DTD SVG 1.1//EN" "http://www.w3.org/Graphics/SVG/1.1/DTD/svg11.dtd"><svg width="100%" height="100%" viewBox="0 0 1088 700" version="1.1" xmlns="http://www.w3.org/2000/svg" xmlns:xlink="http://www.w3.org/1999/xlink" xml:space="preserve" style="fill-rule:evenodd;clip-rule:evenodd;stroke-linecap:round;stroke-linejoin:round;stroke-miterlimit:1.5;"><rect id="_404" x="0" y="0" width="1088" height="700" style="fill:none;"/><clipPath id="_clip1"><rect x="0" y="0" width="1088" height="700"/></clipPath><g clip-path="url(#_clip1)"><path id="hole" d="M460.312,40.233c57.923,-2.152 136.372,11.302 196.476,34.334c-23.546,-45.673 -158.144,-53.906 -156.521,-66.933c1.953,-15.678 174.848,-5.852 236.818,55.462c93.631,92.64 71.329,212.01 74.434,228.733c28.542,-75.572 21.068,-148.788 27.861,-151.126c10.755,-3.701 37.104,62.745 22.91,150.307c-18.878,116.463 -64.778,171.924 -74.182,187.795c-21.291,35.933 -47.137,65.043 -76.231,94.564c75.606,-20.648 121.441,-136.396 128.588,-135.672c10.268,1.039 1.544,117.65 -73.783,164.494c-67.672,42.084 -245.25,80.193 -362.06,24.464c48.943,55.512 193.832,35.846 194.348,59.412c0.445,20.371 -175.308,29.017 -240.268,-31.974c-41.521,-38.983 -83.334,-105.615 -99.477,-202.854c0,0 -7.164,-36.185 -7.89,-55.118c-28.886,71.664 16.239,184.442 6.518,188.81c-20.432,9.182 -66.229,-87.282 -60.452,-166.071c6.245,-85.163 29.387,-158.171 77.609,-221.776c15.205,-20.054 55.538,-51.868 79.199,-69.815c-76.908,-4.955 -110.797,90.279 -122.038,84.906c-13.654,-6.526 16.501,-164.081 228.141,-171.942Z" style="fill:#181e26;"/><g id="hacker"><path d="M659.922,447.411l8.315,1.136l3.234,12.25l-10.084,1.406l-2.764,-7.491l1.299,-7.301Z" style="fill:#fee3c8;"/><g><path id="sleeve" d="M614.201,279.862c1.003,2.833 -20.054,16.996 -21.334,15.066l-5.247,-10.132l22.682,-11.84l3.899,6.906Z" style="fill:#ff6243;"/><path id="sleeve1" d="M498.314,244.111c-2.274,1.966 9.017,24.693 11.085,23.649l9.572,-6.208l-13.851,-21.513l-6.806,4.072Z" style="fill:#ff6243;"/><path id="arm" d="M539.424,231.084c-16.442,1.65 -59.396,24.826 -63.539,40.836c-4.123,15.931 31.324,58.683 31.324,58.683l7.662,-1.535c-6.054,-17.86 -13.911,-35.42 -24.315,-52.557c14.17,-12.745 30.903,-18.907 46.815,-20.266l2.053,-25.161Z" style="fill:#fee3c8;"/><path id="arm1" d="M591.263,245.826c11.752,11.617 30.594,56.641 23.754,71.698c-6.807,14.982 -61.247,25.955 -61.247,25.955l-4.995,-6.01c15.934,-10.086 33.082,-18.805 51.945,-25.596c-3.01,-18.819 -12.152,-34.128 -23.675,-45.187l14.218,-20.86Z" style="fill:#fee3c8;"/><path id="torso" d="M594.978,269.168c2.45,-6.363 2.077,-13.468 -1.024,-19.54c-3.102,-6.072 -8.64,-10.538 -15.231,-12.283c-8.266,-2.188 -17.412,-4.609 -25.673,-6.796c-6.579,-1.742 -13.589,-0.609 -19.284,3.118c-5.695,3.727 -9.54,9.696 -10.578,16.423c-4.99,32.351 -12.797,82.954 -12.797,82.954l54.449,14.416c0,0 18.374,-47.731 30.138,-78.292Z" style="fill:#fee3c8;"/><g id="shirt"><path d="M561.95,248.633c15.537,4.032 17.605,-11.047 17.605,-11.047c23.099,6.638 32.217,33.427 34.646,42.276c-2.236,-0.747 -21.479,13.84 -21.334,15.065l-3.488,-6.733l-20.189,54.21l-29.966,-7.933c0,0 -29.965,-7.933 -29.965,-7.933l9.578,-64.053l-9.438,5.275c0.732,-0.993 -8.772,-23.191 -11.085,-23.649c12.575,-8.599 30.479,-20.581 53.802,-13.79c0,0 -5.663,14.128 9.834,18.312l0,0Z" style="fill:#ff8c76;"/><g><path d="M541.473,283.731c0.485,-3.59 -4.766,-7.157 -8.113,-4.095c-6.076,5.56 -2.753,11.994 3.658,14.551c5.427,2.165 10.43,2.585 12.886,-6.013c1.613,-5.643 -6.516,-7.111 -8.431,-4.443Z" style="fill:#ff6243;"/><path d="M562.701,288.198c-0.826,-2.816 -5.887,-3.722 -7.353,-0.352c-2.66,6.118 1.921,9.781 7.507,9.557c4.73,-0.189 8.569,-1.529 7.549,-8.7c-0.669,-4.707 -7.167,-3.111 -7.703,-0.505Z" style="fill:#ff6243;"/><path d="M541.486,283.619c1.838,-5.653 6.711,-12.454 19.913,-18.952c-3.437,9.99 4.191,16.957 1.302,23.531" style="fill:none;stroke:#525f75;stroke-width:2px;"/></g></g></g><path id="leg" d="M508.855,521.136l2.045,5.269l-9.798,9.57l-5.121,-6.46l4.525,-6.179l8.349,-2.2Z" style="fill:#fee3c8;"/><g id="shoe"><path d="M496.305,535.109c0,0 -1.386,18.145 -8.643,35.971c-1.28,5.978 5.554,7.469 5.554,7.469l33.843,-46.392c0,0 -4.952,-5.519 -8.57,-7.033c-3.322,-1.39 -7.791,-2.259 -8.54,-2.12c-0.737,0.136 -0.73,3.618 -5.319,8.261c-1.142,1.156 -2.232,1.975 -3.225,2.553c-1.139,-2.224 -4.443,-2.909 -4.443,-2.909c-0.354,-0.102 -0.658,0.13 -0.657,0.507l0,3.693Z" style="fill:#00e686;"/><path d="M492.671,555.681c1.255,1.003 5.877,-0.399 8.734,-21.863c-1.139,-2.224 -4.443,-2.909 -4.443,-2.909c-0.354,-0.102 -0.658,0.13 -0.657,0.507l0,3.693c0,0 -0.689,9.011 -3.634,20.572Z" style="fill:#f7f8fa;"/><path d="M493.193,578.587c0.107,1.752 2.2,1.784 3.175,1.246c3.78,-2.085 11.011,-18.097 16.302,-24.804c5.94,-7.531 16.857,-15.54 16.994,-19.854c0.101,-3.158 -4.22,-4.766 -4.22,-4.766c0,0 -4.297,7.049 -8.741,13.795c-1.907,2.896 -5.982,8.526 -6.533,9.284c-5.63,7.745 -17.082,23.382 -16.977,25.099Z" style="fill:#f7f8fa;"/><path d="M495.861,536.698c1.524,1.378 4.039,2.011 6.425,1.75" style="fill:none;stroke:#0e8754;stroke-width:1px;"/><path d="M495.09,542.121c1.524,1.379 4.04,2.012 6.425,1.75" style="fill:none;stroke:#0e8754;stroke-width:1px;"/><path d="M493.981,547.982c1.215,1.657 3.551,2.785 5.94,3.009" style="fill:none;stroke:#0e8754;stroke-width:1px;"/></g><g id="shoe1"><path d="M666.434,465.593c0,0 14.143,11.453 24.687,27.554c4.19,4.451 9.302,-0.325 9.302,-0.325l-18.939,-54.211c0,0 -7.355,0.937 -10.658,3.054c-3.031,1.944 -6.286,5.127 -6.598,5.822c-0.306,0.683 2.563,2.657 3.775,9.072c0.302,1.597 0.357,2.959 0.268,4.104c-2.477,-0.326 -4.918,2.003 -4.918,2.003c-0.286,0.234 -0.268,0.614 0.043,0.829l3.038,2.098Z" style="fill:#00e686;"/><path d="M681.296,480.275c1.539,-0.463 3.012,-5.063 -13.025,-19.612c-2.477,-0.326 -4.918,2.003 -4.918,2.003c-0.286,0.234 -0.268,0.614 0.043,0.829l3.038,2.098c0,0 7.024,5.688 14.862,14.682Z" style="fill:#f7f8fa;"/><path d="M700.441,492.863c1.502,0.907 2.718,-0.796 2.829,-1.905c0.433,-4.294 -8.632,-19.344 -11.144,-27.509c-2.821,-9.168 -3.207,-22.702 -6.679,-25.267c-2.541,-1.877 -6.319,0.764 -6.319,0.764c0,0 3.357,7.542 6.383,15.032c1.299,3.216 3.615,9.768 3.926,10.652c3.173,9.034 9.531,27.344 11.004,28.233Z" style="fill:#f7f8fa;"/><path d="M667.49,466.861c2,-0.47 3.951,-2.18 5.091,-4.292" style="fill:none;stroke:#0e8754;stroke-width:1px;"/><path d="M671.514,470.578c2,-0.471 3.951,-2.18 5.092,-4.292" style="fill:none;stroke:#0e8754;stroke-width:1px;"/><path d="M675.706,474.821c2.054,-0.057 4.309,-1.339 5.852,-3.177" style="fill:none;stroke:#0e8754;stroke-width:1px;"/></g><path id="pants" d="M510.391,333.044c-19.615,12.416 -75.409,93.791 -70.527,106.104c5.23,13.188 36.398,60.864 56.117,90.367l12.874,-8.379c-10.293,-29.686 -18.094,-64.423 -40.76,-80.432l58.703,-59.503c0,0 9.717,83.132 25.887,88.245c32.889,10.4 72.027,-4.52 108.703,-7.228l-1.465,-14.807c-30.542,-3.951 -70.034,-13.258 -88.094,-3.572c0.743,-30.341 2.526,-80.994 -6.994,-96.378l-54.444,-14.417Z" style="fill:#9da9bd;"/><clipPath id="_clip2"><path d="M510.391,333.044c-19.615,12.416 -75.409,93.791 -70.527,106.104c5.23,13.188 36.398,60.864 56.117,90.367l12.874,-8.379c-10.293,-29.686 -18.094,-64.423 -40.76,-80.432l58.703,-59.503c0,0 9.717,83.132 25.887,88.245c32.889,10.4 72.027,-4.52 108.703,-7.228l-1.465,-14.807c-30.542,-3.951 -70.034,-13.258 -88.094,-3.572c0.743,-30.341 2.526,-80.994 -6.994,-96.378l-54.444,-14.417Z"/></clipPath><g clip-path="url(#_clip2)"><path d="M468.098,440.706c9.163,12.533 25.231,39.281 38.512,83.927l5.285,-3.673c-6.481,-26.832 -18.698,-53.746 -32.889,-80.689l-10.908,0.435Z" style="fill:#181e26;fill-opacity:0.15;"/><path d="M571.829,443.839c15.438,-1.648 46.667,-2.163 91.956,8.722l-0.529,-6.415c-26.466,-7.84 -55.879,-10.757 -86.306,-11.981l-5.121,9.674Z" style="fill:#181e26;fill-opacity:0.15;"/></g><g><path id="hair" d="M583.61,140.045c0,0 -6.899,-20.637 15.97,-20.177c30.49,0.615 33.405,39.333 24.713,64.142c-8.874,25.331 -4.124,49.15 4.89,59.659c-5.212,-0.486 -17.059,-5.89 -21.209,-13.491c-0.61,2.64 -0.704,7.122 1.669,10.411c0,0 -9.041,-3.729 -12.837,-7.743c-4.703,-4.972 -11.347,-17.139 -10.48,-26.457l9.96,-56.002l-12.676,-10.342Z" style="fill:#1bc47e;"/><path id="neck" d="M564.647,214.999l-8.473,16.377l6.911,12.474l12.423,-7.356l0.74,-18.424l-11.601,-3.071Z" style="fill:#fee3c8;"/><clipPath id="_clip3"><path d="M564.647,214.999l-8.473,16.377l6.911,12.474l12.423,-7.356l0.74,-18.424l-11.601,-3.071Z"/></clipPath><g clip-path="url(#_clip3)"><path d="M560.737,216.447c0,0 6.535,12.981 20.996,5.589c14.462,-7.392 -9.527,-5.643 -9.527,-5.643l-11.469,0.054Z" style="fill:#181e26;fill-opacity:0.15;"/></g><path id="ear" d="M553.302,170.094c0,0 -1.843,-3.621 -4.589,-1.693c-2.466,1.732 -0.311,4.508 -0.836,6.597c-0.428,1.708 -1.483,4.925 0.265,6.235c1.243,0.932 2.45,0.985 3.85,-0.025c4.787,-3.456 1.31,-11.114 1.31,-11.114Z" style="fill:#f9cc9f;"/><path id="ear1" d="M608.387,184.677c0,0 3.393,-2.234 4.825,0.8c1.286,2.725 -1.96,4.071 -2.538,6.146c-0.473,1.696 -1.148,5.014 -3.315,5.288c-1.541,0.195 -2.617,-0.357 -3.333,-1.927c-2.45,-5.372 4.361,-10.307 4.361,-10.307Z" style="fill:#f9cc9f;"/><path id="hair-shadow" d="M614.156,159.21c-5.188,-19.273 -23.743,-18.36 -23.743,-18.36l18.031,43.791c0,0 9.617,-10.925 5.712,-25.431Z" style="fill:#181e26;fill-opacity:0.15;"/><path id="face" d="M588.874,146.932c15.473,4.097 23.677,23.882 18.309,44.157c-5.367,20.274 -22.287,33.408 -37.759,29.312c-15.473,-4.096 -23.677,-23.882 -18.309,-44.156c5.367,-20.275 22.287,-33.409 37.759,-29.313Z" style="fill:#fee3c8;"/><path d="M578.826,188.594c-0.027,-0.429 -0.326,-0.794 -0.742,-0.904c-0.416,-0.11 -0.856,0.059 -1.092,0.419c-1.434,2.185 -3.448,5.256 -4.532,6.908c-0.176,0.268 -0.212,0.606 -0.097,0.906c0.115,0.3 0.367,0.527 0.677,0.609c1.416,0.375 3.636,0.962 5.052,1.337c0.31,0.082 0.642,0.01 0.89,-0.194c0.249,-0.204 0.384,-0.515 0.364,-0.836c-0.125,-1.971 -0.356,-5.636 -0.52,-8.245Z" style="fill:#f9cc9f;"/><path id="eye" d="M567.023,174.767c2.401,0.635 3.834,3.101 3.198,5.502c-0.635,2.401 -3.101,3.834 -5.501,3.198c-2.401,-0.636 -3.835,-3.101 -3.199,-5.502c0.636,-2.401 3.101,-3.834 5.502,-3.198Z" style="fill:#333e50;"/><path id="brow" d="M572.585,165.771c-1.177,-0.496 -4.084,-0.843 -6.594,-0.152c-2.812,0.774 -5.218,3.181 -4.924,3.816c0.196,0.421 2.733,-1.318 5.643,-1.968c2.25,-0.503 4.792,-0.127 5.777,0.074c1.208,0.247 1.208,-1.303 0.098,-1.77Z" style="fill:#0e8754;"/><path id="eye1" d="M594.09,181.933c2.401,0.635 3.834,3.101 3.199,5.502c-0.636,2.401 -3.101,3.834 -5.502,3.198c-2.401,-0.636 -3.834,-3.101 -3.198,-5.502c0.635,-2.401 3.1,-3.834 5.501,-3.198Z" style="fill:#333e50;"/><path id="hair-tie" d="M580.528,141.542c-3.233,-3.37 -1.382,-6.852 2.108,-6.011c-0.584,-3.808 4.535,-4.702 5.254,-1.409c1.527,-2.81 6.195,-1.782 5.508,1.299c2.218,-1.98 5.945,-0.413 4.927,2.862c3.998,0.372 4.685,4.714 0.931,6.393l-18.728,-3.134Z" style="fill:#dde3ed;"/><path id="front-hair" d="M606.919,149.107c-6.812,-8.302 -29.32,-13.162 -40.889,-4.585c-10.897,8.079 -12.799,25.443 -12.799,25.443c10.083,-3.733 12.432,-7.144 20.79,-14.304c0,0 7.742,8.672 14.284,14.289c8.076,6.934 20.14,14.691 20.14,14.691c0,0 12.078,-18.952 -1.526,-35.534Z" style="fill:#1bc47e;"/><path id="brow1" d="M593.698,171.36c1.268,0.152 3.966,1.289 5.805,3.131c2.061,2.065 2.961,5.347 2.391,5.753c-0.378,0.269 -1.723,-2.498 -3.93,-4.502c-1.706,-1.55 -4.101,-2.482 -5.057,-2.795c-1.171,-0.383 -0.405,-1.73 0.791,-1.587Z" style="fill:#0e8754;"/><path id="mouth" d="M574.03,203.001c2.935,0.776 4.616,4.056 3.91,6.724c-0.707,2.668 -3.534,3.719 -6.469,2.943c-2.934,-0.777 -4.871,-3.091 -4.165,-5.758c0.706,-2.668 3.79,-4.686 6.724,-3.909Z" style="fill:#eb8560;"/></g><g id="laptop"><path d="M599.651,306.08c0.48,-1.814 -0.603,-3.677 -2.417,-4.157l-90.096,-23.853c-1.814,-0.48 -3.677,0.603 -4.157,2.417l-15.663,59.162c-0.48,1.814 0.603,3.677 2.417,4.157l90.096,23.852c1.814,0.481 3.677,-0.602 4.157,-2.416l15.663,-59.162Z" style="fill:#edf0f5;"/><path d="M529.567,332.431c-0.508,-1.19 10.496,-14.861 15.262,-10.636c0.318,0.282 1.21,1.834 1.27,2.194c0.93,5.659 -16.026,9.627 -16.532,8.442Zm17.767,-9.692c1.328,0.265 2.912,0.258 3.922,-0.325c0,0 3.27,2.458 3.828,-0.136c0.403,-1.867 -5.194,-2.886 -7.75,0.461Zm-1.236,-1.674c0.514,-1.275 1.334,-2.227 2.382,-2.936c-0.249,-0.861 0.67,-2.087 1.602,-1.898c0,0 -0.654,-3.677 0.803,-4.242c4.486,-1.741 1.829,8.174 -4.787,9.076Z" style="fill:#cad2e0;"/></g></g><g id="stars"><path d="M440.799,132.574l-7.257,13.068l7.995,-1.602l-7.832,4.141l8.569,7.325l-10.145,-4.916l-0.655,8.835l-1.737,-7.967l-9.064,11.886l7.257,-13.068l-7.995,1.602l7.832,-4.141l-8.57,-7.325l10.146,4.916l0.655,-8.835l1.737,7.967l9.064,-11.886Z" style="fill:#dde3ed;"/><path d="M748.241,334.222c1.395,3.252 3.363,6.788 6.149,7.895c-2.893,0.894 -4.905,4.798 -6.396,7.883c-1.507,-3.481 -3.449,-7.256 -6.339,-7.883c2.897,-0.909 5.273,-4.488 6.586,-7.895Z" style="fill:#bcf5dd;"/><path d="M353.873,459.081c2.169,2.797 4.807,4.962 7.783,5.332c-2.691,2.46 -3.908,5.789 -4.488,8.498c-1.902,-1.893 -4.413,-4.221 -7.838,-5.293c1.97,-1.837 3.528,-5.136 4.543,-8.537Z" style="fill:#dde3ed;"/><circle cx="640.922" cy="563.773" r="4" style="fill:#bcf5dd;"/><circle cx="697.311" cy="169.556" r="3" style="fill:#dde3ed;"/><circle cx="700.529" cy="292.021" r="2" style="fill:#dde3ed;"/><circle cx="535.89" cy="502.422" r="2" style="fill:#dde3ed;"/><circle cx="345.344" cy="253.432" r="2" style="fill:#bcf5dd;"/><circle cx="400.678" cy="350" r="3" style="fill:#dde3ed;"/></g></g></svg>