<?xml version="1.0" encoding="UTF-8" standalone="no"?><!DOCTYPE svg PUBLIC "-//W3C//DTD SVG 1.1//EN" "http://www.w3.org/Graphics/SVG/1.1/DTD/svg11.dtd"><svg width="100%" height="100%" viewBox="0 0 360 400" version="1.1" xmlns="http://www.w3.org/2000/svg" xmlns:xlink="http://www.w3.org/1999/xlink" xml:space="preserve" style="fill-rule:evenodd;clip-rule:evenodd;stroke-linejoin:round;stroke-miterlimit:1.41421;"><rect id="business" x="0" y="0" width="360" height="400" style="fill:none;"/><clipPath id="_clip1"><rect x="0" y="0" width="360" height="400"/></clipPath><g clip-path="url(#_clip1)"><g><g><rect x="50" y="20" width="260" height="186" style="fill:#f7f8fa;"/><path d="M315,17c0,0.796 -0.316,1.559 -0.879,2.121c-0.562,0.563 -1.325,0.879 -2.121,0.879c-27.566,0 -236.434,0 -264,0c-0.796,0 -1.559,-0.316 -2.121,-0.879c-0.563,-0.562 -0.879,-1.325 -0.879,-2.121c0,0 0,0 0,0c0,-0.796 0.316,-1.559 0.879,-2.121c0.562,-0.563 1.325,-0.879 2.121,-0.879c27.566,0 236.434,0 264,0c0.796,0 1.559,0.316 2.121,0.879c0.563,0.562 0.879,1.325 0.879,2.121c0,0 0,0 0,0Z" style="fill:#9da9bd;"/><path d="M315,209c0,0.796 -0.316,1.559 -0.879,2.121c-0.562,0.563 -1.325,0.879 -2.121,0.879c-27.566,0 -236.434,0 -264,0c-0.796,0 -1.559,-0.316 -2.121,-0.879c-0.563,-0.562 -0.879,-1.325 -0.879,-2.121c0,0 0,0 0,0c0,-0.796 0.316,-1.559 0.879,-2.121c0.562,-0.563 1.325,-0.879 2.121,-0.879c27.566,0 236.434,0 264,0c0.796,0 1.559,0.316 2.121,0.879c0.563,0.562 0.879,1.325 0.879,2.121c0,0 0,0 0,0Z" style="fill:#9da9bd;"/></g><g><g><g><rect x="136" y="166" width="10" height="12" style="fill:#ffc7bc;"/><rect x="150" y="158" width="10" height="20" style="fill:#ffc7bc;"/><rect x="164" y="152" width="10" height="26" style="fill:#ffc7bc;"/><rect x="178" y="144" width="10" height="34" style="fill:#b9f6dd;"/><rect x="192" y="140" width="10" height="38" style="fill:#b9f6dd;"/><rect x="206" y="136" width="10" height="42" style="fill:#b9f6dd;"/><rect x="220" y="134" width="10" height="44" style="fill:#b9f6dd;"/><rect x="234" y="134" width="10" height="44" style="fill:#b9f6dd;"/></g><rect x="130" y="178" width="120" height="2" style="fill:#dde3ed;"/><rect x="130" y="120" width="2" height="60" style="fill:#dde3ed;"/></g><g><g><rect x="185.5" y="50" width="32" height="10" style="fill:#dde3ed;"/><rect x="185.5" y="64" width="37" height="10" style="fill:#dde3ed;"/><rect x="185.5" y="78" width="60" height="10" style="fill:#dde3ed;"/></g><rect x="209.531" y="48" width="2" height="42" style="fill:#1bc47e;"/></g></g><g><path d="M171.5,49c0,-0.552 -0.448,-1 -1,-1c-6.955,0 -48.045,0 -55,0c-0.552,0 -1,0.448 -1,1c0,5.724 0,34.276 0,40c0,0.552 0.448,1 1,1c6.955,0 48.045,0 55,0c0.552,0 1,-0.448 1,-1c0,-5.724 0,-34.276 0,-40Z" style="fill:#b9f6dd;"/><path d="M162.963,48l-7.5,0l-7.5,42l7.5,0l7.5,-42Z" style="fill:#8eedc6;"/><ellipse cx="152" cy="76.5" rx="15" ry="9" style="fill:#43e8a3;"/></g></g><path d="M250,343c0,-1.657 -1.343,-3 -3,-3c-18.383,0 -115.617,0 -134,0c-1.657,0 -3,1.343 -3,3c0,12.143 0,57 0,57l140,0c0,0 0,-44.857 0,-57Z" style="fill:#9da9bd;"/><g><g id="leg"><path id="pants" d="M294.275,222.266c6.536,2.14 18.253,12.421 19.21,24.19c2.063,25.351 -8.323,46.51 -15.71,70.552c6.95,14.271 3,77.769 3,77.769l-10.765,0.583l-9.235,-78.352l1.252,-70.302l12.248,-24.44Z" style="fill:#fdd1a5;"/><path d="M301.241,385.633c0,0 2.903,3.19 2.676,8.517c-0.111,2.592 -1.387,5.763 -4.938,5.85c-4.257,0.104 -6.875,-1.426 -9.386,-1.413c-4.369,0.022 -8.666,1.249 -15.895,1.413c-5.939,0.135 -11.264,-0.996 -11.307,-2.065c-0.185,-4.601 2.841,-2.59 5.622,-3.08c3.202,-0.565 6.384,-3.331 8.983,-4.947c5.23,-3.25 11.654,-6.091 11.654,-6.091l12.591,1.816Z" style="fill:#fdd1a5;"/><path d="M301.241,385.633c0,0 -4.577,6.311 -16.209,8.352c-8.143,1.429 -11.356,0.92 -12.824,-0.885c-0.542,-0.667 -11.107,0.16 -10.713,5.025c0.148,1.824 9.847,1.875 9.847,1.875l7.283,0c0,0 8.162,-0.935 10.268,-0.952c2.206,-0.018 8.169,1.168 11.242,0.952c0,0 4.719,-1.45 4.814,-5.791c0.094,-4.34 -3.708,-8.576 -3.708,-8.576Z" style="fill:#21d98c;"/><clipPath id="_clip2"><path d="M301.241,385.633c0,0 -4.577,6.311 -16.209,8.352c-8.143,1.429 -11.356,0.92 -12.824,-0.885c-0.542,-0.667 -11.107,0.16 -10.713,5.025c0.148,1.824 9.847,1.875 9.847,1.875l7.283,0c0,0 8.162,-0.935 10.268,-0.952c2.206,-0.018 8.169,1.168 11.242,0.952c0,0 4.719,-1.45 4.814,-5.791c0.094,-4.34 -3.708,-8.576 -3.708,-8.576Z"/></clipPath><g clip-path="url(#_clip2)"><path d="M305.242,389.84l-12.749,9.203c0,0 -11.823,2.169 -13.377,-1.086c-1.011,-2.118 7.054,-5.307 12.435,-7.977c7.07,-3.509 10.636,-6.657 10.636,-6.657l3.055,6.517Z" style="fill:#181e26;fill-opacity:0.15;"/></g></g><g id="leg1"><path id="pants1" d="M318.275,222.266c6.536,2.14 15.918,17.508 16.876,29.276c2.062,25.352 -5.989,41.424 -13.376,65.466c6.95,14.271 3,77.769 3,77.769l-10.765,0.583l-9.235,-78.352l1.252,-70.302l12.248,-24.44Z" style="fill:#fdd1a5;"/><path d="M325.241,385.633c0,0 2.903,3.19 2.676,8.517c-0.111,2.592 -1.387,5.763 -4.938,5.85c-4.257,0.104 -6.875,-1.426 -9.386,-1.413c-4.369,0.022 -8.666,1.249 -15.895,1.413c-5.939,0.135 -11.264,-0.996 -11.307,-2.065c-0.185,-4.601 2.841,-2.59 5.622,-3.08c3.202,-0.565 6.384,-3.331 8.983,-4.947c5.23,-3.25 11.654,-6.091 11.654,-6.091l12.591,1.816Z" style="fill:#fdd1a5;"/><path d="M325.241,385.633c0,0 -4.577,6.311 -16.209,8.352c-8.143,1.429 -11.356,0.92 -12.824,-0.885c-0.542,-0.667 -11.107,0.16 -10.713,5.025c0.148,1.824 9.847,1.875 9.847,1.875l7.283,0c0,0 8.162,-0.935 10.268,-0.952c2.206,-0.018 8.169,1.168 11.242,0.952c0,0 4.719,-1.45 4.814,-5.791c0.094,-4.34 -3.708,-8.576 -3.708,-8.576Z" style="fill:#21d98c;"/></g><path id="arm" d="M286.114,147.862c-3.551,12.88 -27.865,43.964 -41.189,45.088c-13.258,1.12 -39.928,-30.806 -39.928,-30.806l3.629,-3.681c13.411,7.254 22.391,11.547 34.636,22.169c10.161,-8.038 19.514,-18.861 24.165,-29.532c0.88,-2.02 7.674,-5.076 11.042,-5.626l7.645,2.388Z" style="fill:#fdd1a5;"/><path d="M271.899,71.966c6.049,-14.962 16.955,-23.932 31.45,-24.209c14.043,-0.268 27.124,6.539 32.686,25.315c4.144,13.991 3.16,16.414 1.36,32.794c-1.08,9.824 2.459,15.477 1.958,23.094c-1.228,18.642 -9.15,24.956 -9.15,24.956l-59.374,0.279c0,0 1.995,-14.743 1.923,-23.093c-0.053,-6.002 -3.756,-17.277 -4.495,-29.823c-0.435,-7.376 -0.2,-19.808 3.642,-29.313Z" style="fill:#ff8c76;"/><path id="torso" d="M332.61,161.414c0.902,-6.852 -1.194,-13.76 -5.751,-18.956c-4.557,-5.195 -11.133,-8.175 -18.044,-8.175c-3.321,0 -6.714,0 -10.034,0c-6.899,0 -13.464,2.969 -18.02,8.149c-4.557,5.18 -6.664,12.071 -5.784,18.913c3.366,26.165 7.959,61.878 7.959,61.878l41.542,0c0,0 4.69,-35.65 8.132,-61.809Z" style="fill:#fdd1a5;"/><g><path id="neck" d="M297.288,118.592l-2.454,16.039l8.526,9.17l8.743,-9.17l-2.453,-16.039l-12.362,0Z" style="fill:#fdd1a5;"/><clipPath id="_clip3"><path d="M297.288,118.592l-2.454,16.039l8.526,9.17l8.743,-9.17l-2.453,-16.039l-12.362,0Z"/></clipPath><g clip-path="url(#_clip3)"><path d="M295.142,120.087c0,0 -0.55,4.673 8.429,4.571c7.991,-0.091 7.035,-4.18 7.035,-4.18l-15.464,-0.391Z" style="fill:#181e26;fill-opacity:0.15;"/></g><path id="ear" d="M278.475,83.115c0,0 -2.376,-2.657 -4.271,-0.405c-1.702,2.023 0.748,3.893 0.772,5.782c0.02,1.544 -0.152,4.509 1.624,5.228c1.264,0.511 2.3,0.285 3.259,-0.886c3.284,-4.005 -1.384,-9.719 -1.384,-9.719Z" style="fill:#f4ba80;"/><path id="ear1" d="M328.462,83.115c0,0 2.376,-2.657 4.271,-0.405c1.703,2.023 -0.748,3.893 -0.772,5.782c-0.02,1.544 0.152,4.509 -1.624,5.228c-1.263,0.511 -2.299,0.285 -3.259,-0.886c-3.284,-4.005 1.384,-9.719 1.384,-9.719Z" style="fill:#f4ba80;"/><ellipse id="face" cx="303.441" cy="88.822" rx="25.44" ry="33.335" style="fill:#fdd1a5;"/><path d="M304.373,95.493c-0.15,-0.384 -0.52,-0.637 -0.932,-0.637c-0.412,0 -0.782,0.253 -0.932,0.637c-0.653,1.677 -1.504,3.858 -2.045,5.247c-0.12,0.308 -0.081,0.655 0.106,0.928c0.186,0.272 0.495,0.435 0.825,0.435c1.201,0 2.892,0 4.092,0c0.33,0 0.639,-0.163 0.825,-0.435c0.187,-0.273 0.227,-0.62 0.107,-0.928c-0.542,-1.389 -1.393,-3.57 -2.046,-5.247Z" style="fill:#f4ba80;"/><circle id="eye" cx="291.16" cy="89.208" r="4" style="fill:#444f61;"/><path id="brow" d="M294.918,78.415c-1.014,-0.479 -3.548,-0.893 -5.774,-0.382c-2.493,0.572 -4.694,2.59 -4.459,3.158c0.155,0.376 2.445,-1.052 5.019,-1.512c1.991,-0.355 4.205,0.07 5.061,0.284c1.049,0.262 1.108,-1.097 0.153,-1.548Z" style="fill:#ff7f65;"/><circle id="eye1" cx="315.722" cy="89.208" r="4" style="fill:#444f61;"/><path id="front-hair" d="M319.231,53.281c-7.64,-5.511 -27.818,-4.58 -35.703,5.291c-7.428,9.298 -5.142,24.45 -5.142,24.45c6.132,-4.54 13.929,-10.888 20.114,-18.195c12.755,2.901 24.51,9.07 30.003,18.244c0,0 5.987,-18.783 -9.272,-29.79Z" style="fill:#ff8c76;"/><path d="M293.404,107.003c0.753,3.741 5.543,6.778 10.037,6.778c4.494,0 9.284,-3.037 10.037,-6.778c-2.36,0.962 -17.915,0.964 -20.074,0Z" style="fill:#fff;"/><path id="brow1" d="M311.989,78.415c1.013,-0.479 3.547,-0.893 5.773,-0.382c2.493,0.572 4.694,2.59 4.459,3.158c-0.155,0.376 -2.445,-1.052 -5.019,-1.512c-1.991,-0.355 -4.205,0.07 -5.061,0.284c-1.049,0.262 -1.108,-1.097 -0.152,-1.548Z" style="fill:#ff7f65;"/></g><path d="M282.936,223.223l41.543,-0.012c0,0 14.071,16.446 14.698,32.162c0.596,14.925 -11.79,62.601 -11.79,62.601l-49.759,0.01c-2.607,-22.479 -8.571,-53.508 5.308,-94.761Z" style="fill:#cad2e0;"/><g><path id="arm1" d="M336.068,145.335c9.406,9.49 13.047,55.784 9.402,68.901c-3.563,12.819 -14.636,50.958 -14.636,50.958l-6.281,-0.338c2.268,-13.159 -0.8,-30.334 8.913,-53.929c0.2,-9.946 0.944,-41.791 -7.99,-51.274l10.592,-14.318Z" style="fill:#fdd1a5;"/><path d="M324.713,264.25c-2.063,1.742 -4.897,3.696 -5.89,6.46c-1.828,5.092 -4.906,9.324 -3.439,9.653c2.02,0.453 5.271,-7.471 5.99,-7.121c1.74,0.846 -4.735,8.517 -5.976,12.727c-0.633,2.148 7.792,-2.793 8.802,-4c0,0 6.349,-5.629 6.587,-16.778l-2.601,-0.964l-3.473,0.023Z" style="fill:#fdd1a5;"/></g><path d="M294.84,134.594l17.244,-0.087c19.428,0.409 32.672,12.622 32.256,34.503c-3.622,-1.818 -12.07,2.022 -12.635,6.731c-0.336,-0.84 -0.449,-0.961 -0.586,-2.991l-6.64,50.461c-23.827,0.903 -17.484,0.522 -41.543,0.012l-7.277,-56.581c-0.662,1.772 -2.657,4.231 -3.82,4.982c-0.737,-5.991 -4.41,-9.655 -9.62,-11.169c3.459,-13.123 13.374,-24.798 32.621,-25.861Z" style="fill:#cad2e0;"/><path d="M280.074,216.518c-0.037,-0.285 0.051,-0.573 0.241,-0.788c0.19,-0.216 0.463,-0.34 0.751,-0.34c6.491,0 38.808,0 45.304,0c0.287,0 0.561,0.124 0.751,0.34c0.19,0.216 0.277,0.504 0.24,0.789c-0.205,1.578 -0.573,4.407 -0.759,5.833c-0.064,0.498 -0.489,0.871 -0.991,0.871c-5.757,0 -38.035,-0.002 -43.795,-0.002c-0.503,0 -0.928,-0.374 -0.992,-0.873c-0.184,-1.426 -0.547,-4.254 -0.75,-5.83Z" style="fill:#69768c;"/><path d="M208.625,158.464c-2.069,-1.946 -7.018,-7.471 -10.105,-8.055c-5.687,-1.076 -10.675,-3.615 -10.776,-2.011c-0.139,2.211 8.778,4.313 8.53,5.132c-0.602,1.98 -9.793,-3.571 -14.45,-4.175c-2.375,-0.308 4.261,7.762 5.706,8.626c0,0 5.74,5.317 17.467,4.163l3.667,-0.76l-0.039,-2.92Z" style="fill:#fdd1a5;"/></g><g id="businessperson"><g><rect x="31.168" y="377.611" width="15.3" height="21.657" style="fill:#cad2e0;"/><path d="M25.295,400c-0.332,0 -0.642,-0.165 -0.828,-0.439c-0.186,-0.275 -0.224,-0.624 -0.1,-0.932c0.515,-1.289 1.309,-3.274 2.005,-5.015c0.874,-2.183 2.988,-3.614 5.338,-3.614l15.649,0c1.43,0 2.661,1.009 2.941,2.412c0.404,2.02 0.964,4.819 1.279,6.392c0.059,0.294 -0.017,0.598 -0.207,0.83c-0.19,0.232 -0.474,0.366 -0.774,0.366c-4.529,0 -20.371,0 -25.303,0Z" style="fill:#333e50;"/></g><g><rect x="64.771" y="377.611" width="15.3" height="21.657" style="fill:#cad2e0;"/><path d="M85.944,400c0.332,0 0.642,-0.165 0.828,-0.439c0.186,-0.275 0.224,-0.624 0.101,-0.932c-0.516,-1.289 -1.31,-3.274 -2.006,-5.015c-0.873,-2.183 -2.987,-3.614 -5.338,-3.614l-15.648,0c-1.43,0 -2.662,1.009 -2.942,2.412c-0.404,2.02 -0.964,4.819 -1.279,6.392c-0.058,0.294 0.018,0.598 0.208,0.83c0.19,0.232 0.473,0.366 0.773,0.366c4.529,0 20.371,0 25.303,0Z" style="fill:#333e50;"/></g><path d="M8.206,235.869c0,0 -2.344,4.78 -3.069,10.906c-0.439,3.711 0.437,8.181 2.193,10.985c3.257,5.197 5.906,8.91 7.868,1.903c1.962,-7.006 -1.43,-11.834 1.678,-12.821c1.54,-0.489 2.792,3.884 2.987,6.997c0.104,1.643 2.138,2.073 2.438,-3.194c0.102,-1.783 -0.094,-6.478 -0.978,-8.195c-1.841,-3.577 -6.414,-6.938 -6.414,-6.938l-6.703,0.357Z" style="fill:#fee3c8;"/><path d="M8.206,235.869c0,0 -2.344,4.78 -3.069,10.906c-0.439,3.711 0.437,8.181 2.193,10.985c3.257,5.197 5.906,8.91 7.868,1.903c1.962,-7.006 -1.43,-11.834 1.678,-12.821c1.54,-0.489 2.792,3.884 2.987,6.997c0.104,1.643 2.138,2.073 2.438,-3.194c0.102,-1.783 -0.094,-6.478 -0.978,-8.195c-1.841,-3.577 -6.414,-6.938 -6.414,-6.938l-6.703,0.357Z" style="fill:#fee3c8;"/><path d="M103.145,235.869c0,0 2.344,4.78 3.069,10.906c0.439,3.711 -0.437,8.181 -2.194,10.985c-3.256,5.197 -5.906,8.91 -7.868,1.903c-1.962,-7.006 1.43,-11.834 -1.678,-12.821c-1.539,-0.489 -2.791,3.884 -2.987,6.997c-0.103,1.643 -2.138,2.073 -2.438,-3.194c-0.101,-1.783 0.094,-6.478 0.978,-8.195c1.842,-3.577 6.415,-6.938 6.415,-6.938l6.703,0.357Z" style="fill:#fee3c8;"/><g><path d="M63.222,63.173l-15,0l-2,21.092l19,0l-2,-21.092Z" style="fill:#fee3c8;"/><clipPath id="_clip4"><path d="M63.222,63.173l-15,0l-2,21.092l19,0l-2,-21.092Z"/></clipPath><g clip-path="url(#_clip4)"><path d="M45.222,65.814c4.985,5.424 16.102,5.752 21.118,0.186l-10.618,-4.5l-10.5,4.314Z" style="fill:#181e26;fill-opacity:0.15;"/></g><g><path id="ear2" d="M80.079,27.397c0,0 2.007,-2.946 4.182,-0.963c1.953,1.782 -0.23,3.957 -0.007,5.833c0.183,1.534 0.744,4.451 -0.923,5.397c-1.185,0.672 -2.242,0.584 -3.347,-0.451c-3.781,-3.539 0.095,-9.816 0.095,-9.816Z" style="fill:#f9cc9f;"/><path id="ear3" d="M31.365,27.397c0,0 -2.007,-2.946 -4.181,-0.963c-1.953,1.782 0.23,3.957 0.006,5.833c-0.183,1.534 -0.743,4.451 0.923,5.397c1.186,0.672 2.242,0.584 3.348,-0.451c3.781,-3.539 -0.096,-9.816 -0.096,-9.816Z" style="fill:#f9cc9f;"/><path d="M55.984,0.003c20.551,0.278 25.096,15.034 25.096,33.331c0,8.911 -3.352,16.572 -7.028,22.994c-5.204,9.089 -13.315,10.21 -18.086,10.333l-0.225,0.005c-4.737,-0.094 -13.024,-1.105 -18.31,-10.338c-3.677,-6.422 -7.029,-14.083 -7.029,-22.994c0,-18.368 4.581,-33.169 25.339,-33.334l0.243,0.003Z" style="fill:#fee3c8;"/><path d="M55.71,58.317c-6.65,0.141 -11.455,-4.768 -10.819,-5.724c0.243,-0.365 5.38,4.593 10.837,4.484l0.013,0l0.013,0c5.457,0.109 10.594,-4.849 10.837,-4.484c0.636,0.956 -4.169,5.865 -10.819,5.724l-0.031,-0.001l-0.031,0.001Z" style="fill:#eb8560;"/><path d="M56.626,39.218c-0.162,-0.359 -0.519,-0.59 -0.912,-0.59c-0.394,0 -0.751,0.231 -0.912,0.59c-0.878,1.951 -2.183,4.851 -2.954,6.563c-0.139,0.31 -0.112,0.668 0.072,0.953c0.185,0.285 0.501,0.457 0.84,0.457c1.652,0 4.255,0 5.907,0c0.339,0 0.655,-0.172 0.84,-0.457c0.184,-0.285 0.211,-0.643 0.072,-0.953c-0.771,-1.712 -2.075,-4.612 -2.953,-6.563Z" style="fill:#f9cc9f;"/><circle id="eye2" cx="42.941" cy="34.033" r="4.5" style="fill:#333e50;"/><path id="brow2" d="M48.333,23.523c-0.985,-0.535 -3.584,-0.909 -5.823,-0.463c-2.509,0.5 -4.65,1.423 -4.549,2.029c0.046,0.279 3.196,-0.022 5.968,-0.009c2.03,0.009 3.984,0.47 4.191,0.289c0.642,-0.559 0.918,-1.463 0.213,-1.846Z" style="fill:#525f75;"/><circle id="eye3" cx="68.486" cy="34.033" r="4.5" style="fill:#333e50;"/><path id="brow3" d="M63.073,23.523c0.984,-0.535 3.584,-0.909 5.823,-0.463c2.509,0.5 4.649,1.423 4.549,2.029c-0.047,0.279 -3.197,-0.022 -5.968,-0.009c-2.03,0.009 -3.985,0.47 -4.192,0.289c-0.642,-0.559 -0.918,-1.463 -0.212,-1.846Z" style="fill:#525f75;"/></g></g><path d="M88.464,212.265l-65.446,0l-2,27.91l-16.435,0c0,0 -2,-95.036 -2,-132.909c0,-8.062 5.359,-15.14 13.118,-17.326c11.892,-3.327 29.171,-7.584 40.04,-7.675l0.256,0.003c10.883,0.155 27.985,4.371 39.784,7.672c7.759,2.186 13.119,9.264 13.119,17.326c0,37.873 -2,132.909 -2,132.909l-16.436,0l-2,-27.91Z" style="fill:#edf0f5;"/><path d="M23.057,230.393l-21.057,0l1.583,9.782l19.435,0l0.039,-9.782Z" style="fill:#cad2e0;"/><path d="M88.369,230.393l21.057,0l-1.583,9.781l-19.435,0l-0.039,-9.781Z" style="fill:#cad2e0;"/><path d="M20.418,131.369l5.014,80.896l-2.414,0l-2.6,-80.896Z" style="fill:#181e26;fill-opacity:0.15;"/><path d="M91.066,131.371l-5.016,80.894l2.416,0.002l2.6,-80.896Z" style="fill:#181e26;fill-opacity:0.15;"/><path d="M47.021,75.845l8.729,6.42l-7.269,12.455l-7.841,-10.721l6.381,-8.154Z" style="fill:#dde3ed;"/><path d="M64.479,75.845l-8.729,6.42l7.27,12.455l7.84,-10.721l-6.381,-8.154Z" style="fill:#dde3ed;"/><g><circle cx="55.741" cy="103.337" r="2" style="fill:#cad2e0;"/><circle cx="55.741" cy="127.337" r="2" style="fill:#cad2e0;"/><circle cx="55.741" cy="151.337" r="2" style="fill:#cad2e0;"/><circle cx="55.741" cy="175.337" r="2" style="fill:#cad2e0;"/><circle cx="55.741" cy="199.337" r="2" style="fill:#cad2e0;"/></g><g id="tie"><path d="M51.236,90l4.514,6.265l4.515,-6.265l-4.515,-7.735l-4.514,7.735Z" style="fill:#ff6243;"/><path d="M55.75,82.265l11,97.155l-11,10.845l-11,-10.845l11,-97.155Z" style="fill:#ff6243;"/></g><g><rect x="31.428" y="212.265" width="49.856" height="15.954" style="fill:#181e26;"/><path d="M55.317,212.265l-30,0l3,170.495l21,0l6,-170.495Z" style="fill:#181e26;"/><clipPath id="_clip5"><path d="M55.317,212.265l-30,0l3,170.495l21,0l6,-170.495Z"/></clipPath><g clip-path="url(#_clip5)"><path d="M43.943,212.265c0,0 -6.803,13.028 -18.383,13.808c-14.674,0.987 -1.71,-13.273 -1.71,-13.273l6.032,-6.305l14.061,5.77Z" style="fill:#333e50;"/></g><path d="M55.926,212.265l30,0l-3,170.495l-21,0l-6,-170.495Z" style="fill:#181e26;"/><clipPath id="_clip6"><path d="M55.926,212.265l30,0l-3,170.495l-21,0l-6,-170.495Z"/></clipPath><g clip-path="url(#_clip6)"><path d="M67.3,212.265c0,0 6.804,13.028 18.383,13.808c14.675,0.987 1.71,-13.273 1.71,-13.273l-6.031,-6.305l-14.062,5.77Z" style="fill:#333e50;"/></g></g></g><g><path d="M199,257c0,-0.552 -0.448,-1 -1,-1c-5.36,0 -30.64,0 -36,0c-0.552,0 -1,0.448 -1,1c0,4.355 0,21.645 0,26c0,0.552 0.448,1 1,1c5.36,0 30.64,0 36,0c0.552,0 1,-0.448 1,-1c0,-4.355 0,-21.645 0,-26Z" style="fill:#b9f6dd;"/><path d="M193.309,256l-5,0l-5,28l5,0l5,-28Z" style="fill:#8eedc6;"/><ellipse cx="186" cy="275" rx="10" ry="6" style="fill:#43e8a3;"/></g><g><g><path d="M199,313c0,-0.552 -0.448,-1 -1,-1c-5.36,0 -30.64,0 -36,0c-0.552,0 -1,0.448 -1,1c0,4.355 0,21.645 0,26c0,0.552 0.448,1 1,1c5.36,0 30.64,0 36,0c0.552,0 1,-0.448 1,-1c0,-4.355 0,-21.645 0,-26Z" style="fill:#b9f6dd;"/><path d="M193.309,312l-5,0l-5,28l5,0l5,-28Z" style="fill:#8eedc6;"/><ellipse cx="186" cy="331" rx="10" ry="6" style="fill:#43e8a3;"/></g><g><path d="M239,313c0,-0.552 -0.448,-1 -1,-1c-5.36,0 -30.64,0 -36,0c-0.552,0 -1,0.448 -1,1c0,4.355 0,21.645 0,26c0,0.552 0.448,1 1,1c5.36,0 30.64,0 36,0c0.552,0 1,-0.448 1,-1c0,-4.355 0,-21.645 0,-26Z" style="fill:#b9f6dd;"/><path d="M233.309,312l-5,0l-5,28l5,0l5,-28Z" style="fill:#8eedc6;"/><ellipse cx="226" cy="331" rx="10" ry="6" style="fill:#43e8a3;"/></g><g><path d="M159,313c0,-0.552 -0.448,-1 -1,-1c-5.36,0 -30.64,0 -36,0c-0.552,0 -1,0.448 -1,1c0,4.355 0,21.645 0,26c0,0.552 0.448,1 1,1c5.36,0 30.64,0 36,0c0.552,0 1,-0.448 1,-1c0,-4.355 0,-21.645 0,-26Z" style="fill:#b9f6dd;"/><path d="M153.309,312l-5,0l-5,28l5,0l5,-28Z" style="fill:#8eedc6;"/><ellipse cx="146" cy="331" rx="10" ry="6" style="fill:#43e8a3;"/></g></g><g><g><path d="M179,285c0,-0.552 -0.448,-1 -1,-1c-5.36,0 -30.64,0 -36,0c-0.552,0 -1,0.448 -1,1c0,4.355 0,21.645 0,26c0,0.552 0.448,1 1,1c5.36,0 30.64,0 36,0c0.552,0 1,-0.448 1,-1c0,-4.355 0,-21.645 0,-26Z" style="fill:#ffc7bc;"/><path d="M173.309,284l-5,0l-5,28l5,0l5,-28Z" style="fill:#ffa391;"/><ellipse cx="166" cy="303" rx="10" ry="6" style="fill:#ff7f65;"/></g><g><path d="M219,285c0,-0.552 -0.448,-1 -1,-1c-5.36,0 -30.64,0 -36,0c-0.552,0 -1,0.448 -1,1c0,4.355 0,21.645 0,26c0,0.552 0.448,1 1,1c5.36,0 30.64,0 36,0c0.552,0 1,-0.448 1,-1c0,-4.355 0,-21.645 0,-26Z" style="fill:#ffc7bc;"/><path d="M213.309,284l-5,0l-5,28l5,0l5,-28Z" style="fill:#ffa391;"/><ellipse cx="206" cy="303" rx="10" ry="6" style="fill:#ff7f65;"/></g></g></g></svg>