<?xml version="1.0" encoding="UTF-8" standalone="no"?><!DOCTYPE svg PUBLIC "-//W3C//DTD SVG 1.1//EN" "http://www.w3.org/Graphics/SVG/1.1/DTD/svg11.dtd"><svg width="100%" height="100%" viewBox="0 0 360 400" version="1.1" xmlns="http://www.w3.org/2000/svg" xmlns:xlink="http://www.w3.org/1999/xlink" xml:space="preserve" style="fill-rule:evenodd;clip-rule:evenodd;stroke-linejoin:round;stroke-miterlimit:1.41421;"><rect id="company-internal" x="0" y="0" width="360" height="400" style="fill:none;"/><clipPath id="_clip1"><rect x="0" y="0" width="360" height="400"/></clipPath><g clip-path="url(#_clip1)"><g id="board"><path d="M318,23c0,-1.656 -1.344,-3 -3,-3l-230,0c-1.656,0 -3,1.344 -3,3l0,118c0,1.656 1.344,3 3,3l230,0c1.656,0 3,-1.344 3,-3l0,-118Z" style="fill:#dde3ed;"/><g><rect x="115" y="54" width="44" height="56" style="fill:#fff;"/><circle cx="137" cy="57" r="1" style="fill:#181e26;"/><path d="M153.112,85.006l0.11,0.019l0.108,0.031l0.104,0.043l0.098,0.054l0.091,0.065l0.084,0.075l0.075,0.084l0.065,0.091l0.054,0.098l0.043,0.104l0.031,0.107l0.019,0.111l0.006,0.112l-0.006,0.112l-0.019,0.111l-0.031,0.107l-0.043,0.104l-0.054,0.098l-0.065,0.091l-0.075,0.084l-0.084,0.075l-0.091,0.065l-0.098,0.054l-0.104,0.043l-0.108,0.031l-0.11,0.019l-0.112,0.006l-32,0l-0.112,-0.006l-0.111,-0.019l-0.107,-0.031l-0.104,-0.043l-0.098,-0.054l-0.092,-0.065l-0.083,-0.075l-0.075,-0.084l-0.065,-0.091l-0.054,-0.098l-0.043,-0.104l-0.031,-0.107l-0.019,-0.111l-0.006,-0.112l0.006,-0.112l0.019,-0.111l0.031,-0.107l0.043,-0.104l0.054,-0.098l0.065,-0.091l0.075,-0.084l0.083,-0.075l0.092,-0.065l0.098,-0.054l0.104,-0.043l0.107,-0.031l0.111,-0.019l0.112,-0.006l32,0l0.112,0.006Z" style="fill:#1bc47e;"/><path d="M153.112,79.006l0.11,0.019l0.108,0.031l0.104,0.043l0.098,0.054l0.091,0.065l0.084,0.075l0.075,0.084l0.065,0.091l0.054,0.098l0.043,0.104l0.031,0.107l0.019,0.111l0.006,0.112l-0.006,0.112l-0.019,0.111l-0.031,0.107l-0.043,0.104l-0.054,0.098l-0.065,0.091l-0.075,0.084l-0.084,0.075l-0.091,0.065l-0.098,0.054l-0.104,0.043l-0.108,0.031l-0.11,0.019l-0.112,0.006l-32,0l-0.112,-0.006l-0.111,-0.019l-0.107,-0.031l-0.104,-0.043l-0.098,-0.054l-0.092,-0.065l-0.083,-0.075l-0.075,-0.084l-0.065,-0.091l-0.054,-0.098l-0.043,-0.104l-0.031,-0.107l-0.019,-0.111l-0.006,-0.112l0.006,-0.112l0.019,-0.111l0.031,-0.107l0.043,-0.104l0.054,-0.098l0.065,-0.091l0.075,-0.084l0.083,-0.075l0.092,-0.065l0.098,-0.054l0.104,-0.043l0.107,-0.031l0.111,-0.019l0.112,-0.006l32,0l0.112,0.006Z" style="fill:#1bc47e;"/><path d="M153.112,73.006l0.11,0.019l0.108,0.031l0.104,0.043l0.098,0.054l0.091,0.065l0.084,0.075l0.075,0.084l0.065,0.091l0.054,0.098l0.043,0.104l0.031,0.107l0.019,0.111l0.006,0.112l-0.006,0.112l-0.019,0.111l-0.031,0.107l-0.043,0.104l-0.054,0.098l-0.065,0.091l-0.075,0.084l-0.084,0.075l-0.091,0.065l-0.098,0.054l-0.104,0.043l-0.108,0.031l-0.11,0.019l-0.112,0.006l-32,0l-0.112,-0.006l-0.111,-0.019l-0.107,-0.031l-0.104,-0.043l-0.098,-0.054l-0.092,-0.065l-0.083,-0.075l-0.075,-0.084l-0.065,-0.091l-0.054,-0.098l-0.043,-0.104l-0.031,-0.107l-0.019,-0.111l-0.006,-0.112l0.006,-0.112l0.019,-0.111l0.031,-0.107l0.043,-0.104l0.054,-0.098l0.065,-0.091l0.075,-0.084l0.083,-0.075l0.092,-0.065l0.098,-0.054l0.104,-0.043l0.107,-0.031l0.111,-0.019l0.112,-0.006l32,0l0.112,0.006Z" style="fill:#1bc47e;"/><path d="M145.078,65.003l0.078,0.009l0.077,0.016l0.076,0.021l0.074,0.027l0.071,0.033l0.068,0.038l0.066,0.044l0.061,0.049l0.058,0.053l0.053,0.058l0.049,0.061l0.044,0.065l0.038,0.069l0.033,0.071l0.027,0.074l0.021,0.076l0.016,0.077l0.009,0.078l0.003,0.078l-0.003,0.078l-0.009,0.078l-0.016,0.077l-0.021,0.076l-0.027,0.074l-0.033,0.071l-0.038,0.068l-0.044,0.066l-0.049,0.061l-0.053,0.058l-0.058,0.053l-0.061,0.049l-0.066,0.044l-0.068,0.038l-0.071,0.033l-0.074,0.027l-0.076,0.021l-0.077,0.016l-0.078,0.009l-0.078,0.003l-16,0l-0.079,-0.003l-0.078,-0.009l-0.077,-0.016l-0.075,-0.021l-0.074,-0.027l-0.071,-0.033l-0.069,-0.038l-0.065,-0.044l-0.062,-0.049l-0.057,-0.053l-0.053,-0.058l-0.049,-0.061l-0.044,-0.066l-0.038,-0.068l-0.033,-0.071l-0.027,-0.074l-0.021,-0.076l-0.016,-0.077l-0.009,-0.078l-0.003,-0.078l0.003,-0.078l0.009,-0.078l0.016,-0.077l0.021,-0.076l0.027,-0.074l0.033,-0.071l0.038,-0.069l0.044,-0.065l0.049,-0.061l0.053,-0.058l0.057,-0.053l0.062,-0.049l0.065,-0.044l0.069,-0.038l0.071,-0.033l0.074,-0.027l0.075,-0.021l0.077,-0.016l0.078,-0.009l0.079,-0.003l16,0l0.078,0.003Z" style="fill:#1bc47e;"/></g><g><path d="M298.237,35.172l-18,0c-0.991,6.261 -0.331,12.262 2,18l18,0c-1.885,-6.089 -2.682,-12.099 -2,-18Z" style="fill:#6de8b5;"/><path d="M292.128,41l0.203,0.001l0.203,0.002l0.202,0.003l0.201,0.004l0.2,0.006l0.199,0.007l0.197,0.007l0.196,0.01l0.195,0.01l0.193,0.013l0.192,0.013l0.19,0.015l0.188,0.017l0.181,0.018l0.065,0.009l0.064,0.012l0.063,0.017l0.062,0.022l0.06,0.025l0.059,0.029l0.057,0.032l0.054,0.037l0.052,0.04l0.049,0.043l0.046,0.046l0.043,0.049l0.04,0.052l0.037,0.055l0.032,0.056l0.029,0.059l0.025,0.061l0.021,0.062l0.017,0.063l0.013,0.064l0.008,0.065l0.004,0.065l0,0.066l-0.004,0.065l-0.009,0.065l-0.012,0.064l-0.017,0.063l-0.022,0.062l-0.025,0.061l-0.029,0.058l-0.032,0.057l-0.037,0.054l-0.04,0.052l-0.043,0.049l-0.046,0.047l-0.049,0.043l-0.052,0.039l-0.055,0.037l-0.056,0.032l-0.059,0.029l-0.061,0.025l-0.062,0.021l-0.063,0.017l-0.064,0.013l-0.065,0.008l-0.065,0.005l-0.066,0l-0.065,-0.005l-0.171,-0.017l-0.169,-0.015l-0.171,-0.014l-0.175,-0.012l-0.177,-0.011l-0.18,-0.01l-0.181,-0.008l-0.184,-0.008l-0.186,-0.006l-0.188,-0.005l-0.19,-0.004l-0.191,-0.003l-0.192,-0.002l-0.194,-0.001l-0.195,-0.001l-0.196,0.001l-0.197,0.001l-0.197,0.003l-0.397,0.006l-0.399,0.009l-0.399,0.012l-0.398,0.013l-0.396,0.014l-0.394,0.016l-0.391,0.016l-0.766,0.033l-0.739,0.031l-0.358,0.014l-0.348,0.012l-0.338,0.011l-0.328,0.007l-0.314,0.005l-0.155,0.002l-0.15,0l-0.148,0l-0.143,-0.002l-0.141,-0.002l-0.138,-0.004l-0.134,-0.004l-0.13,-0.006l-0.128,-0.008l-0.124,-0.009l-0.122,-0.011l-0.119,-0.012l-0.116,-0.015l-0.101,-0.015l-0.064,-0.011l-0.064,-0.016l-0.062,-0.02l-0.061,-0.024l-0.059,-0.028l-0.057,-0.032l-0.055,-0.035l-0.053,-0.039l-0.05,-0.043l-0.047,-0.045l-0.044,-0.049l-0.04,-0.051l-0.038,-0.054l-0.033,-0.056l-0.03,-0.058l-0.026,-0.06l-0.022,-0.062l-0.018,-0.063l-0.014,-0.064l-0.01,-0.064l-0.005,-0.066l-0.001,-0.065l0.003,-0.065l0.007,-0.065l0.012,-0.065l0.016,-0.063l0.02,-0.063l0.024,-0.06l0.028,-0.06l0.032,-0.057l0.035,-0.055l0.039,-0.052l0.043,-0.05l0.045,-0.047l0.049,-0.044l0.051,-0.041l0.054,-0.037l0.056,-0.034l0.058,-0.03l0.06,-0.026l0.062,-0.022l0.062,-0.018l0.064,-0.014l0.065,-0.009l0.065,-0.006l0.066,-0.001l0.065,0.004l0.065,0.007l0.079,0.012l0.075,0.009l0.081,0.009l0.089,0.007l0.096,0.007l0.101,0.006l0.109,0.005l0.114,0.004l0.119,0.004l0.124,0.002l0.129,0.001l0.135,0l0.138,0l0.142,-0.001l0.299,-0.005l0.313,-0.008l0.327,-0.01l0.34,-0.012l0.352,-0.013l0.734,-0.031l0.767,-0.033l0.394,-0.017l0.399,-0.015l0.403,-0.015l0.406,-0.013l0.409,-0.012l0.41,-0.009l0.41,-0.007l0.205,-0.002l0.205,-0.002l0.205,-0.001l0.204,0.001Z" style="fill:#1bc47e;"/></g><g><path d="M236.647,47.751l-18,0c-0.991,6.262 -0.331,12.263 2,18l18,0c-1.885,-6.089 -2.681,-12.098 -2,-18Z" style="fill:#ffc7bc;"/><path d="M230.538,53.579l0.203,0.001l0.203,0.002l0.202,0.004l0.201,0.004l0.2,0.005l0.199,0.007l0.198,0.008l0.196,0.009l0.195,0.011l0.193,0.012l0.191,0.014l0.19,0.015l0.188,0.017l0.181,0.018l0.065,0.008l0.064,0.013l0.063,0.017l0.062,0.021l0.061,0.025l0.058,0.029l0.057,0.033l0.054,0.036l0.052,0.04l0.049,0.043l0.047,0.047l0.043,0.049l0.039,0.052l0.037,0.054l0.032,0.057l0.029,0.059l0.025,0.06l0.021,0.062l0.017,0.064l0.013,0.064l0.008,0.065l0.005,0.065l0,0.065l-0.005,0.066l-0.008,0.065l-0.013,0.064l-0.017,0.063l-0.021,0.062l-0.025,0.06l-0.029,0.059l-0.033,0.057l-0.037,0.054l-0.039,0.052l-0.044,0.049l-0.046,0.046l-0.049,0.043l-0.052,0.04l-0.055,0.036l-0.056,0.033l-0.059,0.029l-0.06,0.025l-0.062,0.021l-0.064,0.017l-0.064,0.013l-0.065,0.008l-0.065,0.004l-0.065,0l-0.066,-0.004l-0.171,-0.017l-0.168,-0.015l-0.172,-0.014l-0.175,-0.012l-0.176,-0.011l-0.181,-0.01l-0.181,-0.009l-0.184,-0.007l-0.186,-0.007l-0.188,-0.005l-0.19,-0.004l-0.191,-0.003l-0.192,-0.002l-0.194,-0.001l-0.195,0l-0.196,0l-0.197,0.002l-0.197,0.002l-0.397,0.007l-0.398,0.009l-0.399,0.011l-0.399,0.013l-0.396,0.015l-0.394,0.015l-0.391,0.016l-0.766,0.033l-0.738,0.032l-0.358,0.014l-0.349,0.012l-0.338,0.01l-0.327,0.008l-0.315,0.005l-0.155,0.001l-0.15,0.001l-0.147,-0.001l-0.144,-0.001l-0.141,-0.002l-0.137,-0.004l-0.135,-0.005l-0.13,-0.006l-0.127,-0.007l-0.125,-0.009l-0.122,-0.011l-0.118,-0.013l-0.117,-0.014l-0.101,-0.015l-0.064,-0.012l-0.064,-0.016l-0.062,-0.02l-0.061,-0.024l-0.059,-0.028l-0.057,-0.031l-0.055,-0.036l-0.053,-0.039l-0.05,-0.042l-0.047,-0.046l-0.044,-0.048l-0.04,-0.051l-0.037,-0.054l-0.034,-0.056l-0.03,-0.059l-0.026,-0.06l-0.022,-0.061l-0.018,-0.063l-0.014,-0.064l-0.01,-0.065l-0.005,-0.065l-0.001,-0.065l0.003,-0.066l0.008,-0.065l0.011,-0.064l0.016,-0.064l0.02,-0.062l0.024,-0.061l0.028,-0.059l0.032,-0.057l0.036,-0.055l0.038,-0.053l0.043,-0.05l0.045,-0.047l0.049,-0.044l0.051,-0.04l0.054,-0.038l0.056,-0.033l0.058,-0.03l0.06,-0.026l0.062,-0.022l0.063,-0.018l0.064,-0.014l0.064,-0.01l0.066,-0.005l0.065,-0.001l0.065,0.003l0.065,0.008l0.079,0.011l0.075,0.009l0.082,0.009l0.088,0.008l0.095,0.007l0.103,0.006l0.108,0.005l0.114,0.004l0.119,0.003l0.124,0.002l0.129,0.001l0.135,0.001l0.138,-0.001l0.142,-0.001l0.299,-0.005l0.313,-0.007l0.328,-0.01l0.34,-0.012l0.351,-0.014l0.734,-0.031l0.767,-0.033l0.394,-0.016l0.399,-0.016l0.403,-0.015l0.406,-0.013l0.409,-0.011l0.41,-0.01l0.41,-0.007l0.206,-0.002l0.205,-0.001l0.204,-0.001l0.204,0Z" style="fill:#f4421e;"/></g><g><path d="M270.16,35.172l-18,0c-0.99,6.261 -0.33,12.262 2,18l18,0c-1.884,-6.089 -2.681,-12.099 -2,-18Z" style="fill:#6de8b5;"/><path d="M264.052,40l0.203,0.001l0.203,0.002l0.202,0.003l0.2,0.004l0.201,0.006l0.198,0.007l0.198,0.007l0.196,0.01l0.195,0.01l0.193,0.013l0.191,0.013l0.191,0.015l0.188,0.017l0.18,0.018l0.065,0.009l0.064,0.012l0.064,0.017l0.062,0.022l0.06,0.025l0.059,0.029l0.056,0.032l0.055,0.037l0.052,0.04l0.049,0.043l0.046,0.046l0.043,0.049l0.04,0.052l0.036,0.055l0.033,0.057l0.029,0.058l0.025,0.061l0.021,0.062l0.017,0.063l0.012,0.064l0.009,0.065l0.004,0.065l0,0.066l-0.004,0.065l-0.009,0.065l-0.013,0.064l-0.017,0.063l-0.021,0.062l-0.025,0.061l-0.029,0.058l-0.033,0.057l-0.036,0.054l-0.04,0.052l-0.043,0.049l-0.047,0.047l-0.049,0.043l-0.052,0.039l-0.054,0.037l-0.057,0.032l-0.059,0.029l-0.06,0.025l-0.062,0.021l-0.063,0.017l-0.064,0.013l-0.065,0.008l-0.066,0.005l-0.065,0l-0.065,-0.005l-0.172,-0.017l-0.168,-0.015l-0.171,-0.014l-0.175,-0.012l-0.177,-0.011l-0.18,-0.01l-0.181,-0.008l-0.185,-0.008l-0.185,-0.006l-0.188,-0.005l-0.19,-0.004l-0.191,-0.003l-0.193,-0.002l-0.193,-0.001l-0.195,-0.001l-0.196,0.001l-0.197,0.001l-0.197,0.003l-0.398,0.006l-0.398,0.009l-0.399,0.012l-0.398,0.013l-0.397,0.014l-0.394,0.016l-0.389,0.016l-0.767,0.033l-0.739,0.031l-0.358,0.014l-0.348,0.012l-0.339,0.011l-0.327,0.008l-0.315,0.004l-0.154,0.002l-0.151,0l-0.147,0l-0.143,-0.002l-0.141,-0.002l-0.138,-0.004l-0.133,-0.004l-0.131,-0.006l-0.129,-0.008l-0.124,-0.009l-0.121,-0.011l-0.119,-0.012l-0.116,-0.015l-0.101,-0.015l-0.065,-0.011l-0.063,-0.016l-0.063,-0.02l-0.06,-0.024l-0.06,-0.028l-0.057,-0.032l-0.055,-0.035l-0.052,-0.039l-0.05,-0.043l-0.047,-0.045l-0.044,-0.049l-0.041,-0.051l-0.037,-0.054l-0.034,-0.056l-0.03,-0.058l-0.026,-0.06l-0.022,-0.062l-0.018,-0.063l-0.014,-0.064l-0.009,-0.064l-0.006,-0.066l-0.001,-0.065l0.004,-0.065l0.007,-0.065l0.012,-0.065l0.016,-0.063l0.02,-0.063l0.024,-0.06l0.028,-0.06l0.031,-0.057l0.036,-0.055l0.039,-0.052l0.042,-0.05l0.046,-0.047l0.048,-0.044l0.051,-0.041l0.054,-0.037l0.056,-0.034l0.058,-0.03l0.061,-0.026l0.061,-0.022l0.063,-0.018l0.064,-0.014l0.065,-0.009l0.065,-0.006l0.065,-0.001l0.066,0.004l0.065,0.007l0.078,0.012l0.075,0.009l0.081,0.009l0.09,0.007l0.095,0.007l0.102,0.006l0.109,0.005l0.114,0.004l0.118,0.004l0.125,0.002l0.129,0.001l0.134,0l0.138,0l0.142,-0.001l0.3,-0.005l0.313,-0.008l0.327,-0.01l0.34,-0.012l0.351,-0.013l0.735,-0.031l0.767,-0.033l0.394,-0.017l0.398,-0.015l0.403,-0.015l0.407,-0.013l0.409,-0.012l0.41,-0.009l0.41,-0.007l0.205,-0.002l0.205,-0.002l0.205,-0.001l0.204,0.001Z" style="fill:#1bc47e;"/><path d="M262.662,44.525l0.152,0.002l0.155,0.003l0.157,0.004l0.159,0.005l0.161,0.007l0.164,0.008l0.166,0.009l0.168,0.01l0.171,0.013l0.174,0.013l0.174,0.015l0.18,0.017l0.177,0.018l0.054,0.007l0.053,0.009l0.053,0.013l0.052,0.016l0.051,0.018l0.05,0.021l0.048,0.024l0.048,0.026l0.045,0.029l0.045,0.031l0.042,0.034l0.041,0.036l0.038,0.038l0.037,0.04l0.034,0.042l0.032,0.044l0.029,0.045l0.027,0.047l0.025,0.048l0.022,0.05l0.019,0.051l0.016,0.051l0.013,0.053l0.011,0.053l0.008,0.053l0.004,0.054l0.002,0.054l-0.001,0.055l-0.004,0.054l-0.007,0.053l-0.01,0.054l-0.012,0.052l-0.016,0.052l-0.018,0.051l-0.021,0.05l-0.024,0.049l-0.026,0.047l-0.029,0.046l-0.031,0.044l-0.034,0.043l-0.036,0.04l-0.038,0.039l-0.04,0.036l-0.042,0.034l-0.044,0.032l-0.045,0.03l-0.047,0.027l-0.048,0.024l-0.05,0.022l-0.051,0.019l-0.051,0.016l-0.053,0.014l-0.053,0.01l-0.054,0.008l-0.053,0.005l-0.055,0.002l-0.054,-0.001l-0.054,-0.004l-0.168,-0.018l-0.164,-0.015l-0.161,-0.014l-0.159,-0.012l-0.155,-0.011l-0.153,-0.009l-0.152,-0.009l-0.149,-0.007l-0.147,-0.006l-0.145,-0.005l-0.142,-0.004l-0.141,-0.003l-0.139,-0.001l-0.137,-0.001l-0.135,0l-0.133,0.001l-0.131,0.001l-0.129,0.003l-0.127,0.003l-0.126,0.004l-0.249,0.009l-0.242,0.012l-0.235,0.013l-0.232,0.015l-0.226,0.016l-0.222,0.016l-0.434,0.035l-0.421,0.032l-0.208,0.015l-0.205,0.013l-0.205,0.011l-0.202,0.009l-0.103,0.004l-0.102,0.002l-0.101,0.002l-0.103,0.001l-0.101,-0.001l-0.101,-0.001l-0.103,-0.002l-0.102,-0.004l-0.102,-0.005l-0.102,-0.006l-0.103,-0.008l-0.103,-0.009l-0.103,-0.011l-0.104,-0.012l-0.102,-0.014l-0.095,-0.015l-0.053,-0.009l-0.053,-0.013l-0.052,-0.015l-0.051,-0.018l-0.05,-0.021l-0.049,-0.023l-0.047,-0.026l-0.046,-0.029l-0.045,-0.031l-0.042,-0.033l-0.041,-0.036l-0.039,-0.038l-0.036,-0.039l-0.035,-0.042l-0.032,-0.044l-0.03,-0.045l-0.027,-0.047l-0.025,-0.048l-0.022,-0.049l-0.019,-0.051l-0.017,-0.052l-0.013,-0.052l-0.011,-0.053l-0.008,-0.054l-0.005,-0.054l-0.003,-0.054l0.001,-0.054l0.004,-0.054l0.007,-0.054l0.009,-0.053l0.012,-0.053l0.016,-0.052l0.018,-0.051l0.021,-0.05l0.023,-0.049l0.026,-0.047l0.029,-0.046l0.031,-0.044l0.033,-0.043l0.036,-0.041l0.037,-0.039l0.04,-0.036l0.042,-0.035l0.044,-0.032l0.045,-0.03l0.047,-0.027l0.048,-0.025l0.049,-0.022l0.051,-0.019l0.052,-0.016l0.052,-0.014l0.053,-0.011l0.054,-0.008l0.053,-0.005l0.055,-0.002l0.054,0l0.054,0.004l0.054,0.007l0.08,0.012l0.073,0.01l0.072,0.008l0.072,0.008l0.074,0.007l0.075,0.005l0.077,0.005l0.076,0.004l0.077,0.002l0.079,0.002l0.082,0.001l0.081,0.001l0.082,-0.001l0.085,-0.002l0.084,-0.002l0.086,-0.002l0.18,-0.008l0.183,-0.01l0.19,-0.012l0.195,-0.014l0.413,-0.032l0.437,-0.035l0.231,-0.017l0.236,-0.017l0.245,-0.016l0.252,-0.014l0.26,-0.012l0.267,-0.01l0.138,-0.004l0.139,-0.004l0.142,-0.003l0.143,-0.001l0.145,-0.001l0.148,0l0.15,0.001Z" style="fill:#1bc47e;"/></g></g><g><path d="M202,299c0,-0.53 -0.211,-1.039 -0.586,-1.414c-0.375,-0.375 -0.884,-0.586 -1.414,-0.586c-15.092,0 -110.908,0 -126,0c-0.53,0 -1.039,0.211 -1.414,0.586c-0.375,0.375 -0.586,0.884 -0.586,1.414c0,1.951 0,5.048 0,8c0,4.418 3.582,8 8,8c23.267,0 90.733,0 114,0c4.418,0 8,-3.582 8,-8c0,-2.952 0,-6.049 0,-8Z" style="fill:#333e50;"/><path d="M199.798,229.419c1.83,-15.865 -3.2,-31.756 -13.825,-43.678c-10.626,-11.923 -25.836,-18.741 -41.806,-18.741c-4.763,0 -9.571,0 -14.334,0c-15.97,0 -31.18,6.818 -41.806,18.741c-10.625,11.922 -15.655,27.813 -13.825,43.678c3.847,33.337 7.798,67.581 7.798,67.581l110,0c0,0 3.951,-34.244 7.798,-67.581Z" style="fill:#9da9bd;"/><circle cx="87" cy="390" r="10" style="fill:#cad2e0;"/><circle cx="187" cy="390" r="10" style="fill:#cad2e0;"/><circle cx="137" cy="390" r="10" style="fill:#cad2e0;"/><rect x="131" y="315" width="12" height="53" style="fill:#9da9bd;"/><path d="M187,371c0,-1.657 -1.343,-3 -3,-3c-14.729,0 -79.271,0 -94,0c-1.657,0 -3,1.343 -3,3c0,3.554 0,9 0,9l100,0c0,0 0,-5.446 0,-9Z" style="fill:#9da9bd;"/></g><g><rect x="219.737" y="295.5" width="10.181" height="3" style="fill:#cad2e0;"/><rect x="319.737" y="295.5" width="10.181" height="3" style="fill:#cad2e0;"/><path d="M321.766,188c0,-2.209 -1.791,-4 -4,-4c-15.381,0 -70.619,0 -86,0c-2.209,0 -4,1.791 -4,4c0,19.538 0,104 0,104l94,0c0,0 0,-84.462 0,-104Z" style="fill:#cad2e0;"/><path d="M315.766,388c0,3.314 -2.686,6 -6,6c-15.309,0 -55.691,0 -71,0c-3.314,0 -6,-2.686 -6,-6c0,-20.426 0,-86 0,-86l6,0c0,0 0,75.405 0,85c0,0.552 0.448,1 1,1c7.965,0 61.034,0 69,0c0.552,0 1,-0.448 1,-1c0,-9.595 0,-85 0,-85l6,0c0,0 0,65.574 0,86Z" style="fill:#cad2e0;"/><path d="M224.766,295c0,-0.796 0.316,-1.559 0.879,-2.121c0.562,-0.563 1.325,-0.879 2.121,-0.879c14.729,0 79.271,0 94,0c0.796,0 1.559,0.316 2.121,0.879c0.563,0.562 0.879,1.325 0.879,2.121c0,1.265 0,2.735 0,4c0,0.796 -0.316,1.559 -0.879,2.121c-0.562,0.563 -1.325,0.879 -2.121,0.879c-14.729,0 -79.271,0 -94,0c-0.796,0 -1.559,-0.316 -2.121,-0.879c-0.563,-0.562 -0.879,-1.325 -0.879,-2.121c0,-1.265 0,-2.735 0,-4Z" style="fill:#525f75;"/><path d="M215.766,274c3.314,0 6,2.686 6,6c0,21.245 0,92.755 0,114c0,3.314 -2.686,6 -6,6c0,0 0,0 0,0c-3.314,0 -6,-2.686 -6,-6c0,-21.245 0,-92.755 0,-114c0,-3.314 2.686,-6 6,-6c0,0 0,0 0,0Z" style="fill:#525f75;"/><path d="M333.766,274c3.314,0 6,2.686 6,6c0,21.245 0,92.755 0,114c0,3.314 -2.686,6 -6,6c0,0 0,0 0,0c-3.314,0 -6,-2.686 -6,-6c0,-21.245 0,-92.755 0,-114c0,-3.314 2.686,-6 6,-6c0,0 0,0 0,0Z" style="fill:#525f75;"/></g><g><g id="bottom"><path d="M305.383,269.244l1,22.695l-63.541,0l1,-22.707l61.541,0.012Z" style="fill:#333e50;"/><g><path d="M268.59,384l-20,0c0,0 0,1 0,2c0,0.53 0.211,1.039 0.586,1.414c0.375,0.375 0.884,0.586 1.414,0.586c3.832,0 12.168,0 16,0c0.53,0 1.039,-0.211 1.414,-0.586c0.375,-0.375 0.586,-0.884 0.586,-1.414c0,-1 0,-2 0,-2Z" style="fill:#edf0f5;"/><path d="M265.59,379l-14,0l-3,5c6.979,1.333 13.61,1.181 20,0l-3,-5Z" style="fill:#20d98c;"/><rect x="251.59" y="371" width="14" height="8" style="fill:#20d98c;"/><path d="M261.954,379.501l0.035,0.003l0.036,0.006l0.034,0.008l0.034,0.011l0.033,0.013l0.033,0.016l0.03,0.018l0.03,0.02l0.028,0.022l0.027,0.024l0.024,0.025l0.023,0.028l0.021,0.029l0.018,0.03l0.017,0.032l0.014,0.033l0.012,0.034l0.009,0.034l0.007,0.035l0.004,0.036l0.002,0.035l-0.001,0.036l-0.003,0.035l-0.006,0.036l-0.009,0.034l-0.01,0.034l-0.014,0.034l-0.015,0.032l-0.018,0.031l-0.02,0.029l-0.022,0.028l-0.024,0.027l-0.026,0.024l-0.027,0.023l-0.029,0.021l-0.031,0.019l-0.031,0.016l-0.033,0.014l-0.09,0.035l-0.095,0.035l-0.096,0.034l-0.096,0.033l-0.097,0.031l-0.099,0.031l-0.099,0.029l-0.1,0.028l-0.101,0.027l-0.101,0.026l-0.102,0.024l-0.104,0.024l-0.104,0.022l-0.104,0.022l-0.106,0.02l-0.106,0.018l-0.106,0.018l-0.107,0.017l-0.107,0.015l-0.109,0.015l-0.108,0.013l-0.11,0.012l-0.11,0.011l-0.109,0.01l-0.111,0.009l-0.111,0.007l-0.111,0.007l-0.112,0.005l-0.112,0.004l-0.112,0.003l-0.112,0.002l-0.113,0.001l-0.113,0l-0.113,-0.002l-0.113,-0.003l-0.113,-0.003l-0.114,-0.005l-0.114,-0.006l-0.113,-0.007l-0.114,-0.009l-0.112,-0.009l-0.114,-0.011l-0.114,-0.011l-0.113,-0.013l-0.113,-0.014l-0.113,-0.015l-0.114,-0.017l-0.113,-0.017l-0.112,-0.019l-0.112,-0.02l-0.112,-0.021l-0.112,-0.022l-0.112,-0.023l-0.111,-0.025l-0.11,-0.025l-0.11,-0.027l-0.111,-0.028l-0.109,-0.03l-0.109,-0.03l-0.108,-0.031l-0.108,-0.033l-0.108,-0.034l-0.107,-0.036l-0.103,-0.035l-0.033,-0.013l-0.033,-0.016l-0.031,-0.017l-0.03,-0.02l-0.028,-0.021l-0.027,-0.024l-0.025,-0.026l-0.023,-0.027l-0.021,-0.029l-0.019,-0.03l-0.017,-0.031l-0.014,-0.033l-0.012,-0.034l-0.01,-0.034l-0.007,-0.035l-0.005,-0.035l-0.002,-0.036l0.001,-0.036l0.003,-0.035l0.005,-0.035l0.008,-0.035l0.01,-0.034l0.013,-0.034l0.015,-0.032l0.018,-0.031l0.02,-0.03l0.021,-0.028l0.024,-0.027l0.025,-0.025l0.028,-0.023l0.029,-0.021l0.03,-0.019l0.031,-0.017l0.033,-0.014l0.034,-0.012l0.034,-0.01l0.035,-0.007l0.035,-0.005l0.036,-0.002l0.036,0l0.035,0.003l0.035,0.006l0.035,0.008l0.034,0.01l0.097,0.034l0.096,0.031l0.095,0.031l0.097,0.029l0.098,0.028l0.098,0.028l0.098,0.026l0.099,0.025l0.1,0.025l0.1,0.023l0.1,0.022l0.102,0.021l0.101,0.02l0.101,0.019l0.103,0.018l0.102,0.017l0.103,0.016l0.103,0.015l0.103,0.014l0.102,0.013l0.104,0.011l0.103,0.011l0.104,0.01l0.103,0.008l0.104,0.008l0.104,0.006l0.103,0.006l0.104,0.004l0.104,0.004l0.103,0.002l0.103,0.002l0.102,0l0.102,-0.001l0.103,-0.002l0.102,-0.002l0.102,-0.004l0.101,-0.005l0.101,-0.006l0.101,-0.007l0.1,-0.008l0.1,-0.009l0.099,-0.01l0.098,-0.01l0.098,-0.012l0.098,-0.013l0.096,-0.014l0.096,-0.015l0.095,-0.016l0.096,-0.017l0.093,-0.018l0.093,-0.019l0.092,-0.019l0.092,-0.021l0.09,-0.022l0.089,-0.023l0.089,-0.023l0.087,-0.025l0.088,-0.025l0.084,-0.027l0.085,-0.027l0.084,-0.029l0.081,-0.029l0.081,-0.03l0.084,-0.032l0.034,-0.012l0.034,-0.009l0.035,-0.007l0.035,-0.004l0.036,-0.002l0.036,0.001Z" style="fill:#0e8754;"/><path d="M261.954,377.501l0.035,0.003l0.036,0.006l0.034,0.008l0.034,0.011l0.033,0.013l0.033,0.016l0.03,0.018l0.03,0.02l0.028,0.022l0.027,0.024l0.024,0.025l0.023,0.028l0.021,0.029l0.018,0.03l0.017,0.032l0.014,0.033l0.012,0.034l0.009,0.034l0.007,0.035l0.004,0.036l0.002,0.035l-0.001,0.036l-0.003,0.035l-0.006,0.036l-0.009,0.034l-0.01,0.034l-0.014,0.034l-0.015,0.032l-0.018,0.031l-0.02,0.029l-0.022,0.028l-0.024,0.027l-0.026,0.024l-0.027,0.023l-0.029,0.021l-0.031,0.019l-0.031,0.016l-0.033,0.014l-0.09,0.035l-0.095,0.035l-0.096,0.034l-0.096,0.033l-0.097,0.031l-0.099,0.031l-0.099,0.029l-0.1,0.028l-0.101,0.027l-0.101,0.026l-0.102,0.025l-0.104,0.023l-0.104,0.022l-0.104,0.022l-0.106,0.02l-0.106,0.018l-0.105,0.018l-0.108,0.017l-0.108,0.015l-0.108,0.015l-0.108,0.013l-0.11,0.012l-0.11,0.011l-0.109,0.01l-0.111,0.009l-0.111,0.007l-0.111,0.007l-0.112,0.005l-0.112,0.004l-0.112,0.003l-0.112,0.002l-0.113,0.001l-0.113,0l-0.113,-0.002l-0.113,-0.003l-0.113,-0.003l-0.114,-0.005l-0.113,-0.006l-0.114,-0.007l-0.114,-0.009l-0.112,-0.009l-0.114,-0.011l-0.114,-0.011l-0.113,-0.013l-0.113,-0.014l-0.113,-0.015l-0.114,-0.017l-0.113,-0.017l-0.112,-0.019l-0.112,-0.02l-0.112,-0.021l-0.112,-0.022l-0.112,-0.023l-0.111,-0.025l-0.11,-0.025l-0.11,-0.027l-0.111,-0.028l-0.109,-0.03l-0.109,-0.03l-0.108,-0.031l-0.108,-0.033l-0.108,-0.034l-0.107,-0.036l-0.103,-0.035l-0.033,-0.013l-0.033,-0.016l-0.031,-0.017l-0.03,-0.02l-0.028,-0.021l-0.027,-0.024l-0.025,-0.026l-0.023,-0.027l-0.021,-0.029l-0.019,-0.03l-0.017,-0.031l-0.014,-0.033l-0.012,-0.034l-0.01,-0.034l-0.007,-0.035l-0.005,-0.035l-0.002,-0.036l0.001,-0.036l0.003,-0.035l0.005,-0.035l0.008,-0.035l0.01,-0.034l0.013,-0.034l0.015,-0.032l0.018,-0.031l0.02,-0.03l0.021,-0.028l0.024,-0.027l0.025,-0.025l0.028,-0.023l0.029,-0.021l0.03,-0.019l0.031,-0.017l0.033,-0.014l0.034,-0.012l0.034,-0.01l0.035,-0.007l0.035,-0.005l0.036,-0.002l0.036,0l0.035,0.003l0.035,0.006l0.035,0.008l0.034,0.01l0.097,0.034l0.096,0.031l0.095,0.031l0.097,0.029l0.098,0.028l0.098,0.028l0.098,0.026l0.099,0.025l0.1,0.025l0.1,0.023l0.1,0.022l0.102,0.021l0.101,0.02l0.101,0.019l0.103,0.018l0.102,0.017l0.103,0.016l0.103,0.015l0.103,0.014l0.102,0.013l0.104,0.011l0.104,0.011l0.103,0.01l0.103,0.008l0.104,0.008l0.103,0.006l0.104,0.006l0.104,0.004l0.104,0.004l0.103,0.002l0.103,0.002l0.102,0l0.102,-0.001l0.103,-0.002l0.102,-0.002l0.102,-0.004l0.101,-0.005l0.101,-0.006l0.101,-0.007l0.1,-0.008l0.1,-0.009l0.099,-0.01l0.098,-0.01l0.098,-0.012l0.098,-0.013l0.096,-0.014l0.096,-0.015l0.095,-0.016l0.096,-0.017l0.093,-0.018l0.093,-0.019l0.093,-0.019l0.091,-0.021l0.089,-0.022l0.09,-0.023l0.089,-0.023l0.087,-0.025l0.088,-0.025l0.084,-0.027l0.085,-0.027l0.084,-0.029l0.081,-0.029l0.081,-0.03l0.084,-0.032l0.034,-0.012l0.034,-0.009l0.035,-0.007l0.035,-0.004l0.036,-0.002l0.036,0.001Z" style="fill:#0e8754;"/><path d="M261.955,375.501l0.035,0.003l0.035,0.006l0.035,0.009l0.034,0.011l0.033,0.013l0.032,0.015l0.031,0.018l0.03,0.02l0.028,0.022l0.026,0.024l0.025,0.026l0.023,0.028l0.02,0.029l0.019,0.03l0.016,0.032l0.014,0.033l0.012,0.034l0.009,0.034l0.007,0.035l0.004,0.036l0.002,0.035l-0.001,0.036l-0.003,0.035l-0.006,0.036l-0.009,0.034l-0.011,0.034l-0.013,0.033l-0.016,0.033l-0.017,0.03l-0.02,0.03l-0.023,0.028l-0.024,0.026l-0.025,0.025l-0.028,0.023l-0.029,0.021l-0.03,0.018l-0.032,0.016l-0.033,0.014l-0.09,0.035l-0.094,0.035l-0.095,0.034l-0.097,0.033l-0.098,0.032l-0.098,0.03l-0.099,0.029l-0.1,0.028l-0.101,0.027l-0.101,0.026l-0.102,0.025l-0.104,0.023l-0.104,0.022l-0.104,0.022l-0.106,0.02l-0.106,0.018l-0.105,0.018l-0.108,0.017l-0.108,0.015l-0.108,0.015l-0.108,0.013l-0.109,0.012l-0.111,0.011l-0.109,0.01l-0.111,0.009l-0.111,0.007l-0.111,0.007l-0.112,0.005l-0.112,0.004l-0.112,0.003l-0.112,0.002l-0.113,0.001l-0.113,0l-0.113,-0.002l-0.113,-0.003l-0.113,-0.003l-0.114,-0.005l-0.113,-0.006l-0.114,-0.007l-0.114,-0.009l-0.112,-0.009l-0.114,-0.011l-0.114,-0.011l-0.113,-0.013l-0.113,-0.014l-0.113,-0.015l-0.114,-0.017l-0.113,-0.017l-0.112,-0.019l-0.112,-0.02l-0.112,-0.021l-0.112,-0.022l-0.112,-0.023l-0.111,-0.025l-0.11,-0.025l-0.11,-0.027l-0.111,-0.028l-0.109,-0.03l-0.109,-0.03l-0.108,-0.031l-0.108,-0.033l-0.108,-0.034l-0.106,-0.036l-0.103,-0.035l-0.034,-0.013l-0.032,-0.015l-0.031,-0.017l-0.03,-0.02l-0.028,-0.022l-0.027,-0.023l-0.025,-0.026l-0.023,-0.027l-0.021,-0.029l-0.019,-0.03l-0.017,-0.032l-0.015,-0.032l-0.012,-0.034l-0.01,-0.034l-0.007,-0.035l-0.005,-0.035l-0.002,-0.036l0.001,-0.036l0.002,-0.035l0.006,-0.036l0.008,-0.034l0.01,-0.034l0.013,-0.034l0.015,-0.032l0.018,-0.031l0.019,-0.03l0.022,-0.028l0.023,-0.027l0.026,-0.025l0.027,-0.023l0.029,-0.021l0.03,-0.019l0.032,-0.017l0.032,-0.015l0.034,-0.012l0.034,-0.01l0.035,-0.007l0.035,-0.005l0.036,-0.002l0.036,0.001l0.035,0.002l0.036,0.006l0.034,0.008l0.035,0.01l0.097,0.034l0.096,0.031l0.095,0.031l0.097,0.029l0.098,0.028l0.098,0.028l0.098,0.026l0.099,0.025l0.1,0.025l0.1,0.023l0.1,0.022l0.102,0.021l0.101,0.02l0.101,0.019l0.103,0.018l0.102,0.017l0.103,0.016l0.103,0.015l0.103,0.014l0.102,0.013l0.104,0.011l0.104,0.011l0.103,0.01l0.103,0.008l0.104,0.008l0.103,0.006l0.104,0.006l0.104,0.004l0.104,0.004l0.103,0.002l0.103,0.002l0.102,0l0.102,-0.001l0.103,-0.002l0.102,-0.002l0.102,-0.004l0.101,-0.005l0.101,-0.006l0.101,-0.007l0.1,-0.008l0.1,-0.009l0.099,-0.01l0.098,-0.01l0.098,-0.012l0.098,-0.013l0.096,-0.014l0.096,-0.015l0.095,-0.016l0.096,-0.017l0.093,-0.018l0.093,-0.019l0.093,-0.019l0.091,-0.021l0.089,-0.022l0.09,-0.023l0.089,-0.023l0.087,-0.025l0.088,-0.025l0.084,-0.027l0.085,-0.027l0.083,-0.028l0.082,-0.03l0.082,-0.03l0.084,-0.032l0.033,-0.012l0.035,-0.009l0.035,-0.007l0.035,-0.004l0.036,-0.002l0.036,0.001Z" style="fill:#0e8754;"/></g><path d="M270.054,289.565c0,-2.424 -1.054,-4.749 -2.929,-6.464c-1.876,-1.714 -4.419,-2.677 -7.071,-2.677c-0.494,0 -2.99,0 -3.484,0c-2.652,0 -5.195,0.963 -7.071,2.677c-1.875,1.715 -2.762,4.046 -2.929,6.464c-1.533,22.291 -0.797,61.161 2.828,86.125l18.86,0c-0.098,-13.506 1.796,-63.23 1.796,-86.125Z" style="fill:#444f61;"/><g><path d="M280.646,384l20,0c0,0 0,1 0,2c0,0.53 -0.21,1.039 -0.585,1.414c-0.375,0.375 -0.884,0.586 -1.415,0.586c-3.832,0 -12.168,0 -16,0c-0.53,0 -1.039,-0.211 -1.414,-0.586c-0.375,-0.375 -0.586,-0.884 -0.586,-1.414c0,-1 0,-2 0,-2Z" style="fill:#edf0f5;"/><path d="M283.646,379l14,0l3,5c-6.978,1.333 -13.609,1.181 -20,0l3,-5Z" style="fill:#20d98c;"/><rect x="283.646" y="371" width="14" height="8" style="fill:#20d98c;"/><path d="M287.354,379.502l0.036,0.004l0.035,0.007l0.034,0.009l0.034,0.012l0.083,0.032l0.081,0.03l0.082,0.029l0.084,0.029l0.085,0.027l0.085,0.027l0.086,0.025l0.087,0.025l0.089,0.023l0.09,0.023l0.09,0.022l0.092,0.021l0.092,0.019l0.093,0.019l0.093,0.018l0.095,0.017l0.095,0.016l0.096,0.015l0.097,0.014l0.097,0.013l0.098,0.012l0.099,0.01l0.099,0.01l0.1,0.009l0.1,0.008l0.1,0.007l0.101,0.006l0.101,0.005l0.103,0.004l0.101,0.002l0.103,0.002l0.102,0.001l0.103,0l0.103,-0.002l0.103,-0.002l0.104,-0.004l0.104,-0.004l0.102,-0.006l0.104,-0.006l0.104,-0.008l0.103,-0.008l0.104,-0.01l0.103,-0.011l0.104,-0.011l0.103,-0.013l0.103,-0.014l0.103,-0.015l0.103,-0.016l0.102,-0.017l0.102,-0.018l0.101,-0.019l0.102,-0.02l0.101,-0.021l0.101,-0.022l0.1,-0.023l0.099,-0.025l0.099,-0.025l0.099,-0.026l0.098,-0.028l0.098,-0.028l0.097,-0.029l0.095,-0.031l0.096,-0.031l0.096,-0.034l0.035,-0.01l0.034,-0.008l0.036,-0.006l0.035,-0.003l0.036,0l0.035,0.002l0.036,0.005l0.035,0.007l0.034,0.01l0.034,0.012l0.032,0.014l0.032,0.017l0.03,0.019l0.029,0.021l0.027,0.023l0.026,0.025l0.023,0.027l0.022,0.028l0.02,0.03l0.017,0.031l0.015,0.032l0.013,0.034l0.011,0.034l0.008,0.035l0.005,0.035l0.003,0.035l0,0.036l-0.002,0.036l-0.004,0.035l-0.008,0.035l-0.009,0.034l-0.012,0.034l-0.015,0.033l-0.017,0.031l-0.018,0.03l-0.022,0.029l-0.023,0.027l-0.025,0.026l-0.026,0.024l-0.029,0.021l-0.029,0.02l-0.032,0.017l-0.032,0.016l-0.033,0.013l-0.104,0.035l-0.107,0.036l-0.107,0.034l-0.108,0.033l-0.108,0.031l-0.11,0.031l-0.109,0.029l-0.11,0.028l-0.11,0.027l-0.111,0.025l-0.111,0.025l-0.111,0.023l-0.112,0.022l-0.112,0.021l-0.113,0.02l-0.112,0.019l-0.113,0.017l-0.113,0.017l-0.113,0.015l-0.114,0.014l-0.113,0.013l-0.114,0.011l-0.113,0.011l-0.113,0.009l-0.114,0.009l-0.113,0.007l-0.114,0.006l-0.113,0.005l-0.114,0.003l-0.113,0.003l-0.113,0.002l-0.113,0l-0.113,-0.001l-0.112,-0.002l-0.112,-0.003l-0.112,-0.004l-0.111,-0.005l-0.112,-0.007l-0.111,-0.007l-0.11,-0.009l-0.11,-0.01l-0.11,-0.011l-0.109,-0.012l-0.109,-0.013l-0.108,-0.015l-0.108,-0.015l-0.106,-0.017l-0.107,-0.018l-0.106,-0.018l-0.105,-0.02l-0.105,-0.022l-0.104,-0.022l-0.103,-0.024l-0.102,-0.024l-0.102,-0.026l-0.1,-0.027l-0.101,-0.028l-0.099,-0.029l-0.098,-0.031l-0.097,-0.031l-0.097,-0.033l-0.096,-0.034l-0.094,-0.035l-0.09,-0.035l-0.033,-0.014l-0.032,-0.016l-0.03,-0.019l-0.029,-0.021l-0.028,-0.023l-0.025,-0.024l-0.024,-0.027l-0.022,-0.028l-0.02,-0.029l-0.018,-0.031l-0.016,-0.032l-0.013,-0.034l-0.011,-0.034l-0.008,-0.034l-0.006,-0.036l-0.003,-0.035l-0.001,-0.036l0.002,-0.035l0.004,-0.036l0.007,-0.035l0.009,-0.034l0.012,-0.034l0.014,-0.033l0.016,-0.032l0.019,-0.03l0.021,-0.029l0.022,-0.028l0.025,-0.025l0.027,-0.024l0.028,-0.022l0.029,-0.02l0.031,-0.018l0.032,-0.016l0.033,-0.013l0.034,-0.011l0.035,-0.008l0.035,-0.006l0.036,-0.003l0.036,-0.001l0.035,0.002Z" style="fill:#0e8754;"/><path d="M287.354,377.502l0.036,0.004l0.035,0.007l0.034,0.009l0.034,0.012l0.083,0.032l0.081,0.03l0.082,0.029l0.084,0.029l0.085,0.027l0.085,0.027l0.086,0.025l0.087,0.025l0.089,0.023l0.09,0.023l0.09,0.022l0.091,0.021l0.093,0.019l0.093,0.019l0.093,0.018l0.095,0.017l0.096,0.016l0.095,0.015l0.097,0.014l0.097,0.013l0.098,0.012l0.099,0.01l0.099,0.01l0.1,0.009l0.1,0.008l0.1,0.007l0.101,0.006l0.101,0.005l0.103,0.004l0.101,0.002l0.103,0.002l0.102,0.001l0.103,0l0.103,-0.002l0.103,-0.002l0.104,-0.004l0.104,-0.004l0.103,-0.006l0.103,-0.006l0.104,-0.008l0.103,-0.008l0.104,-0.01l0.103,-0.011l0.104,-0.011l0.103,-0.013l0.103,-0.014l0.103,-0.015l0.103,-0.016l0.102,-0.017l0.102,-0.018l0.101,-0.019l0.102,-0.02l0.101,-0.021l0.101,-0.022l0.1,-0.023l0.099,-0.025l0.099,-0.025l0.099,-0.026l0.098,-0.028l0.098,-0.028l0.097,-0.029l0.095,-0.031l0.096,-0.031l0.096,-0.034l0.035,-0.01l0.034,-0.008l0.036,-0.006l0.035,-0.003l0.036,0l0.035,0.002l0.036,0.005l0.035,0.007l0.034,0.01l0.034,0.012l0.032,0.014l0.032,0.017l0.03,0.019l0.029,0.021l0.027,0.023l0.026,0.025l0.023,0.027l0.022,0.028l0.02,0.03l0.017,0.031l0.015,0.032l0.013,0.034l0.011,0.034l0.008,0.035l0.005,0.035l0.003,0.035l0,0.036l-0.002,0.036l-0.004,0.035l-0.008,0.035l-0.009,0.034l-0.012,0.034l-0.015,0.033l-0.017,0.031l-0.018,0.03l-0.022,0.029l-0.023,0.027l-0.025,0.026l-0.026,0.024l-0.029,0.021l-0.029,0.02l-0.032,0.017l-0.032,0.016l-0.033,0.013l-0.104,0.035l-0.107,0.036l-0.107,0.034l-0.108,0.033l-0.108,0.031l-0.11,0.031l-0.109,0.029l-0.11,0.028l-0.11,0.027l-0.111,0.025l-0.111,0.025l-0.111,0.023l-0.112,0.022l-0.112,0.021l-0.113,0.02l-0.112,0.019l-0.113,0.017l-0.113,0.017l-0.113,0.015l-0.114,0.014l-0.113,0.013l-0.113,0.011l-0.114,0.011l-0.113,0.009l-0.114,0.009l-0.114,0.007l-0.113,0.006l-0.113,0.005l-0.114,0.003l-0.113,0.003l-0.113,0.002l-0.113,0l-0.113,-0.001l-0.112,-0.002l-0.112,-0.003l-0.112,-0.004l-0.111,-0.005l-0.112,-0.007l-0.111,-0.007l-0.11,-0.009l-0.11,-0.01l-0.11,-0.011l-0.109,-0.012l-0.109,-0.013l-0.108,-0.015l-0.108,-0.015l-0.107,-0.017l-0.106,-0.018l-0.106,-0.018l-0.105,-0.02l-0.105,-0.022l-0.103,-0.022l-0.104,-0.023l-0.103,-0.025l-0.101,-0.026l-0.1,-0.027l-0.101,-0.028l-0.099,-0.029l-0.098,-0.031l-0.097,-0.031l-0.097,-0.033l-0.096,-0.034l-0.094,-0.035l-0.09,-0.035l-0.033,-0.014l-0.032,-0.016l-0.03,-0.019l-0.029,-0.021l-0.028,-0.023l-0.025,-0.024l-0.024,-0.027l-0.022,-0.028l-0.02,-0.029l-0.018,-0.031l-0.016,-0.032l-0.013,-0.034l-0.011,-0.034l-0.008,-0.034l-0.006,-0.036l-0.003,-0.035l-0.001,-0.036l0.002,-0.035l0.004,-0.036l0.007,-0.035l0.009,-0.034l0.012,-0.034l0.014,-0.033l0.016,-0.032l0.019,-0.03l0.021,-0.029l0.022,-0.028l0.025,-0.025l0.027,-0.024l0.028,-0.022l0.029,-0.02l0.031,-0.018l0.032,-0.016l0.033,-0.013l0.034,-0.011l0.035,-0.008l0.035,-0.006l0.036,-0.003l0.036,-0.001l0.035,0.002Z" style="fill:#0e8754;"/><path d="M287.353,375.502l0.036,0.004l0.035,0.007l0.034,0.009l0.034,0.012l0.084,0.032l0.081,0.03l0.082,0.03l0.084,0.028l0.084,0.027l0.086,0.027l0.086,0.025l0.087,0.025l0.089,0.023l0.09,0.023l0.09,0.022l0.091,0.021l0.093,0.019l0.093,0.019l0.093,0.018l0.095,0.017l0.096,0.016l0.095,0.015l0.097,0.014l0.097,0.013l0.098,0.012l0.099,0.01l0.099,0.01l0.1,0.009l0.1,0.008l0.1,0.007l0.101,0.006l0.101,0.005l0.103,0.004l0.101,0.002l0.103,0.002l0.102,0.001l0.103,0l0.103,-0.002l0.103,-0.002l0.104,-0.004l0.104,-0.004l0.103,-0.006l0.103,-0.006l0.104,-0.008l0.103,-0.008l0.104,-0.01l0.103,-0.011l0.104,-0.011l0.103,-0.013l0.103,-0.014l0.103,-0.015l0.103,-0.016l0.102,-0.017l0.102,-0.018l0.101,-0.019l0.102,-0.02l0.101,-0.021l0.101,-0.022l0.1,-0.023l0.099,-0.025l0.099,-0.025l0.099,-0.026l0.098,-0.028l0.098,-0.028l0.097,-0.029l0.095,-0.031l0.096,-0.031l0.097,-0.034l0.034,-0.01l0.035,-0.008l0.035,-0.006l0.036,-0.002l0.036,-0.001l0.035,0.002l0.036,0.005l0.035,0.007l0.034,0.01l0.033,0.012l0.033,0.015l0.032,0.017l0.03,0.019l0.029,0.021l0.027,0.023l0.025,0.025l0.024,0.027l0.022,0.028l0.019,0.03l0.018,0.031l0.015,0.032l0.012,0.034l0.011,0.034l0.008,0.034l0.005,0.036l0.003,0.035l0,0.036l-0.002,0.036l-0.004,0.035l-0.008,0.035l-0.009,0.034l-0.013,0.034l-0.014,0.032l-0.017,0.032l-0.019,0.03l-0.021,0.029l-0.023,0.027l-0.025,0.026l-0.027,0.023l-0.028,0.022l-0.03,0.02l-0.031,0.017l-0.033,0.015l-0.033,0.013l-0.103,0.035l-0.107,0.036l-0.107,0.034l-0.108,0.033l-0.108,0.031l-0.11,0.031l-0.109,0.029l-0.11,0.028l-0.11,0.027l-0.111,0.025l-0.111,0.025l-0.111,0.023l-0.112,0.022l-0.112,0.021l-0.113,0.02l-0.112,0.019l-0.113,0.017l-0.113,0.017l-0.113,0.015l-0.114,0.014l-0.113,0.013l-0.113,0.011l-0.114,0.011l-0.113,0.009l-0.114,0.009l-0.114,0.007l-0.113,0.006l-0.113,0.005l-0.114,0.003l-0.113,0.003l-0.113,0.002l-0.113,0l-0.113,-0.001l-0.112,-0.002l-0.112,-0.003l-0.112,-0.004l-0.111,-0.005l-0.112,-0.007l-0.111,-0.007l-0.11,-0.009l-0.11,-0.01l-0.11,-0.011l-0.109,-0.012l-0.109,-0.013l-0.108,-0.015l-0.108,-0.015l-0.107,-0.017l-0.106,-0.018l-0.106,-0.018l-0.105,-0.02l-0.105,-0.022l-0.103,-0.022l-0.104,-0.023l-0.103,-0.025l-0.101,-0.026l-0.1,-0.027l-0.101,-0.028l-0.099,-0.029l-0.098,-0.03l-0.097,-0.032l-0.097,-0.033l-0.096,-0.034l-0.094,-0.035l-0.089,-0.035l-0.033,-0.014l-0.032,-0.016l-0.03,-0.018l-0.029,-0.021l-0.028,-0.023l-0.026,-0.025l-0.024,-0.026l-0.022,-0.028l-0.02,-0.03l-0.018,-0.03l-0.015,-0.033l-0.014,-0.033l-0.01,-0.034l-0.009,-0.034l-0.006,-0.036l-0.003,-0.035l-0.001,-0.036l0.002,-0.035l0.004,-0.036l0.007,-0.035l0.009,-0.034l0.011,-0.034l0.015,-0.033l0.016,-0.032l0.018,-0.03l0.021,-0.029l0.023,-0.028l0.024,-0.026l0.027,-0.024l0.028,-0.022l0.029,-0.02l0.031,-0.018l0.032,-0.015l0.034,-0.013l0.034,-0.011l0.034,-0.009l0.036,-0.006l0.035,-0.003l0.036,-0.001l0.035,0.002Z" style="fill:#0e8754;"/></g><path d="M279.183,289.565c0,-2.424 1.054,-4.749 2.929,-6.464c1.875,-1.714 4.419,-2.677 7.071,-2.677c0.494,0 2.989,0 3.483,0c2.652,0 5.196,0.963 7.071,2.677c1.875,1.715 2.763,4.046 2.929,6.464c1.534,22.291 0.797,61.161 -2.827,86.125l-18.86,0c0.098,-13.506 -1.796,-63.23 -1.796,-86.125Z" style="fill:#444f61;"/></g><g><path d="M249.845,150.542l12.679,-2.871l8.559,19.689l-20.482,4.637l-0.756,-21.455Z" style="fill:#d4712b;"/><clipPath id="_clip2"><path d="M249.845,150.542l12.679,-2.871l8.559,19.689l-20.482,4.637l-0.756,-21.455Z"/></clipPath><g clip-path="url(#_clip2)"><path d="M267.059,148.614c-2.574,4.491 -12.064,10.865 -17.578,10.577c-2.333,-0.121 -1.207,-3.698 -3.028,-4.982l9.362,-6.734l11.244,1.139Z" style="fill:#181e26;fill-opacity:0.15;"/></g><g><path id="ear" d="M273.22,113.337c0,0 1.879,-2.944 3.808,-1.423c2.076,1.638 -0.243,4.421 0.118,6.275c0.294,1.517 1.066,4.384 -0.526,5.45c-1.133,0.757 -1.599,0.447 -2.777,-0.505c-4.03,-3.254 -0.623,-9.797 -0.623,-9.797Z" style="fill:#aa5e27;"/><path id="ear1" d="M224.642,116.899c0,0 -2.288,-2.639 -3.975,-0.852c-1.814,1.923 0.885,4.338 0.799,6.225c-0.07,1.543 -0.416,4.493 1.315,5.314c1.232,0.585 1.647,0.209 2.674,-0.904c3.512,-3.806 -0.813,-9.783 -0.813,-9.783Z" style="fill:#aa5e27;"/><path d="M247.007,88.792c0,0 0.01,-0.001 0.01,-0.001l0.242,-0.015c20.5,-1.225 26.037,12.168 27.374,30.41c0.652,8.888 0.08,12.917 -3.116,19.59c-2.127,4.441 -4.07,7.486 -7.28,10.159c-3.273,2.725 -8.129,6 -12.356,6.192l-0.01,0.001c0,0 -0.009,0.001 -0.009,0.001c-4.21,0.426 -9.492,-2.105 -13.127,-4.324c-3.566,-2.177 -5.932,-4.905 -8.684,-8.988c-4.136,-6.136 -5.289,-10.039 -5.941,-18.926c-1.337,-18.242 2.186,-32.299 22.646,-34.078l0.242,-0.021l0.009,0Z" style="fill:#d4712b;"/><path id="eye" d="M261.857,116.576c-2.477,0.182 -4.34,2.34 -4.159,4.817c0.182,2.477 2.34,4.341 4.817,4.159c2.477,-0.182 4.341,-2.34 4.159,-4.817c-0.181,-2.477 -2.34,-4.34 -4.817,-4.159Z" style="fill:#181e26;"/><path id="brow" d="M256.107,109.189c0.96,-0.578 5.093,-0.808 7.349,-0.462c2.529,0.389 3.426,1.057 3.082,1.566c-0.449,0.664 -9.744,0.765 -10.137,0.731c-0.849,-0.073 -0.982,-1.421 -0.294,-1.835Z" style="fill:#333e50;"/><path d="M248.826,125.976c0.134,-0.37 0.473,-0.626 0.866,-0.655c0.392,-0.029 0.765,0.175 0.953,0.521c1.018,1.882 2.531,4.679 3.425,6.33c0.161,0.298 0.161,0.658 -0.002,0.956c-0.163,0.298 -0.466,0.493 -0.804,0.517c-1.648,0.121 -4.244,0.311 -5.891,0.432c-0.339,0.025 -0.667,-0.123 -0.871,-0.394c-0.205,-0.271 -0.258,-0.627 -0.142,-0.946c0.643,-1.763 1.733,-4.751 2.466,-6.761Z" style="fill:#aa5e27;"/><path id="eye1" d="M236.369,118.445c2.477,-0.182 4.635,1.682 4.817,4.159c0.182,2.477 -1.682,4.635 -4.159,4.817c-2.477,0.182 -4.635,-1.682 -4.817,-4.159c-0.181,-2.477 1.682,-4.635 4.159,-4.817Z" style="fill:#181e26;"/><path id="brow1" d="M241.126,110.287c-1.034,-0.432 -5.156,-0.056 -7.338,0.616c-2.445,0.753 -3.235,1.545 -2.82,1.998c0.541,0.591 9.751,-0.664 10.135,-0.755c0.829,-0.196 0.764,-1.55 0.023,-1.859Z" style="fill:#333e50;"/><path d="M262.859,101.256c7.39,2.079 11.803,18.629 11.803,18.629c0,0 9.111,-38.042 -26.876,-36.03c-38.066,2.127 -23.621,39.733 -23.621,39.733c0,0 3.757,-17.631 9.389,-20.212c8.261,-3.787 22.54,-4.023 29.305,-2.12Z" style="fill:#181e26;"/><path d="M241.314,141.198c6.21,0.457 12.282,0.214 18.019,-1.177c0,0 -0.164,5.675 -8.113,6.545c-6.721,0.736 -9.906,-5.368 -9.906,-5.368Z" style="fill:#fff;"/></g></g><g><path id="torso" d="M233.711,192.771c-1.421,-5.203 -0.681,-10.76 2.054,-15.409c2.734,-4.649 7.23,-7.996 12.468,-9.283c7.347,-1.805 15.665,-3.848 23.007,-5.651c5.23,-1.285 10.756,-0.406 15.33,2.437c4.573,2.842 7.807,7.409 8.97,12.667c6.594,29.824 18.243,82.505 18.243,82.505l-57.822,14.203c0,0 -14.2,-51.993 -22.25,-81.469Z" style="fill:#d4712b;"/><path d="M232.019,224.418c-8.448,-0.985 -14.871,-5.63 -19.919,-12.766l13.027,-0.538l6.892,13.304Z" style="fill:#0e8754;"/><path d="M269.094,162.955c0,0 1.311,9.62 -7.147,11.114c-7.759,1.37 -11.482,-6.746 -11.482,-6.746c-4.667,0.768 -13.686,5.093 -19.396,11.691c-8.504,9.828 6.908,33.872 6.908,33.872l15.8,60.849c20.932,-1.639 40.183,-6.065 61.71,-15.146l-15.909,-72.068c0,0 -2.735,-19.57 -11.182,-23.236c-5.348,-2.321 -12.152,-2.951 -19.302,-0.33Z" style="fill:#17b272;"/><path id="arm" d="M235.541,179.015c-11.159,5.207 -28.315,44.318 -25.99,57.486c2.33,13.197 53.257,14.043 53.257,14.043l0.958,-10.18c-6.49,-1.725 -25.107,-5.35 -38.678,-10.254c5.627,-6.929 13.73,-20.062 19.762,-32.443l-9.309,-18.652Z" style="fill:#d4712b;"/><path d="M237.977,212.886l21.4,-12.847l-8.912,-32.716c-4.667,0.768 -14.311,5.313 -20.602,11.359c-10.639,10.225 -17.763,32.97 -17.763,32.97c9.675,1.381 15.772,6.15 19.919,12.766l5.958,-11.532Z" style="fill:#17b272;"/><path d="M307.061,212.433c7.965,-2.983 13.086,-9.034 16.273,-17.172l-12.775,2.603l-3.498,14.569Z" style="fill:#0e8754;"/><path id="arm1" d="M292.747,169.202c12.083,2.377 38.122,36.229 39.025,49.57c0.905,13.371 -48.332,26.412 -48.332,26.412l-3.372,-9.652c5.886,-3.233 23.089,-11.218 35.087,-19.236c-7.125,-5.376 -18.143,-16.181 -26.969,-26.753l4.561,-20.341Z" style="fill:#d4712b;"/><path d="M298.51,202.669l-23.858,-7.337l0.802,-33.899c23.839,-3.348 44.607,28.39 47.88,33.828c-9.06,3.663 -13.835,9.755 -16.273,17.172l-8.551,-9.764Z" style="fill:#17b272;"/><path d="M261.806,250.265c0,0 5.007,1.81 11.176,1.864c3.736,0.033 8.085,-1.323 10.681,-3.374c4.812,-3.802 4.968,-7.476 1.036,-8.028c-7.205,-1.013 -11.608,2.708 -12.927,-0.275c-0.654,-1.477 3.557,-3.197 6.63,-3.729c1.623,-0.282 1.829,-2.351 -3.44,-2.077c-1.783,0.093 -6.12,1.382 -7.731,2.447c-3.355,2.22 -6.509,6.547 -6.509,6.547l1.084,6.625Z" style="fill:#d4712b;"/></g></g><g id="watercooler"><g><rect x="0" y="270" width="62" height="130" style="fill:#cad2e0;"/><g><rect x="15" y="381" width="32" height="4" style="fill:#9da9bd;"/><rect x="15" y="373" width="32" height="4" style="fill:#9da9bd;"/><rect x="15" y="365" width="32" height="4" style="fill:#9da9bd;"/><rect x="15" y="357" width="32" height="4" style="fill:#9da9bd;"/></g><g><path d="M49,295c0,-5.519 -4.481,-10 -10,-10l-16,0c-5.519,0 -10,4.481 -10,10l0,32l36,0l0,-32Z" style="fill:#edf0f5;"/><rect x="13" y="321" width="36" height="6" style="fill:#9da9bd;"/><g><rect x="24" y="285" width="2" height="4" style="fill:#181e26;"/><path d="M27,289c0,-0.552 -0.448,-1 -1,-1l-2,0c-0.552,0 -1,0.448 -1,1l0,4c0,0.552 0.448,1 1,1l2,0c0.552,0 1,-0.448 1,-1l0,-4Z" style="fill:#6de8b5;"/></g><g><rect x="36" y="285" width="2" height="4" style="fill:#181e26;"/><path d="M39,289c0,-0.552 -0.448,-1 -1,-1l-2,0c-0.552,0 -1,0.448 -1,1l0,4c0,0.552 0.448,1 1,1l2,0c0.552,0 1,-0.448 1,-1l0,-4Z" style="fill:#6de8b5;"/></g></g></g><g><g opacity="0.5"><path d="M59,178c0,-4.415 -3.585,-8 -8,-8l-40,0c-4.415,0 -8,3.585 -8,8c0,0 0,65.126 0,80c0,1.889 0.889,3.667 2.4,4.8c3.502,2.626 9.6,7.2 9.6,7.2l32,0c0,0 6.098,-4.574 9.6,-7.2c1.511,-1.133 2.4,-2.911 2.4,-4.8c0,-14.874 0,-80 0,-80Z" style="fill:#6de8b5;"/><path d="M62,192c0,-2.208 -1.792,-4 -4,-4l-54,0c-2.208,0 -4,1.792 -4,4l0,2c0,2.208 1.792,4 4,4l54,0c2.208,0 4,-1.792 4,-4l0,-2Z" style="fill:#6de8b5;"/><path d="M62,220c0,-2.208 -1.792,-4 -4,-4l-54,0c-2.208,0 -4,1.792 -4,4l0,2c0,2.208 1.792,4 4,4l54,0c2.208,0 4,-1.792 4,-4l0,-2Z" style="fill:#6de8b5;"/><path d="M62,248c0,-2.208 -1.792,-4 -4,-4l-54,0c-2.208,0 -4,1.792 -4,4l0,2c0,2.208 1.792,4 4,4l54,0c2.208,0 4,-1.792 4,-4l0,-2Z" style="fill:#1bc47e;"/><path id="v" d="M59,232c-14.29,-5.088 -25.78,3.462 -34.563,3.775c-11.609,0.415 -21.437,-3.775 -21.437,-3.775c0,0 0,18.587 0,26c0,1.889 0.889,3.667 2.4,4.8c3.502,2.626 9.6,7.2 9.6,7.2l32,0c0,0 6.098,-4.574 9.6,-7.2c1.511,-1.133 2.4,-2.911 2.4,-4.8c0,-7.413 0,-26 0,-26Z" style="fill:#1bc47e;"/></g></g></g><g id="hacker"><path id="torso1" d="M161.564,198.059c0.661,-6.74 -1.557,-13.446 -6.106,-18.463c-4.549,-5.018 -11.007,-7.879 -17.779,-7.879c-3.9,0 -7.918,0 -11.816,0c-6.762,0 -13.21,2.852 -17.758,7.855c-4.549,5.003 -6.776,11.693 -6.134,18.424c2.797,29.311 6.933,72.66 6.933,72.66l45.541,0c0,0 4.245,-43.287 7.119,-72.597Z" style="fill:#d4712b;"/><path id="arm2" d="M107.838,180.819c-11.287,7.15 -21.219,54.093 -20.595,67.693c0.609,13.291 -0.672,55.013 -0.672,55.013l6.24,-0.195c0.728,-13.332 11.069,-30.194 6.871,-55.363c5.625,-14.346 4.778,-41.469 15.788,-48.217l-7.632,-18.931Z" style="fill:#d4712b;"/><path d="M92.817,303.223c1.21,2.413 2.385,7.254 2.208,10.186c-0.325,5.4 0.837,10.502 -0.641,10.226c-2.035,-0.379 -1.902,-8.942 -2.701,-8.904c-1.933,0.092 0.997,9.693 0.48,14.052c-0.264,2.223 -6.062,-5.637 -6.515,-7.144c0,0 -3.421,-6.349 0.925,-18.159l3.948,-2.404l2.296,2.147Z" style="fill:#d4712b;"/><path d="M108.6,178.714c-19.568,12.545 -0.558,79.388 0.304,91.942c-15.253,62.862 -16.149,11.146 -14.102,37.301l74,0c1.761,-31.103 -0.489,27.031 -14.357,-37.301c0,0 9.564,-68.007 8.699,-78.938c-1.033,-13.068 -54.544,-13.004 -54.544,-13.004Z" style="fill:#1bc47e;"/><path d="M102.965,185.739c0,0 -16.857,30.015 -17.643,56.401c-0.597,20.042 0.169,58.502 0.169,58.502l9.006,0.632c5.037,-19.307 6.935,-33.049 7.388,-53.798l7.746,-27.226l-6.666,-34.511Z" style="fill:#1bc47e;"/><path d="M103.475,241.886c0.409,-0.723 1.027,4.362 1.027,4.362c0,0 6.498,-30.45 4.257,-37.164l-5.284,32.802Z" style="fill:#181e26;fill-opacity:0.1;"/><path id="arm3" d="M154.363,180.034c11.827,6.258 40.962,36.019 39.596,49.603c-1.36,13.517 -49.231,17.418 -49.231,17.418l-1.693,-5.975c13.953,-4.473 32.292,-14.169 38.249,-12.081c-7.332,-13.92 -20.586,-23.29 -32.522,-28.89l5.601,-20.075Z" style="fill:#d4712b;"/><path d="M148.63,175.492c0,0 47.743,30.92 46.771,53.551c-0.564,13.155 -47.675,20.092 -47.675,20.092l-3.501,-9.442c12.421,-4.797 27.202,-10.098 35.113,-12.056c-7.039,-11.771 -21.981,-22.329 -32.291,-27.663l1.583,-24.482Z" style="fill:#1bc47e;"/><g id="head"><path id="neck" d="M126.951,157.288l-3.234,14.553l7.983,8.32l8.187,-8.32l-3.234,-14.553l-9.702,0Z" style="fill:#d4712b;"/><clipPath id="_clip3"><path d="M126.951,157.288l-3.234,14.553l7.983,8.32l8.187,-8.32l-3.234,-14.553l-9.702,0Z"/></clipPath><g clip-path="url(#_clip3)"><path d="M120.958,156.439c0,0 1.99,7.622 11.471,7.388c6.497,-0.161 10.12,-7.744 10.12,-7.744l-21.591,0.356Z" style="fill:#181e26;fill-opacity:0.15;"/></g><path id="ear2" d="M108.791,124.537c0,0 -2.19,-2.449 -3.937,-0.373c-1.569,1.864 0.689,3.587 0.712,5.329c0.018,1.423 -0.141,4.156 1.497,4.819c1.164,0.471 2.119,0.262 3.004,-0.817c3.026,-3.692 -1.276,-8.958 -1.276,-8.958Z" style="fill:#aa5e27;"/><path id="ear3" d="M154.864,124.537c0,0 2.19,-2.449 3.937,-0.373c1.569,1.864 -0.69,3.587 -0.712,5.329c-0.019,1.423 0.14,4.156 -1.497,4.819c-1.165,0.471 -2.119,0.262 -3.004,-0.817c-3.027,-3.692 1.276,-8.958 1.276,-8.958Z" style="fill:#aa5e27;"/><ellipse id="face" cx="131.802" cy="129.797" rx="23.448" ry="30.725" style="fill:#d4712b;"/><path d="M132.643,136.425c-0.184,-0.286 -0.501,-0.459 -0.841,-0.459c-0.34,0 -0.657,0.173 -0.841,0.459c-0.757,1.177 -1.869,2.907 -2.669,4.151c-0.197,0.308 -0.211,0.699 -0.036,1.02c0.175,0.321 0.512,0.521 0.878,0.521c1.556,0 3.78,0 5.336,0c0.366,0 0.703,-0.2 0.878,-0.521c0.175,-0.321 0.161,-0.712 -0.037,-1.02c-0.799,-1.244 -1.911,-2.974 -2.668,-4.151Z" style="fill:#aa5e27;"/><circle id="eye2" cx="120.482" cy="128.989" r="4" style="fill:#181e26;"/><path id="brow2" d="M124.721,120.381c-0.918,-0.473 -3.077,-1.246 -5.143,-0.846c-2.315,0.449 -4.785,2.754 -4.587,3.284c0.131,0.351 2.665,-1.407 5.051,-1.749c1.845,-0.265 3.491,0.712 4.273,0.936c0.958,0.274 1.272,-1.179 0.406,-1.625Z" style="fill:#181e26;"/><circle id="eye3" cx="143.122" cy="128.989" r="4" style="fill:#181e26;"/><path d="M126.436,149.595c0,0 1.371,3.86 5.295,3.832c4.804,-0.034 5.702,-3.869 5.702,-3.869l-10.997,0.037Z" style="fill:#853c2d;"/><path d="M126.474,149.595c1.599,-1.738 2.892,-2.274 5.325,-1.081c2.593,-1.324 3.486,-0.611 5.634,1.044l-4.599,1.489l-6.36,-1.452Z" style="fill:#853c2d;"/><path d="M122.677,146.894c5.842,4.287 12.17,4.417 18.143,-0.042c0,0 -2.892,4.465 -9.028,4.453c-6.118,-0.011 -9.115,-4.411 -9.115,-4.411Z" style="fill:#672e23;"/><path id="brow3" d="M138.877,120.381c0.918,-0.473 3.078,-1.246 5.144,-0.846c2.315,0.449 4.785,2.754 4.587,3.284c-0.131,0.351 -2.665,-1.407 -5.051,-1.749c-1.845,-0.265 -3.491,0.712 -4.273,0.936c-0.959,0.274 -1.273,-1.179 -0.407,-1.625Z"/></g><path id="hijab" d="M131.889,96.205c12.855,0.013 28.622,10.361 28.42,35.092c-0.121,14.725 -14.314,28.878 -21.329,31.135c1.496,2.695 1.935,8.485 1.935,8.485c0,0 12.462,2.631 16.457,10.59c-17.128,7.21 -36.075,8.858 -55.898,7.827c0.79,-11.816 20.525,-18.701 20.525,-18.701c0,0 0.109,-4.561 1.521,-8.163c-8.412,-4.88 -20.537,-18.066 -20.655,-33.481c-0.134,-17.452 11.584,-32.801 29.024,-32.784Zm-0.356,11.857c0,0 22.017,8.067 22.475,18.526c0.871,19.881 -9.941,33.256 -21.699,33.276c-12.985,0.022 -22.169,-14.05 -21.327,-30.875c0.771,-15.379 20.551,-20.927 20.551,-20.927Z" style="fill:#6de8b5;"/><clipPath id="_clip4"><path d="M131.889,96.205c12.855,0.013 28.622,10.361 28.42,35.092c-0.121,14.725 -14.314,28.878 -21.329,31.135c1.496,2.695 1.935,8.485 1.935,8.485c0,0 12.462,2.631 16.457,10.59c-17.128,7.21 -36.075,8.858 -55.898,7.827c0.79,-11.816 20.525,-18.701 20.525,-18.701c0,0 0.109,-4.561 1.521,-8.163c-8.412,-4.88 -20.537,-18.066 -20.655,-33.481c-0.134,-17.452 11.584,-32.801 29.024,-32.784Zm-0.356,11.857c0,0 22.017,8.067 22.475,18.526c0.871,19.881 -9.941,33.256 -21.699,33.276c-12.985,0.022 -22.169,-14.05 -21.327,-30.875c0.771,-15.379 20.551,-20.927 20.551,-20.927Z"/></clipPath><g clip-path="url(#_clip4)"><path d="M123.52,162.47c2.068,1.297 3.06,1.376 6.178,2.067c-3.98,0.932 -6.965,-0.369 -7.432,-0.901c-0.622,-0.114 -1.237,-1.363 1.254,-1.166Z" style="fill:#181e26;fill-opacity:0.15;"/><path d="M139.021,162.423c-1.401,0.757 -2.961,1.255 -4.606,1.615c1.766,0.055 3.529,-0.059 5.284,-0.642l-0.678,-0.973Z" style="fill:#181e26;fill-opacity:0.15;"/><path d="M140.915,170.917c-2.653,1.527 -4.746,1.907 -7.946,2.006c4.618,1.08 8.017,0.389 12.296,-1.252l-4.35,-0.754Z" style="fill:#181e26;fill-opacity:0.15;"/><path d="M121.956,170.623c1.467,0.937 2.332,1.48 4.506,1.805c-2.42,0.486 -4.444,-0.16 -6.799,-1.069l2.293,-0.736Z" style="fill:#181e26;fill-opacity:0.15;"/></g></g><path id="desk" d="M360,260c0,-5.304 -2.107,-10.391 -5.858,-14.142c-3.751,-3.751 -8.838,-5.858 -14.142,-5.858c-58.31,0 -227.69,0 -286,0c-5.304,0 -10.391,2.107 -14.142,5.858c-3.751,3.751 -5.858,8.838 -5.858,14.142c0,42.921 0,140 0,140l326,0c0,0 0,-97.079 0,-140Z" style="fill:#525f75;"/><g id="laptop"><path id="laptop1" d="M309,181.1c0,-1.711 -1.389,-3.1 -3.1,-3.1l-85.8,0c-1.711,0 -3.1,1.389 -3.1,3.1l0,58.9l92,0l0,-58.9Z" style="fill:#444f61;"/><path d="M262.999,194.001c-1.591,0 -3.117,0.632 -4.242,1.757c-2.342,2.342 -2.342,6.144 0,8.485c2.341,2.342 6.143,2.342 8.485,0c1.125,-1.125 1.757,-2.651 1.757,-4.242l-6,-6Z" style="fill:#181e26;"/></g><g id="laptop2"><path d="M174.934,188.713c0,-1.49 -1.21,-2.7 -2.7,-2.7l-74.6,0c-1.49,0 -2.7,1.21 -2.7,2.7l0,48.6c0,1.49 1.21,2.7 2.7,2.7l74.6,0c1.49,0 2.7,-1.21 2.7,-2.7l0,-48.6Z" style="fill:#edf0f5;"/><path d="M126.129,224.261c-0.636,-0.816 5.075,-13.642 9.626,-11.35c0.303,0.153 1.311,1.17 1.431,1.437c1.878,4.185 -10.423,10.726 -11.057,9.913Zm11.756,-11.133c1.082,-0.067 2.305,-0.397 2.967,-1.054c0,0 3.032,1.231 2.933,-0.889c-0.072,-1.526 -4.608,-1.168 -5.9,1.943Zm-1.298,-1.042c0.136,-1.09 0.576,-1.995 1.24,-2.757c-0.368,-0.616 0.091,-1.752 0.851,-1.796c0,0 -1.258,-2.71 -0.247,-3.446c3.112,-2.264 3.087,5.947 -1.844,7.999Z" style="fill:#cad2e0;"/></g></g></svg>