<svg viewBox="0 0 360 400" xmlns="http://www.w3.org/2000/svg" fill-rule="evenodd" clip-rule="evenodd" stroke-linejoin="round" stroke-miterlimit="1.41421"><path fill="none" d="M0 0h360v400H0z"/><clipPath id="a"><path d="M0 0h360v400H0z"/></clipPath><g clip-path="url(#a)"><path d="M318 23c0-1.656-1.344-3-3-3H85c-1.656 0-3 1.344-3 3v118c0 1.656 1.344 3 3 3h230c1.656 0 3-1.344 3-3V23z" fill="#dde3ed"/><path d="M315.077 20.001s.695.078 1.023.207c.79.312 1.425.963 1.718 1.761.112.307.181.954.181.954v118.154s-.069.647-.181.954c-.293.798-.928 1.449-1.718 1.761-.328.129-1.023.207-1.023.207H84.923s-.695-.078-1.023-.207c-.79-.312-1.425-.963-1.718-1.761-.112-.307-.181-.954-.181-.954V22.923s.069-.647.181-.954c.293-.798.928-1.449 1.718-1.761.328-.129 1.023-.207 1.023-.207h230.154zM315 23.02L85.001 23 85 140.999l229.999.001L315 23.02z" fill="#cad2e0" fill-rule="nonzero"/><path fill="#f7f8fa" d="M123 45h44v56h-44z"/><circle cx="145" cy="48" r="1" fill="#333e50"/><path d="M161 78h-32c-.099-.006-.125-.003-.222-.025-.183-.042-.353-.135-.485-.268-.079-.079-.145-.172-.194-.273-.049-.101-.08-.21-.093-.322-.042-.378.14-.756.462-.959.127-.079.271-.13.42-.147.037-.004.075-.004.112-.006h32c.037.002.075.004.112.006.037.007.074.011.111.019.146.033.283.1.401.193.087.07.163.155.223.25.181.289.202.659.054.966-.049.101-.114.194-.194.273-.132.133-.302.226-.484.268-.098.022-.124.019-.223.025zm0-6h-32c-.099-.006-.125-.003-.222-.025-.183-.042-.353-.135-.485-.268-.079-.079-.145-.172-.194-.273-.049-.101-.08-.21-.093-.322-.042-.378.14-.756.462-.959.127-.079.271-.13.42-.147.037-.004.075-.004.112-.006h32c.037.002.075.004.112.006.037.007.074.011.111.019.146.033.283.1.401.193.087.07.163.155.223.25.181.289.202.659.054.966-.049.101-.114.194-.194.273-.132.133-.302.226-.484.268-.098.022-.124.019-.223.025zm0-6h-32c-.099-.006-.125-.003-.222-.025-.183-.042-.353-.135-.485-.268-.079-.079-.145-.172-.194-.273-.049-.101-.08-.21-.093-.322-.042-.378.14-.756.462-.959.127-.079.271-.13.42-.147.037-.004.075-.004.112-.006h32c.037.002.075.004.112.006.037.007.074.011.111.019.146.033.283.1.401.193.087.07.163.155.223.25.181.289.202.659.054.966-.049.101-.114.194-.194.273-.132.133-.302.226-.484.268-.098.022-.124.019-.223.025zm-8-8h-16c-.07-.003-.087-.001-.156-.012-.104-.017-.205-.049-.298-.097s-.179-.11-.253-.184c-.303-.303-.378-.779-.184-1.161.048-.093.11-.179.184-.253.13-.13.295-.223.474-.265.077-.019.154-.025.233-.028 5.36 0 10.723-.207 16.078.003.07.008.088.008.155.025.102.024.2.065.29.119.089.055.169.124.237.204.26.304.313.746.131 1.103-.048.093-.11.179-.184.253-.13.13-.295.223-.474.265-.077.019-.154.025-.233.028z" fill="#1bc47e"/><path d="M298.237 35.172h-18c-.991 6.261-.331 12.262 2 18h18c-1.885-6.089-2.682-12.099-2-18z" fill="#6de8b5"/><path d="M292.128 41c.854.004 1.707.032 2.559.108l.181.018c.065.009.129.019.192.039.125.038.243.101.344.184.084.069.157.152.215.245.046.074.082.154.107.238.102.339.014.715-.228.973-.09.096-.198.174-.317.227-.142.065-.291.089-.446.089-.192-.013-.384-.035-.577-.05-1.071-.077-2.146-.082-3.22-.061-1.413.028-2.826.103-4.239.158-.228.008-.457.016-.686.022-.46.012-.919.021-1.379.011-.372-.008-.743-.029-1.112-.084l-.064-.011c-.064-.016-.126-.034-.187-.06-.12-.052-.23-.128-.321-.222-.294-.305-.365-.776-.171-1.152.05-.098.116-.186.194-.262.094-.091.206-.164.328-.212.145-.057.294-.074.449-.067.1.012.2.027.3.038.384.033.769.038 1.154.036.36-.002.721-.012 1.081-.024.996-.032 1.99-.082 2.986-.121.406-.015.812-.028 1.218-.04.342-.008.684-.015 1.026-.018.204-.002.408-.003.613-.002z" fill="#1bc47e" fill-rule="nonzero"/><path d="M236.647 47.751h-18c-.991 6.262-.331 12.263 2 18h18c-1.885-6.089-2.681-12.098-2-18z" fill="#ffa391"/><path d="M230.538 53.579c.855.005 1.708.033 2.559.109l.181.018c.065.008.129.019.192.038.126.038.243.101.344.184.085.07.157.153.215.245.046.075.082.155.107.238.103.339.015.716-.228.974-.089.095-.198.173-.317.227-.142.064-.291.088-.445.088-.193-.013-.385-.035-.577-.05-1.204-.085-2.412-.082-3.619-.051-1.28.033-2.56.099-3.84.148-.229.009-.458.016-.687.023-.46.011-.919.021-1.379.011-.372-.009-.743-.029-1.112-.084l-.064-.012c-.15-.037-.289-.097-.411-.194-.102-.081-.188-.183-.252-.297-.053-.096-.09-.2-.11-.307-.076-.417.128-.847.498-1.053.114-.064.241-.105.371-.12.066-.007.131-.006.196-.003.101.012.2.027.301.037.383.034.768.039 1.153.036.361-.002.721-.011 1.081-.023.996-.033 1.991-.083 2.986-.122.406-.015.812-.028 1.218-.039.342-.008.684-.015 1.026-.019.204-.001.409-.002.613-.002z" fill="#ff7f65" fill-rule="nonzero"/><g><path d="M270.16 35.172h-18c-.99 6.261-.33 12.262 2 18h18c-1.884-6.089-2.681-12.099-2-18z" fill="#6de8b5"/><path d="M264.051 40c.855.004 1.708.032 2.56.108l.18.018c.066.009.129.019.193.039.125.038.242.101.344.184.084.069.157.152.214.245.046.074.082.154.108.238.102.338.014.715-.228.973-.09.096-.198.173-.318.227-.141.065-.29.089-.445.089-.192-.013-.385-.035-.577-.05-1.072-.077-2.146-.082-3.22-.061-1.414.028-2.826.103-4.239.158-.229.008-.458.016-.687.023-.459.011-.919.02-1.378.01-.372-.008-.744-.029-1.112-.084l-.065-.011c-.064-.016-.125-.034-.186-.06-.12-.052-.23-.128-.321-.222-.295-.305-.365-.776-.171-1.152.049-.098.115-.186.194-.262.094-.091.206-.164.328-.212.144-.057.294-.074.449-.067.1.012.2.027.3.038.338.029.676.036 1.015.036.407 0 .814-.01 1.22-.024.995-.032 1.99-.082 2.985-.121.406-.015.812-.028 1.219-.04.341-.008.683-.015 1.025-.018.205-.002.409-.003.613-.002zM262.663 44.525c.721.009 1.439.051 2.157.124.054.007.054.007.107.016.196.048.373.139.513.286.075.078.137.168.184.266.181.384.094.853-.212 1.148-.091.087-.199.157-.316.205-.136.055-.278.075-.424.073-.235-.018-.47-.044-.705-.063-.83-.058-1.66-.07-2.491-.035-.741.032-1.48.101-2.22.154-.204.013-.408.024-.612.033-.443.015-.887.011-1.329-.038-.136-.015-.276-.028-.409-.063-.157-.042-.304-.123-.423-.233-.093-.086-.169-.19-.223-.304-.046-.098-.077-.204-.09-.311-.048-.402.16-.804.516-.997.162-.088.338-.124.521-.12.135.009.269.034.403.048.568.051 1.139.018 1.706-.024.439-.034.878-.07 1.317-.101.166-.01.332-.02.497-.03.412-.019.823-.033 1.235-.035.099 0 .198 0 .298.001z" fill="#1bc47e" fill-rule="nonzero"/></g><g><path d="M203.517 299c0-.53-.211-1.039-.586-1.414s-.884-.586-1.414-.586h-126c-.531 0-1.039.211-1.415.586-.375.375-.585.884-.585 1.414v8c0 4.418 3.581 8 8 8h114c4.418 0 8-3.582 8-8v-8z" fill="#333e50"/><path d="M201.315 229.419c1.83-15.865-3.2-31.756-13.826-43.678C176.864 173.818 161.654 167 145.684 167H131.35c-15.97 0-31.18 6.818-41.806 18.741-10.626 11.922-15.656 27.813-13.825 43.678C79.565 262.756 83.517 297 83.517 297h110s3.951-34.244 7.798-67.581z" fill="#dde3ed"/><circle cx="88.517" cy="390" r="10" fill="#cad2e0"/><circle cx="188.517" cy="390" r="10" fill="#cad2e0"/><circle cx="138.517" cy="390" r="10" fill="#cad2e0"/><path fill="#9da9bd" d="M132.517 315h12v53h-12zM188.517 371c0-1.657-1.343-3-3-3h-94c-1.657 0-3 1.343-3 3v9h100v-9z"/></g><g><path fill="#cad2e0" d="M219.737 295.5h10.181v3h-10.181zM319.737 295.5h10.181v3h-10.181zM321.766 188c0-2.209-1.791-4-4-4h-86c-2.209 0-4 1.791-4 4v104h94V188zM315.766 388c0 3.314-2.686 6-6 6h-71c-3.314 0-6-2.686-6-6v-86h6v85c0 .552.448 1 1 1h69c.552 0 1-.448 1-1v-85h6v86z"/><path d="M224.766 295c0-.796.316-1.559.879-2.121.562-.563 1.325-.879 2.121-.879h94c.796 0 1.559.316 2.121.879.563.562.879 1.325.879 2.121v4c0 .796-.316 1.559-.879 2.121-.562.563-1.325.879-2.121.879h-94c-.796 0-1.559-.316-2.121-.879-.563-.562-.879-1.325-.879-2.121v-4zM215.766 274c3.314 0 6 2.686 6 6v114c0 3.314-2.686 6-6 6s-6-2.686-6-6V280c0-3.314 2.686-6 6-6zM333.766 274c3.314 0 6 2.686 6 6v114c0 3.314-2.686 6-6 6s-6-2.686-6-6V280c0-3.314 2.686-6 6-6z" fill="#525f75"/></g><g><path d="M305.383 269.244l1 22.695h-63.541l1-22.707 61.541.012z" fill="#333e50"/><path d="M268.59 384h-20v2c0 .53.211 1.039.586 1.414s.884.586 1.414.586h16c.53 0 1.039-.211 1.414-.586s.586-.884.586-1.414v-2z" fill="#edf0f5"/><path d="M265.59 379h-14l-3 5c6.979 1.333 13.61 1.181 20 0l-3-5zM251.59 371h14v8h-14z" fill="#20d98c"/><path d="M261.953 379.501l.036.003.035.006.034.008.035.011.033.013.032.016.031.018.029.019.028.022.027.024.025.026.022.028.021.029.019.03.016.032.014.033.012.033.009.035.007.035.005.035.001.036v.035l-.004.036-.005.035-.009.035-.011.034-.013.033-.015.032-.018.031-.02.03-.022.028-.024.026-.026.025-.027.023-.029.021-.031.018-.031.017-.033.014-.09.035-.095.035-.096.034-.096.033-.097.031-.098.031-.1.029-.1.028-.101.027-.101.026-.102.024-.104.024-.104.022-.105.022-.104.019-.106.019-.107.018-.107.017-.108.015-.108.015-.108.013-.11.012-.109.011-.11.01-.111.009-.111.007-.111.007-.112.005-.111.004-.113.003-.112.002-.113.001-.112-.001-.113-.001-.114-.003-.113-.003-.113-.005-.114-.006-.114-.007-.113-.009-.114-.009-.113-.011-.114-.011-.113-.013-.114-.014-.112-.016-.113-.016-.113-.017-.113-.019-.112-.02-.112-.021-.112-.022-.112-.023-.111-.025-.11-.025-.111-.027-.109-.028-.11-.029-.109-.031-.108-.031-.108-.033-.108-.034-.107-.036-.103-.035-.033-.013-.033-.015-.031-.018-.03-.019-.028-.022-.027-.024-.025-.025-.023-.027-.021-.029-.019-.03-.017-.032-.014-.032-.012-.034-.01-.034-.007-.035-.005-.036-.002-.035v-.036l.003-.036.006-.035.008-.035.01-.034.013-.033.015-.032.017-.032.02-.029.022-.029.023-.026.026-.025.027-.024.029-.021.03-.019.031-.016.033-.015.034-.012.034-.01.035-.007.035-.005.036-.002h.036l.035.003.035.006.035.008.034.01.098.034.095.031.096.031.097.029.098.028.097.028.099.026.099.025.1.025.1.023.101.022.1.021.102.02.102.019.102.018.102.017.103.016.102.015.104.014.103.013.103.011.103.011.104.01.104.008.103.008.104.006.103.006.104.004.103.004.103.002.103.001.103.001.103-.001.102-.002.102-.002.102-.004.101-.005.101-.006.101-.007.1-.008.1-.009.099-.009.098-.011.098-.012.097-.013.097-.014.096-.015.095-.016.095-.017.094-.018.093-.019.092-.019.091-.021.091-.022.09-.023.088-.023.087-.025.087-.025.086-.027.084-.027.083-.028.082-.03.081-.03.083-.032.034-.012.034-.009.035-.007.036-.004.035-.002.036.001zM261.953 377.501l.036.003.035.006.034.008.035.011.033.013.032.016.031.018.029.019.028.022.027.024.025.026.022.028.021.029.019.03.016.032.014.033.012.033.009.035.007.035.005.035.001.036v.035l-.004.036-.005.035-.009.035-.011.034-.013.033-.015.032-.018.031-.02.03-.022.028-.024.026-.026.025-.027.023-.029.021-.031.018-.031.017-.033.014-.09.035-.095.035-.096.034-.096.033-.097.031-.098.031-.1.029-.1.028-.101.027-.101.026-.102.024-.104.024-.104.022-.105.022-.104.019-.106.019-.107.018-.107.017-.107.015-.109.015-.109.013-.109.012-.109.011-.11.01-.111.009-.111.007-.111.007-.112.005-.111.004-.113.003-.112.002-.113.001h-.112l-.114-.002-.113-.003-.113-.003-.113-.005-.114-.006-.114-.007-.113-.009-.114-.009-.113-.011-.114-.011-.113-.013-.114-.014-.113-.016-.112-.016-.113-.017-.113-.019-.112-.02-.112-.021-.112-.022-.112-.023-.111-.025-.11-.025-.111-.027-.11-.028-.109-.029-.109-.031-.108-.031-.108-.033-.108-.034-.107-.036-.103-.035-.033-.013-.033-.015-.031-.018-.03-.019-.028-.022-.027-.024-.025-.025-.023-.027-.021-.029-.019-.03-.017-.032-.014-.032-.012-.034-.01-.034-.007-.035-.005-.036-.002-.035v-.036l.003-.036.006-.035.008-.035.01-.034.013-.033.015-.032.017-.032.02-.029.022-.029.023-.026.026-.025.027-.024.029-.021.03-.019.031-.016.033-.015.034-.012.034-.01.035-.007.035-.005.036-.002h.036l.035.003.035.006.035.008.034.01.098.034.095.031.096.031.097.029.098.028.097.028.099.026.099.026.1.024.1.023.101.022.1.021.102.02.102.019.102.018.102.017.103.016.102.015.104.014.103.013.103.011.103.011.104.01.104.008.103.008.104.006.103.006.104.004.103.004.103.002.103.002h.103l.103-.001.102-.002.102-.002.102-.004.101-.005.101-.006.101-.007.1-.008.1-.009.099-.009.098-.011.098-.012.097-.013.097-.014.096-.015.095-.016.095-.017.094-.018.093-.019.092-.019.091-.021.091-.022.09-.023.088-.023.087-.025.087-.025.086-.027.084-.027.083-.028.082-.03.081-.03.083-.032.034-.012.034-.009.035-.007.036-.004.035-.002.036.001zM261.953 375.501l.036.003.035.006.034.008.035.011.033.013.032.016.031.018.029.019.028.022.027.024.025.026.022.028.021.029.019.03.016.032.014.033.012.033.009.035.007.035.005.035.001.036v.035l-.004.036-.005.035-.009.035-.011.034-.013.033-.015.032-.018.031-.02.03-.022.028-.024.026-.026.025-.027.023-.029.021-.031.018-.031.017-.033.014-.09.035-.095.035-.096.034-.096.033-.097.031-.098.031-.1.029-.1.028-.101.027-.101.026-.102.024-.104.024-.104.022-.104.021-.105.021-.106.018-.107.018-.107.017-.107.015-.109.015-.109.013-.109.012-.109.011-.11.01-.111.009-.111.007-.111.007-.112.005-.111.004-.113.003-.112.002-.113.001h-.112l-.114-.002-.113-.003-.113-.003-.113-.005-.114-.006-.114-.007-.113-.009-.114-.009-.113-.011-.114-.011-.113-.013-.114-.014-.113-.016-.112-.016-.113-.017-.113-.019-.112-.02-.112-.021-.112-.022-.112-.023-.111-.025-.11-.025-.111-.027-.11-.028-.109-.03-.109-.03-.108-.031-.108-.033-.108-.034-.107-.036-.103-.035-.033-.013-.033-.015-.031-.018-.03-.019-.028-.022-.027-.024-.025-.025-.023-.027-.021-.029-.019-.03-.017-.032-.014-.032-.012-.034-.01-.034-.007-.035-.005-.036-.002-.035v-.036l.003-.036.006-.035.008-.035.01-.034.013-.033.015-.032.017-.032.02-.029.022-.029.023-.026.026-.025.027-.024.029-.021.03-.019.031-.016.033-.015.034-.012.034-.01.035-.007.035-.005.036-.002h.036l.035.003.035.006.035.008.034.01.098.034.095.031.096.031.097.029.098.028.098.028.098.026.099.025.1.025.1.023.101.022.101.021.101.02.101.019.103.018.102.017.103.016.102.015.104.014.103.013.103.011.103.011.104.01.104.008.103.008.104.006.103.006.104.004.103.004.103.002.103.002h.103l.103-.001.102-.002.102-.002.102-.004.101-.005.101-.006.101-.007.1-.008.1-.009.099-.009.098-.011.098-.012.097-.013.097-.014.096-.015.095-.016.095-.017.094-.018.093-.019.092-.019.091-.021.091-.022.09-.023.088-.023.087-.025.087-.025.086-.027.084-.027.083-.028.082-.03.081-.03.083-.032.034-.012.034-.009.035-.007.036-.004.035-.002.036.001z" fill="#0e8754"/><path d="M270.054 289.565c0-2.424-1.054-4.749-2.929-6.464-1.876-1.714-4.419-2.677-7.071-2.677h-3.484c-2.652 0-5.195.963-7.071 2.677-1.875 1.715-2.762 4.046-2.929 6.464-1.533 22.291-.797 61.161 2.828 86.125h18.86c-.098-13.506 1.796-63.23 1.796-86.125z" fill="#444f61"/><g><path d="M280.646 384h20v2c0 .53-.21 1.039-.585 1.414s-.884.586-1.415.586h-16c-.53 0-1.039-.211-1.414-.586s-.586-.884-.586-1.414v-2z" fill="#edf0f5"/><path d="M283.646 379h14l3 5c-6.978 1.333-13.609 1.181-20 0l3-5zM283.646 371h14v8h-14z" fill="#20d98c"/><path d="M287.355 379.502l.035.004.035.007.035.009.034.012.082.032.081.03.082.03.083.028.085.027.086.027.086.025.087.025.089.023.09.023.09.022.092.021.091.019.093.019.094.018.095.017.095.016.097.015.096.014.097.013.099.012.098.011.099.009.1.009.1.008.1.007.102.006.101.005.101.004.102.002.102.002.103.001.103-.001.103-.001.103-.002.104-.004.103-.004.104-.006.103-.006.104-.008.104-.008.103-.01.103-.011.104-.011.103-.013.103-.014.103-.015.102-.016.103-.017.102-.018.102-.019.101-.02.101-.021.101-.022.1-.023.099-.025.1-.025.098-.026.098-.028.098-.028.096-.029.096-.031.096-.031.097-.034.034-.01.035-.008.035-.006.036-.003h.036l.035.002.036.005.035.007.034.01.034.012.032.015.032.016.03.019.029.022.027.023.025.025.024.026.022.029.019.03.018.031.015.032.013.033.01.034.008.035.005.036.003.035.001.036-.003.035-.004.036-.008.035-.009.034-.012.034-.015.032-.017.032-.019.03-.021.029-.023.027-.025.025-.027.024-.028.022-.03.019-.031.018-.032.015-.034.013-.103.035-.107.036-.107.034-.108.033-.109.031-.109.031-.109.029-.11.028-.11.027-.111.025-.111.025-.112.023-.111.022-.112.021-.113.02-.112.019-.113.017-.113.016-.113.016-.113.014-.114.013-.113.011-.114.011-.113.009-.114.009-.113.007-.114.006-.113.005-.114.003-.113.003-.113.001-.113.001-.112-.001-.113-.002-.112-.003-.112-.004-.112-.005-.111-.007-.111-.007-.11-.009-.11-.01-.11-.011-.109-.012-.109-.013-.108-.015-.108-.015-.107-.017-.106-.018-.106-.019-.105-.019-.105-.022-.104-.022-.103-.024-.102-.024-.101-.026-.101-.027-.101-.028-.099-.029-.098-.031-.097-.031-.097-.033-.095-.034-.095-.035-.091-.035-.032-.014-.032-.017-.03-.018-.029-.021-.028-.023-.026-.025-.024-.026-.022-.028-.019-.03-.018-.031-.016-.032-.013-.033-.011-.034-.008-.035-.006-.035-.003-.036-.001-.035.002-.036.004-.035.007-.035.009-.035.012-.034.014-.032.017-.032.018-.03.021-.029.023-.028.025-.026.026-.024.028-.022.03-.02.031-.017.032-.016.033-.013.034-.011.035-.008.035-.006.036-.003.035-.001.036.002zM287.355 377.502l.035.004.035.007.035.009.034.012.082.032.081.03.082.03.083.028.085.027.086.027.086.025.087.025.089.023.09.023.09.022.092.021.091.019.093.019.094.018.095.017.095.016.097.015.096.014.097.013.098.012.099.011.099.009.1.009.1.008.1.007.102.006.101.005.101.004.102.002.102.002.103.001h.103l.103-.002.103-.002.104-.004.103-.004.104-.006.103-.006.104-.008.104-.008.103-.01.103-.011.104-.011.103-.013.103-.014.103-.015.102-.016.103-.017.102-.018.102-.019.101-.02.101-.021.101-.022.1-.023.099-.024.099-.026.099-.026.098-.028.098-.028.096-.029.096-.031.096-.031.097-.034.034-.01.035-.008.035-.006.036-.003h.036l.035.002.036.005.035.007.034.01.034.012.032.015.032.016.03.019.029.022.027.023.025.025.024.026.022.029.019.03.018.031.015.032.013.033.01.034.008.035.005.036.003.035.001.036-.003.035-.004.036-.008.035-.009.034-.012.034-.015.032-.017.032-.019.03-.021.029-.023.027-.025.025-.027.024-.028.022-.03.019-.031.018-.032.015-.034.013-.103.035-.107.036-.107.034-.108.033-.109.031-.109.031-.109.029-.11.028-.11.027-.111.025-.111.025-.112.023-.111.022-.112.021-.113.02-.112.019-.113.017-.113.016-.113.016-.113.014-.114.013-.113.011-.114.011-.113.009-.114.009-.113.007-.114.006-.113.005-.114.003-.113.003-.113.002h-.113l-.112-.001-.113-.002-.112-.003-.112-.004-.112-.005-.111-.007-.111-.007-.11-.009-.11-.01-.11-.011-.109-.012-.109-.013-.108-.015-.108-.015-.107-.017-.106-.018-.106-.019-.105-.019-.105-.022-.104-.022-.103-.024-.102-.024-.101-.026-.101-.027-.101-.028-.099-.029-.098-.031-.097-.031-.097-.033-.095-.034-.095-.035-.091-.035-.032-.014-.032-.017-.03-.018-.029-.021-.028-.023-.026-.025-.024-.026-.022-.028-.019-.03-.018-.031-.016-.032-.013-.033-.011-.034-.008-.035-.006-.035-.003-.036-.001-.035.002-.036.004-.035.007-.035.009-.035.012-.034.014-.032.017-.032.018-.03.021-.03.023-.027.025-.026.026-.024.028-.022.03-.02.031-.017.032-.016.033-.013.034-.011.035-.008.035-.006.036-.003.035-.001.036.002zM287.355 375.502l.035.004.035.007.035.009.034.012.082.032.081.03.082.03.083.028.085.027.086.027.086.025.087.025.089.023.09.023.09.022.092.021.091.019.094.019.093.018.095.017.095.016.096.015.097.014.097.013.098.012.099.011.099.009.1.009.1.008.1.007.102.006.101.005.101.004.102.002.102.002.103.001h.103l.103-.002.103-.002.104-.004.103-.004.104-.006.103-.006.104-.008.104-.008.103-.01.103-.011.104-.011.103-.013.103-.014.103-.015.102-.016.103-.017.102-.018.102-.019.101-.02.101-.021.101-.022.1-.023.099-.025.099-.025.099-.026.098-.028.098-.028.096-.029.096-.031.096-.031.097-.034.034-.01.035-.008.035-.006.036-.003h.036l.035.002.036.005.035.007.034.01.034.012.032.015.032.016.03.019.029.022.027.023.025.025.024.026.022.029.019.03.018.031.015.032.013.033.01.034.008.035.005.036.003.035.001.036-.003.035-.004.036-.008.035-.009.034-.012.034-.015.032-.017.032-.019.03-.021.029-.023.027-.025.025-.027.024-.028.022-.03.019-.031.018-.032.015-.034.013-.103.035-.107.036-.107.034-.108.033-.109.031-.108.03-.11.03-.11.028-.11.027-.111.025-.111.025-.111.023-.112.022-.112.021-.113.02-.112.019-.113.017-.113.016-.113.016-.113.014-.114.013-.113.011-.114.011-.113.009-.114.009-.113.007-.114.006-.113.005-.114.003-.113.003-.113.002h-.113l-.112-.001-.113-.002-.112-.003-.112-.004-.112-.005-.111-.007-.111-.007-.11-.009-.11-.01-.11-.011-.109-.012-.109-.013-.108-.015-.108-.015-.107-.017-.106-.018-.106-.018-.105-.021-.105-.021-.104-.022-.103-.024-.102-.024-.101-.026-.101-.027-.101-.028-.099-.029-.098-.031-.097-.031-.097-.033-.095-.034-.095-.035-.091-.035-.032-.014-.032-.017-.03-.018-.029-.021-.028-.023-.026-.025-.024-.026-.022-.028-.019-.03-.018-.031-.016-.032-.013-.033-.011-.034-.008-.035-.006-.035-.003-.036-.001-.035.002-.036.004-.035.007-.035.009-.035.012-.034.014-.032.017-.032.018-.03.021-.03.023-.027.025-.026.026-.024.028-.022.03-.02.031-.017.032-.016.033-.013.034-.011.035-.008.035-.006.036-.003.035-.001.036.002z" fill="#0e8754"/></g><path d="M279.183 289.565c0-2.424 1.054-4.749 2.929-6.464 1.875-1.714 4.419-2.677 7.071-2.677h3.483c2.652 0 5.196.963 7.071 2.677 1.875 1.715 2.763 4.046 2.929 6.464 1.534 22.291.797 61.161-2.827 86.125h-18.86c.098-13.506-1.796-63.23-1.796-86.125z" fill="#444f61"/><g><path d="M249.845 150.542l12.679-2.871 8.559 19.689-20.482 4.637-.756-21.455z" fill="#d4712b"/><clipPath id="b"><path d="M249.845 150.542l12.679-2.871 8.559 19.689-20.482 4.637-.756-21.455z"/></clipPath><g clip-path="url(#b)"><path d="M267.059 148.614c-2.574 4.491-12.064 10.865-17.578 10.577-2.333-.121-1.207-3.698-3.028-4.982l9.362-6.734 11.244 1.139z" fill="#181e26" fill-opacity="0.15"/></g><path d="M273.22 113.337s1.879-2.944 3.808-1.423c2.076 1.638-.243 4.421.118 6.275.294 1.517 1.066 4.384-.526 5.45-1.133.757-1.599.447-2.777-.505-4.03-3.254-.623-9.797-.623-9.797zM224.642 116.899s-2.288-2.639-3.975-.852c-1.814 1.923.885 4.338.799 6.225-.07 1.543-.416 4.493 1.315 5.314 1.232.585 1.647.209 2.674-.904 3.512-3.806-.813-9.783-.813-9.783z" fill="#aa5e27"/><path d="M247.007 88.792l.01-.001.242-.015c20.5-1.225 26.037 12.168 27.374 30.41.652 8.888.08 12.917-3.116 19.59-2.127 4.441-4.07 7.486-7.28 10.159-3.273 2.725-8.129 6-12.356 6.192l-.01.001-.009.001c-4.21.426-9.492-2.105-13.127-4.324-3.566-2.177-5.932-4.905-8.684-8.988-4.136-6.136-5.289-10.039-5.941-18.926-1.337-18.242 2.186-32.299 22.646-34.078l.242-.021h.009z" fill="#d4712b"/><path d="M261.857 116.576c-2.477.182-4.34 2.34-4.159 4.817.182 2.477 2.34 4.341 4.817 4.159 2.477-.182 4.341-2.34 4.159-4.817-.181-2.477-2.34-4.34-4.817-4.159z" fill="#181e26"/><path d="M256.107 109.189c.96-.578 5.093-.808 7.349-.462 2.529.389 3.426 1.057 3.082 1.566-.449.664-9.744.765-10.137.731-.849-.073-.982-1.421-.294-1.835z" fill="#333e50"/><path d="M248.826 125.976c.134-.37.473-.626.866-.655.392-.029.765.175.953.521 1.018 1.882 2.531 4.679 3.425 6.33.161.298.161.658-.002.956-.163.298-.466.493-.804.517-1.648.121-4.244.311-5.891.432-.339.025-.667-.123-.871-.394-.205-.271-.258-.627-.142-.946.643-1.763 1.733-4.751 2.466-6.761z" fill="#aa5e27"/><path d="M236.369 118.445c2.477-.182 4.635 1.682 4.817 4.159.182 2.477-1.682 4.635-4.159 4.817-2.477.182-4.635-1.682-4.817-4.159-.181-2.477 1.682-4.635 4.159-4.817z" fill="#181e26"/><path d="M241.126 110.287c-1.034-.432-5.156-.056-7.338.616-2.445.753-3.235 1.545-2.82 1.998.541.591 9.751-.664 10.135-.755.829-.196.764-1.55.023-1.859z" fill="#333e50"/><path d="M262.859 101.256c7.39 2.079 11.803 18.629 11.803 18.629s9.111-38.042-26.876-36.03c-38.066 2.127-23.621 39.733-23.621 39.733s3.757-17.631 9.389-20.212c8.261-3.787 22.54-4.023 29.305-2.12z" fill="#181e26"/><path d="M241.314 141.198c6.21.457 12.282.214 18.019-1.177 0 0-.164 5.675-8.113 6.545-6.721.736-9.906-5.368-9.906-5.368z" fill="#fff"/></g><g><path d="M233.711 192.771c-1.421-5.203-.681-10.76 2.054-15.409 2.734-4.649 7.23-7.996 12.468-9.283 7.347-1.805 15.665-3.848 23.007-5.651 5.23-1.285 10.756-.406 15.33 2.437 4.573 2.842 7.807 7.409 8.97 12.667 6.594 29.824 18.243 82.505 18.243 82.505l-57.822 14.203s-14.2-51.993-22.25-81.469z" fill="#d4712b"/><path d="M232.019 224.418c-8.448-.985-14.871-5.63-19.919-12.766l13.027-.538 6.892 13.304z" fill="#0e8754"/><path d="M269.094 162.955s1.311 9.62-7.147 11.114c-7.759 1.37-11.482-6.746-11.482-6.746-4.667.768-13.686 5.093-19.396 11.691-8.504 9.828 6.908 33.872 6.908 33.872l15.8 60.849c20.932-1.639 40.183-6.065 61.71-15.146l-15.909-72.068s-2.735-19.57-11.182-23.236c-5.348-2.321-12.152-2.951-19.302-.33z" fill="#17b272"/><path d="M235.541 179.015c-11.159 5.207-28.315 44.318-25.99 57.486 2.33 13.197 53.257 14.043 53.257 14.043l.958-10.18c-6.49-1.725-25.107-5.35-38.678-10.254 5.627-6.929 13.73-20.062 19.762-32.443l-9.309-18.652z" fill="#d4712b"/><path d="M237.977 212.886l21.4-12.847-8.912-32.716c-4.667.768-14.311 5.313-20.602 11.359-10.639 10.225-17.763 32.97-17.763 32.97 9.675 1.381 15.772 6.15 19.919 12.766l5.958-11.532z" fill="#17b272"/><path d="M307.061 212.433c7.965-2.983 13.086-9.034 16.273-17.172l-12.775 2.603-3.498 14.569z" fill="#0e8754"/><path d="M292.747 169.202c12.083 2.377 38.122 36.229 39.025 49.57.905 13.371-48.332 26.412-48.332 26.412l-3.372-9.652c5.886-3.233 23.089-11.218 35.087-19.236-7.125-5.376-18.143-16.181-26.969-26.753l4.561-20.341z" fill="#d4712b"/><path d="M298.51 202.669l-23.858-7.337.802-33.899c23.839-3.348 44.607 28.39 47.88 33.828-9.06 3.663-13.835 9.755-16.273 17.172l-8.551-9.764z" fill="#17b272"/><path d="M261.806 250.265s5.007 1.81 11.176 1.864c3.736.033 8.085-1.323 10.681-3.374 4.812-3.802 4.968-7.476 1.036-8.028-7.205-1.013-11.608 2.708-12.927-.275-.654-1.477 3.557-3.197 6.63-3.729 1.623-.282 1.829-2.351-3.44-2.077-1.783.093-6.12 1.382-7.731 2.447-3.355 2.22-6.509 6.547-6.509 6.547l1.084 6.625z" fill="#d4712b"/></g></g><g><path fill="#dde3ed" d="M0 270h62v130H0z"/><g fill="#9da9bd"><path d="M15 381h32v4H15zM15 373h32v4H15zM15 365h32v4H15zM15 357h32v4H15z"/></g><path d="M49 295c0-5.519-4.481-10-10-10H23c-5.519 0-10 4.481-10 10v32h36v-32z" fill="#f7f8fa"/><path fill="#cad2e0" d="M13 321h36v6H13z"/><path fill="#525f75" d="M24 285h2v4h-2z"/><path d="M27 289c0-.552-.448-1-1-1h-2c-.552 0-1 .448-1 1v4c0 .552.448 1 1 1h2c.552 0 1-.448 1-1v-4z" fill="#8eedc6"/><g><path fill="#525f75" d="M36 285h2v4h-2z"/><path d="M39 289c0-.552-.448-1-1-1h-2c-.552 0-1 .448-1 1v4c0 .552.448 1 1 1h2c.552 0 1-.448 1-1v-4z" fill="#8eedc6"/></g><g><path d="M59 178c0-4.415-3.585-8-8-8H11c-4.415 0-8 3.585-8 8v80c0 1.889.889 3.667 2.4 4.8 3.502 2.626 9.6 7.2 9.6 7.2h32s6.098-4.574 9.6-7.2c1.511-1.133 2.4-2.911 2.4-4.8v-80z" fill="#bcf5dd"/><path d="M62 192c0-2.208-1.792-4-4-4H4c-2.208 0-4 1.792-4 4v2c0 2.208 1.792 4 4 4h54c2.208 0 4-1.792 4-4v-2zM62 220c0-2.208-1.792-4-4-4H4c-2.208 0-4 1.792-4 4v2c0 2.208 1.792 4 4 4h54c2.208 0 4-1.792 4-4v-2z" fill="#bcf5dd"/><path d="M62 248c0-2.208-1.792-4-4-4H4c-2.208 0-4 1.792-4 4v2c0 2.208 1.792 4 4 4h54c2.208 0 4-1.792 4-4v-2z" fill="#8eedc6"/><path d="M59 232c-14.29-5.088-25.78 3.462-34.563 3.775C12.828 236.19 3 232 3 232v26c0 1.889.889 3.667 2.4 4.8 3.502 2.626 9.6 7.2 9.6 7.2h32s6.098-4.574 9.6-7.2c1.511-1.133 2.4-2.911 2.4-4.8v-26z" fill="#8eedc6"/></g></g><g><path d="M161.564 198.059c.661-6.74-1.557-13.446-6.106-18.463-4.549-5.018-11.007-7.879-17.779-7.879h-11.816c-6.762 0-13.21 2.852-17.758 7.855-4.549 5.003-6.776 11.693-6.134 18.424 2.797 29.311 6.933 72.66 6.933 72.66h45.541s4.245-43.287 7.119-72.597z" fill="#d4712b"/><path d="M107.838 180.819c-11.287 7.15-21.219 54.093-20.595 67.693.609 13.291-.672 55.013-.672 55.013l6.24-.195c.728-13.332 11.069-30.194 6.871-55.363 5.625-14.346 4.778-41.469 15.788-48.217l-7.632-18.931z" fill="#d4712b"/><path d="M92.817 303.223c1.21 2.413 2.385 7.254 2.208 10.186-.325 5.4.837 10.502-.641 10.226-2.035-.379-1.902-8.942-2.701-8.904-1.933.092.997 9.693.48 14.052-.264 2.223-6.062-5.637-6.515-7.144 0 0-3.421-6.349.925-18.159l3.948-2.404 2.296 2.147z" fill="#d4712b"/><path d="M108.6 178.714c-19.568 12.545-.558 79.388.304 91.942-15.253 62.862-16.149 11.146-14.102 37.301h74c1.761-31.103-.489 27.031-14.357-37.301 0 0 9.564-68.007 8.699-78.938-1.033-13.068-54.544-13.004-54.544-13.004z" fill="#ff7f65"/><path d="M102.965 185.739s-16.857 30.015-17.643 56.401c-.597 20.042.169 58.502.169 58.502l9.006.632c5.037-19.307 6.935-33.049 7.388-53.798l7.746-27.226-6.666-34.511z" fill="#ff7f65"/><path d="M103.475 241.886c.409-.723 1.027 4.362 1.027 4.362s6.498-30.45 4.257-37.164l-5.284 32.802z" fill="#181e26" fill-opacity="0.1"/><path d="M154.363 180.034c11.827 6.258 40.962 36.019 39.596 49.603-1.36 13.517-49.231 17.418-49.231 17.418l-1.693-5.975c13.953-4.473 32.292-14.169 38.249-12.081-7.332-13.92-20.586-23.29-32.522-28.89l5.601-20.075z" fill="#d4712b"/><path d="M148.63 175.492s47.743 30.92 46.771 53.551c-.564 13.155-47.675 20.092-47.675 20.092l-3.501-9.442c12.421-4.797 27.202-10.098 35.113-12.056-7.039-11.771-21.981-22.329-32.291-27.663l1.583-24.482z" fill="#ff7f65"/><path d="M126.951 157.288l-3.234 14.553 7.983 8.32 8.187-8.32-3.234-14.553h-9.702z" fill="#d4712b"/><clipPath id="c"><path d="M126.951 157.288l-3.234 14.553 7.983 8.32 8.187-8.32-3.234-14.553h-9.702z"/></clipPath><g clip-path="url(#c)"><path d="M120.958 156.439s1.99 7.622 11.471 7.388c6.497-.161 10.12-7.744 10.12-7.744l-21.591.356z" fill="#181e26" fill-opacity="0.15"/></g><path d="M108.791 124.537s-2.19-2.449-3.937-.373c-1.569 1.864.689 3.587.712 5.329.018 1.423-.141 4.156 1.497 4.819 1.164.471 2.119.262 3.004-.817 3.026-3.692-1.276-8.958-1.276-8.958zM154.864 124.537s2.19-2.449 3.937-.373c1.569 1.864-.69 3.587-.712 5.329-.019 1.423.14 4.156-1.497 4.819-1.165.471-2.119.262-3.004-.817-3.027-3.692 1.276-8.958 1.276-8.958z" fill="#aa5e27"/><ellipse cx="131.802" cy="129.797" rx="23.448" ry="30.725" fill="#d4712b"/><path d="M132.643 136.425c-.184-.286-.501-.459-.841-.459-.34 0-.657.173-.841.459-.757 1.177-1.869 2.907-2.669 4.151-.197.308-.211.699-.036 1.02.175.321.512.521.878.521h5.336c.366 0 .703-.2.878-.521.175-.321.161-.712-.037-1.02-.799-1.244-1.911-2.974-2.668-4.151z" fill="#aa5e27"/><circle cx="120.482" cy="128.989" r="4" fill="#181e26"/><path d="M124.721 120.381c-.918-.473-3.077-1.246-5.143-.846-2.315.449-4.785 2.754-4.587 3.284.131.351 2.665-1.407 5.051-1.749 1.845-.265 3.491.712 4.273.936.958.274 1.272-1.179.406-1.625z" fill="#333e50"/><circle cx="143.122" cy="128.989" r="4" fill="#181e26"/><path d="M126.436 149.595s1.371 3.86 5.295 3.832c4.804-.034 5.702-3.869 5.702-3.869l-10.997.037z" fill="#853c2d"/><path d="M126.474 149.595c1.599-1.738 2.892-2.274 5.325-1.081 2.593-1.324 3.486-.611 5.634 1.044l-4.599 1.489-6.36-1.452z" fill="#853c2d"/><path d="M122.677 146.894c5.842 4.287 12.17 4.417 18.143-.042 0 0-2.892 4.465-9.028 4.453-6.118-.011-9.115-4.411-9.115-4.411z" fill="#672e23"/><path d="M138.877 120.381c.918-.473 3.078-1.246 5.144-.846 2.315.449 4.785 2.754 4.587 3.284-.131.351-2.665-1.407-5.051-1.749-1.845-.265-3.491.712-4.273.936-.959.274-1.273-1.179-.407-1.625z" fill="#333e50"/><path d="M131.889 96.205c12.855.013 28.622 10.361 28.42 35.092-.121 14.725-14.314 28.878-21.329 31.135 1.496 2.695 1.935 8.485 1.935 8.485s12.462 2.631 16.457 10.59c-17.128 7.21-36.075 8.858-55.898 7.827.79-11.816 20.525-18.701 20.525-18.701s.109-4.561 1.521-8.163c-8.412-4.88-20.537-18.066-20.655-33.481-.134-17.452 11.584-32.801 29.024-32.784zm-.356 11.857s22.017 8.067 22.475 18.526c.871 19.881-9.941 33.256-21.699 33.276-12.985.022-22.169-14.05-21.327-30.875.771-15.379 20.551-20.927 20.551-20.927z" fill="#d63717"/><clipPath id="d"><path d="M131.889 96.205c12.855.013 28.622 10.361 28.42 35.092-.121 14.725-14.314 28.878-21.329 31.135 1.496 2.695 1.935 8.485 1.935 8.485s12.462 2.631 16.457 10.59c-17.128 7.21-36.075 8.858-55.898 7.827.79-11.816 20.525-18.701 20.525-18.701s.109-4.561 1.521-8.163c-8.412-4.88-20.537-18.066-20.655-33.481-.134-17.452 11.584-32.801 29.024-32.784zm-.356 11.857s22.017 8.067 22.475 18.526c.871 19.881-9.941 33.256-21.699 33.276-12.985.022-22.169-14.05-21.327-30.875.771-15.379 20.551-20.927 20.551-20.927z"/></clipPath><g clip-path="url(#d)" fill="#181e26" fill-opacity="0.15"><path d="M123.52 162.47c2.068 1.297 3.06 1.376 6.178 2.067-3.98.932-6.965-.369-7.432-.901-.622-.114-1.237-1.363 1.254-1.166zM139.021 162.423c-1.401.757-2.961 1.255-4.606 1.615 1.766.055 3.529-.059 5.284-.642l-.678-.973zM140.915 170.917c-2.653 1.527-4.746 1.907-7.946 2.006 4.618 1.08 8.017.389 12.296-1.252l-4.35-.754zM121.956 170.623c1.467.937 2.332 1.48 4.506 1.805-2.42.486-4.444-.16-6.799-1.069l2.293-.736z"/></g></g><path d="M360 260c0-5.304-2.107-10.391-5.858-14.142C350.391 242.107 345.304 240 340 240H54c-5.304 0-10.391 2.107-14.142 5.858C36.107 249.609 34 254.696 34 260v140h326V260z" fill="#69768c"/><g><path d="M311 181.1c0-1.711-1.389-3.1-3.1-3.1h-85.8c-1.711 0-3.1 1.389-3.1 3.1V240h92v-58.9z" fill="#444f61"/><path d="M264.999 194.001c-1.591 0-3.117.632-4.242 1.757-2.342 2.342-2.342 6.144 0 8.485 2.341 2.342 6.143 2.342 8.485 0 1.125-1.125 1.757-2.651 1.757-4.242l-6-6z" fill="#181e26"/></g><g><path d="M174.934 188.713c0-1.49-1.21-2.7-2.7-2.7h-74.6c-1.49 0-2.7 1.21-2.7 2.7v48.6c0 1.49 1.21 2.7 2.7 2.7h74.6c1.49 0 2.7-1.21 2.7-2.7v-48.6z" fill="#edf0f5"/><path d="M126.129 224.261c-.636-.816 5.075-13.642 9.626-11.35.303.153 1.311 1.17 1.431 1.437 1.878 4.185-10.423 10.726-11.057 9.913zm11.756-11.133c1.082-.067 2.305-.397 2.967-1.054 0 0 3.032 1.231 2.933-.889-.072-1.526-4.608-1.168-5.9 1.943zm-1.298-1.042c.136-1.09.576-1.995 1.24-2.757-.368-.616.091-1.752.851-1.796 0 0-1.258-2.71-.247-3.446 3.112-2.264 3.087 5.947-1.844 7.999z" fill="#cad2e0"/></g></g></svg>