<?xml version="1.0" encoding="UTF-8" standalone="no"?><!DOCTYPE svg PUBLIC "-//W3C//DTD SVG 1.1//EN" "http://www.w3.org/Graphics/SVG/1.1/DTD/svg11.dtd"><svg width="100%" height="100%" viewBox="0 0 360 400" version="1.1" xmlns="http://www.w3.org/2000/svg" xmlns:xlink="http://www.w3.org/1999/xlink" xml:space="preserve" style="fill-rule:evenodd;clip-rule:evenodd;stroke-linejoin:round;stroke-miterlimit:1.41421;"><rect id="company-external" x="0" y="0" width="360" height="400" style="fill:none;"/><clipPath id="_clip1"><rect x="0" y="0" width="360" height="400"/></clipPath><g clip-path="url(#_clip1)"><g id="board"><path d="M360,22c0,-1.656 -1.344,-3 -3,-3l-214,0c-1.656,0 -3,1.344 -3,3l0,150c0,1.656 1.344,3 3,3l214,0c1.656,0 3,-1.344 3,-3l0,-150Z" style="fill:#f7f8fa;"/><g><g><rect x="235.25" y="116" width="10" height="12" style="fill:#b9f6dd;"/><rect x="249.25" y="108" width="10" height="20" style="fill:#b9f6dd;"/><rect x="263.25" y="102" width="10" height="26" style="fill:#b9f6dd;"/><rect x="277.25" y="94" width="10" height="34" style="fill:#b9f6dd;"/><rect x="291.25" y="90" width="10" height="38" style="fill:#b9f6dd;"/><rect x="305.25" y="86" width="10" height="42" style="fill:#b9f6dd;"/><rect x="319.25" y="84" width="10" height="44" style="fill:#b9f6dd;"/><rect x="333.25" y="84" width="10" height="44" style="fill:#b9f6dd;"/></g><rect x="229.25" y="128" width="120" height="2" style="fill:#dde3ed;"/></g><g><path d="M206.237,44.172l-18,0c-0.991,6.261 -0.331,12.262 2,18l18,0c-1.885,-6.089 -2.682,-12.099 -2,-18Z" style="fill:#6de8b5;"/><path d="M200.128,50l0.203,0.001l0.203,0.002l0.202,0.003l0.2,0.004l0.201,0.006l0.198,0.007l0.198,0.007l0.197,0.01l0.194,0.01l0.193,0.013l0.192,0.013l0.19,0.015l0.188,0.017l0.181,0.018l0.065,0.009l0.064,0.013l0.063,0.017l0.062,0.021l0.06,0.025l0.059,0.029l0.057,0.032l0.054,0.037l0.052,0.04l0.049,0.043l0.046,0.046l0.043,0.049l0.04,0.052l0.036,0.055l0.033,0.057l0.029,0.058l0.025,0.061l0.021,0.062l0.017,0.063l0.013,0.064l0.008,0.065l0.004,0.065l0,0.066l-0.004,0.065l-0.009,0.065l-0.013,0.064l-0.017,0.063l-0.021,0.062l-0.025,0.061l-0.029,0.058l-0.032,0.057l-0.037,0.054l-0.04,0.052l-0.043,0.049l-0.046,0.047l-0.05,0.043l-0.051,0.04l-0.055,0.036l-0.057,0.033l-0.058,0.028l-0.061,0.025l-0.062,0.021l-0.063,0.017l-0.064,0.013l-0.065,0.008l-0.065,0.005l-0.066,0l-0.065,-0.005l-0.171,-0.017l-0.169,-0.015l-0.172,-0.013l-0.174,-0.013l-0.177,-0.011l-0.179,-0.01l-0.182,-0.008l-0.184,-0.008l-0.186,-0.006l-0.188,-0.005l-0.189,-0.004l-0.191,-0.003l-0.193,-0.002l-0.193,-0.001l-0.196,-0.001l-0.196,0.001l-0.197,0.001l-0.196,0.003l-0.399,0.006l-0.398,0.009l-0.399,0.012l-0.398,0.013l-0.396,0.014l-0.394,0.016l-0.39,0.016l-0.767,0.033l-0.739,0.031l-0.358,0.014l-0.348,0.012l-0.339,0.01l-0.327,0.008l-0.315,0.006l-0.154,0.001l-0.151,0l-0.146,0l-0.144,-0.001l-0.141,-0.003l-0.137,-0.004l-0.134,-0.004l-0.132,-0.006l-0.127,-0.008l-0.124,-0.009l-0.123,-0.011l-0.118,-0.012l-0.116,-0.015l-0.101,-0.015l-0.064,-0.011l-0.064,-0.016l-0.062,-0.02l-0.061,-0.024l-0.059,-0.028l-0.057,-0.032l-0.055,-0.035l-0.053,-0.039l-0.05,-0.043l-0.047,-0.045l-0.044,-0.049l-0.041,-0.051l-0.037,-0.054l-0.033,-0.056l-0.03,-0.058l-0.026,-0.06l-0.022,-0.062l-0.018,-0.063l-0.014,-0.064l-0.01,-0.064l-0.005,-0.066l-0.001,-0.065l0.003,-0.065l0.007,-0.065l0.012,-0.065l0.016,-0.063l0.02,-0.063l0.024,-0.06l0.028,-0.06l0.032,-0.057l0.035,-0.055l0.039,-0.052l0.042,-0.05l0.046,-0.047l0.048,-0.044l0.052,-0.041l0.053,-0.037l0.057,-0.034l0.058,-0.03l0.06,-0.026l0.061,-0.022l0.063,-0.018l0.064,-0.014l0.065,-0.009l0.065,-0.006l0.066,-0.001l0.065,0.003l0.065,0.008l0.079,0.012l0.074,0.009l0.082,0.009l0.089,0.007l0.096,0.007l0.102,0.006l0.108,0.005l0.114,0.004l0.119,0.004l0.124,0.002l0.13,0.001l0.134,0l0.138,0l0.142,-0.001l0.299,-0.005l0.313,-0.008l0.327,-0.01l0.34,-0.012l0.351,-0.013l0.735,-0.031l0.767,-0.033l0.394,-0.017l0.399,-0.015l0.403,-0.015l0.406,-0.013l0.409,-0.012l0.41,-0.009l0.41,-0.007l0.205,-0.002l0.205,-0.002l0.205,-0.001l0.204,0.001Z" style="fill:#1bc47e;"/></g><g><path d="M178.16,44.172l-18,0c-0.99,6.261 -0.33,12.262 2,18l18,0c-1.884,-6.089 -2.681,-12.099 -2,-18Z" style="fill:#6de8b5;"/><path d="M172.051,49l0.204,0.001l0.203,0.002l0.202,0.003l0.201,0.004l0.2,0.006l0.198,0.007l0.198,0.007l0.196,0.01l0.195,0.01l0.193,0.013l0.192,0.013l0.19,0.015l0.187,0.017l0.181,0.018l0.065,0.009l0.064,0.013l0.063,0.017l0.062,0.021l0.061,0.025l0.058,0.029l0.057,0.032l0.055,0.037l0.051,0.04l0.05,0.043l0.046,0.046l0.043,0.049l0.04,0.052l0.036,0.055l0.033,0.057l0.029,0.058l0.025,0.061l0.021,0.062l0.016,0.063l0.013,0.064l0.009,0.065l0.004,0.065l0,0.066l-0.005,0.065l-0.008,0.065l-0.013,0.064l-0.017,0.063l-0.021,0.062l-0.025,0.061l-0.029,0.058l-0.033,0.057l-0.036,0.054l-0.04,0.052l-0.043,0.049l-0.047,0.047l-0.049,0.043l-0.052,0.04l-0.054,0.036l-0.057,0.033l-0.059,0.028l-0.06,0.025l-0.062,0.021l-0.063,0.017l-0.065,0.013l-0.065,0.008l-0.065,0.005l-0.065,0l-0.066,-0.005l-0.171,-0.017l-0.168,-0.015l-0.172,-0.013l-0.174,-0.013l-0.177,-0.011l-0.18,-0.01l-0.182,-0.008l-0.184,-0.008l-0.186,-0.006l-0.187,-0.005l-0.19,-0.004l-0.191,-0.003l-0.192,-0.002l-0.194,-0.001l-0.196,-0.001l-0.195,0.001l-0.197,0.001l-0.197,0.003l-0.398,0.006l-0.398,0.009l-0.399,0.012l-0.398,0.013l-0.397,0.014l-0.394,0.016l-0.39,0.016l-0.766,0.033l-0.739,0.031l-0.358,0.014l-0.349,0.012l-0.337,0.011l-0.328,0.007l-0.315,0.006l-0.155,0.001l-0.15,0l-0.146,0l-0.144,-0.001l-0.141,-0.003l-0.138,-0.004l-0.134,-0.004l-0.131,-0.006l-0.127,-0.008l-0.125,-0.009l-0.121,-0.011l-0.119,-0.012l-0.116,-0.015l-0.101,-0.015l-0.065,-0.011l-0.063,-0.016l-0.063,-0.02l-0.06,-0.024l-0.06,-0.028l-0.057,-0.032l-0.055,-0.035l-0.052,-0.039l-0.05,-0.043l-0.047,-0.045l-0.044,-0.049l-0.041,-0.051l-0.037,-0.054l-0.034,-0.056l-0.03,-0.058l-0.026,-0.06l-0.022,-0.062l-0.018,-0.063l-0.014,-0.064l-0.009,-0.064l-0.006,-0.066l-0.001,-0.065l0.003,-0.065l0.008,-0.065l0.012,-0.065l0.015,-0.063l0.02,-0.063l0.025,-0.06l0.027,-0.06l0.032,-0.057l0.036,-0.055l0.039,-0.052l0.042,-0.05l0.046,-0.047l0.048,-0.044l0.051,-0.041l0.054,-0.037l0.056,-0.034l0.058,-0.03l0.06,-0.026l0.062,-0.022l0.063,-0.018l0.064,-0.014l0.065,-0.009l0.065,-0.006l0.065,-0.001l0.066,0.003l0.065,0.008l0.078,0.012l0.075,0.009l0.082,0.009l0.089,0.007l0.096,0.007l0.102,0.006l0.108,0.005l0.113,0.004l0.119,0.004l0.125,0.002l0.129,0.001l0.134,0l0.139,0l0.141,-0.001l0.299,-0.005l0.314,-0.008l0.327,-0.01l0.34,-0.012l0.351,-0.013l0.735,-0.031l0.767,-0.033l0.393,-0.017l0.399,-0.015l0.404,-0.015l0.405,-0.013l0.41,-0.012l0.409,-0.009l0.41,-0.007l0.206,-0.002l0.205,-0.002l0.204,-0.001l0.204,0.001Z" style="fill:#1bc47e;"/><path d="M170.663,53.525l0.151,0.002l0.155,0.003l0.157,0.004l0.158,0.005l0.162,0.007l0.164,0.008l0.166,0.009l0.168,0.01l0.171,0.013l0.174,0.013l0.175,0.015l0.178,0.017l0.178,0.018l0.054,0.007l0.053,0.009l0.053,0.013l0.051,0.016l0.051,0.018l0.05,0.021l0.049,0.024l0.047,0.026l0.046,0.029l0.044,0.031l0.043,0.034l0.041,0.035l0.038,0.038l0.037,0.04l0.034,0.042l0.032,0.044l0.029,0.046l0.027,0.046l0.025,0.049l0.022,0.049l0.019,0.051l0.016,0.052l0.013,0.052l0.011,0.053l0.008,0.054l0.004,0.054l0.002,0.054l-0.001,0.054l-0.004,0.054l-0.007,0.054l-0.009,0.053l-0.013,0.053l-0.016,0.052l-0.018,0.051l-0.021,0.05l-0.024,0.048l-0.026,0.048l-0.029,0.045l-0.031,0.045l-0.034,0.042l-0.035,0.041l-0.038,0.038l-0.04,0.037l-0.042,0.034l-0.044,0.032l-0.046,0.03l-0.047,0.027l-0.048,0.024l-0.049,0.022l-0.051,0.019l-0.052,0.016l-0.052,0.014l-0.053,0.01l-0.054,0.008l-0.054,0.005l-0.054,0.002l-0.054,-0.001l-0.054,-0.004l-0.17,-0.018l-0.163,-0.015l-0.161,-0.014l-0.158,-0.012l-0.156,-0.011l-0.153,-0.01l-0.152,-0.008l-0.149,-0.007l-0.147,-0.006l-0.145,-0.005l-0.142,-0.004l-0.141,-0.003l-0.139,-0.001l-0.137,-0.001l-0.135,0l-0.132,0.001l-0.132,0.001l-0.129,0.003l-0.128,0.003l-0.125,0.004l-0.249,0.009l-0.241,0.011l-0.236,0.014l-0.232,0.015l-0.226,0.016l-0.222,0.016l-0.434,0.035l-0.421,0.032l-0.208,0.015l-0.206,0.013l-0.205,0.011l-0.201,0.009l-0.103,0.004l-0.103,0.002l-0.1,0.002l-0.102,0.001l-0.103,-0.001l-0.101,-0.001l-0.101,-0.003l-0.103,-0.003l-0.102,-0.005l-0.102,-0.006l-0.102,-0.008l-0.104,-0.009l-0.102,-0.011l-0.104,-0.012l-0.105,-0.014l-0.096,-0.015l-0.053,-0.01l-0.053,-0.012l-0.052,-0.016l-0.051,-0.018l-0.05,-0.021l-0.049,-0.024l-0.047,-0.026l-0.046,-0.029l-0.044,-0.031l-0.043,-0.033l-0.04,-0.036l-0.039,-0.038l-0.037,-0.04l-0.034,-0.042l-0.032,-0.044l-0.029,-0.045l-0.028,-0.047l-0.024,-0.048l-0.022,-0.05l-0.019,-0.05l-0.017,-0.052l-0.013,-0.052l-0.011,-0.053l-0.008,-0.054l-0.004,-0.054l-0.002,-0.054l0.001,-0.054l0.003,-0.054l0.007,-0.054l0.01,-0.053l0.012,-0.053l0.016,-0.052l0.018,-0.051l0.021,-0.05l0.024,-0.049l0.026,-0.047l0.029,-0.046l0.031,-0.044l0.033,-0.043l0.036,-0.04l0.038,-0.039l0.04,-0.037l0.042,-0.034l0.044,-0.032l0.045,-0.029l0.047,-0.028l0.048,-0.024l0.05,-0.022l0.05,-0.019l0.052,-0.016l0.052,-0.014l0.053,-0.011l0.054,-0.008l0.054,-0.004l0.054,-0.002l0.054,0.001l0.054,0.003l0.054,0.007l0.078,0.012l0.07,0.01l0.073,0.008l0.073,0.008l0.073,0.006l0.076,0.006l0.077,0.005l0.076,0.004l0.077,0.002l0.08,0.002l0.081,0.001l0.08,0l0.083,0l0.084,-0.002l0.085,-0.002l0.086,-0.003l0.179,-0.007l0.184,-0.01l0.19,-0.013l0.195,-0.013l0.413,-0.032l0.437,-0.035l0.23,-0.017l0.237,-0.017l0.245,-0.015l0.252,-0.015l0.261,-0.012l0.266,-0.01l0.138,-0.004l0.139,-0.004l0.142,-0.003l0.143,-0.001l0.146,-0.001l0.148,0l0.15,0.001Z" style="fill:#1bc47e;"/></g></g><g><g id="stool"><rect x="270" y="308" width="8" height="92" style="fill:#cad2e0;"/><rect x="195" y="308" width="8" height="92" style="fill:#cad2e0;"/><path d="M187,303c0,-3.314 2.686,-6 6,-6c17.803,0 70.197,0 88,0c3.314,0 6,2.686 6,6c0,3 0,6 0,6l-100,0c0,0 0,-3 0,-6Z" style="fill:#525f75;"/></g><g><g><path id="pants" d="M243.527,307.206c0,0 24.386,-24.043 17,0c4.457,9.76 -2.079,70.19 -2.079,70.19l3.297,20.803l-17.323,-0.211l3.118,-20.942l-4.013,-69.84Z" style="fill:#fdd1a5;"/><g><path d="M262,400c0.507,0 0.98,-0.256 1.257,-0.681c0.277,-0.424 0.321,-0.961 0.116,-1.425c-1.29,-2.886 -4.414,-7.719 -10.907,-7.686c-5.779,0.029 -8.546,4.885 -9.676,7.747c-0.18,0.461 -0.12,0.981 0.159,1.39c0.279,0.409 0.742,0.653 1.237,0.653c4.167,0.002 13.581,0.002 17.814,0.002Z" style="fill:#21d98c;"/><rect x="247.13" y="375.9" width="12" height="3" style="fill:#20d98c;"/></g></g><path id="torso" d="M265.595,178.887c0.679,-8.607 -4.849,-16.484 -13.173,-18.773c-4.291,-1.179 -7.876,-2.165 -7.876,-2.165l-14.535,0.107c0,0 -3.448,0.944 -7.61,2.083c-8.315,2.275 -13.849,10.126 -13.197,18.722c1.845,24.338 5.317,70.136 5.317,70.136l45.541,0c0,0 3.612,-45.766 5.533,-70.11Z" style="fill:#fdd1a5;"/><path d="M214.691,247.839c-4.465,11.953 -10.315,37.578 -10.166,49.187l66.254,-0.026c0.427,-10.478 -5.964,-37.902 -10.541,-49.25l-45.547,0.089Z" style="fill:#333e50;"/><g><path id="pants1" d="M232.077,307.206c0,0 -24.387,-24.043 -17,0c-4.457,9.76 2.078,70.19 2.078,70.19l-3.297,20.803l17.323,-0.211l-3.118,-20.942l4.014,-69.84Z" style="fill:#fdd1a5;"/><g><path d="M213.604,400c-0.508,0 -0.981,-0.256 -1.258,-0.681c-0.277,-0.424 -0.321,-0.961 -0.116,-1.425c1.29,-2.886 4.414,-7.719 10.907,-7.686c5.779,0.029 8.546,4.885 9.676,7.747c0.18,0.461 0.121,0.981 -0.158,1.39c-0.28,0.409 -0.743,0.653 -1.238,0.653c-4.167,0.002 -13.581,0.002 -17.813,0.002Z" style="fill:#21d98c;"/><rect x="216.474" y="375.9" width="12" height="3" style="fill:#20d98c;"/></g></g><path d="M222.076,241.444c-2.175,1.827 -5.178,5.009 -8.293,5.42c-5.737,0.757 -10.859,3.014 -10.871,1.406c-0.015,-2.215 9.005,-3.816 8.803,-4.647c-0.49,-2.011 -11.715,0.324 -16.19,-1.098c-2.141,-0.68 5.839,-8.35 10.142,-9.543c0,0 4.624,-1.995 14.315,1.048l4.542,2.441l-2.448,4.973Z" style="fill:#fdd1a5;"/><clipPath id="_clip2"><path d="M222.076,241.444c-2.175,1.827 -5.178,5.009 -8.293,5.42c-5.737,0.757 -10.859,3.014 -10.871,1.406c-0.015,-2.215 9.005,-3.816 8.803,-4.647c-0.49,-2.011 -11.715,0.324 -16.19,-1.098c-2.141,-0.68 5.839,-8.35 10.142,-9.543c0,0 4.624,-1.995 14.315,1.048l4.542,2.441l-2.448,4.973Z"/></clipPath><g clip-path="url(#_clip2)"><path d="M200.81,234.722c0,0 10.948,6.719 14.481,4.421c3.534,-2.298 -0.531,-7.486 -0.531,-7.486l-14.723,-0.39l0.773,3.455Z" style="fill:#181e26;fill-opacity:0.15;"/></g><path id="arm" d="M265.163,171.317c9.018,9.407 17.523,49.012 10.214,60.209c-7.272,11.142 -54.702,14.353 -54.702,14.353l-2.218,-5.558c13.969,-6.112 27.384,-11.355 43.291,-14.476c-2.271,-15.738 -4.44,-29.621 -10.5,-39.595l13.915,-14.933Z" style="fill:#fdd1a5;"/><path d="M253.837,243.13c2.426,1.476 5.877,4.167 9.018,4.101c5.786,-0.121 11.191,1.334 10.958,-0.257c-0.32,-2.191 -9.479,-2.408 -9.405,-3.26c0.18,-2.062 11.629,-1.454 15.837,-3.538c2.013,-0.997 -7.037,-7.368 -11.471,-7.896c0,0 -4.872,-1.272 -13.991,3.204l-4.12,3.102l3.174,4.544Z" style="fill:#fdd1a5;"/><path id="arm1" d="M210.695,171.349c-9.018,9.407 -17.524,49.012 -10.215,60.209c7.273,11.142 54.703,14.354 54.703,14.354l2.217,-5.559c-13.968,-6.112 -27.384,-11.355 -43.29,-14.475c2.271,-15.739 4.44,-29.621 10.5,-39.596l-13.915,-14.933Z" style="fill:#fdd1a5;"/><path d="M237.427,166.289c0,0 0.005,0 0.005,0c6.29,-0.01 12.888,-3.725 15.716,-5.96c0,0 9.413,-0.145 18.777,18.805c2.687,5.436 3.925,18.334 3.925,18.334l-14.967,9.33l5.944,59.204l-29.4,-0.001c0,0 -29.4,0.001 -29.4,0.001l5.944,-59.204l-14.967,-9.33c0,0 1.238,-12.898 3.925,-18.334c9.364,-18.95 18.777,-18.805 18.777,-18.805c2.828,2.235 9.426,5.95 15.716,5.96l0.005,0l0,0Z" style="fill:#ff7f65;"/><g><path id="neck" d="M230.011,158.056c0,0 7.079,5.063 7.079,5.063l0.194,-0.132l0.193,0.132l7.079,-5.063c0,0 -1.509,-15.79 -1.509,-15.79l-11.527,0l-1.509,15.79Z" style="fill:#fdd1a5;"/><clipPath id="_clip3"><path d="M230.011,158.056c0,0 7.079,5.063 7.079,5.063l0.194,-0.132l0.193,0.132l7.079,-5.063c0,0 -1.509,-15.79 -1.509,-15.79l-11.527,0l-1.509,15.79Z"/></clipPath><g clip-path="url(#_clip3)"><path d="M246.037,144.373c0,0 -9.302,10.248 -20.059,2.025c-11.319,-8.653 10.346,-4.647 10.346,-4.647l9.713,2.622Z" style="fill:#181e26;fill-opacity:0.15;"/></g><circle cx="250.065" cy="101.851" r="25" style="fill:#fee3c8;"/><ellipse id="face" cx="237.753" cy="112.207" rx="25.44" ry="33.335" style="fill:#fdd1a5;"/><clipPath id="_clip4"><ellipse cx="237.753" cy="112.207" rx="25.44" ry="33.335"/></clipPath><g clip-path="url(#_clip4)"><path d="M229.921,126.851c-6.599,3.16 -19.364,7.914 -19.364,7.914c0,0 3.296,4.457 10.103,2.122c6.292,-2.157 9.261,-10.036 9.261,-10.036Z" style="fill:#fff;"/></g><path id="brow" d="M222.475,100.477c1.067,-0.341 3.572,0.056 5.71,0.857c2.396,0.897 4.309,3.189 4.002,3.721c-0.204,0.352 -2.258,-0.939 -4.75,-1.736c-1.926,-0.616 -4.202,-0.915 -5.079,-0.817c-1.074,0.121 -0.89,-1.704 0.117,-2.025Z" style="fill:#1bc47e;"/><circle id="eye" cx="225.065" cy="112.327" r="4" style="fill:#525f75;"/><path d="M212.328,113.313l2.809,11.017c0,0 -3.905,-1.388 -5.826,-2.071c-0.267,-0.094 -0.481,-0.297 -0.589,-0.558c-0.108,-0.262 -0.101,-0.556 0.02,-0.812c1.07,-2.261 3.586,-7.576 3.586,-7.576Z" style="fill:#fdd1a5;"/><path d="M239.136,94.125c2.478,19.319 1.13,43.15 -3.19,61.865c2.83,-0.161 31.363,-10.907 39.027,-19.685c0,0 8.263,-22.879 6.228,-35.994c-2.59,-16.7 -17.456,-30.766 -45.985,-27.421c-10.013,1.174 -22.241,12.712 -22.08,21.235l26,0Z" style="fill:#25e595;"/></g><path d="M267.264,297c-1.023,-11.901 -16.432,-15.094 -29.427,-15.492c-11.906,-0.365 -30.428,2.277 -30.135,15.492c0.424,19.106 3.386,25 3.386,25l54.409,0c0,0 2.174,-20.265 1.767,-25Z" style="fill:#444f61;"/></g><path id="laptop" d="M290,189.8c0,-1.545 -1.255,-2.8 -2.8,-2.8l-78.4,0c-1.545,0 -2.8,1.255 -2.8,2.8l0,53.2l84,0l0,-53.2Z" style="fill:#444f61;"/></g><g id="hckr"><g id="stool1"><rect x="112" y="308" width="8" height="92" style="fill:#cad2e0;"/><rect x="37" y="308" width="8" height="92" style="fill:#cad2e0;"/><path d="M29,303c0,-3.314 2.686,-6 6,-6c17.803,0 70.197,0 88,0c3.314,0 6,2.686 6,6c0,3 0,6 0,6l-100,0c0,0 0,-3 0,-6Z" style="fill:#525f75;"/></g><g><g><path d="M70.095,135.085c0.475,3.902 37.041,-18.062 31.574,-23.256c16.662,5.32 21.54,-21.429 7.593,-21.983c9.82,-8.129 -2.661,-26.839 -12.113,-20.434c2.236,-5.253 0.535,-12.426 -5.899,-14.625c-5.627,-1.923 -11.707,1.201 -13.942,6.454c-0.691,-5.666 -14.793,-13.928 -28.475,-6.863c-10.823,5.588 -10.741,17.821 -7.309,22.384c-15.729,-5.193 -24.517,25.661 -7.836,31.165c-6.36,0.894 -3.697,10.311 1.401,9.045c-11.438,6.082 2.045,27.59 14.547,19.925c-1.472,8.139 17.202,3.457 20.459,-1.812Z" style="fill:#333e50;"/><path id="neck1" d="M87.595,158.039l-8.404,6.371l-8.391,-6.318l1.873,-16.745l13.056,-0.112l1.866,16.804Z" style="fill:#aa5822;"/><clipPath id="_clip5"><path d="M87.595,158.039l-8.404,6.371l-8.391,-6.318l1.873,-16.745l13.056,-0.112l1.866,16.804Z"/></clipPath><g clip-path="url(#_clip5)"><path d="M70.551,144.283c0,0 9.303,10.248 20.06,2.025c11.318,-8.652 -10.346,-4.646 -10.346,-4.646l-9.714,2.621Z" style="fill:#181e26;fill-opacity:0.15;"/></g><circle cx="66.524" cy="101.762" r="25" style="fill:#aa5822;"/><ellipse id="face1" cx="78.835" cy="112.118" rx="25.44" ry="33.335" style="fill:#aa5822;"/><clipPath id="_clip6"><ellipse cx="78.835" cy="112.118" rx="25.44" ry="33.335"/></clipPath><g clip-path="url(#_clip6)"><path d="M86.355,128.152c6.598,3.16 21.222,4.019 21.222,4.019c0,0 -6.044,8.305 -12.85,5.971c-6.292,-2.158 -8.372,-9.99 -8.372,-9.99Z" style="fill:#fff;"/></g><path d="M104.152,115.406l-2.7,9.835c0,0 2.119,-0.469 3.881,-0.86c0.578,-0.128 1.069,-0.504 1.342,-1.029c0.273,-0.525 0.3,-1.144 0.073,-1.69c-1.04,-2.506 -2.596,-6.256 -2.596,-6.256Z" style="fill:#aa5822;"/><circle cx="91.25" cy="112.14" r="4.5" style="fill:#181e26;"/><path d="M95.786,101.586c-2.033,-1.809 -10.755,0.639 -9.91,2.287c0.221,0.43 7.77,-0.048 9.757,-0.294c0.604,-0.075 0.547,-1.643 0.153,-1.993Z" style="fill:#333e50;"/><path d="M86.116,71.763l-39.17,2.275l-10.342,37.791l13.032,25.068c-1.5,9.086 19.874,14.272 20.962,1.156c7.109,0.339 9.104,-10.607 2.386,-12.135c5.71,-3.405 7.005,-13.095 -1.734,-17.624c5.054,1.845 11.663,-3.01 7.246,-10.733c5.366,4.247 15.853,1.107 15.41,-4.249c9.535,8.994 14.754,-1.371 11.933,-4.775l-19.723,-16.774Z" style="fill:#333e50;"/></g><g><path id="torso1" d="M50.987,178.733c-0.674,-8.538 4.761,-16.368 12.996,-18.723c3.776,-1.08 6.829,-1.953 6.829,-1.953l16.693,0c0,0 3.086,0.882 6.893,1.969c8.217,2.347 13.651,10.148 13.005,18.669c-1.842,24.294 -5.33,70.302 -5.33,70.302l-45.541,0c0,0 -3.627,-45.96 -5.545,-70.264Z" style="fill:#aa5822;"/><path d="M94.573,243.098c2.426,1.476 5.877,4.166 9.018,4.101c5.786,-0.121 11.191,1.334 10.958,-0.257c-0.32,-2.192 -9.479,-2.408 -9.404,-3.26c0.179,-2.062 11.628,-1.454 15.836,-3.538c2.013,-0.997 -7.036,-7.369 -11.471,-7.897c0,0 -4.872,-1.271 -13.991,3.205l-4.119,3.102l3.173,4.544Z" style="fill:#aa5822;"/><g id="bottom"><path d="M103.903,247.839c4.465,11.953 8.315,37.578 8.166,49.187l-66.254,-0.026c-0.427,-10.478 3.964,-37.902 8.541,-49.25l49.547,0.089Z" style="fill:#333e50;"/><path id="pants2" d="M71.197,308.065c0,0 -25.439,-22.927 -16.983,0.761c-4.749,13.174 7.89,86.734 7.89,86.734l7.992,-0.358l1.101,-87.137Z" style="fill:#fdd1a5;"/><path id="pants3" d="M86.83,307.154c0,0 26.645,-21.513 16.917,1.681c4.027,13.412 -12.585,86.178 -12.585,86.178l-7.961,-0.791l3.629,-87.068Z" style="fill:#fdd1a5;"/><path d="M83.711,381.59c0.401,-19.308 -6.637,-100.589 15.631,-99.442c21.805,1.124 2.12,74.25 -4.036,99.878l-11.595,-0.436Z" style="fill:#444f61;"/><path d="M70.458,382.589c1.548,-19.249 12.572,-99.574 -9.698,-100.677c-21.807,-1.081 -5.946,74.149 -1.968,99.936l11.666,0.741Z" style="fill:#444f61;"/><path d="M96.882,400c0.343,0 0.662,-0.175 0.845,-0.465c0.184,-0.29 0.206,-0.654 0.059,-0.964c-1.191,-2.43 -4.395,-7.11 -11.438,-7.034c-4.813,0.053 -6.901,4.816 -7.64,7.172c-0.093,0.303 -0.036,0.631 0.152,0.885c0.189,0.254 0.486,0.404 0.802,0.404c3.555,0.002 13.449,0.002 17.22,0.002Z" style="fill:#f4421e;"/><path d="M57.57,400c-0.343,0 -0.662,-0.175 -0.845,-0.465c-0.184,-0.29 -0.206,-0.654 -0.059,-0.964c1.191,-2.43 4.395,-7.11 11.438,-7.034c4.813,0.053 6.901,4.816 7.641,7.172c0.092,0.303 0.035,0.631 -0.153,0.885c-0.188,0.254 -0.486,0.404 -0.802,0.404c-3.555,0.002 -13.449,0.002 -17.22,0.002Z" style="fill:#f4421e;"/></g><path id="arm2" d="M51.431,171.317c-9.018,9.407 -17.523,49.012 -10.214,60.209c7.272,11.142 54.702,14.353 54.702,14.353l2.218,-5.558c-13.969,-6.112 -27.384,-11.355 -43.291,-14.476c2.272,-15.738 4.44,-29.621 10.5,-39.595l-13.915,-14.933Z" style="fill:#aa5822;"/><path id="arm3" d="M89.069,169.643c-4.267,12.313 4.538,51.852 15.855,58.976c11.26,7.088 55.699,-9.794 55.699,-9.794l-0.305,-5.977c-15.245,0.277 -29.624,1.114 -45.381,4.919c2.498,-17.955 -7.688,-52.204 -13.646,-53.155l-12.222,5.031Z" style="fill:#aa5822;"/><path d="M156.487,220.22c0,0 4.717,2.469 10.822,3.355c3.698,0.537 8.189,-0.22 11.038,-1.902c5.282,-3.119 5.932,-6.738 2.111,-7.815c-7.003,-1.976 -11.868,1.117 -12.773,-2.016c-0.448,-1.552 -2.306,-4.779 -4.046,-3.941c-3.624,1.747 -7.332,5.609 -7.332,5.609l0.18,6.71Z" style="fill:#aa5822;"/><path d="M70.809,158.058c0,0 -13.021,0.685 -20.761,8.766c-4.153,4.336 -9.015,19.284 -11.283,26.843c-0.786,2.63 0.238,5.465 2.523,6.986c4.697,3.126 12.062,8.028 12.062,8.028l-6.549,58.71l64.895,0l-9.073,-60.593l14.967,-9.33c0,0 -6.139,-25.197 -11.212,-31.317c-5.939,-7.165 -18.844,-8.085 -18.844,-8.085c-5.781,4.568 -11.348,4.373 -16.725,-0.008Z" style="fill:#6de8b5;"/><clipPath id="_clip7"><path d="M70.809,158.058c0,0 -13.021,0.685 -20.761,8.766c-4.153,4.336 -9.015,19.284 -11.283,26.843c-0.786,2.63 0.238,5.465 2.523,6.986c4.697,3.126 12.062,8.028 12.062,8.028l-6.549,58.71l64.895,0l-9.073,-60.593l14.967,-9.33c0,0 -6.139,-25.197 -11.212,-31.317c-5.939,-7.165 -18.844,-8.085 -18.844,-8.085c-5.781,4.568 -11.348,4.373 -16.725,-0.008Z"/></clipPath><g clip-path="url(#_clip7)"><path d="M53.357,206.761c-1.236,2.806 0.143,9.272 2.327,5.63c-0.002,-1.909 1.618,-14.778 1.356,-28.934l-3.683,23.304Z" style="fill:#181e26;fill-opacity:0.1;"/><path d="M103.603,206.761c1.236,2.806 -0.143,9.272 -2.327,5.63c0.002,-1.909 -1.618,-14.778 -1.356,-28.934l3.683,23.304Z" style="fill:#181e26;fill-opacity:0.1;"/></g><g id="coffee"><g><path d="M186.906,196.569l-19.873,-2.251l-0.451,3.974l19.873,2.251l0.451,-3.974Z" style="fill:#edf0f5;"/><path d="M185.912,196.456c0.186,-1.646 -0.997,-3.132 -2.643,-3.318c-3.309,-0.375 -8.618,-0.977 -11.926,-1.351c-1.645,-0.187 -3.13,0.996 -3.316,2.641c-0.001,0.001 -0.001,0.002 -0.001,0.002l17.886,2.026c0,0 0,0 0,0Z" style="fill:#edf0f5;"/></g><path d="M185.462,200.431l-17.886,-2.026c0,0 -1.121,24.022 -1.358,29.098c-0.025,0.526 0.363,0.981 0.886,1.04c2.535,0.287 9.541,1.081 12.076,1.368c0.523,0.059 1.003,-0.297 1.096,-0.816c0.905,-5 5.186,-28.664 5.186,-28.664Z" style="fill:#e46e44;"/></g><path d="M155.295,220.22c0,0 4.718,2.469 10.822,3.355c0.319,0.047 0.825,-0.066 0.825,-0.066c0,0 0.378,-8.804 -0.449,-11.667c-0.448,-1.552 3.957,-2.688 7.073,-2.801c1.646,-0.06 2.13,-2.083 -3.128,-2.522c-1.779,-0.148 -6.251,0.544 -7.99,1.382c-3.625,1.747 -7.333,5.609 -7.333,5.609l0.18,6.71Z" style="fill:#aa5822;"/></g></g><g id="laptop1"><path d="M123,195.5c0,-1.38 -1.12,-2.5 -2.5,-2.5l-71,0c-1.38,0 -2.5,1.12 -2.5,2.5l0,45c0,1.38 1.12,2.5 2.5,2.5l71,0c1.38,0 2.5,-1.12 2.5,-2.5l0,-45Z" style="fill:#fbeae7;"/><path d="M76.636,227.736c-0.605,-0.776 4.82,-12.96 9.144,-10.783c0.288,0.145 1.246,1.112 1.359,1.365c1.785,3.976 -9.901,10.19 -10.503,9.418Zm11.168,-10.577c1.027,-0.063 2.19,-0.377 2.818,-1.001c0,0 2.88,1.169 2.786,-0.845c-0.067,-1.45 -4.377,-1.11 -5.604,1.846Zm-1.234,-0.99c0.13,-1.036 0.547,-1.895 1.179,-2.619c-0.35,-0.585 0.086,-1.664 0.808,-1.706c0,0 -1.195,-2.575 -0.235,-3.274c2.957,-2.151 2.933,5.65 -1.752,7.599Z" style="fill:#ffc7bc;"/></g></g><g id="coffee1"><g><rect x="295" y="209" width="20" height="4" style="fill:#edf0f5;"/><path d="M314,209c0,-1.657 -1.343,-3 -3,-3c-3.329,0 -8.671,0 -12,0c-1.657,0 -3,1.343 -3,3c0,0 0,0 0,0l18,0c0,0 0,0 0,0Z" style="fill:#edf0f5;"/></g><path d="M314,213l-18,0c0,0 1.59,23.996 1.926,29.066c0.035,0.526 0.471,0.934 0.998,0.934c2.55,0 9.602,0 12.152,0c0.527,0 0.963,-0.408 0.998,-0.934c0.336,-5.07 1.926,-29.066 1.926,-29.066Z" style="fill:#e46e44;"/></g><g id="table"><rect x="328" y="256" width="8" height="144" style="fill:#cad2e0;"/><rect x="10" y="256" width="8" height="144" style="fill:#cad2e0;"/><path d="M0,249c0,-3.314 2.686,-6 6,-6c42.037,0 291.963,0 334,0c3.314,0 6,2.686 6,6c0,4.541 0,10 0,10l-346,0c0,0 0,-5.459 0,-10Z" style="fill:#525f75;"/></g></g></svg>