<svg viewBox="0 0 360 400" xmlns="http://www.w3.org/2000/svg" fill-rule="evenodd" clip-rule="evenodd" stroke-linejoin="round" stroke-miterlimit="1.41421"><path fill="none" d="M0 0h360v400H0z"/><clipPath id="a"><path d="M0 0h360v400H0z"/></clipPath><g clip-path="url(#a)"><path d="M291 299c0-.53-.211-1.039-.586-1.414S289.53 297 289 297H163c-.53 0-1.039.211-1.414.586S161 298.47 161 299v8c0 4.418 3.582 8 8 8h114c4.418 0 8-3.582 8-8v-8z" fill="#9da9bd"/><path d="M290.625 187.922c1.38-15.647-3.874-31.155-14.482-42.74C265.535 133.597 250.549 127 234.841 127h-17.682c-15.708 0-30.694 6.597-41.302 18.182-10.608 11.585-15.862 27.093-14.482 42.74C165.679 236.697 171 297 171 297h110s5.321-60.303 9.625-109.078z" fill="#cad2e0"/><circle cx="176" cy="390" r="10" fill="#dde3ed"/><circle cx="276" cy="390" r="10" fill="#dde3ed"/><circle cx="226" cy="390" r="10" fill="#dde3ed"/><g fill="#181e26" fill-opacity="0.15"><path d="M176 380c2.76 1.667 5 5.574 5 10s-2.24 8.333-5 10c5.519 0 10-4.481 10-10s-4.481-10-10-10zM226 380c2.76 1.667 5 5.574 5 10s-2.24 8.333-5 10c5.519 0 10-4.481 10-10s-4.481-10-10-10zM276 380c2.76 1.667 5 5.574 5 10s-2.24 8.333-5 10c5.519 0 10-4.481 10-10s-4.481-10-10-10z"/></g><path d="M220 368v-53h12v53h41c1.657 0 3 1.343 3 3v9H176v-9c0-1.657 1.343-3 3-3h41z" fill="#dde3ed"/><g><path d="M226.348 88.011c-45.156.069-36.135 65.325-22.104 72.834 10.777 5.768 38.9 7.998 50.278.582 12.59-8.206 20.608-73.491-28.174-73.416z" fill="#333e50"/><path d="M233.12 157.621h-13l-2 21.092h17l-2-21.092z" fill="#feecc8"/><clipPath id="b"><path d="M233.12 157.621h-13l-2 21.092h17l-2-21.092z"/></clipPath><g clip-path="url(#b)"><path d="M216.047 158.871c2.473 2.69 6.907 5.644 10.577 5.642 3.583-.001 8.72-2.783 10.403-5.737l-10.407-2.828-10.573 2.923z" fill="#181e26" fill-opacity="0.15"/></g><path d="M226.62 94.861c14.04.002 25.438 14.938 25.438 33.335 0 18.398-15.948 33.503-25.419 33.335l-.019-.001-.02.001c-9.47.168-25.418-14.937-25.418-33.335 0-18.397 11.398-33.333 25.438-33.335z" fill="#feecc8"/><path d="M225.55 133.874c-.149-.385-.519-.638-.932-.638-.412 0-.782.253-.932.638-.652 1.676-1.499 3.854-2.038 5.241-.12.307-.08.654.107.927.186.272.495.435.825.435h4.076c.331 0 .639-.163.826-.435.186-.273.226-.62.106-.927-.539-1.387-1.386-3.565-2.038-5.241z" fill="#f9db9f"/><circle cx="212.337" cy="127.319" r="4.5" fill="#333e50"/><path d="M215.849 116.865c-1.991-1.226-9.793.64-9.472 2.174.049.238 7.113-.155 9.241-.317 1.205-.091.617-1.62.231-1.857z" fill="#444f61"/><circle cx="236.899" cy="127.319" r="4.5" fill="#333e50"/><path d="M233.387 116.865c1.992-1.226 9.794.64 9.473 2.174-.05.238-7.114-.155-9.241-.317-1.205-.091-.617-1.62-.232-1.857z" fill="#444f61"/><path d="M214.702 145.856c5.93.926 10.463 1.127 18.689.208 0 0-2.054 6.428-8.643 6.591-7.402.183-10.046-6.799-10.046-6.799z" fill="#fff"/><path d="M200.961 115.469h18.143l3.02-10.038.287 10.038h30.409s-1.955-23.566-26.226-23.569c-23.383-.004-24.719 22.917-25.633 23.569z" fill="#333e50"/><path d="M242.894 105c6.304 16.846 7.177 34.61 1.897 53.413l14.887-19.113s3.761-15.569-2.981-24.133C249.955 106.602 242.894 105 242.894 105z" fill="#333e50"/><path d="M247.92 179.911c11.589 6.649 27.014 52.939 26.986 66.553-.028 13.305-15.544 25.328-12.452 0-6.247-14.086-10.036-41.047-21.33-47.306l6.796-19.247z" fill="#feecc8"/><path d="M254.199 200.663c.491-6.654-1.811-13.211-6.352-18.099s-10.911-7.665-17.583-7.665h-7.09c-6.659 0-13.02 2.767-17.559 7.64-4.54 4.872-6.851 11.412-6.381 18.055 1.905 26.892 4.62 65.245 4.62 65.245h45.542s2.821-38.287 4.803-65.176z" fill="#feecc8"/><g><path d="M249.396 265.839c4.465 11.953 8.314 19.578 8.165 31.187L195.307 297c-.426-10.478 3.965-19.902 8.541-31.25l45.548.089z" fill="#00c875"/><path d="M221.791 308.966s-22.167-26.103-16.933-1.501c-6.457 12.426-3.7 87.013-3.7 87.013l7.968.707 12.665-86.219z" fill="#fdd1a5"/><path d="M195.696 400c-.333 0-.644-.165-.83-.44-.186-.276-.223-.626-.098-.934 1.11-2.641 4.293-8.167 11.532-8.089 4.934.054 7.005 5.654 7.694 8.213.077.299.012.617-.177.861s-.48.387-.789.387c-3.541.002-13.602.002-17.332.002z" fill="#17b272"/><path d="M230.557 309.289s21.531-26.63 16.893-1.91c6.755 12.267 5.799 86.899 5.799 86.899l-7.949.898-14.743-85.887z" fill="#fdd1a5"/><path d="M258.218 400c.332 0 .643-.165.829-.44.186-.276.223-.626.098-.934-1.11-2.641-4.293-8.167-11.532-8.089-4.934.054-7.004 5.654-7.694 8.213-.077.299-.012.617.177.861s.481.387.79.387c3.54.002 13.601.002 17.332.002z" fill="#17b272"/><path d="M255.986 297c-.089-11.944-16.187-15.518-29.188-15.438-9.784.06-29.762 2.224-29.468 15.439.424 19.105-3.712 32.349-3.712 32.349 21.469 3.393 43.477 4.341 66.531.538-4.732-13.559-4.141-29.936-4.163-32.888z" fill="#00e686"/></g><path d="M217.321 180.941c-5.16 17.98-19.091 40.737-26.321 48.785-7.777 8.658-47.564 8.665-47.564 8.665l-2.39-5.096c12.075-5.403 35.106-11.222 39.26-10.562 7.245-13.599 13.576-30.583 22.754-40.065l14.261-1.727z" fill="#feecc8"/><g><path d="M254.939 233.426c-.655 15.798-1.252 30.393-1.461 35.494-.043 1.072-.925 1.919-1.998 1.919h-49.705c-1.073 0-1.955-.847-1.999-1.919-.416-10.201-2.386-58.358-3.271-78.196-.252-5.649 3.475-10.708 8.945-12.142l10.17-3.404h22l10.185 3.404c.544.142 1.071.321 1.579.533.938.262 1.936.874 2.975 1.784.638.523 1.219 1.109 1.735 1.747 10.371 11.709 23.692 48.22 24.049 62.749.335 13.617-18.628 10.104-17.737 1.916 0 0-2.602-6.548-5.467-13.885z" fill="#17b272"/><path d="M202.627 179.719c-8.844 3.838-16.111 21.675-23.527 41.492-5.531 1.642-22.424 3.784-31.689 9.558l4.227 7.213s32.219-.02 38.561-4.609c6.978-5.051 10.867-9.145 13.734-17.197 2.867-8.051-1.306-36.457-1.306-36.457z" fill="#17b272"/><clipPath id="c"><path d="M202.627 179.719c-8.844 3.838-16.111 21.675-23.527 41.492-5.531 1.642-22.424 3.784-31.689 9.558l4.227 7.213s32.219-.02 38.561-4.609c6.978-5.051 10.867-9.145 13.734-17.197 2.867-8.051-1.306-36.457-1.306-36.457z"/></clipPath><g clip-path="url(#c)"><path d="M198.161 228.599c.268 1.538-3.121 7.022-3.722 6.033 0 0 1.177-25.077 4.803-34.57l-1.081 28.537z" fill="#181e26" fill-opacity="0.1"/></g><path fill="#333e50" d="M215.62 172.178h22v3h-22z"/></g><g><path fill="#edf0f5" d="M142.882 209h20v4h-20zM161.882 209c0-1.657-1.343-3-3-3H146.88c-1.656 0-2.998 1.342-2.998 2.998V209h18z"/><path d="M161.882 213h-18l1.987 30h14.025l1.988-30z" fill="#ff7f65"/></g><path d="M144.755 226.538c-3.264-.625-10.626 9.786-2.383 13.068 1.584.631 3.565.78 6.834-.232 3.708-1.147 4.634-8.089 1.476-8.655-6.191-1.108-5.845-2.393-5.927-4.181z" fill="#feecc8"/></g><g><path d="M60.423 396h20v2c0 .53-.21 1.039-.585 1.414s-.884.586-1.415.586h-16c-.53 0-1.039-.211-1.414-.586s-.586-.884-.586-1.414v-2z" fill="#dde3ed"/><path d="M77.423 391l3 5c-6.978 1.333-13.609 1.181-20 0l3-5v-8h14v8z" fill="#17b272"/><path d="M67.131 391.502c.049.006.093.016.139.032.082.032.164.062.246.092.756.256 1.548.385 2.345.419.826.035 1.658-.03 2.468-.195.267-.054.533-.12.794-.198.142-.042.28-.092.421-.135.035-.008.034-.008.07-.014.108-.008.214.009.309.065.051.03.097.069.135.115.148.179.15.445.006.627-.053.067-.12.114-.197.15-.08.031-.161.057-.243.084-1.505.477-3.121.625-4.688.426-.458-.059-.913-.148-1.357-.276-.237-.068-.476-.144-.704-.242-.032-.016-.031-.016-.062-.035-.069-.049-.126-.108-.166-.183-.115-.217-.051-.494.148-.638.069-.05.146-.078.23-.092.036-.003.07-.004.106-.002zm0-2c.049.006.093.016.139.032.082.032.164.062.246.092.756.256 1.548.385 2.345.419.826.035 1.658-.03 2.468-.195.267-.054.533-.12.794-.198.142-.042.28-.092.421-.135.035-.008.034-.008.07-.014.108-.008.214.009.309.065.051.03.097.069.135.115.148.179.15.445.006.627-.053.067-.12.114-.197.15-.08.031-.161.057-.243.084-1.505.477-3.121.625-4.688.426-.458-.059-.913-.148-1.357-.276-.237-.068-.476-.144-.704-.242-.032-.016-.031-.016-.062-.035-.069-.049-.126-.108-.166-.183-.115-.217-.051-.494.148-.638.069-.05.146-.078.23-.092.036-.003.07-.004.106-.002zm0-2c.049.006.093.016.139.032.082.032.164.062.246.092.788.267 1.616.396 2.446.423.793.025 1.59-.04 2.367-.199.267-.054.533-.12.794-.198.142-.042.28-.092.421-.135.034-.008.034-.008.07-.014.108-.008.214.009.309.065.051.03.097.069.135.115.148.179.15.445.006.627-.053.067-.12.114-.197.15-.08.031-.161.057-.243.084-1.505.477-3.121.625-4.688.426-.458-.059-.912-.148-1.356-.276-.238-.068-.477-.144-.705-.242-.032-.017-.032-.016-.062-.035-.069-.049-.126-.108-.166-.183-.115-.217-.051-.494.148-.638.069-.05.146-.078.23-.092.036-.003.07-.004.106-.002z" fill="#fff"/><path d="M48.379 396h-20v2c0 .53.211 1.039.586 1.414s.884.586 1.414.586h16c.53 0 1.039-.211 1.414-.586s.586-.884.586-1.414v-2z" fill="#dde3ed"/><path d="M31.379 391v-8h14v8l3 5c-6.39 1.181-13.021 1.333-20 0l3-5z" fill="#17b272"/><path d="M41.742 391.501c.085.008.164.03.236.075.231.144.304.458.16.689-.059.093-.143.158-.244.201-.092.036-.186.071-.28.104-.848.288-1.736.436-2.63.474-.679.029-1.362-.005-2.036-.098-.451-.063-.898-.154-1.337-.274-.227-.062-.456-.127-.676-.212-.032-.015-.032-.015-.063-.032-.092-.06-.164-.139-.205-.241-.022-.055-.035-.114-.036-.174-.006-.232.155-.443.381-.499.082-.02.164-.016.247.003.141.043.279.092.42.135.927.27 1.889.404 2.854.402.66-.001 1.322-.065 1.966-.207.238-.053.473-.117.704-.193.122-.041.241-.089.363-.132.035-.009.034-.009.07-.016.036-.004.07-.006.106-.005zm0-2c.109.01.21.046.294.117.208.175.235.496.06.704-.055.065-.124.111-.202.144-.092.036-.186.071-.28.104-.848.288-1.736.436-2.63.474-.679.029-1.362-.005-2.036-.098-.451-.063-.898-.154-1.337-.274-.227-.062-.456-.127-.676-.212-.032-.015-.032-.015-.063-.032-.071-.047-.131-.103-.174-.177-.03-.051-.05-.108-.06-.167-.039-.229.09-.461.306-.548.102-.041.209-.043.315-.019.141.042.279.092.42.135.927.27 1.889.404 2.854.402.66-.001 1.322-.065 1.966-.207.238-.053.473-.117.704-.193.122-.041.241-.089.363-.132.035-.009.035-.009.07-.016.036-.004.07-.006.106-.005zm0-2c.085.008.164.03.236.075.231.144.304.458.16.689-.059.093-.143.158-.244.201-.092.036-.186.071-.28.104-.883.3-1.81.448-2.742.478-.642.021-1.287-.014-1.924-.103-.451-.062-.898-.152-1.337-.272-.227-.063-.456-.128-.676-.213-.032-.015-.032-.015-.063-.032-.092-.06-.164-.139-.205-.241-.022-.055-.035-.114-.036-.174-.006-.232.155-.443.381-.499.082-.02.164-.016.247.003.141.042.279.092.42.135.927.27 1.889.404 2.854.402.66-.001 1.322-.065 1.966-.207.238-.053.473-.117.704-.193.122-.041.241-.089.363-.132.035-.009.034-.009.07-.016.036-.004.07-.006.106-.005z" fill="#fff"/><path fill="#444f61" d="M30.208 215h49.856v15.954H30.208z"/><path d="M54.097 215h-27l1 170.495h19l7-170.495z" fill="#444f61"/><clipPath id="d"><path d="M54.097 215h-27l1 170.495h19l7-170.495z"/></clipPath><g clip-path="url(#d)"><path d="M42.723 215s-6.804 13.028-18.383 13.808c-14.675.987-1.71-13.273-1.71-13.273l6.031-6.305L42.723 215z" fill="#333e50"/></g><path d="M54.706 215h27l-1 170.495h-19l-7-170.495z" fill="#444f61"/><clipPath id="e"><path d="M54.706 215h27l-1 170.495h-19l-7-170.495z"/></clipPath><g clip-path="url(#e)"><path d="M66.08 215s6.803 13.028 18.383 13.808c14.674.987 1.71-13.273 1.71-13.273l-6.032-6.305L66.08 215z" fill="#333e50"/></g><path d="M78.775 56.457s2.719-2.221 4.054-.678c1.911 2.211-.152 4.899-.219 6.787-.087 2.427.761 3.913-.518 4.521-1.231.586-2.307.222-3.412-.813-3.782-3.54.095-9.817.095-9.817z" fill="#7d441c"/><path d="M61.884 92.234h-15l-2 19.092 9.642 4.134 9.358-4.134-2-19.092z" fill="#aa5822"/><clipPath id="f"><path d="M61.884 92.234h-15l-2 19.092 9.642 4.134 9.358-4.134-2-19.092z"/></clipPath><g clip-path="url(#f)"><path d="M43.884 94.875c4.985 5.424 16.102 5.751 21.118.186l-10.618-4.5-10.5 4.314z" fill="#181e26" fill-opacity="0.15"/></g><path d="M30.027 56.457s-2.719-2.221-4.053-.678c-1.912 2.211.151 4.899.219 6.787.087 2.427-.761 3.913.518 4.521 1.23.586 2.306.222 3.412-.813 3.781-3.54-.096-9.817-.096-9.817z" fill="#7d441c"/><path d="M54.524 29.062l.12-.001c20.758.165 25.866 14.973 25.339 33.334-.299 10.41-4.659 22.713-11.168 28.147-3.343 2.791-12.335 6.406-14.122 6.38-.049 0-.106-.003-.169-.007-.064.004-.12.007-.17.007-1.787.026-10.778-3.589-14.122-6.38-6.509-5.434-10.869-17.737-11.168-28.147-.526-18.361 4.581-33.169 25.339-33.334l.121.001z" fill="#aa5822"/><path d="M43.97 81.688c6.938.804 13.886.817 20.844 0 0 0-3.433 5.812-10.377 5.843-7.174.032-10.467-5.843-10.467-5.843z" fill="#fff"/><path d="M34.191 44.401c8.965-7.393 32.201-7.635 41.928.293l3.431 22.707c7.091-24.272-7.878-40.908-25.118-41.02-15.193-.099-27.91 10.36-26.159 32.097.174 2.161 1.157 8.423 1.157 8.423l4.761-22.5z" fill="#333e50"/><path d="M56.154 71.413c-.362-.642-1.041-1.04-1.778-1.04-.737 0-1.417.398-1.778 1.04-.65 1.155-1.355 2.408-1.884 3.349-.174.31-.171.688.008.995.18.307.508.495.863.495h5.581c.355 0 .684-.188.863-.495.179-.307.182-.685.008-.995-.529-.941-1.234-2.194-1.883-3.349z" fill="#7d441c"/><circle cx="41.603" cy="63.094" r="4.5" fill="#181e26"/><path d="M46.235 52.582c-.985-.535-2.724-.692-5.031-.457-2.545.26-4.653 1.109-4.581 1.719.062.522 3.088.366 5.86.379 2.03.01 3.675.468 4.189.166.734-.431.269-1.424-.437-1.807z" fill="#181e26"/><circle cx="67.148" cy="63.094" r="4.5" fill="#181e26"/><path d="M62.516 52.582c.985-.535 2.725-.692 5.031-.457 2.545.26 4.654 1.109 4.582 1.719-.062.522-3.089.366-5.861.379-2.03.01-3.674.468-4.188.166-.735-.431-.269-1.424.436-1.807z" fill="#181e26"/><path d="M77.065 115.258c11.59 4.164 32.252 41.541 31.142 54.866-1.112 13.355-4.803 42.95-4.803 42.95l-7.021-.291c-1.739-6.164-5.992-23.128-2.797-41.486-6.247-14.085-12.789-30.354-24.083-36.614l7.562-19.425zM25.044 119.712c-10.887 5.754-26.081 45.669-23.105 58.705C4.92 191.482 55.828 189.8 55.828 189.8l.451-10.215c-6.568-1.401-25.341-4.097-39.14-8.322 4.202-14.825 7.827-25.596 18.128-33.384l-10.223-18.167z" fill="#aa5822"/><path d="M23.205 132.411c-.298-5.484 1.673-10.85 5.45-14.838 3.777-3.988 9.028-6.247 14.521-6.247h22.503c5.484 0 10.728 2.252 14.504 6.229 3.776 3.977 5.753 9.33 5.47 14.806-1.588 30.633-4.35 83.905-4.35 83.905H27.762s-2.892-53.215-4.557-83.855z" fill="#aa5822"/><path d="M63.884 111.326s-6.159 10.37-9.315 10.367c-3.155-.003-9.685-10.367-9.685-10.367-4.715-.367-15.331 1.84-22.45 6.886-10.604 7.515-25.495 52.98-21.516 62.37 2.665 6.286 16.107 8.051 16.107 8.051s.208-12.125.856-17.741l5.637-15.533 2.258 60.972c20.719 3.402 34.47 3.696 57.542.012l2.168-61.47 6.259 16.891 22.777 18.023 12.512 3.098c3.4-13.22-9.008-21.311-19.256-28.199 0 0-11.594-34.677-22.326-45.559-3.785-3.837-13.998-8.641-21.568-7.801z" fill="#ffc7bc"/><clipPath id="g"><path d="M63.884 111.326s-6.159 10.37-9.315 10.367c-3.155-.003-9.685-10.367-9.685-10.367-4.715-.367-15.331 1.84-22.45 6.886-10.604 7.515-25.495 52.98-21.516 62.37 2.665 6.286 16.107 8.051 16.107 8.051s.208-12.125.856-17.741l5.637-15.533 2.258 60.972c20.719 3.402 34.47 3.696 57.542.012l2.168-61.47 6.259 16.891 22.777 18.023 12.512 3.098c3.4-13.22-9.008-21.311-19.256-28.199 0 0-11.594-34.677-22.326-45.559-3.785-3.837-13.998-8.641-21.568-7.801z"/></clipPath><g clip-path="url(#g)"><path d="M55.693 180.805c-6.004-3.835-25.311-8.839-31.996-10.011l.378 1.933 31.618 8.078z" fill="#181e26" fill-opacity="0.15"/></g><path d="M54.32 189.002s4.717 2.469 10.821 3.355c3.698.536 8.19-.221 11.039-1.903 5.281-3.119 5.931-6.738 2.11-7.815-7.003-1.975-11.868 1.117-12.773-2.016-.448-1.552 3.957-2.688 7.074-2.801 1.645-.06 2.129-2.083-3.129-2.522-1.779-.148-6.251.544-7.99 1.382-3.624 1.747-7.333 5.609-7.333 5.609l.181 6.711z" fill="#7d441c"/><g><path d="M61.042 151.937c-1.377.369-2.196 1.786-1.827 3.163l17.299 64.557c.368 1.377 1.786 2.195 3.163 1.826l44.902-12.031c1.377-.369 2.196-1.787 1.827-3.163l-17.298-64.558c-.369-1.377-1.787-2.195-3.163-1.826l-44.903 12.032z" fill="#f7f8fa"/><path d="M106.96 138.908c.237.007.47.039.697.106.593.173 1.117.556 1.46 1.07.147.221.334.716.334.716l17.718 66.123s.092.609.057.916c-.085.744-.494 1.432-1.106 1.862-.235.166-.769.371-.769.371l-46.032 12.335s-.566.089-.852.063c-.745-.067-1.443-.459-1.888-1.06-.185-.249-.409-.821-.409-.821l-17.718-66.124s-.092-.608-.057-.916c.086-.743.494-1.431 1.106-1.862.235-.165.769-.371.769-.371l46.032-12.334s.262-.051.396-.064c.088-.007.174-.01.262-.01zm14.941 63.807l-15.943-59.501-43.273 11.595 15.943 59.501 43.273-11.595z" fill="#444f61"/><path d="M100.782 210.445c1.066-.286 2.164.348 2.45 1.414.285 1.066-.348 2.164-1.415 2.449-1.066.286-2.163-.348-2.449-1.414-.286-1.066.348-2.164 1.414-2.449z" fill="#525f75"/><path d="M83.038 153.497l-15.454 4.141 3.105 11.591 15.455-4.141-3.106-11.591z" fill="#ffa391"/><path d="M103.13 148.113l-15.455 4.141 3.106 11.591 15.454-4.141-3.105-11.591z" fill="#8eedc6"/><path d="M87.386 169.724l-15.454 4.141 3.106 11.591 15.454-4.141-3.106-11.591z" fill="#ff6243"/><path d="M107.478 164.341l-15.455 4.141 3.106 11.591 15.455-4.141-3.106-11.591z" fill="#43e8a3"/><path d="M91.735 185.952l-15.455 4.141 3.106 11.591 15.454-4.141-3.105-11.591z" fill="#c93214"/><path d="M111.826 180.568l-15.455 4.141 3.106 11.592 15.455-4.142-3.106-11.591z" fill="#1bc47e"/></g><path d="M54.32 189.002s4.717 2.469 10.821 3.355c3.698.536 8.19-.221 11.039-1.903 5.281-3.119 5.931-6.738 2.11-7.815-7.003-1.975-11.868 1.117-12.773-2.016-.448-1.552-2.306-4.779-4.045-3.941-3.624 1.747-7.333 5.609-7.333 5.609l.181 6.711zM120.86 183.373c3.264-.625 10.845 9.76 2.601 13.043-1.584.63-3.565.78-6.833-.232-3.708-1.148-4.634-8.09-1.476-8.655 6.191-1.109 5.626-2.367 5.708-4.156z" fill="#aa5822"/><path d="M13.022 179.102l4.854-8.167 37.817 9.87-1.174 8.297c-12.689 1.235-24.322 1.494-37.494-.469l-4.003-9.531z" fill="#ffc7bc"/></g><g><path d="M154.968 66.459c-7.608 2.782-16.19 3.352-22.82 1.157-3.166-1.049-6.331-2.078-9.226-3.637-5.407 5.97-11.152 8.572-17.063 9.521 5.378-4.113 8.502-9.224 8.544-15.7-7.723-7.448-10.606-15.68-8.679-24.678 2.634-12.297 18.712-19.975 37.586-16.95 21.151 3.389 34.073 14.021 29.478 33.241-1.151 4.817-4.292 8.897-8.493 12.062.043 6.476 3.261 11.82 8.639 15.933-5.911-.949-12.266-5.087-17.673-11.057-.213.115-.304.146-.293.108z" fill="#edf0f5"/><path d="M147.026 33.976l-23.797-3.115-2.337 17.848 23.797 3.115 2.337-17.848z" fill="#43e8a3"/><g fill="#9da9bd"><path d="M158.849 32.434c-4.616-2.29-8.171 16.82-6.927 17.107.965.222 9.615-15.773 6.927-17.107zM151.314 51.557c-.546 0-1.616.219-1.99 2.024-.3 1.453.593 2.124 1.333 2.217.822.103 1.683-.467 1.911-2.071.223-1.574-.355-2.17-1.254-2.17z"/></g></g><g><path d="M316 191.7c0-1.49-1.21-2.7-2.7-2.7h-74.6c-1.49 0-2.7 1.21-2.7 2.7v48.6c0 1.49 1.21 2.7 2.7 2.7h74.6c1.49 0 2.7-1.21 2.7-2.7v-48.6z" fill="#edf0f5"/><path d="M267.196 227.248c-.637-.816 5.074-13.642 9.625-11.35.304.153 1.311 1.17 1.431 1.437 1.878 4.185-10.423 10.726-11.056 9.913zm11.755-11.133c1.082-.067 2.305-.397 2.967-1.054 0 0 3.032 1.231 2.933-.889-.071-1.527-4.608-1.169-5.9 1.943zm-1.298-1.042c.136-1.091.576-1.995 1.241-2.758-.369-.615.09-1.751.85-1.795 0 0-1.258-2.71-.247-3.446 3.112-2.265 3.087 5.947-1.844 7.999z" fill="#cad2e0"/></g><path d="M319.264 243.001l.263.002.263.004.264.006.261.008.262.009.262.011.261.012.262.014.26.016.261.017.26.019.26.021.258.022.259.024.259.025.258.027.258.029.257.03.256.032.255.033.257.035.255.037.255.038.255.04.253.041.254.043.254.044.252.046.25.047.252.049.252.051.25.052.249.053.249.055.249.057.249.058.247.06.246.061.247.062.247.065.245.065.243.067.246.069.244.07.24.071.244.073.241.074.241.076.241.077.239.079.238.08.238.081.239.083.238.085.235.085.235.087.236.089.234.09.233.091.234.093.231.093.232.096.231.097.229.097.23.1.228.101.228.102.227.104.225.104.226.106.226.108.224.109.222.11.223.111.221.112.221.114.221.116.218.116.218.118.218.119.217.12.215.122.216.123.215.124.213.125.213.127.21.127.212.129.21.131.209.131.209.133.207.134.206.134.206.137.205.138.204.139.203.139.202.141.201.142.2.143.2.145.199.146.198.147.197.148.194.149.195.15.194.152.194.152.191.154.191.154.191.157.189.157.188.158.187.159.186.16.184.161.185.163.184.164.182.165.181.165.181.167.179.168.177.168.178.17.176.171.175.172.175.174.172.173.172.176.172.176.17.178.169.178.167.178.167.181.166.182.164.181.164.184.163.184.161.185.16.186.159.187.158.188.157.189.156.19.155.192.154.192.152.193.152.193.15.196.149.195.148.196.147.198.146.198.145.201.143.2.141.2.142.203.14.203.138.204.138.204.136.206.135.207.134.207.133.209.131.209.131.21.128.211.128.211.127.213.125.214.124.214.123.216.122.215.12.216.119.218.118.219.117.22.115.219.113.22.113.222.112.223.109.222.109.225.108.225.106.225.105.226.103.227.102.228.101.228.099.23.099.23.096.23.096.232.094.232.092.232.091.234.09.234.089.235.087.236.086.236.084.237.083.238.081.238.08.239.079.24.077.24.076.241.074.241.073.243.072.243.07.243.068.244.067.244.066.246.064.246.062.246.061.247.06.247.058.249.057.249.055.249.053.249.052.251.051.25.049.252.047.252.046.252.044.253.043.253.042.255.039.254.038.254.037.256.035.256.033.256.032.257.03.256.029.258.027.259.025.258.024.259.022.259.021.259.019.26.017.26.016.262.014.26.012.262.011.262.009.262.008.262.006.263.004.263.002.263.001.246V400l-.047 1.015-.14 1.006-.233.989-.323.964-.41.929-.495.888-.574.838-.649.782-.718.718-.782.649-.838.574-.888.495-.929.41-.964.323-.989.233-1.006.14L349 411l-1.015-.047-1.006-.14-.989-.233-.964-.323-.929-.41-.888-.495-.838-.574-.782-.649-.718-.718-.649-.782-.574-.838-.495-.888-.41-.929-.323-.964-.233-.989-.14-1.006L338 400V283.876l-.002-.124-.002-.124-.002-.124-.004-.123-.004-.123-.005-.122-.006-.123-.007-.122-.007-.122-.008-.121-.009-.121-.009-.122-.011-.121-.011-.12-.012-.12-.012-.12-.013-.119-.015-.12-.014-.119-.016-.119-.016-.118-.017-.118-.018-.118-.018-.118-.019-.117-.02-.117-.02-.117-.021-.117-.022-.116-.023-.116-.023-.116-.024-.115-.025-.116-.025-.115-.026-.114-.027-.114-.028-.114-.028-.114-.029-.114-.029-.113-.03-.112-.031-.114-.032-.112-.032-.112-.033-.112-.033-.111-.034-.111-.035-.111-.036-.111-.036-.11-.037-.109-.037-.111-.039-.109-.038-.109-.04-.109-.04-.109-.041-.108-.041-.107-.042-.108-.043-.107-.043-.107-.044-.107-.045-.107-.045-.105-.046-.106-.046-.106-.047-.105-.048-.104-.048-.105-.05-.104-.049-.103-.05-.103-.051-.104-.051-.102-.052-.102-.053-.103-.054-.102-.053-.101-.055-.101-.055-.1-.056-.101-.056-.1-.057-.1-.057-.099-.058-.098-.058-.098-.06-.099-.06-.098-.06-.097-.061-.097-.062-.097-.062-.096-.062-.096-.063-.095-.065-.096-.064-.095-.065-.093-.065-.094-.066-.094-.067-.093-.067-.092-.068-.093-.068-.091-.069-.092-.07-.091-.069-.09-.071-.091-.071-.09-.071-.089-.072-.088-.072-.089-.073-.088-.074-.087-.074-.088-.075-.087-.076-.086-.075-.086-.075-.084-.078-.086-.077-.084-.077-.083-.079-.085-.079-.083-.079-.082-.079-.082-.08-.082-.081-.081-.081-.081-.081-.079-.083-.08-.082-.079-.084-.08-.083-.078-.084-.077-.085-.078-.084-.076-.085-.076-.085-.075-.087-.076-.087-.075-.087-.074-.088-.074-.088-.073-.088-.072-.089-.072-.09-.072-.089-.07-.09-.07-.09-.07-.093-.071-.091-.069-.091-.067-.092-.068-.093-.067-.093-.067-.094-.066-.094-.065-.094-.065-.095-.065-.094-.063-.095-.063-.097-.063-.097-.063-.096-.061-.097-.061-.097-.06-.097-.06-.1-.06-.098-.058-.099-.058-.099-.057-.099-.057-.1-.057-.1-.055-.101-.055-.101-.055-.102-.054-.101-.053-.102-.052-.103-.053-.102-.051-.104-.051-.103-.05-.103-.049-.104-.049-.105-.049-.105-.048-.105-.047-.105-.046-.105-.046-.107-.045-.106-.045-.106-.044-.108-.043-.107-.043-.108-.042-.108-.042-.106-.04-.11-.04-.11-.04-.108-.038-.108-.038-.111-.038-.11-.037-.112-.037-.109-.035-.111-.034-.111-.035-.111-.033-.113-.033-.112-.033-.111-.031-.114-.031-.113-.03-.112-.029-.113-.029-.114-.028-.116-.028-.113-.026-.114-.027-.115-.025-.116-.025-.116-.024-.114-.023-.116-.023-.118-.022-.117-.021-.116-.02-.116-.02-.118-.019-.118-.018-.118-.018-.118-.017-.118-.016-.119-.016-.12-.015-.119-.014-.119-.013-.12-.012-.12-.012-.12-.011-.122-.011-.121-.009-.121-.009-.121-.008-.122-.007-.122-.007-.123-.006-.122-.005-.122-.004-.125-.004-.122-.002-.125-.002-.124-.002H139.876l-.124.002-.125.002-.122.002-.125.004-.122.004-.122.005-.123.006-.122.007-.122.007-.121.008-.121.009-.121.009-.121.011-.121.011-.12.012-.12.012-.119.013-.119.014-.12.015-.119.016-.118.016-.118.017-.118.018-.118.018-.118.019-.116.02-.116.02-.117.021-.118.022-.116.023-.114.023-.116.024-.116.025-.115.025-.115.027-.112.026-.116.028-.114.028-.113.029-.112.029-.113.03-.114.031-.111.031-.112.033-.113.033-.111.033-.111.035-.111.034-.109.035-.112.037-.11.037-.111.038-.108.038-.108.038-.11.04-.109.04-.107.04-.108.042-.108.042-.107.042-.108.044-.106.044-.106.045-.107.045-.105.046-.105.046-.105.047-.105.048-.105.049-.104.048-.103.05-.104.05-.103.051-.102.051-.104.053-.101.052-.101.053-.102.054-.101.055-.101.055-.1.055-.1.057-.1.057-.098.057-.099.058-.099.059-.099.059-.097.06-.097.06-.097.061-.096.061-.097.062-.096.064-.096.063-.094.063-.095.064-.094.066-.094.065-.094.066-.093.067-.093.067-.092.068-.091.068-.091.068-.092.071-.091.069-.09.071-.089.07-.09.072-.089.072-.088.072-.088.073-.088.074-.087.074-.087.075-.086.076-.085.075-.086.076-.084.076-.085.078-.084.077-.083.078-.084.08-.083.079-.081.079-.082.08-.081.081-.081.081-.08.082-.08.082-.078.082-.079.083-.079.084-.077.084-.077.084-.077.086-.076.084-.075.086-.076.087-.075.086-.074.087-.074.088-.073.088-.072.088-.072.089-.071.089-.072.09-.07.091-.069.09-.07.091-.069.091-.068.092-.068.093-.067.092-.067.094-.066.093-.065.094-.065.093-.064.095-.065.096-.063.096-.062.095-.062.096-.062.097-.061.097-.06.097-.06.098-.059.098-.059.099-.058.098-.057.099-.057.1-.056.1-.056.101-.055.1-.055.101-.053.101-.054.102-.053.102-.052.103-.051.103-.051.102-.05.104-.05.103-.049.104-.048.105-.048.104-.047.105-.046.106-.046.106-.045.106-.045.106-.044.107-.043.106-.043.107-.042.109-.041.107-.041.108-.04.11-.04.108-.038.109-.039.109-.037.11-.037.11-.036.11-.036.111-.035.111-.034.111-.033.111-.033.112-.032.112-.032.112-.031.113-.03.113-.029.114-.029.113-.028.113-.028.115-.027.114-.026.115-.025.115-.025.115-.024.115-.023.116-.023.116-.022.116-.021.116-.02.118-.02.117-.019.117-.018.118-.018.118-.017.118-.016.119-.016.118-.014.119-.015.12-.013.119-.012.12-.012.12-.011.12-.011.122-.009.12-.009.121-.008.122-.007.122-.007.122-.006.122-.005.123-.004.123-.004.123-.002.124-.002.124-.002.124V400l-.047 1.015-.14 1.006-.233.989-.323.964-.41.929-.495.888-.574.838-.649.782-.718.718-.782.649-.838.574-.888.495-.929.41-.964.323-.989.233-1.006.14L110 411l-1.015-.047-1.006-.14-.989-.233-.964-.323-.929-.41-.888-.495-.838-.574-.782-.649-.718-.718-.649-.782-.574-.838-.495-.888-.41-.929-.323-.964-.233-.989-.14-1.006L99 400V283.982l.001-.246.002-.263.004-.263.006-.263.008-.262.009-.262.011-.262.012-.262.014-.261.016-.261.017-.26.019-.26.021-.26.022-.258.024-.259.025-.259.027-.258.029-.258.03-.256.032-.257.033-.256.035-.256.037-.255.038-.255.039-.254.042-.255.043-.253.044-.253.046-.252.047-.252.049-.252.051-.25.052-.251.053-.25.055-.249.057-.248.058-.248.06-.248.061-.247.062-.247.064-.245.066-.246.067-.244.068-.244.07-.243.072-.243.073-.243.074-.241.076-.241.077-.24.079-.24.08-.239.081-.238.083-.238.084-.237.086-.237.087-.234.089-.236.09-.234.091-.233.092-.233.094-.232.096-.232.096-.23.098-.23.1-.23.101-.228.102-.228.103-.227.105-.226.106-.225.108-.225.108-.224.111-.224.111-.222.112-.221.114-.221.115-.22.117-.219.118-.219.119-.218.12-.216.122-.216.123-.215.124-.214.125-.214.127-.213.127-.211.13-.211.13-.21.131-.209.133-.209.134-.207.135-.207.136-.206.137-.204.139-.204.14-.203.141-.203.143-.201.143-.2.144-.2.146-.198.147-.197.148-.197.149-.195.15-.196.152-.194.152-.192.154-.192.155-.191.156-.191.157-.189.158-.188.159-.187.16-.186.161-.185.163-.184.164-.184.164-.181.166-.182.167-.181.167-.178.169-.178.171-.178.171-.176.171-.175.173-.174.175-.174.175-.172.176-.171.177-.17.178-.168.18-.168.18-.167.181-.165.182-.165.183-.164.185-.163.185-.161.186-.16.187-.159.188-.158.189-.157.191-.157.191-.154.192-.154.193-.152.194-.152.195-.15.194-.149.197-.148.198-.147.199-.146.2-.145.199-.143.202-.142.202-.141.202-.139.205-.139.205-.138.206-.137.206-.134.207-.134.209-.133.209-.131.21-.131.212-.129.21-.127.213-.127.213-.125.215-.124.216-.123.215-.122.217-.12.218-.119.218-.118.219-.116.22-.116.221-.114.221-.112.222-.111.224-.11.223-.109.226-.108.226-.106.225-.105.227-.103.228-.102.228-.101.23-.1.229-.098.231-.096.232-.096.231-.093.234-.093.233-.092.234-.089.236-.089.235-.087.235-.085.238-.085.239-.083.238-.082.238-.079.239-.079.241-.077.241-.076.241-.074.244-.073.24-.071.244-.07.246-.069.243-.067.245-.065.247-.065.247-.062.246-.061.247-.06.249-.058.249-.057.249-.055.249-.053.25-.052.252-.051.252-.049.25-.047.252-.046.254-.044.254-.043.253-.041.255-.04.255-.038.255-.037.257-.035.255-.033.256-.032.257-.03.258-.029.258-.027.259-.025.259-.024.258-.022.26-.021.26-.019.26-.017.261-.016.262-.014.261-.012.262-.011.262-.009.261-.008.264-.006.263-.004.263-.002.247-.001h179.034l.247.001z" fill="#444f61"/></g></svg>