<?xml version="1.0" encoding="UTF-8" standalone="no"?><!DOCTYPE svg PUBLIC "-//W3C//DTD SVG 1.1//EN" "http://www.w3.org/Graphics/SVG/1.1/DTD/svg11.dtd"><svg width="100%" height="100%" viewBox="0 0 360 400" version="1.1" xmlns="http://www.w3.org/2000/svg" xmlns:xlink="http://www.w3.org/1999/xlink" xml:space="preserve" style="fill-rule:evenodd;clip-rule:evenodd;stroke-linejoin:round;stroke-miterlimit:1.41421;"><rect id="designers" x="0" y="0" width="360" height="400" style="fill:none;"/><clipPath id="_clip1"><rect x="0" y="0" width="360" height="400"/></clipPath><g clip-path="url(#_clip1)"><g><path d="M280,299c0,-0.53 -0.211,-1.039 -0.586,-1.414c-0.375,-0.375 -0.884,-0.586 -1.414,-0.586c-15.092,0 -110.908,0 -126,0c-0.53,0 -1.039,0.211 -1.414,0.586c-0.375,0.375 -0.586,0.884 -0.586,1.414c0,1.951 0,5.048 0,8c0,4.418 3.582,8 8,8c23.267,0 90.733,0 114,0c4.418,0 8,-3.582 8,-8c0,-2.952 0,-6.049 0,-8Z" style="fill:#9da9bd;"/><path d="M277.798,229.419c1.83,-15.865 -3.2,-31.756 -13.825,-43.678c-10.626,-11.923 -25.836,-18.741 -41.806,-18.741c-4.763,0 -9.571,0 -14.334,0c-15.97,0 -31.18,6.818 -41.806,18.741c-10.625,11.922 -15.655,27.813 -13.825,43.678c3.847,33.337 7.798,67.581 7.798,67.581l110,0c0,0 3.951,-34.244 7.798,-67.581Z" style="fill:#cad2e0;"/><circle cx="165" cy="390" r="10" style="fill:#dde3ed;"/><circle cx="265" cy="390" r="10" style="fill:#dde3ed;"/><circle cx="215" cy="390" r="10" style="fill:#dde3ed;"/><g><path d="M165,380c2.76,1.667 5,5.574 5,10c0,4.426 -2.24,8.333 -5,10c5.519,0 10,-4.481 10,-10c0,-5.519 -4.481,-10 -10,-10Z" style="fill:#181e26;fill-opacity:0.15;"/><path d="M215,380c2.76,1.667 5,5.574 5,10c0,4.426 -2.24,8.333 -5,10c5.519,0 10,-4.481 10,-10c0,-5.519 -4.481,-10 -10,-10Z" style="fill:#181e26;fill-opacity:0.15;"/><path d="M265,380c2.76,1.667 5,5.574 5,10c0,4.426 -2.24,8.333 -5,10c5.519,0 10,-4.481 10,-10c0,-5.519 -4.481,-10 -10,-10Z" style="fill:#181e26;fill-opacity:0.15;"/></g><rect x="209" y="315" width="12" height="53" style="fill:#dde3ed;"/><path d="M265,371c0,-1.657 -1.343,-3 -3,-3c-14.729,0 -79.271,0 -94,0c-1.657,0 -3,1.343 -3,3c0,3.554 0,9 0,9l100,0c0,0 0,-5.446 0,-9Z" style="fill:#dde3ed;"/></g><g><g><path d="M215.348,88.011c-45.156,0.069 -36.135,65.325 -22.104,72.834c10.777,5.768 38.9,7.998 50.278,0.582c12.59,-8.206 20.608,-73.491 -28.174,-73.416Z" style="fill:#333e50;"/><path d="M222.12,157.621l-13,0l-2,21.092l17,0l-2,-21.092Z" style="fill:#feecc8;"/><clipPath id="_clip2"><path d="M222.12,157.621l-13,0l-2,21.092l17,0l-2,-21.092Z"/></clipPath><g clip-path="url(#_clip2)"><path d="M205.047,158.871c2.473,2.69 6.907,5.644 10.577,5.642c3.583,-0.001 8.72,-2.783 10.403,-5.737l-10.407,-2.828l-10.573,2.923Z" style="fill:#181e26;fill-opacity:0.15;"/></g><path d="M215.62,94.861c14.04,0.002 25.438,14.938 25.438,33.335c0,18.398 -15.948,33.503 -25.419,33.335l-0.019,-0.001l-0.02,0.001c-9.47,0.168 -25.418,-14.937 -25.418,-33.335c0,-18.397 11.398,-33.333 25.438,-33.335l0,0Z" style="fill:#feecc8;"/><g><path d="M214.55,133.874c-0.149,-0.385 -0.519,-0.638 -0.932,-0.638c-0.412,0 -0.782,0.253 -0.932,0.638c-0.652,1.676 -1.499,3.854 -2.038,5.241c-0.12,0.307 -0.08,0.654 0.107,0.927c0.186,0.272 0.495,0.435 0.825,0.435c1.196,0 2.88,0 4.076,0c0.331,0 0.639,-0.163 0.826,-0.435c0.186,-0.273 0.226,-0.62 0.106,-0.927c-0.539,-1.387 -1.386,-3.565 -2.038,-5.241Z" style="fill:#f9db9f;"/><circle id="eye" cx="201.337" cy="127.319" r="4.5" style="fill:#333e50;"/><path d="M204.849,116.865c-1.991,-1.226 -9.793,0.64 -9.472,2.174c0.049,0.238 7.113,-0.155 9.241,-0.317c1.205,-0.091 0.617,-1.62 0.231,-1.857Z" style="fill:#444f61;"/><circle id="eye1" cx="225.899" cy="127.319" r="4.5" style="fill:#333e50;"/><path d="M222.387,116.865c1.992,-1.226 9.794,0.64 9.473,2.174c-0.05,0.238 -7.114,-0.155 -9.241,-0.317c-1.205,-0.091 -0.617,-1.62 -0.232,-1.857Z" style="fill:#444f61;"/><path d="M203.702,145.856c5.93,0.926 10.463,1.127 18.689,0.208c0,0 -2.054,6.428 -8.643,6.591c-7.402,0.183 -10.046,-6.799 -10.046,-6.799Z" style="fill:#fff;"/></g><path d="M189.961,115.469l18.143,0l3.02,-10.038l0.287,10.038l30.409,0c0,0 -1.955,-23.566 -26.226,-23.569c-23.383,-0.004 -24.719,22.917 -25.633,23.569Z" style="fill:#333e50;"/><path d="M231.894,105c6.304,16.846 7.177,34.61 1.897,53.413l14.887,-19.113c0,0 3.761,-15.569 -2.981,-24.133c-6.742,-8.565 -13.803,-10.167 -13.803,-10.167Z" style="fill:#333e50;"/></g><path id="arm" d="M236.92,179.911c11.589,6.649 27.014,52.939 26.986,66.553c-0.028,13.305 -15.544,25.328 -12.452,0c-6.247,-14.086 -10.036,-41.047 -21.33,-47.306l6.796,-19.247Z" style="fill:#feecc8;"/><path id="torso" d="M243.199,200.663c0.491,-6.654 -1.811,-13.211 -6.352,-18.099c-4.541,-4.888 -10.911,-7.665 -17.583,-7.665c-2.353,0 -4.737,0 -7.09,0c-6.659,0 -13.02,2.767 -17.559,7.64c-4.54,4.872 -6.851,11.412 -6.381,18.055c1.905,26.892 4.62,65.245 4.62,65.245l45.542,0c0,0 2.821,-38.287 4.803,-65.176Z" style="fill:#feecc8;"/><g><path d="M238.396,265.839c4.465,11.953 8.314,19.578 8.165,31.187l-62.254,-0.026c-0.426,-10.478 3.965,-19.902 8.541,-31.25l45.548,0.089Z" style="fill:#00c875;"/><path id="pants" d="M210.791,308.966c0,0 -22.167,-26.103 -16.933,-1.501c-6.457,12.426 -3.7,87.013 -3.7,87.013l7.968,0.707l12.665,-86.219Z" style="fill:#fdd1a5;"/><path d="M184.696,400c-0.333,0 -0.644,-0.165 -0.83,-0.44c-0.186,-0.276 -0.223,-0.626 -0.098,-0.934c1.11,-2.641 4.293,-8.167 11.532,-8.089c4.934,0.054 7.005,5.654 7.694,8.213c0.077,0.299 0.012,0.617 -0.177,0.861c-0.189,0.244 -0.48,0.387 -0.789,0.387c-3.541,0.002 -13.602,0.002 -17.332,0.002Z" style="fill:#17b272;"/><path id="pants1" d="M219.557,309.289c0,0 21.531,-26.63 16.893,-1.91c6.755,12.267 5.799,86.899 5.799,86.899l-7.949,0.898l-14.743,-85.887Z" style="fill:#fdd1a5;"/><path d="M247.218,400c0.332,0 0.643,-0.165 0.829,-0.44c0.186,-0.276 0.223,-0.626 0.098,-0.934c-1.11,-2.641 -4.293,-8.167 -11.532,-8.089c-4.934,0.054 -7.004,5.654 -7.694,8.213c-0.077,0.299 -0.012,0.617 0.177,0.861c0.189,0.244 0.481,0.387 0.79,0.387c3.54,0.002 13.601,0.002 17.332,0.002Z" style="fill:#17b272;"/><path d="M244.986,297c-0.089,-11.944 -16.187,-15.518 -29.188,-15.438c-9.784,0.06 -29.762,2.224 -29.468,15.439c0.424,19.105 -3.712,32.349 -3.712,32.349c21.469,3.393 43.477,4.341 66.531,0.538c-4.732,-13.559 -4.141,-29.936 -4.163,-32.888Z" style="fill:#00e686;"/></g><path id="arm1" d="M206.321,180.941c-5.16,17.98 -19.091,40.737 -26.321,48.785c-7.777,8.658 -47.564,8.665 -47.564,8.665l-2.39,-5.096c12.075,-5.403 35.106,-11.222 39.26,-10.562c7.245,-13.599 13.576,-30.583 22.754,-40.065l14.261,-1.727Z" style="fill:#feecc8;"/><g><g><path d="M238.384,179.115c10.459,2.924 28.345,49.413 28.759,66.28c0.335,13.617 -18.628,10.104 -17.737,1.916c0,0 -9.172,-23.083 -12.039,-31.135c-2.868,-8.051 1.017,-37.061 1.017,-37.061Z" style="fill:#6de8b5;"/><path d="M190.775,270.839c-1.073,0 -1.955,-0.847 -1.999,-1.919c-0.416,-10.201 -2.386,-58.358 -3.271,-78.196c-0.252,-5.649 3.475,-10.708 8.945,-12.142l10.17,-3.404l22,0l10.185,3.404c5.47,1.434 9.197,6.493 8.945,12.142c-0.885,19.838 -2.855,67.995 -3.272,78.196c-0.043,1.072 -0.925,1.919 -1.998,1.919c-8.339,0 -41.367,0 -49.705,0Z" style="fill:#6de8b5;"/><clipPath id="_clip3"><path d="M190.775,270.839c-1.073,0 -1.955,-0.847 -1.999,-1.919c-0.416,-10.201 -2.386,-58.358 -3.271,-78.196c-0.252,-5.649 3.475,-10.708 8.945,-12.142l10.17,-3.404l22,0l10.185,3.404c5.47,1.434 9.197,6.493 8.945,12.142c-0.885,19.838 -2.855,67.995 -3.272,78.196c-0.043,1.072 -0.925,1.919 -1.998,1.919c-8.339,0 -41.367,0 -49.705,0Z"/></clipPath><g clip-path="url(#_clip3)"><path d="M243.89,233.3c0.659,1.415 0.49,8.824 -0.347,8.026c0,0 -7.533,-25.471 -7.556,-39.787l7.903,31.761Z" style="fill:#181e26;fill-opacity:0.1;"/></g><path d="M191.627,179.719c-8.844,3.838 -16.111,21.675 -23.527,41.492c-5.531,1.642 -22.424,3.784 -31.689,9.558l4.227,7.213c0,0 32.219,-0.02 38.561,-4.609c6.978,-5.051 10.867,-9.145 13.734,-17.197c2.867,-8.051 -1.306,-36.457 -1.306,-36.457Z" style="fill:#6de8b5;"/><clipPath id="_clip4"><path d="M191.627,179.719c-8.844,3.838 -16.111,21.675 -23.527,41.492c-5.531,1.642 -22.424,3.784 -31.689,9.558l4.227,7.213c0,0 32.219,-0.02 38.561,-4.609c6.978,-5.051 10.867,-9.145 13.734,-17.197c2.867,-8.051 -1.306,-36.457 -1.306,-36.457Z"/></clipPath><g clip-path="url(#_clip4)"><path d="M187.161,228.599c0.268,1.538 -3.121,7.022 -3.722,6.033c0,0 1.177,-25.077 4.803,-34.57l-1.081,28.537Z" style="fill:#181e26;fill-opacity:0.1;"/></g><rect x="204.62" y="172.178" width="22" height="3" style="fill:#17b272;"/></g></g><g id="coffee"><rect x="131.882" y="209" width="20" height="4" style="fill:#edf0f5;"/><path d="M150.882,209c0,-1.657 -1.343,-3 -3,-3c-3.33,0 -8.673,0 -12.002,0c-1.656,0 -2.998,1.342 -2.998,2.998c0,0.001 0,0.002 0,0.002l18,0c0,0 0,0 0,0Z" style="fill:#edf0f5;"/><path d="M150.882,213l-18,0l1.987,30l14.025,0l1.988,-30Z" style="fill:#ff7f65;"/></g><path d="M133.755,226.538c-3.264,-0.625 -10.626,9.786 -2.383,13.068c1.584,0.631 3.565,0.78 6.834,-0.232c3.708,-1.147 4.634,-8.089 1.476,-8.655c-6.191,-1.108 -5.845,-2.393 -5.927,-4.181Z" style="fill:#feecc8;"/></g><g id="designer"><g><g><path d="M60.423,396l20,0c0,0 0,1 0,2c0,0.53 -0.21,1.039 -0.585,1.414c-0.375,0.375 -0.884,0.586 -1.415,0.586c-3.832,0 -12.167,0 -16,0c-0.53,0 -1.039,-0.211 -1.414,-0.586c-0.375,-0.375 -0.586,-0.884 -0.586,-1.414c0,-1 0,-2 0,-2Z" style="fill:#edf0f5;"/><path d="M63.423,391l14,0l3,5c-6.978,1.333 -13.609,1.181 -20,0l3,-5Z" style="fill:#17b272;"/><rect x="63.423" y="383" width="14" height="8" style="fill:#17b272;"/><path d="M67.133,391.502l0.035,0.004l0.035,0.007l0.035,0.01l0.033,0.011l0.082,0.032l0.081,0.03l0.083,0.03l0.083,0.028l0.084,0.027l0.085,0.027l0.087,0.025l0.088,0.025l0.088,0.023l0.089,0.023l0.091,0.022l0.092,0.021l0.091,0.019l0.094,0.019l0.094,0.018l0.094,0.017l0.095,0.016l0.097,0.015l0.096,0.014l0.098,0.013l0.098,0.012l0.098,0.011l0.099,0.009l0.099,0.009l0.1,0.008l0.102,0.007l0.1,0.006l0.102,0.005l0.101,0.004l0.102,0.002l0.103,0.002l0.102,0.001l0.103,-0.001l0.103,-0.001l0.103,-0.002l0.103,-0.004l0.104,-0.004l0.104,-0.005l0.103,-0.007l0.104,-0.008l0.104,-0.008l0.103,-0.01l0.103,-0.011l0.104,-0.011l0.103,-0.013l0.103,-0.014l0.103,-0.015l0.102,-0.016l0.103,-0.017l0.102,-0.018l0.102,-0.019l0.101,-0.02l0.101,-0.021l0.101,-0.022l0.099,-0.023l0.1,-0.025l0.099,-0.025l0.099,-0.026l0.098,-0.028l0.098,-0.028l0.096,-0.029l0.097,-0.031l0.095,-0.031l0.098,-0.034l0.034,-0.01l0.035,-0.008l0.035,-0.006l0.035,-0.002l0.036,-0.001l0.036,0.002l0.035,0.005l0.035,0.007l0.034,0.01l0.034,0.012l0.033,0.015l0.031,0.017l0.03,0.019l0.029,0.021l0.027,0.023l0.026,0.025l0.023,0.027l0.022,0.028l0.02,0.03l0.017,0.031l0.015,0.032l0.013,0.034l0.01,0.034l0.008,0.035l0.006,0.035l0.002,0.036l0.001,0.035l-0.002,0.036l-0.005,0.035l-0.008,0.035l-0.009,0.035l-0.012,0.033l-0.015,0.033l-0.017,0.031l-0.019,0.03l-0.021,0.029l-0.023,0.027l-0.025,0.026l-0.027,0.023l-0.028,0.022l-0.03,0.02l-0.031,0.017l-0.033,0.015l-0.033,0.013l-0.103,0.035l-0.107,0.036l-0.107,0.034l-0.108,0.032l-0.109,0.032l-0.109,0.03l-0.109,0.03l-0.11,0.028l-0.11,0.027l-0.111,0.025l-0.111,0.025l-0.111,0.023l-0.112,0.022l-0.112,0.021l-0.113,0.02l-0.112,0.019l-0.113,0.017l-0.113,0.016l-0.113,0.016l-0.114,0.014l-0.113,0.012l-0.113,0.012l-0.114,0.011l-0.113,0.009l-0.114,0.009l-0.113,0.007l-0.114,0.006l-0.114,0.005l-0.112,0.003l-0.114,0.003l-0.113,0.001l-0.112,0.001l-0.113,-0.001l-0.113,-0.002l-0.112,-0.003l-0.112,-0.004l-0.112,-0.005l-0.111,-0.007l-0.111,-0.008l-0.11,-0.008l-0.11,-0.01l-0.11,-0.011l-0.109,-0.012l-0.109,-0.013l-0.108,-0.015l-0.107,-0.015l-0.108,-0.017l-0.106,-0.018l-0.106,-0.019l-0.105,-0.019l-0.105,-0.022l-0.103,-0.022l-0.103,-0.023l-0.103,-0.025l-0.102,-0.026l-0.101,-0.027l-0.1,-0.028l-0.098,-0.029l-0.099,-0.03l-0.098,-0.032l-0.096,-0.033l-0.095,-0.034l-0.095,-0.035l-0.091,-0.035l-0.033,-0.015l-0.031,-0.016l-0.031,-0.019l-0.029,-0.021l-0.027,-0.022l-0.026,-0.025l-0.024,-0.027l-0.022,-0.028l-0.02,-0.029l-0.017,-0.031l-0.016,-0.033l-0.013,-0.033l-0.011,-0.034l-0.008,-0.035l-0.006,-0.035l-0.003,-0.035l-0.001,-0.036l0.002,-0.036l0.004,-0.035l0.007,-0.035l0.01,-0.034l0.012,-0.034l0.014,-0.033l0.016,-0.032l0.019,-0.03l0.021,-0.029l0.023,-0.027l0.024,-0.026l0.027,-0.024l0.028,-0.022l0.03,-0.02l0.031,-0.018l0.032,-0.015l0.033,-0.013l0.034,-0.011l0.035,-0.008l0.035,-0.006l0.035,-0.003l0.036,-0.001l0.036,0.002Z" style="fill:#fff;"/><path d="M67.133,389.502l0.035,0.004l0.035,0.007l0.035,0.01l0.033,0.011l0.082,0.032l0.081,0.03l0.083,0.03l0.083,0.028l0.084,0.027l0.085,0.027l0.087,0.025l0.088,0.025l0.088,0.023l0.089,0.023l0.091,0.022l0.092,0.021l0.091,0.019l0.093,0.019l0.095,0.018l0.094,0.017l0.095,0.016l0.097,0.015l0.096,0.014l0.098,0.013l0.098,0.012l0.098,0.011l0.099,0.009l0.099,0.009l0.1,0.008l0.102,0.007l0.1,0.006l0.102,0.005l0.101,0.004l0.102,0.002l0.103,0.002l0.102,0.001l0.103,-0.001l0.103,-0.001l0.103,-0.002l0.103,-0.004l0.104,-0.004l0.104,-0.005l0.103,-0.007l0.104,-0.008l0.104,-0.008l0.103,-0.01l0.103,-0.011l0.104,-0.011l0.103,-0.013l0.103,-0.014l0.103,-0.015l0.102,-0.016l0.103,-0.017l0.102,-0.018l0.102,-0.019l0.101,-0.02l0.101,-0.021l0.101,-0.022l0.099,-0.023l0.1,-0.025l0.099,-0.025l0.099,-0.026l0.098,-0.028l0.098,-0.028l0.096,-0.029l0.097,-0.031l0.095,-0.031l0.098,-0.034l0.034,-0.01l0.035,-0.008l0.035,-0.006l0.035,-0.003l0.036,0l0.036,0.002l0.035,0.005l0.035,0.007l0.034,0.01l0.034,0.012l0.033,0.015l0.031,0.017l0.03,0.019l0.029,0.021l0.027,0.023l0.026,0.025l0.023,0.027l0.022,0.028l0.02,0.03l0.017,0.031l0.015,0.032l0.013,0.034l0.01,0.034l0.008,0.035l0.006,0.035l0.002,0.036l0.001,0.035l-0.002,0.036l-0.005,0.035l-0.008,0.035l-0.009,0.034l-0.012,0.034l-0.015,0.033l-0.017,0.031l-0.019,0.03l-0.021,0.029l-0.023,0.027l-0.025,0.026l-0.027,0.023l-0.028,0.022l-0.03,0.02l-0.031,0.017l-0.033,0.015l-0.033,0.013l-0.103,0.035l-0.107,0.036l-0.107,0.033l-0.108,0.033l-0.109,0.032l-0.109,0.03l-0.109,0.03l-0.11,0.028l-0.11,0.027l-0.111,0.025l-0.111,0.025l-0.111,0.023l-0.112,0.022l-0.112,0.021l-0.113,0.02l-0.112,0.019l-0.113,0.017l-0.113,0.016l-0.113,0.016l-0.113,0.014l-0.114,0.013l-0.113,0.011l-0.114,0.011l-0.113,0.009l-0.114,0.009l-0.113,0.007l-0.114,0.006l-0.114,0.005l-0.112,0.003l-0.114,0.003l-0.113,0.001l-0.112,0.001l-0.113,-0.001l-0.113,-0.002l-0.112,-0.003l-0.112,-0.004l-0.112,-0.005l-0.111,-0.007l-0.111,-0.008l-0.11,-0.008l-0.11,-0.01l-0.11,-0.011l-0.109,-0.012l-0.109,-0.013l-0.108,-0.015l-0.107,-0.015l-0.108,-0.017l-0.106,-0.018l-0.106,-0.019l-0.104,-0.019l-0.106,-0.022l-0.104,-0.022l-0.103,-0.023l-0.102,-0.025l-0.102,-0.026l-0.101,-0.027l-0.1,-0.028l-0.098,-0.029l-0.099,-0.03l-0.098,-0.032l-0.096,-0.033l-0.095,-0.034l-0.095,-0.035l-0.091,-0.035l-0.033,-0.015l-0.031,-0.016l-0.031,-0.019l-0.029,-0.021l-0.027,-0.022l-0.026,-0.025l-0.024,-0.027l-0.022,-0.028l-0.02,-0.029l-0.017,-0.031l-0.016,-0.033l-0.013,-0.033l-0.011,-0.034l-0.008,-0.035l-0.006,-0.035l-0.003,-0.035l-0.001,-0.036l0.002,-0.036l0.004,-0.035l0.007,-0.035l0.01,-0.034l0.012,-0.034l0.014,-0.033l0.016,-0.032l0.019,-0.03l0.021,-0.029l0.023,-0.027l0.024,-0.026l0.027,-0.024l0.028,-0.022l0.03,-0.02l0.031,-0.018l0.032,-0.015l0.033,-0.013l0.034,-0.011l0.035,-0.008l0.035,-0.006l0.035,-0.003l0.036,-0.001l0.036,0.002Z" style="fill:#fff;"/><path d="M67.133,387.502l0.035,0.004l0.035,0.007l0.035,0.01l0.033,0.011l0.082,0.032l0.081,0.03l0.083,0.03l0.083,0.028l0.084,0.027l0.085,0.027l0.087,0.025l0.088,0.025l0.088,0.023l0.089,0.023l0.091,0.022l0.092,0.021l0.091,0.019l0.093,0.019l0.095,0.018l0.094,0.017l0.095,0.016l0.097,0.015l0.096,0.014l0.098,0.013l0.098,0.012l0.098,0.011l0.099,0.009l0.099,0.009l0.1,0.008l0.102,0.007l0.1,0.006l0.102,0.005l0.102,0.004l0.101,0.002l0.102,0.002l0.103,0.001l0.103,-0.001l0.103,-0.001l0.103,-0.002l0.103,-0.004l0.104,-0.004l0.104,-0.006l0.103,-0.006l0.104,-0.008l0.104,-0.008l0.103,-0.01l0.103,-0.011l0.104,-0.011l0.103,-0.013l0.103,-0.014l0.103,-0.015l0.102,-0.016l0.103,-0.017l0.102,-0.018l0.102,-0.019l0.101,-0.02l0.101,-0.021l0.101,-0.022l0.099,-0.023l0.1,-0.025l0.1,-0.025l0.098,-0.026l0.098,-0.028l0.098,-0.028l0.096,-0.029l0.097,-0.031l0.095,-0.031l0.098,-0.034l0.034,-0.01l0.035,-0.008l0.035,-0.006l0.035,-0.003l0.036,0l0.036,0.002l0.035,0.005l0.035,0.007l0.034,0.01l0.034,0.012l0.033,0.015l0.031,0.017l0.03,0.019l0.029,0.021l0.027,0.023l0.026,0.025l0.023,0.027l0.022,0.028l0.02,0.03l0.017,0.031l0.015,0.032l0.013,0.034l0.01,0.034l0.008,0.035l0.006,0.035l0.002,0.036l0.001,0.035l-0.002,0.036l-0.005,0.035l-0.008,0.035l-0.009,0.034l-0.012,0.034l-0.015,0.033l-0.017,0.031l-0.019,0.03l-0.021,0.029l-0.023,0.027l-0.025,0.026l-0.027,0.023l-0.028,0.022l-0.03,0.02l-0.031,0.017l-0.033,0.015l-0.033,0.013l-0.103,0.035l-0.107,0.036l-0.107,0.033l-0.108,0.033l-0.109,0.032l-0.109,0.031l-0.109,0.029l-0.11,0.028l-0.11,0.027l-0.111,0.025l-0.111,0.025l-0.111,0.023l-0.112,0.022l-0.112,0.021l-0.113,0.02l-0.112,0.019l-0.113,0.017l-0.113,0.016l-0.113,0.016l-0.113,0.014l-0.114,0.013l-0.113,0.011l-0.114,0.011l-0.113,0.009l-0.114,0.009l-0.113,0.007l-0.114,0.006l-0.114,0.005l-0.112,0.003l-0.114,0.003l-0.113,0.001l-0.112,0.001l-0.113,-0.001l-0.113,-0.002l-0.112,-0.003l-0.112,-0.004l-0.112,-0.005l-0.111,-0.007l-0.111,-0.008l-0.11,-0.008l-0.11,-0.01l-0.11,-0.011l-0.109,-0.012l-0.109,-0.013l-0.108,-0.015l-0.107,-0.015l-0.108,-0.017l-0.106,-0.018l-0.106,-0.019l-0.104,-0.019l-0.106,-0.022l-0.104,-0.022l-0.103,-0.023l-0.102,-0.025l-0.102,-0.026l-0.101,-0.027l-0.1,-0.028l-0.098,-0.029l-0.099,-0.031l-0.098,-0.031l-0.096,-0.033l-0.095,-0.034l-0.095,-0.035l-0.091,-0.035l-0.033,-0.015l-0.031,-0.016l-0.031,-0.019l-0.029,-0.021l-0.027,-0.022l-0.026,-0.025l-0.024,-0.027l-0.022,-0.028l-0.02,-0.029l-0.017,-0.031l-0.016,-0.033l-0.013,-0.033l-0.011,-0.034l-0.008,-0.035l-0.006,-0.035l-0.003,-0.035l-0.001,-0.036l0.002,-0.036l0.004,-0.035l0.007,-0.035l0.01,-0.035l0.012,-0.033l0.014,-0.033l0.016,-0.032l0.019,-0.03l0.021,-0.029l0.023,-0.027l0.024,-0.026l0.027,-0.024l0.028,-0.022l0.03,-0.02l0.031,-0.018l0.032,-0.015l0.033,-0.013l0.034,-0.011l0.035,-0.008l0.035,-0.006l0.035,-0.003l0.036,-0.001l0.036,0.002Z" style="fill:#fff;"/></g><g><path d="M48.379,396l-20,0c0,0 0,1 0,2c0,0.53 0.211,1.039 0.586,1.414c0.375,0.375 0.884,0.586 1.414,0.586c3.832,0 12.168,0 16,0c0.53,0 1.039,-0.211 1.414,-0.586c0.375,-0.375 0.586,-0.884 0.586,-1.414c0,-1 0,-2 0,-2Z" style="fill:#edf0f5;"/><path d="M45.379,391l-14,0l-3,5c6.979,1.333 13.61,1.181 20,0l-3,-5Z" style="fill:#17b272;"/><rect x="31.379" y="383" width="14" height="8" style="fill:#17b272;"/><path d="M41.741,391.501l0.036,0.003l0.035,0.006l0.034,0.008l0.035,0.011l0.033,0.013l0.032,0.015l0.031,0.018l0.029,0.02l0.029,0.022l0.026,0.024l0.025,0.026l0.023,0.027l0.021,0.029l0.018,0.03l0.017,0.032l0.014,0.033l0.012,0.034l0.009,0.034l0.007,0.035l0.004,0.035l0.002,0.036l-0.001,0.036l-0.003,0.035l-0.006,0.035l-0.008,0.035l-0.011,0.034l-0.013,0.033l-0.015,0.033l-0.018,0.031l-0.02,0.029l-0.022,0.028l-0.024,0.027l-0.025,0.025l-0.028,0.022l-0.029,0.021l-0.03,0.019l-0.032,0.016l-0.033,0.015l-0.09,0.035l-0.096,0.035l-0.095,0.034l-0.096,0.033l-0.097,0.032l-0.099,0.03l-0.099,0.029l-0.099,0.028l-0.102,0.027l-0.101,0.026l-0.103,0.025l-0.103,0.023l-0.103,0.022l-0.105,0.022l-0.106,0.02l-0.105,0.018l-0.107,0.018l-0.107,0.017l-0.108,0.015l-0.108,0.015l-0.108,0.013l-0.11,0.012l-0.109,0.011l-0.11,0.01l-0.111,0.008l-0.111,0.008l-0.111,0.007l-0.112,0.005l-0.111,0.004l-0.113,0.003l-0.112,0.002l-0.113,0.001l-0.112,-0.001l-0.113,-0.001l-0.114,-0.003l-0.113,-0.003l-0.113,-0.005l-0.114,-0.006l-0.114,-0.007l-0.113,-0.009l-0.114,-0.009l-0.114,-0.011l-0.113,-0.012l-0.113,-0.012l-0.113,-0.014l-0.114,-0.016l-0.113,-0.016l-0.112,-0.017l-0.113,-0.019l-0.112,-0.02l-0.113,-0.021l-0.111,-0.022l-0.111,-0.023l-0.112,-0.025l-0.111,-0.025l-0.11,-0.027l-0.11,-0.028l-0.109,-0.03l-0.109,-0.03l-0.109,-0.032l-0.107,-0.032l-0.108,-0.034l-0.106,-0.036l-0.104,-0.035l-0.033,-0.013l-0.032,-0.015l-0.032,-0.017l-0.029,-0.02l-0.029,-0.022l-0.027,-0.023l-0.025,-0.026l-0.023,-0.027l-0.021,-0.029l-0.019,-0.03l-0.017,-0.031l-0.014,-0.033l-0.012,-0.033l-0.01,-0.035l-0.007,-0.035l-0.005,-0.035l-0.002,-0.036l0,-0.035l0.003,-0.036l0.005,-0.035l0.008,-0.035l0.011,-0.034l0.012,-0.034l0.015,-0.032l0.018,-0.031l0.019,-0.03l0.022,-0.028l0.024,-0.027l0.025,-0.025l0.027,-0.023l0.029,-0.021l0.03,-0.019l0.032,-0.017l0.032,-0.015l0.034,-0.012l0.034,-0.01l0.035,-0.007l0.036,-0.005l0.035,-0.002l0.036,0.001l0.036,0.002l0.035,0.006l0.035,0.008l0.034,0.01l0.098,0.034l0.095,0.031l0.096,0.031l0.097,0.029l0.097,0.028l0.098,0.028l0.099,0.026l0.1,0.025l0.099,0.025l0.1,0.023l0.1,0.022l0.102,0.021l0.101,0.02l0.102,0.019l0.102,0.018l0.102,0.017l0.102,0.016l0.103,0.015l0.104,0.014l0.103,0.013l0.103,0.011l0.103,0.011l0.104,0.01l0.103,0.008l0.104,0.008l0.104,0.007l0.103,0.005l0.104,0.004l0.103,0.004l0.103,0.002l0.103,0.001l0.104,0.001l0.102,-0.001l0.102,-0.002l0.102,-0.002l0.102,-0.004l0.101,-0.005l0.101,-0.006l0.101,-0.007l0.1,-0.008l0.099,-0.009l0.099,-0.009l0.099,-0.011l0.098,-0.012l0.097,-0.013l0.098,-0.014l0.095,-0.015l0.095,-0.016l0.095,-0.017l0.094,-0.018l0.093,-0.019l0.092,-0.019l0.091,-0.021l0.091,-0.022l0.089,-0.023l0.089,-0.023l0.087,-0.025l0.087,-0.025l0.086,-0.027l0.084,-0.027l0.083,-0.028l0.082,-0.03l0.081,-0.03l0.082,-0.032l0.034,-0.011l0.034,-0.01l0.035,-0.007l0.036,-0.004l0.035,-0.002l0.036,0.001Z" style="fill:#fff;"/><path d="M41.741,389.501l0.036,0.003l0.035,0.006l0.034,0.008l0.035,0.011l0.033,0.013l0.032,0.015l0.031,0.018l0.029,0.02l0.029,0.022l0.026,0.024l0.025,0.026l0.023,0.027l0.021,0.029l0.018,0.03l0.017,0.032l0.014,0.033l0.012,0.034l0.009,0.034l0.007,0.035l0.004,0.035l0.002,0.036l-0.001,0.036l-0.003,0.035l-0.006,0.035l-0.008,0.035l-0.011,0.034l-0.013,0.033l-0.015,0.033l-0.018,0.031l-0.02,0.029l-0.022,0.028l-0.024,0.027l-0.025,0.025l-0.028,0.022l-0.029,0.021l-0.03,0.019l-0.032,0.016l-0.033,0.015l-0.09,0.035l-0.096,0.035l-0.095,0.034l-0.096,0.033l-0.097,0.032l-0.099,0.03l-0.099,0.029l-0.099,0.028l-0.102,0.027l-0.101,0.026l-0.103,0.024l-0.102,0.024l-0.105,0.022l-0.105,0.022l-0.105,0.02l-0.105,0.018l-0.107,0.018l-0.107,0.017l-0.108,0.015l-0.108,0.015l-0.108,0.013l-0.11,0.012l-0.109,0.011l-0.11,0.01l-0.111,0.008l-0.111,0.008l-0.111,0.007l-0.112,0.005l-0.111,0.004l-0.113,0.003l-0.112,0.002l-0.113,0.001l-0.112,-0.001l-0.113,-0.001l-0.114,-0.003l-0.113,-0.003l-0.113,-0.005l-0.114,-0.006l-0.114,-0.007l-0.113,-0.009l-0.114,-0.009l-0.114,-0.011l-0.113,-0.011l-0.114,-0.013l-0.112,-0.014l-0.114,-0.016l-0.113,-0.016l-0.112,-0.017l-0.113,-0.019l-0.112,-0.02l-0.113,-0.021l-0.111,-0.022l-0.111,-0.023l-0.112,-0.025l-0.111,-0.025l-0.11,-0.027l-0.11,-0.028l-0.109,-0.03l-0.108,-0.03l-0.11,-0.032l-0.108,-0.033l-0.107,-0.033l-0.106,-0.036l-0.104,-0.035l-0.033,-0.013l-0.032,-0.015l-0.032,-0.017l-0.029,-0.02l-0.029,-0.022l-0.027,-0.023l-0.025,-0.026l-0.023,-0.027l-0.021,-0.029l-0.019,-0.03l-0.017,-0.031l-0.014,-0.033l-0.012,-0.034l-0.01,-0.034l-0.007,-0.035l-0.005,-0.035l-0.002,-0.036l0,-0.035l0.003,-0.036l0.005,-0.035l0.008,-0.035l0.011,-0.034l0.012,-0.034l0.015,-0.032l0.018,-0.031l0.019,-0.03l0.022,-0.028l0.024,-0.027l0.025,-0.025l0.027,-0.023l0.029,-0.021l0.03,-0.019l0.032,-0.017l0.032,-0.015l0.034,-0.012l0.034,-0.01l0.035,-0.007l0.036,-0.005l0.035,-0.002l0.036,0l0.036,0.003l0.035,0.006l0.035,0.008l0.034,0.01l0.098,0.034l0.095,0.031l0.097,0.031l0.096,0.029l0.097,0.028l0.098,0.028l0.099,0.026l0.1,0.025l0.099,0.025l0.1,0.023l0.1,0.022l0.102,0.021l0.101,0.02l0.102,0.019l0.102,0.018l0.102,0.017l0.102,0.016l0.103,0.015l0.104,0.014l0.103,0.013l0.103,0.011l0.103,0.011l0.104,0.01l0.103,0.008l0.104,0.008l0.104,0.007l0.103,0.005l0.104,0.004l0.103,0.004l0.103,0.002l0.103,0.001l0.104,0.001l0.102,-0.001l0.102,-0.002l0.102,-0.002l0.102,-0.004l0.101,-0.005l0.101,-0.006l0.101,-0.007l0.1,-0.008l0.099,-0.009l0.099,-0.009l0.099,-0.011l0.098,-0.012l0.097,-0.013l0.098,-0.014l0.095,-0.015l0.095,-0.016l0.095,-0.017l0.095,-0.018l0.092,-0.019l0.092,-0.019l0.091,-0.021l0.091,-0.022l0.089,-0.023l0.089,-0.023l0.087,-0.025l0.087,-0.025l0.086,-0.027l0.084,-0.027l0.083,-0.028l0.082,-0.03l0.081,-0.03l0.082,-0.032l0.034,-0.011l0.034,-0.01l0.035,-0.007l0.036,-0.004l0.035,-0.002l0.036,0.001Z" style="fill:#fff;"/><path d="M41.741,387.501l0.036,0.003l0.035,0.006l0.034,0.008l0.035,0.011l0.033,0.013l0.032,0.015l0.031,0.018l0.029,0.02l0.029,0.022l0.026,0.024l0.025,0.026l0.023,0.027l0.021,0.029l0.018,0.03l0.017,0.032l0.014,0.033l0.012,0.033l0.009,0.035l0.007,0.035l0.004,0.035l0.002,0.036l-0.001,0.036l-0.003,0.035l-0.006,0.035l-0.008,0.035l-0.011,0.034l-0.013,0.033l-0.015,0.033l-0.018,0.031l-0.02,0.029l-0.022,0.028l-0.024,0.027l-0.025,0.025l-0.028,0.022l-0.029,0.021l-0.03,0.019l-0.032,0.016l-0.033,0.015l-0.09,0.035l-0.096,0.035l-0.095,0.034l-0.096,0.033l-0.097,0.031l-0.099,0.031l-0.099,0.029l-0.099,0.028l-0.102,0.027l-0.101,0.026l-0.103,0.024l-0.102,0.024l-0.105,0.022l-0.105,0.022l-0.105,0.02l-0.105,0.018l-0.107,0.018l-0.107,0.017l-0.108,0.015l-0.108,0.015l-0.108,0.013l-0.11,0.012l-0.109,0.011l-0.11,0.01l-0.111,0.008l-0.111,0.008l-0.111,0.007l-0.112,0.005l-0.111,0.004l-0.113,0.003l-0.112,0.002l-0.113,0.001l-0.112,-0.001l-0.113,-0.001l-0.114,-0.003l-0.113,-0.003l-0.113,-0.005l-0.114,-0.006l-0.114,-0.007l-0.113,-0.009l-0.114,-0.009l-0.114,-0.011l-0.113,-0.011l-0.114,-0.013l-0.112,-0.014l-0.114,-0.016l-0.113,-0.016l-0.112,-0.017l-0.113,-0.019l-0.112,-0.02l-0.113,-0.021l-0.111,-0.022l-0.111,-0.023l-0.112,-0.025l-0.111,-0.025l-0.11,-0.027l-0.109,-0.028l-0.11,-0.029l-0.109,-0.031l-0.109,-0.032l-0.108,-0.033l-0.107,-0.033l-0.106,-0.036l-0.104,-0.035l-0.033,-0.013l-0.032,-0.015l-0.032,-0.017l-0.029,-0.02l-0.029,-0.022l-0.027,-0.023l-0.025,-0.026l-0.023,-0.027l-0.021,-0.029l-0.019,-0.03l-0.017,-0.031l-0.014,-0.033l-0.012,-0.034l-0.01,-0.034l-0.007,-0.035l-0.005,-0.035l-0.002,-0.036l0,-0.035l0.003,-0.036l0.005,-0.035l0.008,-0.035l0.011,-0.034l0.012,-0.034l0.015,-0.032l0.018,-0.031l0.019,-0.03l0.022,-0.028l0.024,-0.027l0.025,-0.025l0.027,-0.023l0.029,-0.021l0.03,-0.019l0.032,-0.017l0.032,-0.015l0.034,-0.012l0.034,-0.01l0.035,-0.007l0.036,-0.005l0.035,-0.002l0.036,0l0.036,0.003l0.035,0.006l0.035,0.008l0.034,0.01l0.098,0.034l0.095,0.031l0.097,0.031l0.096,0.029l0.097,0.028l0.098,0.028l0.099,0.026l0.1,0.025l0.099,0.025l0.1,0.023l0.1,0.022l0.102,0.021l0.101,0.02l0.102,0.019l0.102,0.018l0.102,0.017l0.102,0.016l0.103,0.015l0.104,0.014l0.103,0.013l0.103,0.011l0.103,0.011l0.104,0.01l0.103,0.008l0.104,0.008l0.104,0.006l0.103,0.006l0.104,0.004l0.103,0.004l0.103,0.002l0.103,0.001l0.104,0.001l0.102,-0.001l0.102,-0.002l0.102,-0.002l0.102,-0.004l0.101,-0.005l0.101,-0.006l0.101,-0.007l0.1,-0.008l0.099,-0.009l0.099,-0.009l0.099,-0.011l0.098,-0.012l0.097,-0.013l0.098,-0.014l0.095,-0.015l0.095,-0.016l0.095,-0.017l0.095,-0.018l0.092,-0.019l0.092,-0.019l0.091,-0.021l0.091,-0.022l0.089,-0.023l0.089,-0.023l0.087,-0.025l0.087,-0.025l0.086,-0.027l0.084,-0.027l0.083,-0.028l0.082,-0.03l0.081,-0.03l0.082,-0.032l0.034,-0.011l0.034,-0.01l0.035,-0.007l0.036,-0.004l0.035,-0.002l0.036,0.001Z" style="fill:#fff;"/></g></g><g><rect x="30.208" y="215" width="49.856" height="15.954" style="fill:#444f61;"/><path d="M54.097,215l-27,0l1,170.495l19,0l7,-170.495Z" style="fill:#444f61;"/><clipPath id="_clip5"><path d="M54.097,215l-27,0l1,170.495l19,0l7,-170.495Z"/></clipPath><g clip-path="url(#_clip5)"><path d="M42.723,215c0,0 -6.804,13.028 -18.383,13.808c-14.675,0.987 -1.71,-13.273 -1.71,-13.273l6.031,-6.305l14.062,5.77Z" style="fill:#333e50;"/></g><path d="M54.706,215l27,0l-1,170.495l-19,0l-7,-170.495Z" style="fill:#444f61;"/><clipPath id="_clip6"><path d="M54.706,215l27,0l-1,170.495l-19,0l-7,-170.495Z"/></clipPath><g clip-path="url(#_clip6)"><path d="M66.08,215c0,0 6.803,13.028 18.383,13.808c14.674,0.987 1.71,-13.273 1.71,-13.273l-6.032,-6.305l-14.061,5.77Z" style="fill:#333e50;"/></g></g><g><path id="ear" d="M78.775,56.457c0,0 2.719,-2.221 4.054,-0.678c1.911,2.211 -0.152,4.899 -0.219,6.787c-0.087,2.427 0.761,3.913 -0.518,4.521c-1.231,0.586 -2.307,0.222 -3.412,-0.813c-3.782,-3.54 0.095,-9.817 0.095,-9.817Z" style="fill:#7d441c;"/><path d="M61.884,92.234l-15,0l-2,19.092l9.642,4.134l9.358,-4.134l-2,-19.092Z" style="fill:#aa5822;"/><clipPath id="_clip7"><path d="M61.884,92.234l-15,0l-2,19.092l9.642,4.134l9.358,-4.134l-2,-19.092Z"/></clipPath><g clip-path="url(#_clip7)"><path d="M43.884,94.875c4.985,5.424 16.102,5.751 21.118,0.186l-10.618,-4.5l-10.5,4.314Z" style="fill:#181e26;fill-opacity:0.15;"/></g><path id="ear1" d="M30.027,56.457c0,0 -2.719,-2.221 -4.053,-0.678c-1.912,2.211 0.151,4.899 0.219,6.787c0.087,2.427 -0.761,3.913 0.518,4.521c1.23,0.586 2.306,0.222 3.412,-0.813c3.781,-3.54 -0.096,-9.817 -0.096,-9.817Z" style="fill:#7d441c;"/><path d="M54.524,29.062l0.12,-0.001c20.758,0.165 25.866,14.973 25.339,33.334c-0.299,10.41 -4.659,22.713 -11.168,28.147c-3.343,2.791 -12.335,6.406 -14.122,6.38c-0.049,0 -0.106,-0.003 -0.169,-0.007c-0.064,0.004 -0.12,0.007 -0.17,0.007c-1.787,0.026 -10.778,-3.589 -14.122,-6.38c-6.509,-5.434 -10.869,-17.737 -11.168,-28.147c-0.526,-18.361 4.581,-33.169 25.339,-33.334l0.121,0.001Z" style="fill:#aa5822;"/><path d="M43.97,81.688c6.938,0.804 13.886,0.817 20.844,0c0,0 -3.433,5.812 -10.377,5.843c-7.174,0.032 -10.467,-5.843 -10.467,-5.843Z" style="fill:#fff;"/><path d="M34.191,44.401c8.965,-7.393 32.201,-7.635 41.928,0.293l3.431,22.707c7.091,-24.272 -7.878,-40.908 -25.118,-41.02c-15.193,-0.099 -27.91,10.36 -26.159,32.097c0.174,2.161 1.157,8.423 1.157,8.423l4.761,-22.5Z" style="fill:#333e50;"/><path d="M56.154,71.413c-0.362,-0.642 -1.041,-1.04 -1.778,-1.04c-0.737,0 -1.417,0.398 -1.778,1.04c-0.65,1.155 -1.355,2.408 -1.884,3.349c-0.174,0.31 -0.171,0.688 0.008,0.995c0.18,0.307 0.508,0.495 0.863,0.495c1.601,0 3.98,0 5.581,0c0.355,0 0.684,-0.188 0.863,-0.495c0.179,-0.307 0.182,-0.685 0.008,-0.995c-0.529,-0.941 -1.234,-2.194 -1.883,-3.349Z" style="fill:#7d441c;"/><circle id="eye2" cx="41.603" cy="63.094" r="4.5" style="fill:#181e26;"/><path id="brow" d="M46.235,52.582c-0.985,-0.535 -2.724,-0.692 -5.031,-0.457c-2.545,0.26 -4.653,1.109 -4.581,1.719c0.062,0.522 3.088,0.366 5.86,0.379c2.03,0.01 3.675,0.468 4.189,0.166c0.734,-0.431 0.269,-1.424 -0.437,-1.807Z" style="fill:#181e26;"/><circle id="eye3" cx="67.148" cy="63.094" r="4.5" style="fill:#181e26;"/><path id="brow1" d="M62.516,52.582c0.985,-0.535 2.725,-0.692 5.031,-0.457c2.545,0.26 4.654,1.109 4.582,1.719c-0.062,0.522 -3.089,0.366 -5.861,0.379c-2.03,0.01 -3.674,0.468 -4.188,0.166c-0.735,-0.431 -0.269,-1.424 0.436,-1.807Z" style="fill:#181e26;"/></g><path id="arm2" d="M77.065,115.258c11.59,4.164 32.252,41.541 31.142,54.866c-1.112,13.355 -4.803,42.95 -4.803,42.95l-7.021,-0.291c-1.739,-6.164 -5.992,-23.128 -2.797,-41.486c-6.247,-14.085 -12.789,-30.354 -24.083,-36.614l7.562,-19.425Z" style="fill:#aa5822;"/><path id="arm3" d="M25.044,119.712c-10.887,5.754 -26.081,45.669 -23.105,58.705c2.981,13.065 53.889,11.383 53.889,11.383l0.451,-10.215c-6.568,-1.401 -25.341,-4.097 -39.14,-8.322c4.202,-14.825 7.827,-25.596 18.128,-33.384l-10.223,-18.167Z" style="fill:#aa5822;"/><path id="torso1" d="M23.205,132.411c-0.298,-5.484 1.673,-10.85 5.45,-14.838c3.777,-3.988 9.028,-6.247 14.521,-6.247c7.219,0 15.289,0 22.503,0c5.484,0 10.728,2.252 14.504,6.229c3.776,3.977 5.753,9.33 5.47,14.806c-1.588,30.633 -4.35,83.905 -4.35,83.905l-53.541,0c0,0 -2.892,-53.215 -4.557,-83.855Z" style="fill:#aa5822;"/><path d="M63.961,111.419c0,0 -6.236,10.277 -9.392,10.274c-3.155,-0.003 -9.541,-10.29 -9.541,-10.29c-4.715,-0.367 -15.536,0.642 -22.655,5.688c-10.604,7.516 -25.434,54.101 -21.455,63.491c2.665,6.286 16.107,8.051 16.107,8.051c0,0 0.208,-12.125 0.856,-17.741l5.637,-15.533l2.258,60.972c20.719,3.402 34.47,3.696 57.542,0.012l2.168,-61.47l6.259,16.891l22.777,18.023l12.512,3.098c3.4,-13.22 -9.008,-21.311 -19.256,-28.199c0,0 -17.206,-44.648 -21.168,-47.636c-4.304,-3.246 -15.08,-6.471 -22.649,-5.631Z" style="fill:#ffc7bc;"/><clipPath id="_clip8"><path d="M63.961,111.419c0,0 -6.236,10.277 -9.392,10.274c-3.155,-0.003 -9.541,-10.29 -9.541,-10.29c-4.715,-0.367 -15.536,0.642 -22.655,5.688c-10.604,7.516 -25.434,54.101 -21.455,63.491c2.665,6.286 16.107,8.051 16.107,8.051c0,0 0.208,-12.125 0.856,-17.741l5.637,-15.533l2.258,60.972c20.719,3.402 34.47,3.696 57.542,0.012l2.168,-61.47l6.259,16.891l22.777,18.023l12.512,3.098c3.4,-13.22 -9.008,-21.311 -19.256,-28.199c0,0 -17.206,-44.648 -21.168,-47.636c-4.304,-3.246 -15.08,-6.471 -22.649,-5.631Z"/></clipPath><g clip-path="url(#_clip8)"><path d="M56.317,179.598c-5.662,-2.03 -13.94,-5.101 -32.233,-8.937l0.077,2.079l32.156,6.858Z" style="fill:#181e26;fill-opacity:0.15;"/></g><path d="M54.32,189.002c0,0 4.717,2.469 10.821,3.355c3.698,0.536 8.19,-0.221 11.039,-1.903c5.281,-3.119 5.931,-6.738 2.11,-7.815c-7.003,-1.975 -11.868,1.117 -12.773,-2.016c-0.448,-1.552 3.957,-2.688 7.074,-2.801c1.645,-0.06 2.129,-2.083 -3.129,-2.522c-1.779,-0.148 -6.251,0.544 -7.99,1.382c-3.624,1.747 -7.333,5.609 -7.333,5.609l0.181,6.711Z" style="fill:#7d441c;"/><g><g><g><path d="M61.272,153.951c-1.407,0.377 -2.244,1.826 -1.867,3.233l17.683,65.992c0.377,1.407 1.826,2.244 3.233,1.867l45.901,-12.299c1.407,-0.377 2.244,-1.826 1.867,-3.234l-17.683,-65.992c-0.377,-1.407 -1.826,-2.244 -3.233,-1.866l-45.901,12.299Z" style="fill:#f7f8fa;"/><path d="M107.897,141.561l0.065,0.002l0.064,0.004l0.065,0.005l0.064,0.006l0.064,0.008l0.063,0.01l0.064,0.011l0.062,0.013l0.063,0.014l0.061,0.016l0.062,0.017l0.061,0.018l0.06,0.02l0.06,0.022l0.059,0.023l0.059,0.024l0.058,0.026l0.057,0.027l0.057,0.028l0.056,0.03l0.055,0.031l0.054,0.032l0.054,0.034l0.053,0.035l0.052,0.036l0.051,0.037l0.051,0.039l0.049,0.04l0.049,0.041l0.047,0.042l0.047,0.043l0.045,0.045l0.045,0.046l0.043,0.047l0.043,0.048l0.041,0.049l0.04,0.05l0.039,0.051l0.038,0.052l0.036,0.054l0.035,0.054l0.034,0.055l0.033,0.057l0.032,0.057l0.03,0.059l0.029,0.059l0.027,0.06l0.026,0.061l0.024,0.062l0.023,0.063l0.022,0.064l0.02,0.065l0.018,0.065l17.683,65.992l0.017,0.066l0.015,0.066l0.013,0.066l0.011,0.066l0.01,0.066l0.008,0.066l0.007,0.066l0.005,0.066l0.003,0.065l0.001,0.066l0,0.065l-0.002,0.065l-0.003,0.065l-0.005,0.064l-0.007,0.064l-0.008,0.064l-0.01,0.064l-0.011,0.063l-0.012,0.063l-0.015,0.062l-0.015,0.062l-0.017,0.061l-0.019,0.061l-0.02,0.06l-0.022,0.06l-0.022,0.059l-0.025,0.059l-0.025,0.058l-0.027,0.057l-0.029,0.057l-0.029,0.056l-0.031,0.055l-0.033,0.055l-0.033,0.054l-0.035,0.052l-0.036,0.053l-0.038,0.051l-0.038,0.05l-0.04,0.05l-0.041,0.048l-0.043,0.048l-0.043,0.046l-0.045,0.046l-0.045,0.044l-0.047,0.044l-0.048,0.042l-0.049,0.041l-0.051,0.04l-0.051,0.039l-0.052,0.038l-0.053,0.037l-0.055,0.035l-0.055,0.034l-0.057,0.033l-0.057,0.031l-0.058,0.03l-0.059,0.029l-0.061,0.027l-0.061,0.026l-0.062,0.025l-0.063,0.023l-0.064,0.021l-0.064,0.02l-0.066,0.019l-45.901,12.299l-0.066,0.017l-0.066,0.015l-0.066,0.013l-0.066,0.011l-0.066,0.01l-0.066,0.008l-0.066,0.007l-0.065,0.005l-0.066,0.003l-0.065,0.001l-0.065,0l-0.065,-0.002l-0.065,-0.003l-0.065,-0.005l-0.064,-0.007l-0.064,-0.008l-0.063,-0.01l-0.063,-0.011l-0.063,-0.012l-0.062,-0.015l-0.062,-0.015l-0.062,-0.017l-0.061,-0.019l-0.06,-0.02l-0.06,-0.022l-0.059,-0.022l-0.059,-0.025l-0.058,-0.025l-0.057,-0.027l-0.057,-0.029l-0.056,-0.029l-0.055,-0.031l-0.054,-0.033l-0.054,-0.033l-0.053,-0.035l-0.052,-0.036l-0.051,-0.038l-0.051,-0.038l-0.049,-0.04l-0.048,-0.041l-0.048,-0.043l-0.047,-0.043l-0.045,-0.045l-0.045,-0.045l-0.043,-0.047l-0.042,-0.048l-0.042,-0.049l-0.04,-0.051l-0.039,-0.051l-0.037,-0.052l-0.037,-0.053l-0.035,-0.055l-0.034,-0.055l-0.033,-0.057l-0.032,-0.057l-0.03,-0.058l-0.028,-0.06l-0.028,-0.06l-0.026,-0.061l-0.024,-0.062l-0.023,-0.063l-0.022,-0.064l-0.02,-0.064l-0.018,-0.066l-17.683,-65.992l-0.016,-0.066l-0.015,-0.066l-0.014,-0.066l-0.011,-0.066l-0.01,-0.066l-0.008,-0.066l-0.007,-0.066l-0.004,-0.066l-0.003,-0.065l-0.002,-0.066l0,-0.065l0.002,-0.065l0.003,-0.064l0.005,-0.065l0.007,-0.064l0.008,-0.064l0.01,-0.063l0.011,-0.064l0.013,-0.062l0.014,-0.063l0.015,-0.062l0.018,-0.061l0.018,-0.061l0.02,-0.06l0.022,-0.06l0.023,-0.059l0.024,-0.059l0.025,-0.058l0.027,-0.057l0.029,-0.057l0.03,-0.056l0.031,-0.055l0.032,-0.055l0.034,-0.053l0.034,-0.053l0.037,-0.052l0.037,-0.051l0.039,-0.051l0.04,-0.049l0.041,-0.049l0.042,-0.047l0.043,-0.047l0.045,-0.045l0.046,-0.045l0.046,-0.043l0.048,-0.043l0.05,-0.041l0.05,-0.04l0.051,-0.039l0.052,-0.038l0.054,-0.036l0.054,-0.036l0.055,-0.034l0.057,-0.032l0.057,-0.032l0.058,-0.03l0.06,-0.029l0.06,-0.027l0.061,-0.026l0.062,-0.024l0.063,-0.023l0.064,-0.022l0.065,-0.02l0.065,-0.018l45.901,-12.299l0.066,-0.017l0.066,-0.015l0.066,-0.014l0.066,-0.011l0.066,-0.01l0.066,-0.008l0.066,-0.006l0.065,-0.005l0.066,-0.003l0.065,-0.002l0.066,0Zm-44.276,15.901l16.979,63.365l43.273,-11.595l-16.978,-63.365l-43.274,11.595Z" style="fill:#444f61;"/><path d="M124.776,204.849l-47.15,12.634l1.387,5.177l47.15,-12.634l-1.387,-5.177Z" style="fill:#444f61;"/></g><path d="M101.719,213.098c1.066,-0.286 2.164,0.348 2.449,1.414c0.286,1.066 -0.348,2.164 -1.414,2.449c-1.066,0.286 -2.164,-0.348 -2.449,-1.414c-0.286,-1.066 0.347,-2.164 1.414,-2.449Z" style="fill:#525f75;"/></g><path d="M83.975,156.15l-15.455,4.141l3.106,11.591l15.455,-4.141l-3.106,-11.591Z" style="fill:#ffa391;"/><path d="M104.066,150.766l-15.455,4.141l3.106,11.591l15.455,-4.141l-3.106,-11.591Z" style="fill:#8eedc6;"/><path d="M88.323,172.377l-15.455,4.141l3.106,11.591l15.455,-4.141l-3.106,-11.591Z" style="fill:#ff6243;"/><path d="M108.414,166.994l-15.455,4.141l3.106,11.591l15.455,-4.141l-3.106,-11.591Z" style="fill:#43e8a3;"/><path d="M92.671,188.605l-15.455,4.141l3.106,11.591l15.455,-4.141l-3.106,-11.591Z" style="fill:#c93214;"/><path d="M112.762,183.221l-15.454,4.141l3.105,11.592l15.455,-4.142l-3.106,-11.591Z" style="fill:#1bc47e;"/></g><path d="M54.32,189.002c0,0 4.717,2.469 10.821,3.355c3.698,0.536 8.19,-0.221 11.039,-1.903c5.281,-3.119 5.931,-6.738 2.11,-7.815c-7.003,-1.975 -11.868,1.117 -12.773,-2.016c-0.448,-1.552 -2.306,-4.779 -4.045,-3.941c-3.624,1.747 -7.333,5.609 -7.333,5.609l0.181,6.711Z" style="fill:#aa5822;"/><path d="M121.078,183.347c3.264,-0.625 10.627,9.786 2.383,13.069c-1.584,0.63 -3.565,0.78 -6.833,-0.232c-3.708,-1.148 -4.634,-8.09 -1.476,-8.655c6.191,-1.109 5.844,-2.393 5.926,-4.182Z" style="fill:#aa5822;"/><path d="M13.022,179.102l4.854,-8.167l38.403,8.65l-0.451,10.215c-12.689,1.235 -25.631,0.796 -38.803,-1.167l-4.003,-9.531Z" style="fill:#ffc7bc;"/></g><g id="yas"><path d="M154.968,66.459c-7.608,2.782 -16.19,3.352 -22.82,1.157c-3.166,-1.049 -6.331,-2.078 -9.226,-3.637c-5.407,5.97 -11.152,8.572 -17.063,9.521c5.378,-4.113 8.502,-9.224 8.544,-15.7c-7.723,-7.448 -10.606,-15.68 -8.679,-24.678c2.634,-12.297 18.712,-19.975 37.586,-16.95c21.151,3.389 34.073,14.021 29.478,33.241c-1.151,4.817 -4.292,8.897 -8.493,12.062l0,0c0.043,6.476 3.261,11.82 8.639,15.933c-5.911,-0.949 -12.266,-5.087 -17.673,-11.057c-0.213,0.115 -0.304,0.146 -0.293,0.108Z" style="fill:#edf0f5;"/><path d="M147.026,33.976l-23.797,-3.115l-2.337,17.848l23.797,3.115l2.337,-17.848Z" style="fill:#43e8a3;"/><g><path d="M158.849,32.434c-4.616,-2.29 -8.171,16.82 -6.927,17.107c0.965,0.222 9.615,-15.773 6.927,-17.107Z" style="fill:#9da9bd;"/><path d="M151.314,51.557c-0.546,0 -1.616,0.219 -1.99,2.024c-0.3,1.453 0.593,2.124 1.333,2.217c0.822,0.103 1.683,-0.467 1.911,-2.071c0.223,-1.574 -0.355,-2.17 -1.254,-2.17Z" style="fill:#9da9bd;"/></g></g><g id="laptop"><path d="M320,191.7c0,-1.49 -1.21,-2.7 -2.7,-2.7l-74.6,0c-1.49,0 -2.7,1.21 -2.7,2.7l0,48.6c0,1.49 1.21,2.7 2.7,2.7l74.6,0c1.49,0 2.7,-1.21 2.7,-2.7l0,-48.6Z" style="fill:#edf0f5;"/><path d="M271.196,227.248c-0.637,-0.816 5.074,-13.642 9.625,-11.35c0.304,0.153 1.311,1.17 1.431,1.437c1.878,4.185 -10.423,10.726 -11.056,9.913Zm11.755,-11.133c1.082,-0.067 2.305,-0.397 2.967,-1.054c0,0 3.032,1.231 2.933,-0.889c-0.071,-1.527 -4.608,-1.169 -5.9,1.943Zm-1.298,-1.042c0.136,-1.091 0.576,-1.995 1.241,-2.758c-0.369,-0.615 0.09,-1.751 0.85,-1.795c0,0 -1.258,-2.71 -0.247,-3.446c3.112,-2.265 3.087,5.947 -1.844,7.999Z" style="fill:#cad2e0;"/></g><path d="M319.263,243.001l0.265,0.002l0.264,0.004l0.259,0.006l0.262,0.008l0.265,0.009l0.263,0.011l0.259,0.012l0.262,0.014l0.261,0.016l0.26,0.017l0.259,0.019l0.259,0.021l0.261,0.022l0.261,0.024l0.258,0.025l0.253,0.027l0.258,0.028l0.26,0.031l0.257,0.032l0.254,0.033l0.257,0.035l0.254,0.037l0.254,0.037l0.259,0.041l0.253,0.041l0.251,0.042l0.253,0.045l0.253,0.046l0.254,0.048l0.247,0.048l0.253,0.051l0.25,0.052l0.246,0.052l0.255,0.057l0.254,0.057l0.245,0.058l0.241,0.058l0.246,0.061l0.25,0.063l0.247,0.065l0.244,0.065l0.244,0.067l0.243,0.068l0.246,0.071l0.242,0.071l0.242,0.072l0.241,0.075l0.247,0.077l0.234,0.076l0.238,0.078l0.248,0.083l0.229,0.078l0.24,0.084l0.241,0.086l0.23,0.083l0.241,0.089l0.237,0.089l0.225,0.087l0.23,0.089l0.239,0.095l0.238,0.097l0.235,0.097l0.229,0.096l0.218,0.093l0.232,0.1l0.234,0.104l0.225,0.1l0.231,0.106l0.223,0.103l0.22,0.103l0.23,0.11l0.229,0.112l0.22,0.108l0.217,0.109l0.225,0.114l0.227,0.117l0.214,0.113l0.212,0.112l0.224,0.121l0.224,0.123l0.219,0.121l0.208,0.118l0.212,0.121l0.219,0.126l0.214,0.126l0.207,0.123l0.218,0.131l0.213,0.131l0.205,0.127l0.212,0.133l0.199,0.127l0.213,0.137l0.21,0.138l0.207,0.137l0.21,0.141l0.195,0.133l0.196,0.134l0.206,0.144l0.214,0.151l0.191,0.137l0.201,0.146l0.202,0.148l0.189,0.141l0.2,0.15l0.198,0.151l0.195,0.151l0.185,0.144l0.196,0.154l0.203,0.163l0.182,0.148l0.193,0.158l0.189,0.157l0.191,0.16l0.187,0.16l0.176,0.151l0.186,0.162l0.196,0.173l0.185,0.166l0.17,0.153l0.183,0.167l0.181,0.167l0.178,0.167l0.192,0.182l0.176,0.169l0.164,0.16l0.176,0.172l0.173,0.173l0.173,0.173l0.171,0.175l0.182,0.187l0.169,0.176l0.157,0.166l0.179,0.19l0.164,0.178l0.154,0.168l0.175,0.194l0.161,0.181l0.163,0.183l0.17,0.196l0.158,0.184l0.147,0.173l0.157,0.186l0.166,0.2l0.165,0.201l0.151,0.187l0.14,0.175l0.162,0.204l0.149,0.192l0.147,0.19l0.157,0.206l0.146,0.194l0.144,0.194l0.143,0.194l0.151,0.209l0.141,0.197l0.139,0.196l0.148,0.213l0.136,0.198l0.135,0.197l0.145,0.216l0.132,0.2l0.131,0.2l0.14,0.217l0.129,0.203l0.139,0.22l0.125,0.203l0.124,0.203l0.134,0.221l0.123,0.206l0.131,0.223l0.128,0.223l0.118,0.207l0.117,0.208l0.116,0.208l0.124,0.226l0.123,0.228l0.11,0.209l0.111,0.21l0.119,0.231l0.117,0.23l0.106,0.211l0.114,0.231l0.112,0.232l0.102,0.214l0.11,0.232l0.099,0.215l0.099,0.216l0.114,0.253l0.103,0.236l0.094,0.217l0.093,0.217l0.099,0.237l0.098,0.237l0.089,0.22l0.095,0.238l0.093,0.239l0.093,0.24l0.082,0.22l0.09,0.242l0.087,0.241l0.079,0.222l0.092,0.263l0.075,0.222l0.083,0.243l0.079,0.244l0.072,0.224l0.077,0.245l0.076,0.245l0.073,0.245l0.073,0.247l0.071,0.246l0.063,0.226l0.068,0.247l0.072,0.269l0.064,0.248l0.057,0.227l0.062,0.249l0.06,0.25l0.054,0.228l0.057,0.25l0.06,0.271l0.054,0.25l0.052,0.251l0.05,0.252l0.045,0.23l0.052,0.273l0.045,0.252l0.041,0.232l0.046,0.274l0.041,0.253l0.04,0.253l0.037,0.253l0.037,0.254l0.034,0.254l0.034,0.255l0.031,0.254l0.031,0.255l0.03,0.276l0.026,0.255l0.024,0.235l0.024,0.255l0.024,0.277l0.021,0.277l0.018,0.256l0.016,0.236l0.016,0.256l0.015,0.278l0.013,0.278l0.01,0.257l0.008,0.236l0.009,0.278l0.005,0.257l0.005,0.258l0.002,0.278l0.001,0.237l0,116.021l-0.047,1.015l-0.14,1.006l-0.233,0.989l-0.323,0.964l-0.41,0.929l-0.495,0.888l-0.574,0.838l-0.649,0.782l-0.718,0.718l-0.782,0.649l-0.838,0.574l-0.888,0.495l-0.929,0.41l-0.964,0.323l-0.989,0.233l-1.006,0.14l-1.015,0.047l-1.015,-0.047l-1.006,-0.14l-0.989,-0.233l-0.964,-0.323l-0.929,-0.41l-0.888,-0.495l-0.838,-0.574l-0.782,-0.649l-0.718,-0.718l-0.649,-0.782l-0.574,-0.838l-0.495,-0.888l-0.41,-0.929l-0.323,-0.964l-0.233,-0.989l-0.14,-1.006l-0.047,-1.015l0,-115.979l0,-0.151l-0.001,-0.109l-0.003,-0.13l-0.002,-0.129l-0.004,-0.107l-0.005,-0.149l-0.005,-0.128l-0.005,-0.106l-0.005,-0.105l-0.008,-0.126l-0.01,-0.147l-0.009,-0.125l-0.008,-0.103l-0.009,-0.103l-0.012,-0.124l-0.014,-0.144l-0.012,-0.123l-0.012,-0.1l-0.014,-0.122l-0.015,-0.121l-0.016,-0.121l-0.016,-0.12l-0.018,-0.12l-0.017,-0.119l-0.019,-0.119l-0.019,-0.118l-0.016,-0.097l-0.025,-0.138l-0.021,-0.117l-0.018,-0.095l-0.027,-0.137l-0.022,-0.116l-0.024,-0.114l-0.025,-0.115l-0.02,-0.093l-0.027,-0.113l-0.031,-0.134l-0.027,-0.113l-0.028,-0.111l-0.033,-0.133l-0.029,-0.111l-0.024,-0.089l-0.03,-0.111l-0.037,-0.13l-0.031,-0.109l-0.032,-0.108l-0.032,-0.108l-0.033,-0.108l-0.034,-0.107l-0.041,-0.127l-0.035,-0.106l-0.035,-0.106l-0.043,-0.125l-0.029,-0.085l-0.045,-0.124l-0.037,-0.104l-0.039,-0.103l-0.046,-0.123l-0.039,-0.102l-0.039,-0.101l-0.041,-0.103l-0.049,-0.119l-0.041,-0.1l-0.042,-0.101l-0.051,-0.118l-0.051,-0.119l-0.043,-0.097l-0.036,-0.08l-0.053,-0.116l-0.053,-0.115l-0.046,-0.098l-0.055,-0.114l-0.046,-0.096l-0.047,-0.095l-0.057,-0.114l-0.048,-0.094l-0.047,-0.092l-0.059,-0.111l-0.059,-0.112l-0.05,-0.092l-0.05,-0.091l-0.061,-0.11l-0.06,-0.108l-0.061,-0.107l-0.053,-0.091l-0.053,-0.089l-0.062,-0.105l-0.053,-0.089l-0.066,-0.106l-0.064,-0.104l-0.054,-0.086l-0.065,-0.103l-0.056,-0.086l-0.068,-0.103l-0.066,-0.101l-0.057,-0.084l-0.068,-0.101l-0.069,-0.099l-0.058,-0.084l-0.069,-0.098l-0.069,-0.096l-0.061,-0.084l-0.071,-0.097l-0.071,-0.095l-0.071,-0.094l-0.061,-0.081l-0.074,-0.095l-0.072,-0.093l-0.062,-0.078l-0.085,-0.106l-0.075,-0.093l-0.063,-0.077l-0.064,-0.077l-0.076,-0.09l-0.087,-0.102l-0.076,-0.089l-0.066,-0.075l-0.077,-0.087l-0.078,-0.088l-0.066,-0.073l-0.089,-0.098l-0.08,-0.086l-0.067,-0.072l-0.091,-0.096l-0.08,-0.083l-0.069,-0.071l-0.081,-0.082l-0.081,-0.082l-0.082,-0.082l-0.081,-0.079l-0.094,-0.091l-0.083,-0.08l-0.069,-0.066l-0.085,-0.079l-0.083,-0.077l-0.084,-0.076l-0.097,-0.088l-0.083,-0.074l-0.074,-0.065l-0.085,-0.075l-0.098,-0.084l-0.086,-0.073l-0.085,-0.072l-0.088,-0.072l-0.086,-0.071l-0.098,-0.079l-0.077,-0.063l-0.088,-0.069l-0.099,-0.077l-0.091,-0.07l-0.089,-0.068l-0.087,-0.066l-0.101,-0.075l-0.088,-0.065l-0.091,-0.065l-0.102,-0.073l-0.081,-0.058l-0.091,-0.063l-0.101,-0.07l-0.104,-0.07l-0.089,-0.06l-0.094,-0.062l-0.093,-0.061l-0.091,-0.059l-0.106,-0.067l-0.094,-0.059l-0.103,-0.064l-0.094,-0.058l-0.094,-0.056l-0.103,-0.062l-0.098,-0.058l-0.095,-0.054l-0.103,-0.059l-0.107,-0.06l-0.098,-0.055l-0.094,-0.051l-0.095,-0.052l-0.109,-0.058l-0.107,-0.056l-0.096,-0.049l-0.099,-0.05l-0.109,-0.055l-0.106,-0.052l-0.098,-0.048l-0.098,-0.047l-0.111,-0.052l-0.107,-0.05l-0.1,-0.045l-0.109,-0.049l-0.098,-0.043l-0.104,-0.045l-0.119,-0.051l-0.107,-0.045l-0.103,-0.042l-0.1,-0.041l-0.102,-0.04l-0.112,-0.044l-0.118,-0.045l-0.105,-0.04l-0.103,-0.038l-0.116,-0.042l-0.104,-0.037l-0.107,-0.037l-0.119,-0.041l-0.101,-0.034l-0.113,-0.037l-0.116,-0.037l-0.105,-0.033l-0.111,-0.035l-0.113,-0.033l-0.112,-0.033l-0.109,-0.032l-0.114,-0.032l-0.113,-0.031l-0.115,-0.03l-0.111,-0.029l-0.11,-0.028l-0.116,-0.029l-0.12,-0.029l-0.116,-0.027l-0.109,-0.025l-0.11,-0.024l-0.12,-0.026l-0.115,-0.024l-0.114,-0.023l-0.12,-0.023l-0.114,-0.022l-0.116,-0.021l-0.118,-0.02l-0.118,-0.02l-0.118,-0.02l-0.113,-0.017l-0.12,-0.018l-0.119,-0.017l-0.118,-0.016l-0.121,-0.016l-0.118,-0.015l-0.116,-0.013l-0.12,-0.014l-0.125,-0.013l-0.12,-0.011l-0.118,-0.011l-0.118,-0.01l-0.122,-0.01l-0.122,-0.009l-0.123,-0.008l-0.121,-0.007l-0.122,-0.007l-0.124,-0.006l-0.122,-0.005l-0.12,-0.004l-0.124,-0.004l-0.126,-0.002l-0.123,-0.002l-0.123,-0.002l-0.141,0l-178.968,0l-0.141,0l-0.122,0.002l-0.125,0.002l-0.126,0.002l-0.122,0.004l-0.121,0.004l-0.123,0.005l-0.123,0.006l-0.121,0.006l-0.122,0.008l-0.122,0.008l-0.123,0.009l-0.121,0.01l-0.119,0.01l-0.12,0.011l-0.121,0.012l-0.12,0.012l-0.119,0.013l-0.122,0.015l-0.118,0.014l-0.116,0.015l-0.117,0.016l-0.122,0.018l-0.12,0.018l-0.113,0.017l-0.121,0.02l-0.116,0.02l-0.113,0.02l-0.124,0.022l-0.11,0.021l-0.116,0.023l-0.123,0.024l-0.111,0.023l-0.114,0.025l-0.115,0.025l-0.114,0.026l-0.116,0.027l-0.111,0.027l-0.115,0.028l-0.12,0.031l-0.107,0.028l-0.113,0.03l-0.115,0.031l-0.107,0.031l-0.115,0.033l-0.112,0.033l-0.112,0.033l-0.112,0.035l-0.112,0.035l-0.109,0.035l-0.113,0.037l-0.108,0.036l-0.105,0.036l-0.114,0.04l-0.112,0.04l-0.101,0.036l-0.11,0.041l-0.113,0.043l-0.103,0.039l-0.111,0.044l-0.109,0.043l-0.101,0.041l-0.111,0.045l-0.108,0.046l-0.102,0.043l-0.103,0.045l-0.107,0.047l-0.109,0.049l-0.108,0.049l-0.1,0.046l-0.101,0.048l-0.107,0.051l-0.107,0.052l-0.097,0.048l-0.099,0.05l-0.108,0.055l-0.106,0.054l-0.098,0.051l-0.099,0.053l-0.104,0.057l-0.095,0.051l-0.107,0.06l-0.098,0.055l-0.093,0.053l-0.104,0.06l-0.109,0.064l-0.094,0.056l-0.093,0.056l-0.095,0.058l-0.092,0.057l-0.114,0.072l-0.096,0.061l-0.081,0.052l-0.102,0.068l-0.105,0.069l-0.09,0.06l-0.093,0.063l-0.091,0.063l-0.09,0.063l-0.102,0.072l-0.092,0.066l-0.091,0.065l-0.099,0.073l-0.079,0.059l-0.087,0.066l-0.1,0.076l-0.101,0.078l-0.089,0.069l-0.076,0.061l-0.089,0.071l-0.098,0.079l-0.086,0.071l-0.087,0.072l-0.097,0.081l-0.076,0.064l-0.085,0.074l-0.097,0.085l-0.086,0.075l-0.071,0.064l-0.086,0.077l-0.095,0.087l-0.083,0.077l-0.084,0.079l-0.081,0.077l-0.084,0.08l-0.082,0.08l-0.07,0.068l-0.081,0.081l-0.093,0.094l-0.081,0.082l-0.08,0.083l-0.069,0.071l-0.079,0.084l-0.09,0.096l-0.069,0.074l-0.078,0.086l-0.077,0.085l-0.078,0.088l-0.077,0.087l-0.077,0.088l-0.077,0.089l-0.064,0.075l-0.075,0.09l-0.076,0.091l-0.074,0.091l-0.064,0.079l-0.074,0.092l-0.084,0.106l-0.062,0.079l-0.062,0.081l-0.072,0.095l-0.071,0.094l-0.071,0.095l-0.071,0.097l-0.061,0.084l-0.068,0.096l-0.07,0.098l-0.058,0.084l-0.068,0.099l-0.069,0.101l-0.067,0.1l-0.057,0.085l-0.056,0.087l-0.067,0.102l-0.065,0.103l-0.064,0.102l-0.055,0.088l-0.055,0.09l-0.063,0.105l-0.062,0.105l-0.053,0.089l-0.062,0.108l-0.062,0.107l-0.051,0.091l-0.051,0.092l-0.05,0.091l-0.068,0.127l-0.05,0.095l-0.049,0.093l-0.057,0.11l-0.048,0.094l-0.057,0.114l-0.047,0.095l-0.046,0.096l-0.055,0.114l-0.054,0.116l-0.045,0.097l-0.045,0.097l-0.044,0.099l-0.051,0.116l-0.052,0.119l-0.034,0.08l-0.042,0.1l-0.049,0.12l-0.048,0.119l-0.041,0.103l-0.04,0.101l-0.047,0.122l-0.039,0.103l-0.038,0.103l-0.037,0.104l-0.037,0.104l-0.044,0.125l-0.036,0.105l-0.035,0.106l-0.035,0.106l-0.034,0.107l-0.04,0.127l-0.034,0.108l-0.032,0.108l-0.032,0.108l-0.031,0.109l-0.037,0.13l-0.03,0.111l-0.03,0.11l-0.029,0.111l-0.023,0.091l-0.032,0.132l-0.032,0.134l-0.022,0.092l-0.026,0.113l-0.025,0.114l-0.024,0.115l-0.024,0.114l-0.023,0.116l-0.027,0.137l-0.022,0.116l-0.018,0.096l-0.02,0.117l-0.02,0.118l-0.019,0.118l-0.022,0.14l-0.015,0.098l-0.017,0.12l-0.016,0.12l-0.016,0.121l-0.015,0.121l-0.012,0.1l-0.016,0.144l-0.013,0.122l-0.01,0.102l-0.011,0.124l-0.011,0.124l-0.01,0.125l-0.009,0.125l-0.007,0.104l-0.007,0.126l-0.007,0.126l-0.006,0.127l-0.005,0.128l-0.004,0.107l-0.004,0.128l-0.003,0.129l-0.001,0.109l-0.001,0.13l-0.001,0.151l0,115.979l-0.047,1.015l-0.14,1.006l-0.233,0.989l-0.323,0.964l-0.41,0.929l-0.495,0.888l-0.574,0.838l-0.649,0.782l-0.718,0.718l-0.782,0.649l-0.838,0.574l-0.888,0.495l-0.929,0.41l-0.964,0.323l-0.989,0.233l-1.006,0.14l-1.015,0.047l-1.015,-0.047l-1.006,-0.14l-0.989,-0.233l-0.964,-0.323l-0.929,-0.41l-0.888,-0.495l-0.838,-0.574l-0.782,-0.649l-0.718,-0.718l-0.649,-0.782l-0.574,-0.838l-0.495,-0.888l-0.41,-0.929l-0.323,-0.964l-0.233,-0.989l-0.14,-1.006l-0.047,-1.015l0,-116.021l0.001,-0.237l0.002,-0.257l0.004,-0.279l0.006,-0.257l0.007,-0.257l0.01,-0.278l0.011,-0.257l0.012,-0.257l0.014,-0.257l0.015,-0.256l0.018,-0.278l0.019,-0.256l0.021,-0.256l0.022,-0.256l0.023,-0.255l0.027,-0.277l0.027,-0.255l0.026,-0.234l0.032,-0.276l0.032,-0.254l0.033,-0.255l0.035,-0.254l0.036,-0.254l0.042,-0.274l0.036,-0.232l0.041,-0.253l0.043,-0.253l0.043,-0.253l0.05,-0.273l0.048,-0.252l0.045,-0.23l0.05,-0.252l0.053,-0.251l0.053,-0.25l0.055,-0.25l0.057,-0.25l0.063,-0.27l0.056,-0.229l0.056,-0.228l0.068,-0.269l0.065,-0.248l0.066,-0.248l0.068,-0.247l0.064,-0.226l0.07,-0.246l0.073,-0.247l0.073,-0.245l0.076,-0.245l0.071,-0.225l0.078,-0.244l0.08,-0.244l0.081,-0.243l0.083,-0.242l0.078,-0.223l0.085,-0.242l0.088,-0.241l0.089,-0.242l0.091,-0.239l0.085,-0.221l0.093,-0.239l0.095,-0.238l0.089,-0.22l0.09,-0.218l0.099,-0.237l0.109,-0.255l0.094,-0.217l0.096,-0.217l0.105,-0.234l0.106,-0.235l0.109,-0.234l0.101,-0.213l0.102,-0.214l0.112,-0.232l0.115,-0.231l0.105,-0.211l0.117,-0.23l0.11,-0.213l0.119,-0.228l0.121,-0.226l0.104,-0.193l0.123,-0.227l0.125,-0.225l0.127,-0.225l0.119,-0.208l0.119,-0.205l0.131,-0.223l0.123,-0.206l0.123,-0.205l0.133,-0.219l0.137,-0.219l0.128,-0.204l0.129,-0.203l0.13,-0.201l0.14,-0.216l0.144,-0.216l0.134,-0.2l0.135,-0.197l0.136,-0.198l0.148,-0.213l0.14,-0.196l0.14,-0.197l0.152,-0.209l0.142,-0.194l0.145,-0.194l0.145,-0.194l0.146,-0.192l0.157,-0.205l0.161,-0.205l0.14,-0.176l0.151,-0.189l0.163,-0.201l0.153,-0.187l0.155,-0.187l0.156,-0.186l0.17,-0.199l0.159,-0.184l0.158,-0.183l0.163,-0.183l0.161,-0.181l0.164,-0.181l0.164,-0.181l0.177,-0.19l0.156,-0.166l0.167,-0.178l0.181,-0.188l0.171,-0.175l0.171,-0.175l0.161,-0.162l0.173,-0.172l0.187,-0.184l0.176,-0.171l0.177,-0.169l0.18,-0.171l0.179,-0.167l0.181,-0.167l0.17,-0.156l0.181,-0.164l0.197,-0.176l0.185,-0.163l0.175,-0.152l0.186,-0.161l0.2,-0.169l0.179,-0.151l0.189,-0.157l0.193,-0.158l0.182,-0.148l0.192,-0.154l0.206,-0.163l0.197,-0.153l0.184,-0.142l0.187,-0.142l0.2,-0.151l0.21,-0.157l0.192,-0.14l0.201,-0.146l0.202,-0.145l0.192,-0.135l0.206,-0.144l0.207,-0.142l0.205,-0.14l0.21,-0.141l0.197,-0.13l0.199,-0.131l0.223,-0.144l0.21,-0.133l0.192,-0.121l0.214,-0.133l0.215,-0.131l0.216,-0.131l0.218,-0.129l0.204,-0.12l0.209,-0.121l0.221,-0.126l0.219,-0.123l0.209,-0.116l0.224,-0.123l0.215,-0.116l0.221,-0.117l0.224,-0.118l0.217,-0.112l0.217,-0.11l0.225,-0.113l0.229,-0.113l0.22,-0.107l0.222,-0.105l0.227,-0.108l0.232,-0.107l0.224,-0.102l0.224,-0.1l0.226,-0.1l0.232,-0.101l0.234,-0.1l0.229,-0.096l0.227,-0.093l0.239,-0.097l0.231,-0.092l0.229,-0.089l0.24,-0.092l0.23,-0.087l0.234,-0.087l0.243,-0.088l0.235,-0.083l0.233,-0.082l0.242,-0.083l0.242,-0.08l0.237,-0.078l0.241,-0.078l0.241,-0.075l0.241,-0.075l0.242,-0.072l0.242,-0.071l0.24,-0.069l0.248,-0.07l0.245,-0.067l0.243,-0.065l0.253,-0.066l0.24,-0.061l0.245,-0.061l0.251,-0.06l0.246,-0.058l0.25,-0.056l0.25,-0.056l0.249,-0.053l0.255,-0.053l0.245,-0.049l0.25,-0.049l0.259,-0.049l0.245,-0.045l0.256,-0.045l0.256,-0.043l0.249,-0.04l0.259,-0.041l0.254,-0.037l0.251,-0.036l0.256,-0.036l0.26,-0.033l0.258,-0.032l0.255,-0.03l0.257,-0.029l0.258,-0.027l0.258,-0.025l0.26,-0.024l0.261,-0.022l0.259,-0.021l0.258,-0.019l0.26,-0.017l0.26,-0.016l0.262,-0.014l0.261,-0.012l0.262,-0.011l0.264,-0.009l0.263,-0.008l0.26,-0.006l0.263,-0.004l0.265,-0.002l0.247,-0.001l179.031,0l0.248,0.001Z" style="fill:#444f61;"/></g></svg>