<svg viewBox="0 0 360 400" xmlns="http://www.w3.org/2000/svg" fill-rule="evenodd" clip-rule="evenodd" stroke-linejoin="round" stroke-miterlimit="1.41421"><path fill="none" d="M0 0h360v400H0z"/><clipPath id="a"><path d="M0 0h360v400H0z"/></clipPath><g clip-path="url(#a)"><path fill="#525f75" d="M235.683 189h84v108h-84z"/><path fill="#dde3ed" d="M319.683 308h8v92h-8zM227.683 308h8v92h-8z"/><path d="M227.683 303c0-3.314 2.687-6 6-6h88c3.314 0 6 2.686 6 6v6h-100v-6z" fill="#69768c"/><path d="M226.652 200.706c-1.37 2.007 14.519 17.129 15.919 15.885l2.994-6.803-13.598-13.145-5.315 4.063zM328.22 200c1.37 2.007-13.187 18.761-14.586 17.517l-4.664-7.457 13.594-13.625L328.22 200z" fill="#0d8754"/><path d="M300.179 175.159c11.59 4.164 36.326 35.71 34.095 48.894-2.22 13.119-41.735 21.952-41.735 21.952L286.267 243c10.367-11.18 18.822-11.318 32.16-20.529-6.247-14.086-14.516-21.627-25.81-27.887l7.562-19.425z" fill="#fdd1a5"/><path d="M245.716 191.819c-.138-5.392 1.906-10.611 5.671-14.474 3.764-3.862 8.929-6.041 14.323-6.041h23.691c5.385 0 10.542 2.172 14.306 6.023 3.763 3.852 5.814 9.058 5.689 14.442-.71 30.536-1.964 84.475-1.964 84.475h-59.541s-1.388-53.88-2.175-84.425z" fill="#fdd1a5"/><path d="M307.432 276.244l1 20.695H246.89l1-20.707 59.542.012z" fill="#333e50"/><path d="M283.683 396h20v2c0 .53-.21 1.039-.586 1.414-.375.375-.883.586-1.414.586h-16c-.53 0-1.039-.211-1.414-.586s-.586-.884-.586-1.414v-2z" fill="#edf0f5"/><path d="M286.683 391h14l3 5c-6.978 1.333-13.609 1.181-20 0l3-5zM286.683 383h14v8h-14z" fill="#333e50"/><path d="M290.391 391.502c.049.006.093.016.139.032.082.032.164.062.246.092.756.256 1.548.385 2.344.419.826.035 1.658-.03 2.469-.195.267-.054.533-.12.794-.198.141-.042.28-.092.42-.135.035-.008.035-.008.07-.014.109-.008.214.009.31.065.201.116.296.364.224.585-.018.057-.046.11-.083.157-.053.067-.12.114-.197.15-.08.031-.162.057-.243.084-1.505.477-3.121.625-4.688.426-.458-.059-.913-.148-1.357-.276-.238-.068-.477-.144-.704-.242-.032-.016-.031-.016-.062-.035-.069-.049-.126-.108-.166-.183-.115-.217-.051-.494.148-.638.069-.05.146-.078.229-.092.037-.003.071-.004.107-.002zM290.391 389.502c.049.006.093.016.139.032.082.032.164.062.246.092.756.256 1.548.385 2.344.419.826.035 1.658-.03 2.469-.195.267-.054.533-.12.794-.198.141-.042.28-.092.42-.135.035-.008.035-.008.07-.014.085-.006.166.001.246.033.215.087.345.319.305.548-.01.059-.03.116-.06.167-.055.095-.138.163-.237.209-.08.031-.162.057-.243.084-1.505.477-3.121.625-4.688.426-.458-.059-.913-.148-1.357-.276-.238-.068-.477-.144-.704-.242-.032-.016-.031-.016-.062-.035-.069-.049-.126-.108-.166-.183-.115-.217-.051-.494.148-.638.069-.05.146-.078.229-.092.037-.003.071-.004.107-.002zM290.391 387.502c.049.006.093.016.139.032.082.032.164.062.246.092.788.267 1.616.396 2.446.423.793.025 1.59-.04 2.367-.199.267-.054.533-.12.794-.198.141-.042.28-.092.42-.135.035-.008.035-.008.07-.014.109-.008.214.009.31.065.201.116.296.364.224.585-.018.057-.046.11-.083.157-.053.067-.12.114-.197.15-.08.031-.162.057-.243.084-1.505.477-3.121.625-4.688.426-.458-.059-.913-.148-1.357-.276-.237-.068-.476-.144-.704-.242-.032-.017-.032-.016-.062-.035-.069-.049-.126-.108-.166-.183-.115-.217-.051-.494.148-.638.069-.05.146-.078.229-.092.037-.003.071-.004.107-.002z" fill="#fff" fill-rule="nonzero"/><path d="M283.22 295.424c0-2.652 1.053-5.196 2.929-7.071 1.875-1.875 4.419-2.929 7.071-2.929h1.483c2.652 0 5.196 1.054 7.071 2.929 1.875 1.875 2.762 4.426 2.929 7.071 1.534 24.386.624 63.169-3 90.479h-16.792c.098-14.776-1.691-65.432-1.691-90.479z" fill="#444f61"/><g><path d="M271.639 396h-20v2c0 .53.211 1.039.586 1.414s.883.586 1.414.586h16c.53 0 1.039-.211 1.414-.586s.586-.884.586-1.414v-2z" fill="#edf0f5"/><path d="M268.639 391h-14l-3 5c6.978 1.333 13.609 1.181 20 0l-3-5zM254.639 383h14v8h-14z" fill="#333e50"/><path d="M265.002 391.501c.084.008.164.03.236.075.231.144.304.458.159.689-.058.093-.143.158-.243.201-.093.036-.186.071-.28.104-.848.288-1.736.436-2.63.474-.68.029-1.362-.005-2.036-.098-.451-.063-.898-.154-1.337-.274-.227-.062-.456-.127-.676-.212-.033-.015-.032-.015-.064-.032-.07-.047-.13-.103-.173-.177-.03-.051-.05-.108-.06-.167-.039-.229.09-.461.305-.548.103-.041.209-.043.316-.019.14.043.279.092.42.135.927.27 1.889.404 2.854.402.66-.001 1.321-.065 1.966-.207.237-.053.473-.117.704-.193.122-.041.241-.089.363-.132.034-.009.034-.009.069-.016.037-.004.071-.006.107-.005zM265.002 389.501c.084.008.164.03.236.075.231.144.304.458.159.689-.058.093-.143.158-.243.201-.093.036-.186.071-.28.104-.848.288-1.736.436-2.63.474-.68.029-1.362-.005-2.036-.098-.451-.063-.898-.154-1.337-.274-.227-.062-.456-.127-.676-.212-.033-.015-.033-.015-.064-.032-.091-.06-.163-.139-.204-.241-.022-.055-.035-.114-.036-.174-.006-.232.155-.443.38-.499.083-.02.165-.016.248.003.14.042.279.092.42.135.927.27 1.889.404 2.854.402.66-.001 1.321-.065 1.966-.207.237-.053.473-.117.704-.193.122-.041.241-.089.363-.132.035-.009.034-.009.069-.016.037-.004.071-.006.107-.005zM265.002 387.501c.084.008.164.03.236.075.231.144.304.458.159.689-.058.093-.143.158-.243.201-.093.036-.186.071-.28.104-.883.3-1.81.448-2.742.478-.642.021-1.287-.014-1.924-.103-.451-.062-.898-.152-1.337-.272-.227-.063-.456-.128-.676-.213-.033-.015-.033-.015-.064-.032-.07-.047-.13-.103-.173-.177-.03-.051-.05-.108-.06-.167-.039-.229.09-.461.305-.548.103-.041.209-.043.316-.019.14.042.279.092.42.135.927.27 1.889.404 2.854.402.66-.001 1.321-.065 1.966-.207.237-.053.473-.117.704-.193.122-.041.241-.089.363-.132.034-.009.034-.009.069-.016.037-.004.071-.006.107-.005z" fill="#fff" fill-rule="nonzero"/><path d="M272.102 295.424c0-2.652-1.053-5.196-2.929-7.071-1.875-1.875-4.419-2.929-7.071-2.929h-1.483c-2.652 0-5.196 1.054-7.071 2.929-1.875 1.875-2.762 4.426-2.929 7.071-1.534 24.386-.624 63.169 3 90.479h16.792c-.098-14.776 1.691-65.432 1.691-90.479z" fill="#444f61"/></g><g><path d="M302.185 118.896s2.089-2.798 3.902-1.14c1.95 1.785-.565 4.391-.341 6.267.182 1.534.743 4.45-.924 5.396-1.185.673-1.627.329-2.732-.706-3.782-3.54.095-9.817.095-9.817zM253.476 118.896s-2.089-2.798-3.901-1.14c-1.951 1.785.565 4.391.341 6.267-.183 1.534-.743 4.45.923 5.396 1.186.673 1.628.329 2.733-.706 3.781-3.54-.096-9.817-.096-9.817z" fill="#f4ba80"/><path d="M271.328 154.673h13l2 21.092h-17l2-21.092z" fill="#fdd1a5"/><clipPath id="b"><path d="M271.328 154.673h13l2 21.092h-17l2-21.092z"/></clipPath><g clip-path="url(#b)"><path d="M288.328 157.314c-4.984 5.424-16.101 5.751-21.117.186l10.617-4.5 10.5 4.314z" fill="#181e26" fill-opacity="0.15"/></g><path d="M278.026 159.02c4.153.101 7.951-.261 9.437-1.831 0 0 7.023-7.595 10.144-13.046 3.677-6.421 5.541-10.398 5.541-19.309 0-18.363-4.578-32.161-25.32-32.334l-.242.003c-20.536.278-25.078 14.04-25.078 32.331 0 8.911 1.864 12.888 5.541 19.309 3.121 5.451 10.144 13.046 10.144 13.046 1.509 1.595 5.405 1.943 9.635 1.826l.198.005z" fill="#fdd1a5"/><circle cx="290.609" cy="125.533" r="4.5" fill="#444f61"/><path d="M285.316 113.539c1.032-.436 5.156-.077 7.341.586 2.448.743 3.241 1.533 2.828 1.987-.538.594-9.754-.625-10.138-.714-.83-.193-.77-1.546-.031-1.859z" fill="#333e50"/><path d="M276.877 129.983c.124-.427.515-.72.96-.72.444 0 .835.293.96.72.716 2.453 1.654 5.672 2.167 7.428.088.302.028.628-.16.88-.189.252-.486.4-.8.4h-4.334c-.315 0-.611-.148-.8-.4-.189-.252-.248-.578-.16-.88.513-1.756 1.451-4.975 2.167-7.428z" fill="#f4ba80"/><circle cx="265.053" cy="125.533" r="4.5" fill="#444f61"/><path d="M270.346 113.539c-1.033-.436-5.156-.077-7.341.586-2.448.743-3.241 1.533-2.828 1.987.538.594 9.753-.625 10.138-.714.829-.193.77-1.546.031-1.859z" fill="#333e50"/><path d="M295.833 106.988c3.083 1.481 7.311 18.545 7.311 18.545s.86-22.828-3.493-28.451c-6.455-8.339-28.399-14.497-42.332-7.882-9.254 4.394-4.807 36.333-4.807 36.333s3.198-17.858 11.746-19.926c8.005-1.937 25.239-1.662 31.575 1.381z" fill="#333e50"/><path d="M277.841 149.817c6.65.141 9.405-2.877 8.768-3.834-.242-.365-3.328 2.701-8.781 2.594h-.032c-5.433.095-8.507-2.958-8.749-2.594-.636.957 2.118 3.975 8.769 3.834h.025z" fill="#e46e44"/><g><path d="M282.278 125.848c-.018-.807.29-1.588.854-2.165.564-.577 1.338-.903 2.145-.903h10.728c.995 0 1.926.494 2.484 1.318.558.824.671 1.872.301 2.796-.555 1.388-1.148 2.87-1.6 4-.456 1.139-1.559 1.886-2.785 1.886h-9.037c-1.63 0-2.962-1.302-2.999-2.932-.029-1.258-.062-2.727-.091-4z" fill="#edf0f5" fill-opacity="0.5"/><path d="M290.339 122.78l2.5 10h-4l-2.466-9.861c.29-.091.595-.139.904-.139h3.062z" fill="#edf0f5" fill-opacity="0.2"/><path d="M273.331 125.848c.018-.807-.29-1.588-.854-2.165-.565-.577-1.338-.903-2.145-.903h-10.728c-.995 0-1.926.494-2.484 1.318-.558.824-.671 1.872-.301 2.796.555 1.388 1.148 2.87 1.6 4 .455 1.139 1.558 1.886 2.785 1.886h9.037c1.63 0 2.962-1.302 2.999-2.932.028-1.258.062-2.727.091-4z" fill="#edf0f5" fill-opacity="0.5"/><path d="M264.734 122.78l2.5 10h-4l-2.47-9.88c.27-.079.552-.12.84-.12h3.13z" fill="#edf0f5" fill-opacity="0.2"/><path d="M278.057 125.489c.818.014 1.634.079 2.443.206.82.13 1.628.321 2.424.558l.159.049c.071.026.136.059.192.111.044.041.081.09.108.143.11.221.039.498-.165.637-.116.079-.25.099-.386.076-.1-.026-.099-.029-.198-.059-.135-.041-.169-.05-.305-.089-.554-.154-1.113-.287-1.679-.387-1.011-.179-2.039-.262-3.066-.243-1.039.018-2.076.14-3.092.357-.527.113-1.046.252-1.561.41l-.044.011c-.12.02-.239.008-.347-.053-.216-.12-.311-.39-.221-.619.022-.056.054-.108.094-.152.052-.057.113-.096.182-.128.122-.043.247-.077.37-.114.758-.217 1.526-.394 2.305-.514.707-.11 1.418-.171 2.132-.195.219-.005.436-.006.655-.005zm-26.938-9.714c.04.005.079.01.118.023.079.025.144.069.204.124 2.418 2.643 4.62 5.476 6.93 8.214.05.065.088.134.106.215.011.052.014.106.009.16-.028.263-.266.464-.53.446-.125-.008-.232-.062-.323-.146-2.417-2.644-4.62-5.476-6.929-8.214-.05-.065-.088-.134-.106-.215-.044-.2.042-.413.214-.526.058-.037.12-.059.186-.074.041-.005.079-.008.121-.007zm52.034.841c.075.006.147.023.214.059.179.097.284.299.259.5-.009.076-.036.144-.075.21-1.751 2.525-3.687 4.916-5.531 7.374-.047.059-.102.108-.169.143-.23.119-.52.039-.656-.181-.033-.053-.056-.112-.067-.173-.023-.127.007-.249.071-.359 1.751-2.525 3.687-4.916 5.531-7.374.024-.029.048-.056.077-.081.068-.058.147-.091.234-.11.038-.006.073-.008.112-.008z" fill="#9da9bd"/></g></g><path d="M254.503 175.159c-11.59 4.164-36.326 35.71-34.095 48.894 2.22 13.119 41.735 21.952 41.735 21.952l6.272-3.005c-10.367-11.18-18.822-11.318-32.16-20.529 6.247-14.086 14.516-21.627 25.81-27.887l-7.562-19.425z" fill="#fdd1a5"/><path d="M287.075 171.32s-1.314 7.233-9.392 7.274c-7.909.041-9.541-7.29-9.541-7.29-16.702-3.024-36.909 22.729-41.54 29.499 1.902-.121 16.33 14.882 15.963 15.81l3.584-7.998-1.259 67.617c20.719 3.402 42.47 3.696 65.542.012l-1.462-66.184 4.664 7.457c-.367-.928 12.684-17.638 14.586-17.517-8.049-9.324-22.159-30.787-41.145-28.68z" fill="#1bc47e"/><g><path fill="#dde3ed" d="M352 256h8v144h-8zM0 256h8v144H0z"/><path d="M0 247c0-2.209 1.791-4 4-4h352c2.209 0 4 1.791 4 4v12H0v-12z" fill="#69768c"/></g><path d="M329.683 189.8c0-1.545-1.254-2.8-2.8-2.8h-78.4c-1.545 0-2.8 1.255-2.8 2.8V243h84v-53.2z" fill="#444f61"/><g><path d="M84.993 155.895h25.824l9.72 87.105H74.463l10.53-87.105z" fill="#edf0f5"/><path d="M85.125 155.895h25.687l7.272 65.123H77.121l8.004-65.123z" fill="#181e26" fill-opacity="0.15"/><path d="M175 115.298c0-2.362-1.918-4.28-4.28-4.28H24.28c-2.362 0-4.28 1.918-4.28 4.28v98.44c0 2.362 1.918 4.28 4.28 4.28h146.44c2.362 0 4.28-1.918 4.28-4.28v-98.44z" fill="#edf0f5"/><path fill="#181e26" d="M28 119.018h139v78H28z"/><path d="M38 159.018v12h-6v-12h6zm-6-9h6v6h-6v-6zm0-9h6v6h-6v-6zm0-9h6v6h-6v-6zm0-9h6v6h-6v-6z" fill="#8eedc6"/><path d="M158 159.018h6v12h-6v-12zm0-9h6v6h-6v-6zm0-9h6v6h-6v-6zm0-9h6v6h-6v-6zm0-9h6v6h-6v-6z" fill="#76ffc7"/><path d="M56 132.018v6h-6v-6h6zm0-9v6h-6v-6h6z" fill="#43e8a3"/><path d="M74 141.018v6h-6v-6h6zm-6-9h6v6h-6v-6zm0-9h6v6h-6v-6z" fill="#76ffc7"/><path d="M65 168.018v16h-6v-16h6zm-6-9h6v6h-6v-6zm0-9h6v6h-6v-6zm0-9h6v6h-6v-6zm0-9h6v6h-6v-6zm0-9h6v6h-6v-6z" fill="#bcf5dd"/><path d="M101 168.018v12h-6v-12h6zm-6-9h6v6h-6v-6zm0-9h6v6h-6v-6zm0-9h6v6h-6v-6zm0-9h6v6h-6v-6zm0-9h6v6h-6v-6z" fill="#1bc47e"/><path d="M83 132.018v6h-6v-6h6zm0-9v6h-6v-6h6z" fill="#25e595"/><path d="M110 141.018v6h-6v-6h6zm-6-9h6v6h-6v-6zm0-9h6v6h-6v-6z" fill="#43e8a3"/><path d="M119 132.018v6h-6v-6h6zm0-9v6h-6v-6h6z" fill="#bcf5dd"/><path d="M155 132.018v6h-6v-6h6zm0-9v6h-6v-6h6zM47 150.018v12h-6v-12h6zm-6-9h6v6h-6v-6zm0-9h6v6h-6v-6zm0-9h6v6h-6v-6z" fill="#1bc47e"/><path d="M92 150.018v12h-6v-12h6zm-6-9h6v6h-6v-6zm0-9h6v6h-6v-6zm0-9h6v6h-6v-6z" fill="#8eedc6"/></g><g><path d="M166 241c0-3.314-2.686-6-6-6H57c-3.314 0-6 2.686-6 6v2h115v-2z" fill="#43e8a3"/><path d="M72 235h-6v-2c0-.552.448-1 1-1h4c.552 0 1 .448 1 1v2zm9 0h-6v-2c0-.552.448-1 1-1h4c.552 0 1 .448 1 1v2zm52 0h-6v-2c0-.552.448-1 1-1h4c.552 0 1 .448 1 1v2zm9 0h-6v-2c0-.552.448-1 1-1h4c.552 0 1 .448 1 1v2zm9 0h-6v-2c0-.552.448-1 1-1h4c.552 0 1 .448 1 1v2zm9 0h-6v-2c0-.552.448-1 1-1h4c.552 0 1 .448 1 1v2zm-36-2c0-.552-.448-1-1-1H85c-.552 0-1 .448-1 1v2h40v-2zm-61 2h-6v-2c0-.552.448-1 1-1h4c.552 0 1 .448 1 1v2z" fill="#8eedc6"/></g><g><path d="M57.416 272.193l-5.962.674 3.879 34.35 5.963-.674-3.88-34.35z" fill="#cad2e0"/><path d="M147.377 313c0 1.105-.896 2-2 2h-96c-1.105 0-2-.895-2-2v-8c0-4.418 3.581-8 8-8h84c4.418 0 8 3.582 8 8v8zM51.606 280.677c-1.053.129-2.114-.165-2.95-.818-.836-.654-1.378-1.612-1.507-2.665-1.817-14.793-8.18-66.614-9.996-81.407-.129-1.053.165-2.114.818-2.95.653-.836 1.612-1.378 2.665-1.508.621-.076 1.289-.158 1.985-.243 6.578-.808 12.565 3.87 13.373 10.448 2.099 17.1 5.946 48.426 8.045 65.526.808 6.578-3.87 12.565-10.448 13.373-.695.085-1.363.167-1.985.244z" fill="#333e50"/><circle cx="47.377" cy="390" r="10" fill="#cad2e0"/><circle cx="147.377" cy="390" r="10" fill="#cad2e0"/><circle cx="97.377" cy="390" r="10" fill="#cad2e0"/><path d="M92.377 370v-55h10v55h42c.795 0 1.558.316 2.121.879.563.562.879 1.325.879 2.121v7h-100v-7c0-.796.316-1.559.878-2.121.563-.563 1.326-.879 2.122-.879h42z" fill="#cad2e0"/><path d="M47.377 380c2.759 1.667 5 5.574 5 10s-2.241 8.333-5 10c5.519 0 10-4.481 10-10s-4.481-10-10-10zM97.377 380c2.759 1.667 5 5.574 5 10s-2.241 8.333-5 10c5.519 0 10-4.481 10-10s-4.481-10-10-10zM147.377 380c2.759 1.667 5 5.574 5 10s-2.241 8.333-5 10c5.519 0 10-4.481 10-10s-4.481-10-10-10z" fill="#181e26" fill-opacity="0.15"/></g><g><path d="M130.689 33.505c46.549-.131 23.13 73.215 23.13 73.215h-45.246s-26.666-73.078 22.116-73.215z" fill="#444f61"/><path d="M154.043 65.314s2.089-2.799 3.902-1.14c1.95 1.784-.565 4.39-.342 6.266.183 1.534.744 4.451-.923 5.397-1.185.672-1.627.328-2.732-.706-3.782-3.54.095-9.817.095-9.817z" fill="#f9cc9f"/><path d="M124.196 100.152h13l2 21.092h-17l2-21.092z" fill="#fee3c8"/><clipPath id="c"><path d="M124.196 100.152h13l2 21.092h-17l2-21.092z"/></clipPath><g clip-path="url(#c)"><path d="M141.269 101.402c-2.473 2.691-6.907 5.644-10.577 5.642-3.582-.001-8.72-2.783-10.403-5.737l10.407-2.828 10.573 2.923z" fill="#181e26" fill-opacity="0.15"/></g><path d="M107.334 65.314s-2.089-2.799-3.901-1.14c-1.951 1.784.565 4.39.341 6.266-.183 1.534-.743 4.451.923 5.397 1.186.672 1.627.328 2.733-.706 3.781-3.54-.096-9.817-.096-9.817z" fill="#f9cc9f"/><path d="M130.696 37.392c-13.384.002-24.25 14.938-24.25 33.335 0 18.398 15.203 33.503 24.232 33.335l.018-.001.019.001c9.028.168 24.231-14.937 24.231-33.335 0-18.397-10.866-33.333-24.25-33.335z" fill="#fee3c8"/><path d="M130.029 75.105c.093-.291.362-.488.667-.488.305 0 .575.197.667.488.713 2.241 1.822 5.724 2.419 7.6.096.304.042.636-.146.894-.188.257-.488.409-.807.409h-4.265c-.319 0-.619-.152-.807-.409-.189-.258-.243-.59-.146-.894.597-1.876 1.705-5.359 2.418-7.6z" fill="#f9cc9f"/><circle cx="142.977" cy="72.2" r="4" fill="#333e50"/><circle cx="118.415" cy="72.2" r="4" fill="#333e50"/><path d="M137.041 92.387s-1.622 4.123-6.352 4.113c-4.601-.009-6.337-3.905-6.337-3.905l12.689-.208z" fill="#f5af96"/><path d="M137 92.452c-.982-.846-4.093-2.398-6.311-.894-2.215-1.403-5.426.218-6.189 1.123l6.238 1.679L137 92.452z" fill="#f5af96"/><path d="M140.041 90.387c-5.337 3.577-11.563 4.346-18.689.208 0 0 2.252 3.641 8.841 3.804 7.402.183 9.848-4.012 9.848-4.012z" fill="#eb8560"/><path d="M156.355 58l-1.8 6.743-15.328-17.09-32.392 17.103L104.496 58s1.955-23.565 26.226-23.569c23.383-.004 24.719 22.917 25.633 23.569z" fill="#444f61"/><path d="M137.858 62.036c.918-.473 3.716-.885 5.812-.699 2.434.216 5.053 2.454 4.855 2.985-.131.351-2.328-1.064-5.113-1.311-1.856-.164-4.155 1.016-4.937 1.24-.958.274-1.483-1.769-.617-2.215zM123.534 62.036c-.918-.473-3.715-.885-5.812-.699-2.433.216-5.053 2.454-4.855 2.985.131.351 2.329-1.064 5.113-1.311 1.857-.164 4.155 1.016 4.937 1.24.958.274 1.483-1.769.617-2.215z" fill="#525f75"/><g><path d="M111.119 40.83l-4.297 23.922-.546.414-.415-.546 2.286-24.196 1.552-.277 1.42.683zM143.992 36.85c4.968 0 9.29 1.116 9.457 2.843.267 2.747-4.489 7.157-9.457 7.157-4.967 0-8.967-1.716-9.019-5.385-.053-3.728 4.052-4.615 9.019-4.615z" fill="#181e26"/><clipPath id="d"><path d="M143.992 36.85c4.968 0 9.29 1.116 9.457 2.843.267 2.747-4.489 7.157-9.457 7.157-4.967 0-8.967-1.716-9.019-5.385-.053-3.728 4.052-4.615 9.019-4.615z"/></clipPath><g clip-path="url(#d)"><path d="M146.532 35.614l-3 12h4l3-12h-4z" fill="#333e50"/></g><path d="M117.385 36.85c-4.967 0-9.29 1.116-9.457 2.843-.266 2.747 4.49 7.157 9.457 7.157 4.967 0 8.968-1.716 9.02-5.385.053-3.728-4.053-4.615-9.02-4.615z" fill="#181e26"/><clipPath id="e"><path d="M117.385 36.85c-4.967 0-9.29 1.116-9.457 2.843-.266 2.747 4.49 7.157 9.457 7.157 4.967 0 8.968-1.716 9.02-5.385.053-3.728-4.053-4.615-9.02-4.615z"/></clipPath><g clip-path="url(#e)"><path d="M120.846 35.614l-3 12h4l3-12h-4z" fill="#333e50"/></g><path d="M130.895 39.661l.168.003.168.004.168.006.168.008.168.009.168.011.168.013.168.014.167.016.168.017.167.019.168.021.167.022.167.024.167.025.167.028.167.028.166.03.167.032.166.034.167.035.166.037.166.038.166.04.166.041.166.043.165.045.166.046.165.048.165.049.161.049.06.021.058.024.056.027.055.032.052.034.05.038.048.041.045.043.043.047.039.049.036.051.033.054.029.055.026.058.022.058.019.06.014.061.011.062.007.063.003.063-.001.062-.005.063-.009.062-.013.062-.016.06-.02.06-.025.058-.027.056-.031.055-.035.052-.038.05-.04.048-.044.045-.047.043-.049.039-.051.036-.054.033-.055.029-.057.026-.059.022-.06.019-.061.014-.062.011-.063.007-.062.003-.063-.001-.063-.005-.062-.009-.061-.013-.061-.016-.152-.047-.149-.044-.148-.043-.148-.041-.148-.04-.148-.039-.148-.037-.149-.035-.148-.034-.148-.033-.148-.031-.148-.03-.149-.028-.148-.027-.148-.026-.148-.024-.148-.023-.149-.021-.148-.019-.148-.019-.148-.017-.149-.015-.148-.014-.149-.013-.148-.011-.149-.009-.148-.009-.149-.006-.149-.006-.148-.004-.149-.002-.149-.001-.149.001-.149.002-.149.003-.149.005-.149.006-.149.008-.149.009-.15.011-.149.012-.15.013-.149.016-.15.016-.15.018-.15.02-.15.021-.15.022-.15.024-.151.026-.15.027-.151.028-.15.03-.151.031-.151.033-.151.035-.151.036-.152.037-.151.039-.152.041-.151.042-.152.043-.152.045-.156.048-.061.017-.061.012-.062.009-.063.005-.063.001-.063-.003-.062-.007-.062-.011-.061-.015-.06-.018-.059-.022-.057-.026-.056-.03-.053-.033-.051-.036-.049-.039-.047-.043-.044-.045-.04-.047-.038-.051-.034-.052-.031-.055-.028-.056-.024-.058-.02-.06-.017-.06-.012-.062-.009-.062-.005-.063-.001-.063.003-.062.007-.063.011-.062.015-.061.018-.06.022-.059.026-.057.03-.055.033-.054.036-.051.039-.049.042-.047.046-.043.047-.041.051-.038.052-.034.055-.031.056-.028.058-.024.06-.02.165-.051.169-.05.169-.048.169-.047.169-.045.17-.044.169-.042.169-.04.169-.039.169-.037.17-.035.169-.034.169-.031.169-.031.169-.028.169-.027.169-.026.169-.023.169-.022.169-.021.169-.018.169-.017.169-.016.169-.014.169-.012.168-.01.169-.009.168-.007.169-.005.169-.004.168-.002.169-.001.168.001zM153.24 40.421l2.286 24.197-.415.545-.545-.414-4.298-23.922 1.42-.683 1.552.277z" fill="#181e26"/></g><g fill="#fee3c8"><path d="M109.396 122.442c-11.589 6.649-27.014 52.939-26.986 66.553.028 13.305.035 54.943.035 54.943l6.145 1.344c1.31-13.288 9.364-30.958 6.272-56.287 6.247-14.086 10.036-41.047 21.33-47.306l-6.796-19.247z"/><path d="M88.569 245.079c.899 2.546 2.355 5.665 1.813 8.552-.999 5.317-.486 10.524-1.917 10.066-1.972-.631-.767-9.111-1.565-9.173-1.929-.15-.224 9.742-1.283 14.002-.54 2.173-5.308-6.352-5.569-7.904 0 0-2.6-6.902 2.397-16.719l3.14-.601 2.984 1.777z"/></g><path d="M103.117 143.194c-.491-6.653 1.811-13.211 6.352-18.099s10.911-7.665 17.583-7.665h7.09c6.659 0 13.02 2.767 17.559 7.64 4.54 4.873 6.851 11.412 6.381 18.056-1.905 26.891-4.62 65.244-4.62 65.244H107.92s-2.821-38.287-4.803-65.176z" fill="#fee3c8"/><g><path d="M150.641 210c-6.536 2.14-20.928 19.128-21.885 30.897-2.063 25.352 4.172 51.709 11.558 75.752-5.334 12.947-.235 78.351-.235 78.351h8l9.235-78.351-1.252-70.303L150.641 210z" fill="#fee3c8"/><path d="M121.344 210c-6.536 2.14-17.851 21.516-20.598 33-6.492 27.135 2.302 46.254 9.689 70.297-16.578 15.232-23.284 42.185-33.737 58.588L84.31 380c16.708-19.499 30.353-42.021 41.417-65l3.349-68.338L121.344 210z" fill="#fee3c8"/><path d="M153.462 208.37c4.441 32.391 7.754 73.327 6.027 109.256l-6.467 47.424-15.858.235c.261-15.966-1.289-31.436.979-48.524-5.529-21.498-5.12-25.801-9.331-49.764 0 0-1.008 43.14-2.023 49.495-1.148 7.183-16.724 32.034-26.889 43.261l-13.167-7.686c5.203-17.122 12.734-30.405 20.812-39.039-9.675-35.407-16.617-62.833.375-104.657l45.542-.001z" fill="#444f61"/><clipPath id="f"><path d="M153.462 208.37c4.441 32.391 7.754 73.327 6.027 109.256l-6.467 47.424-15.858.235c.261-15.966-1.289-31.436.979-48.524-5.529-21.498-5.12-25.801-9.331-49.764 0 0-1.008 43.14-2.023 49.495-1.148 7.183-16.724 32.034-26.889 43.261l-13.167-7.686c5.203-17.122 12.734-30.405 20.812-39.039-9.675-35.407-16.617-62.833.375-104.657l45.542-.001z"/></clipPath><g clip-path="url(#f)"><path d="M122.468 207.37c-5.025 18.106-15.479 22.433-23.662 22.63-.065-7.553 2.816-15.096 8.218-22.63h15.444zM137.832 207.37c4.193 15.131 12.221 21.597 19.4 22.63.258-7.555-.553-15.1-3.324-22.63h-16.076z" fill="#333e50"/><path d="M142.635 315.402c.497 12.311-3.005 43.572-3.005 43.572l-2.447-.265s-11.572-86.42-8.371-105.712c0 0 13.298 49.377 13.823 62.405z" fill="#181e26" fill-opacity="0.15"/><path d="M107.491 313.085C96.003 323.3 88.458 335.805 83.824 350l4.738 3.135c-1.313-.758 10.975-22.576 18.929-40.05z" fill="#181e26" fill-opacity="0.1"/></g><path d="M91.336 372.563c2.556 4.863 5.094 14.453 4.819 14.359 7.116 1.279 9.379 7.683 8.01 10.23l-13.891.075c-9.212-6.249-16.256-15.055-22.869-24.366 0 0 4.518-7.854 7.301-9.375 2.554-1.397 5.396-3.521 6-3.64 1.442-.285 4.959-10.658 4.959-10.658l17.119 10.834s-8.312 8.698-11.448 12.541z" fill="#69768c"/><path d="M104.065 397c.588.8.61 2.336 0 3h-11.96c-1.244 0-2.457-.395-3.462-1.128-2.736-1.972-8.242-6.007-10.217-8.036-3.857-3.962-8.752-10.065-11.245-13.244-.963-1.228-.999-2.944-.089-4.212.629-.877 1.214-1.692 1.214-1.692s7.496 10.734 11.636 15.786c1.777 2.169 12.003 9.282 12.153 9.526 2.457-.022 11.97 0 11.97 0z" fill="#edf0f5"/><path d="M102.314 361.281s2.854-2.658 4.365-4.066c.222-.207.338-.503.316-.806-.023-.303-.182-.579-.433-.751-3.401-2.328-14.236-9.744-17.474-11.961-.235-.161-.527-.214-.803-.146-.277.068-.511.25-.645.502-.992 1.864-3.042 5.716-3.042 5.716l17.716 11.512z" fill="#525f75"/><g><path d="M153.816 380.634c8.778 1.284 14.692 3.098 21.947 6.288 7.116 1.279 9.379 7.683 8.01 10.23l-13.891.075-33.965-1.839s-.546-3.852-.357-7.49c.153-2.968 2.714-7.266 2.714-7.266-.273-5.342-2.472-15.796-2.472-15.796l19.805-.202s-2.364 16.237-1.791 16z" fill="#69768c"/><path d="M183.673 397c.588.8.61 2.336 0 3h-44.534c-1.074 0-2.089-.492-2.755-1.335-.665-.842-.909-1.944-.66-2.988.107-.449.178-.746.178-.746L183.673 397z" fill="#edf0f5"/><path d="M156.263 365.005s.851-3.779 1.303-5.785c.067-.297-.005-.607-.194-.845-.19-.237-.478-.375-.781-.375h-21.178c-.284 0-.554.121-.744.333-.19.211-.281.494-.25.776.225 2.042.68 6.19.68 6.19l21.164-.294z" fill="#525f75"/></g></g><g fill="#fee3c8"><path d="M153.043 123.315c11.262 7.189 24.48 54.157 23.808 67.754-.657 13.289-2.633 54.881-2.633 54.881l-6.201 1.051c-.681-13.336-7.891-31.367-3.604-56.52-5.574-14.366-8.083-41.476-19.069-48.262l7.699-18.904z"/><path d="M168.039 246.375c-1.629 2.153-3.965 4.682-4.325 7.597-.664 5.369-2.736 10.174-1.232 10.172 2.07-.002 3.499-8.446 4.277-8.263 1.884.443-2.746 9.349-3.031 13.73-.146 2.234 6.987-4.439 7.707-5.839 0 0 4.574-5.785 2.797-16.656l-2.81-1.527-3.383.786z"/></g><g><path d="M107.932 121.646c-10.459 2.924-28.345 49.413-28.759 66.28-.335 13.617.528 16.086 2 26.086h15.273c.909-7.97 1.356-15.981.464-24.17 0 0 9.172-23.083 12.039-31.134 2.868-8.052-1.017-37.062-1.017-37.062z" fill="#9da9bd"/><path d="M153.469 208.42s6.35-52.916 7.342-75.165c.252-5.649-3.475-10.708-8.945-12.142l-9.17-2.095s-2.143 6.563-12.014 6.563c-9.871 0-11.986-6.649-11.986-6.649l-9.185 2.181c-5.47 1.434-9.196 6.493-8.945 12.142.993 22.249 7.354 75.106 7.354 75.106 15.056 2.831 30.214 3.394 45.549.059z" fill="#9da9bd"/><clipPath id="g"><path d="M153.469 208.42s6.35-52.916 7.342-75.165c.252-5.649-3.475-10.708-8.945-12.142l-9.17-2.095s-2.143 6.563-12.014 6.563c-9.871 0-11.986-6.649-11.986-6.649l-9.185 2.181c-5.47 1.434-9.196 6.493-8.945 12.142.993 22.249 7.354 75.106 7.354 75.106 15.056 2.831 30.214 3.394 45.549.059z"/></clipPath><g clip-path="url(#g)"><path d="M102.426 175.831c-.659 1.415-.49 8.824.347 8.026 0 0 7.533-25.471 7.556-39.787l-7.903 31.761z" fill="#181e26" fill-opacity="0.15"/></g><path d="M154.543 122.588c10.309 3.416 25.976 50.699 25.592 67.566-.309 13.618-1.288 16.043-3.231 25.962l-15.256-.722c-.531-8.004-.598-16.027.679-24.165 0 0-8.07-23.49-10.553-31.668-2.483-8.179 2.769-36.973 2.769-36.973z" fill="#9da9bd"/><clipPath id="h"><path d="M154.543 122.588c10.309 3.416 25.976 50.699 25.592 67.566-.309 13.618-1.288 16.043-3.231 25.962l-15.256-.722c-.531-8.004-.598-16.027.679-24.165 0 0-8.07-23.49-10.553-31.668-2.483-8.179 2.769-36.973 2.769-36.973z"/></clipPath><g clip-path="url(#h)"><path d="M157.099 174.579c-.247 1.542 1.735 9.128 2.321 8.132 0 0 .816-21.91-3.073-35.687l.752 27.555z" fill="#181e26" fill-opacity="0.15"/></g></g><g><path d="M157.911 226.915s-45.953-95.642-50.456-105.03c-.201-.419-.055-.923.34-1.17 2.223-1.215 6.112-2.112 8.089-1.895.169.026.313.137.381.293 2.525 5.733 47.289 107.387 47.289 107.387l3.832-.282c.529-.038 1.051.134 1.453.481.402.347.649.839.688 1.368.626 8.527 3.09 42.067 4.03 54.852.097 1.322-.335 2.629-1.202 3.633-.866 1.004-2.096 1.622-3.418 1.72-2.726.2-5.95.437-7.979.586-.529.039-1.052-.134-1.453-.481-.402-.346-.649-.838-.688-1.367-.685-9.321-3.565-48.524-4.25-57.844-.039-.529.134-1.052.481-1.454.346-.401.838-.649 1.367-.688l1.496-.109z" fill="#ffc7bc"/><path d="M173.662 232.766c-.077-1.057-.572-2.041-1.374-2.734-.803-.692-1.848-1.038-2.906-.96h-.002l2.638 35.903c2.203-.162 3.858-2.079 3.696-4.282-.507-6.908-1.544-21.02-2.052-27.927z" fill="#ffa391"/></g></g></g></svg>