<svg viewBox="0 0 360 400" xmlns="http://www.w3.org/2000/svg" fill-rule="evenodd" clip-rule="evenodd" stroke-linejoin="round" stroke-miterlimit="1.41421"><path fill="none" d="M0 0h360v400H0z"/><clipPath id="a"><path d="M0 0h360v400H0z"/></clipPath><g clip-path="url(#a)"><path fill="#dde3ed" d="M119 300h8v100h-8zM27 300h8v100h-8z"/><path d="M27 297c0-3.314 2.686-6 6-6h88c3.314 0 6 2.686 6 6v6H27v-6z" fill="#69768c"/><path d="M91.012 190.068c-1.158.193-33.214.098-33.214.098s-8.673-42.16-11.315-57.67c-4.165-24.449.979-55.958 28.353-56.312 30.724-.397 34.325 27.675 32.633 49.271-1.727 22.052-11.007 60.141-16.457 64.613z" fill="#1bc47e"/><path d="M71.426 142.993l-3.296 14.833 8.137 8.481 8.345-8.481-3.297-14.833h-9.889z" fill="#fee3c8"/><clipPath id="b"><path d="M71.426 142.993l-3.296 14.833 8.137 8.481 8.345-8.481-3.297-14.833h-9.889z"/></clipPath><g clip-path="url(#b)"><path d="M67.654 144.877s7.914 9.759 17.875.821c9.961-8.939-7.787-3.189-7.787-3.189l-10.088 2.368z" fill="#181e26" fill-opacity="0.15"/></g><path d="M52.918 109.613s-2.233-2.496-4.013-.381c-1.599 1.9.702 3.657.725 5.432.019 1.451-.143 4.236 1.526 4.911 1.187.481 2.16.268 3.062-.832 3.085-3.763-1.3-9.13-1.3-9.13zM99.876 109.613s2.232-2.496 4.012-.381c1.6 1.9-.702 3.657-.725 5.432-.019 1.451.143 4.236-1.526 4.911-1.187.481-2.16.268-3.061-.832-3.085-3.763 1.3-9.13 1.3-9.13z" fill="#f9cc9f"/><ellipse cx="76.371" cy="114.974" rx="23.898" ry="31.315" fill="#fee3c8"/><path d="M77.32 119.468c-.137-.408-.519-.683-.949-.683-.431 0-.813.275-.949.683-.629 1.886-1.424 4.273-1.909 5.727-.101.305-.05.64.138.901s.489.415.811.415h3.818c.321 0 .623-.154.811-.415.188-.261.239-.596.137-.901-.484-1.454-1.28-3.841-1.908-5.727z" fill="#f9cc9f"/><circle cx="64.834" cy="114.15" r="4" fill="#333e50"/><path d="M68.631 104.991c-.952-.449-3.333-.838-5.424-.359-2.342.538-4.409 2.434-4.189 2.967.146.353 2.297-.988 4.715-1.42 1.87-.334 3.95.066 4.754.267.986.246 1.041-1.03.144-1.455z" fill="#0e8754"/><circle cx="87.908" cy="114.15" r="4" fill="#333e50"/><path d="M91.204 81.586c-7.177-5.177-26.133-4.302-33.54 4.971-6.978 8.734-4.83 22.968-4.83 22.968 7.245-5.101 11.472-9.656 16.62-17.123 0 0 10.231 1.478 16.627 4.573 7.896 3.821 13.833 12.596 13.833 12.596s5.625-17.645-8.71-27.985z" fill="#1bc47e"/><path d="M84.102 104.991c.952-.449 3.333-.838 5.424-.359 2.343.538 4.409 2.434 4.189 2.967-.145.353-2.297-.988-4.715-1.42-1.87-.334-3.95.066-4.754.267-.986.246-1.041-1.03-.144-1.455z" fill="#0e8754"/><path d="M66.971 131.839c5.82.909 12.912.959 18.775.004 0 0-2.958 6.728-8.936 6.692-6.2-.037-9.839-6.696-9.839-6.696z" fill="#fff"/><g><path d="M124.583 184.214c1.396 2.046-12.391 17.769-13.818 16.502l-6.317-6.965 15.572-14.216 4.563 4.679zM24.723 180.175c-1.397 2.046 12.391 17.769 13.818 16.502l6.316-6.965-15.572-14.216-4.562 4.679z" fill="#9da9bd"/><path d="M54.725 161.126c-12.751 4.783-42.081 32.305-42.005 45.933.076 13.561 37.331 40.143 37.331 40.143l5.78-2.839c-8.59-12.951-18.553-25.283-30.455-36.741 8.6-13.141 20.63-21.579 33.02-26.018l-3.671-20.478zM99.131 161.937c11.812 6.777 36.319 38.67 34.045 52.108-2.263 13.371-43.318 33.595-43.318 33.595l-5.246-3.735c10.566-11.395 22.388-21.958 35.983-31.346-6.368-14.357-16.879-24.625-28.391-31.005l6.927-19.617z" fill="#fee3c8"/><path d="M106.503 184.429c.74-6.778-1.439-13.551-5.991-18.627-4.552-5.075-11.049-7.976-17.867-7.976H70.161c-6.806 0-13.292 2.89-17.844 7.95-4.551 5.061-6.74 11.815-6.022 18.583 2.839 26.752 6.805 64.117 6.805 64.117h46.417s4.069-37.3 6.986-64.047z" fill="#fee3c8"/><path d="M76.371 170.356c13.228-.065 11.695-12.514 11.695-12.514 19.802.417 32.715 19.835 36.517 26.372-1.939-.123-14.192 15.556-13.818 16.501l-4.199-4.628-1.65 47.444h-57.09l-2.879-53.047-6.406 6.193c.373-.946-11.879-16.625-13.818-16.502 8.203-9.503 19.94-22.824 39.952-22.333 0 0-1.532 12.449 11.696 12.514z" fill="#cad2e0"/><path d="M80.667 181.26l5.816 4.225-4.225 5.815 6.836 2.222-2.221 6.836-6.837-2.221v7.188h-7.188v-7.188l-6.836 2.221-2.222-6.836 6.837-2.222-4.225-5.815 5.815-4.225 4.225 5.815 4.225-5.815z" fill="#1bc47e"/></g><g><path d="M101.275 247.839c4.465 11.953 8.315 31.578 8.166 43.187L43.187 291c-.427-10.478 3.964-31.902 8.54-43.25l49.548.089z" fill="#333e50"/><path d="M67.605 307.579s-26.841-21.268-16.901 1.836C46.8 322.864 64.08 395.474 64.08 395.474l7.953-.864-4.428-87.031zM85.028 307.499s25.819-22.498 16.968 1.045c4.528 13.251-9.342 86.59-9.342 86.59l-7.985-.492.359-87.143z" fill="#fdd1a5"/><path d="M84.705 382c-.324-19.309-10.407-100.27 11.887-99.959 21.832.305 4.906 74.118-.284 99.959H84.705zM71.595 382c.323-19.309 6.23-100.171-16.064-99.86-21.833.305-1.232 74.377 4.374 99.86h11.69z" fill="#444f61"/><path d="M77.157 396h-20v2c0 .53.21 1.039.586 1.414.375.375.883.586 1.414.586h16c.53 0 1.039-.211 1.414-.586s.586-.884.586-1.414v-2z" fill="#edf0f5"/><path d="M73.157 391h-12l-4 5c6.978 1.333 13.609 1.181 20 0l-4-5zM72.157 386H61.229l-.072 5h12l-1-5z" fill="#20d98c"/><path d="M70.52 391.501c.108.01.209.046.293.116.209.176.236.497.061.705-.055.065-.124.11-.201.144-.093.036-.187.071-.281.104-.848.288-1.736.436-2.63.474-.718.03-1.438-.009-2.149-.115-.412-.062-.822-.147-1.224-.257-.227-.062-.457-.127-.677-.212-.032-.015-.032-.015-.063-.033-.071-.046-.13-.102-.173-.176-.117-.201-.076-.464.095-.62.044-.04.096-.073.151-.095.102-.041.209-.043.315-.019.141.043.279.092.42.135.926.271 1.889.403 2.854.402.66-.001 1.321-.065 1.966-.208.238-.052.473-.116.704-.192.122-.041.241-.089.362-.132.035-.009.034-.009.07-.016.036-.004.07-.006.107-.005zM70.52 389.501c.108.01.209.046.293.116.209.176.236.497.061.705-.055.065-.124.11-.201.144-.093.036-.187.071-.281.104-.848.288-1.736.436-2.63.474-.718.03-1.438-.009-2.149-.115-.412-.062-.822-.147-1.224-.257-.227-.062-.457-.127-.677-.212-.032-.015-.031-.015-.063-.033-.071-.046-.13-.102-.173-.176-.117-.201-.076-.464.095-.62.044-.041.096-.073.151-.095.102-.041.209-.043.315-.019.141.043.279.092.42.135.926.271 1.889.403 2.854.402.628-.001 1.258-.059 1.873-.187.27-.057.536-.127.797-.213.122-.041.241-.089.362-.132.035-.009.035-.009.07-.016.036-.004.07-.006.107-.005zM70.52 387.501c.108.01.209.046.293.116.209.176.236.497.061.705-.055.065-.124.11-.201.144-.093.036-.187.071-.281.104-.848.288-1.736.436-2.63.474-.718.03-1.438-.009-2.149-.115-.412-.062-.822-.147-1.224-.257-.227-.062-.457-.127-.677-.212-.032-.015-.032-.015-.063-.033-.071-.046-.13-.103-.173-.176-.03-.052-.051-.109-.06-.167-.039-.229.09-.461.306-.548.102-.041.209-.043.315-.019.141.043.279.092.42.135.992.289 2.026.422 3.059.399.591-.013 1.183-.076 1.761-.204.237-.053.473-.117.704-.193.122-.041.241-.089.362-.132.035-.009.034-.009.07-.016.036-.004.07-.006.107-.005z" fill="#0e8754" fill-rule="nonzero"/><g><path d="M79.157 396h20v2c0 .53-.211 1.039-.586 1.414s-.884.586-1.414.586h-16c-.531 0-1.039-.211-1.414-.586-.376-.375-.586-.884-.586-1.414v-2z" fill="#edf0f5"/><path d="M83.157 391h12l4 5c-6.979 1.333-13.61 1.181-20 0l4-5zM83.755 386h10.923l.479 5h-12l.598-5z" fill="#20d98c"/><path d="M85.865 391.502c.048.006.093.016.139.032.081.032.163.062.246.092.82.278 1.683.406 2.548.425.759.017 1.52-.049 2.264-.201.268-.054.533-.12.795-.198.141-.042.279-.092.42-.135.035-.008.034-.008.07-.014.084-.006.166.001.245.033.215.087.345.319.306.548-.01.058-.031.115-.06.167-.056.095-.138.163-.237.209-.08.031-.162.057-.244.084-.941.298-1.918.464-2.904.502-.595.022-1.193-.001-1.784-.076-.458-.059-.912-.148-1.356-.276-.238-.068-.477-.144-.705-.242-.032-.017-.032-.017-.062-.035-.069-.05-.126-.108-.166-.184-.114-.217-.05-.493.148-.638.069-.05.147-.077.23-.091.036-.003.071-.004.107-.002zM85.865 389.502c.048.006.093.016.139.032.081.032.163.062.246.092.82.278 1.683.406 2.548.425.759.017 1.52-.049 2.264-.201.268-.054.533-.12.795-.198.141-.042.279-.092.42-.135.035-.008.034-.008.07-.014.084-.006.166.001.245.033.215.087.345.319.306.548-.01.058-.031.115-.06.167-.056.095-.138.163-.237.209-.08.031-.162.057-.244.084-.941.298-1.918.464-2.904.502-.595.022-1.193-.001-1.784-.076-.458-.059-.912-.148-1.356-.276-.238-.068-.477-.144-.705-.242-.032-.017-.032-.017-.062-.035-.069-.05-.126-.108-.166-.184-.114-.217-.05-.493.148-.638.069-.05.147-.077.23-.091.036-.003.071-.004.107-.002zM85.865 387.502c.048.006.093.016.139.032.081.032.163.062.246.092.82.278 1.683.406 2.548.425.759.017 1.52-.049 2.264-.201.268-.054.533-.12.795-.198.141-.042.279-.092.42-.135.034-.008.034-.008.07-.014.108-.008.214.009.309.064.201.117.296.365.225.586-.018.057-.047.11-.083.157-.053.067-.12.114-.197.15-.08.031-.162.057-.244.084-.941.298-1.918.464-2.904.502-.595.022-1.193-.001-1.784-.076-.458-.059-.912-.148-1.356-.276-.238-.068-.477-.144-.705-.242-.032-.017-.032-.017-.062-.035-.069-.05-.126-.108-.166-.184-.114-.217-.05-.493.148-.638.069-.05.147-.077.23-.091.036-.003.071-.004.107-.002z" fill="#0e8754" fill-rule="nonzero"/></g></g><g><path d="M115 191.7c0-1.49-1.21-2.7-2.7-2.7H37.7c-1.49 0-2.7 1.21-2.7 2.7v48.6c0 1.49 1.21 2.7 2.7 2.7h74.6c1.49 0 2.7-1.21 2.7-2.7v-48.6z" fill="#fbeae7"/><path d="M66.196 227.248c-.637-.816 5.074-13.642 9.625-11.35.304.153 1.311 1.17 1.431 1.437 1.878 4.185-10.423 10.726-11.056 9.913zm11.755-11.133c1.082-.067 2.305-.397 2.967-1.054 0 0 3.032 1.231 2.933-.889-.071-1.527-4.608-1.169-5.9 1.943zm-1.298-1.042c.136-1.091.576-1.995 1.241-2.758-.369-.615.09-1.751.85-1.795 0 0-1.258-2.71-.247-3.446 3.112-2.265 3.087 5.947-1.844 7.999z" fill="#ffc7bc"/></g><g><path fill="#dde3ed" d="M182 256h8v144h-8zM10 256h8v144h-8z"/><path d="M0 249c0-1.591.632-3.117 1.757-4.243C2.883 243.632 4.409 243 6 243h188c1.591 0 3.117.632 4.243 1.757 1.125 1.126 1.757 2.652 1.757 4.243v10H0v-10z" fill="#69768c"/></g><g><g fill="#edf0f5"><path d="M137 209h20v4h-20zM156 209c0-1.657-1.343-3-3-3h-12c-1.657 0-3 1.343-3 3h18z"/></g><path d="M156 213h-18l1.988 30h14.024L156 213z" fill="#ff7f65"/></g><g><path fill="#b9f6dd" d="M169 34h80v358h-80z"/><clipPath id="c"><path d="M169 34h80v358h-80z"/></clipPath><g clip-path="url(#c)" fill="#1bc47e"><path d="M261.285 61.654l-109.218 56.702 9.405 22.081L270.69 83.734l-9.405-22.08zM260.285 148.101l-109.218 56.702 15.676 36.801 109.218-56.703-15.676-36.8z"/></g><path d="M213.225 135.07l5.816 4.225-4.226 5.815 6.837 2.222-2.221 6.836-6.837-2.221v7.188h-7.188v-7.188l-6.837 2.221-2.221-6.836 6.837-2.222-4.226-5.815 5.816-4.225 4.225 5.815 4.225-5.815z" fill="#1bc47e"/><path d="M251 30h-84l2 4h80l2-4zM249 392h-80l-2 8h84l-2-8z" fill="#9da9bd"/><path fill="#0e8754" d="M181 47h42v4h-42zM181 257h56v4h-56zM181 267h56v4h-56zM181 277h56v4h-56zM181 287h56v4h-56zM181 57h28v4h-28zM181 297h28v4h-28z"/></g><g><path d="M296.74 90.356h-15l-2 21.092s4.255 5.036 9.528 5c5.274-.035 9.472-5 9.472-5l-2-21.092z" fill="#fee3c8"/><clipPath id="d"><path d="M296.74 90.356h-15l-2 21.092s4.255 5.036 9.528 5c5.274-.035 9.472-5 9.472-5l-2-21.092z"/></clipPath><g clip-path="url(#d)"><path d="M278.74 92.997c4.985 5.424 16.102 5.752 21.118.186l-10.618-4.5-10.5 4.314z" fill="#181e26" fill-opacity="0.15"/></g><path d="M313.598 54.58s2.006-2.946 4.181-.963c1.953 1.782-.23 3.957-.006 5.834.183 1.533.743 4.45-.924 5.396-1.185.672-2.241.584-3.347-.45-3.781-3.54.096-9.817.096-9.817zM264.883 54.58s-2.006-2.946-4.181-.963c-1.953 1.782.23 3.957.006 5.834-.183 1.533-.743 4.45.924 5.396 1.185.672 2.241.584 3.347-.45 3.781-3.54-.096-9.817-.096-9.817z" fill="#f9cc9f"/><path d="M289.259 93.849c-3.156.061-12.949-1.283-18.235-10.516-3.677-6.421-7.103-13.905-7.103-22.816 0-18.368 4.58-32.169 25.338-32.334h.001c20.758.165 25.339 13.966 25.339 32.334 0 8.911-3.427 16.395-7.103 22.816-5.287 9.233-15.08 10.577-18.236 10.516h-.001z" fill="#fee3c8"/><path d="M289.228 84.5c-6.65.141-9.455-3.767-8.818-4.724.242-.365 3.38 3.593 8.836 3.484h.026c5.457.109 8.594-3.849 8.837-3.484.636.957-2.168 4.865-8.818 4.724l-.032-.001-.031.001z" fill="#eb8560"/><path d="M290.16 64.696c-.152-.38-.519-.629-.928-.629-.409 0-.777.249-.929.629-.782 1.954-1.873 4.684-2.523 6.307-.123.308-.085.657.101.932s.496.44.828.44h5.046c.332 0 .642-.165.828-.44.186-.275.223-.624.1-.932-.649-1.623-1.741-4.353-2.523-6.307z" fill="#f9cc9f"/><circle cx="276.459" cy="60.216" r="4.5" fill="#333e50"/><path d="M281.548 51.028c-.95-.596-3.21-.842-5.472-.537-2.536.343-4.663 1.045-4.613 1.657.07.871 3.142.317 5.904.447 2.027.096 3.663.52 4.204.256.764-.375.657-1.397-.023-1.823z" fill="#181e26"/><path d="M272.459 42.801c-5.962 4.143-8.295 10.979-8.295 10.979s-2.943-14.218 1.718-19.638c5.659-6.58 35.165-17.714 47.257-11.736 9.231 4.564 1.213 31.342 1.213 31.342s-3.017-9.239-10.282-12.322c-7.539-3.2-26.405-2.242-31.611 1.375z" fill="#333e50"/><circle cx="302.004" cy="60.216" r="4.5" fill="#333e50"/><path d="M296.914 51.028c.95-.596 3.21-.842 5.472-.537 2.536.343 4.663 1.045 4.613 1.657-.07.871-3.142.317-5.904.447-2.027.096-3.663.52-4.204.256-.764-.375-.657-1.397.023-1.823z" fill="#181e26"/><path d="M289.24 98.285c-15.4.361-22.762-17.145-23.565-20.652-2.005-8.748-1.849-25.825-1.849-25.825l2.341-3.06s.931 19.475 3.791 23.933c1.065 1.66 10.248 2.665 19.302 2.745 9.053-.08 18.236-1.085 19.301-2.745 2.86-4.458 3.791-23.933 3.791-23.933l2.519 3.12s-.022 17.017-2.027 25.765c-.803 3.507-8.164 21.013-23.565 20.652h-.039zm-.042-18.427c-5.26-.112-8.583-4.425-11.111-.54-1.874 2.882 3.666 7.367 11.173 7.087l.087.003c7.463.242 12.952-4.219 11.085-7.09-2.538-3.901-5.877.462-11.172.541l-.062-.001z" fill="#333e50"/><path d="M285.413 60.514c.094-.848-.177-1.697-.746-2.333-.569-.636-1.382-1-2.236-1h-11.589c-.842 0-1.646.355-2.215.977-.568.623-.849 1.456-.772 2.295.145 1.593.317 3.486.454 5 .141 1.545 1.436 2.728 2.988 2.728h10.576c1.529 0 2.812-1.148 2.982-2.667.168-1.505.379-3.398.558-5zM292.964 60.514c-.094-.848.177-1.697.746-2.333.569-.636 1.382-1 2.236-1h11.589c.843 0 1.647.355 2.215.977.568.623.849 1.456.772 2.295-.144 1.593-.317 3.486-.454 5-.141 1.545-1.436 2.728-2.988 2.728h-10.576c-1.528 0-2.812-1.148-2.982-2.667-.168-1.505-.379-3.398-.558-5z" fill="#f7f8fa" fill-opacity="0.5"/><path d="M298.705 57.181l2.538 11h-4l-2.482-10.756c.37-.159.773-.244 1.185-.244h2.759zM277.639 68.181h-4l-2.539-11h4l2.539 11z" fill="#f7f8fa" fill-opacity="0.3"/><path d="M289.441 60.891c.873.014 1.743.088 2.605.232.765.128 1.519.31 2.262.532l.159.049c.13.046.237.128.3.254.027.053.044.111.05.171.026.246-.138.479-.378.538-.075.018-.148.016-.223.004-.1-.026-.099-.029-.198-.059-.152-.046-.304-.09-.457-.132-.454-.122-.912-.23-1.374-.317-1.01-.188-2.038-.282-3.065-.273-1.038.009-2.074.12-3.09.327-.58.118-1.152.269-1.717.443l-.043.011c-.121.02-.24.007-.348-.053-.215-.121-.311-.39-.221-.62.022-.056.054-.107.095-.152.051-.057.113-.096.182-.128.121-.043.246-.077.37-.113.704-.202 1.417-.37 2.14-.489.76-.124 1.527-.195 2.297-.22.218-.005.436-.007.654-.005zM314.836 52.832c.08.007.156.026.227.067.192.11.29.342.235.556-.02.079-.06.147-.111.209-1.94 2.034-3.95 4.002-6.023 5.898-.064.05-.133.088-.212.106-.055.013-.113.017-.169.01-.258-.029-.455-.26-.444-.519.006-.117.052-.221.127-.31 1.939-2.033 3.949-4.001 6.023-5.898.074-.058.152-.095.245-.113.034-.004.067-.006.102-.006zM263.803 52.97c.116.009.215.048.305.121 2.011 1.853 3.962 3.775 5.845 5.758.065.079.109.168.122.27.033.264-.155.514-.418.556-.066.011-.134.008-.199-.008-.077-.019-.144-.057-.206-.107-2.011-1.853-3.961-3.775-5.844-5.758-.051-.061-.089-.127-.11-.204-.052-.198.025-.413.191-.533.064-.047.136-.074.214-.089.034-.004.066-.006.1-.006z" fill="#ff4722" fill-rule="nonzero"/><g><path d="M298.076 383h14l-1 8h-12l-1-8z" fill="#ff8c76"/><path d="M295.076 396h20v2c0 .53-.21 1.039-.585 1.414s-.884.586-1.415.586h-15.999c-.531 0-1.04-.211-1.415-.586s-.586-.884-.586-1.414v-2z" fill="#edf0f5"/><path d="M298.076 391v-3.384l14 .025V391l3 5c-6.978 1.333-13.609 1.181-20 0l3-5z" fill="#333e50"/><path d="M301.785 391.502c.048.006.093.016.138.032.082.032.164.062.246.092.821.278 1.684.406 2.548.425.759.017 1.521-.049 2.265-.201.268-.054.533-.12.794-.198.141-.042.28-.092.42-.135.036-.008.035-.008.07-.014.085-.006.166.001.245.033.216.087.346.319.307.548-.01.058-.031.115-.061.167-.055.095-.138.163-.236.209-.08.031-.162.057-.244.084-.941.298-1.918.464-2.904.502-.595.022-1.193-.001-1.784-.076-.458-.059-.912-.148-1.356-.276-.238-.068-.478-.144-.705-.242-.032-.017-.032-.017-.062-.035-.069-.05-.126-.108-.166-.184-.115-.217-.05-.493.148-.638.069-.05.147-.077.23-.091.036-.003.071-.004.107-.002zM301.785 389.502c.048.006.093.016.138.032.082.032.164.062.246.092.821.278 1.684.406 2.548.425.759.017 1.521-.049 2.265-.201.268-.054.533-.12.794-.198.141-.042.28-.092.42-.135.036-.008.035-.008.07-.014.085-.006.166.001.245.033.216.087.346.319.307.548-.01.058-.031.115-.061.167-.055.095-.138.163-.236.209-.08.031-.162.057-.244.084-.941.298-1.918.464-2.904.502-.595.022-1.193-.001-1.784-.076-.458-.059-.912-.148-1.356-.276-.238-.068-.478-.144-.705-.242-.032-.017-.032-.017-.062-.035-.069-.05-.126-.108-.166-.184-.115-.217-.05-.493.148-.638.069-.05.147-.077.23-.091.036-.003.071-.004.107-.002z" fill="#fff" fill-rule="nonzero"/><g><path d="M280.076 383h-14l1 8h12l1-8z" fill="#ff8c76"/><path d="M283.076 396h-20v2c0 .53.211 1.039.586 1.414s.884.586 1.415.586h15.999c.531 0 1.04-.211 1.415-.586s.585-.884.585-1.414v-2z" fill="#edf0f5"/><path d="M280.076 391v-3.384l-14 .025V391l-3 5c6.979 1.333 13.61 1.181 20 0l-3-5z" fill="#333e50"/><path d="M276.439 391.501c.109.01.21.046.294.116.208.176.236.497.06.705-.054.065-.123.11-.201.144-.093.036-.186.071-.28.104-.849.288-1.736.436-2.63.474-.718.03-1.439-.009-2.149-.115-.413-.062-.822-.147-1.224-.257-.228-.062-.457-.127-.677-.212-.032-.015-.032-.015-.063-.033-.091-.059-.164-.138-.205-.24-.022-.056-.034-.115-.036-.174-.006-.232.156-.444.381-.499.083-.02.165-.016.248.003.14.043.279.092.42.135.926.271 1.889.403 2.854.402.66-.001 1.321-.065 1.966-.208.237-.052.473-.116.704-.192.122-.041.241-.089.362-.132.035-.009.035-.009.07-.016.036-.004.07-.006.106-.005zM276.439 389.501c.109.01.21.046.294.116.208.176.236.497.06.705-.054.065-.123.11-.201.144-.093.036-.186.071-.28.104-.849.288-1.736.436-2.63.474-.718.03-1.439-.009-2.149-.115-.413-.062-.822-.147-1.224-.257-.228-.062-.457-.127-.677-.212-.032-.015-.032-.015-.063-.033-.091-.059-.164-.138-.205-.24-.022-.056-.034-.115-.036-.174-.006-.233.156-.444.381-.499.083-.02.165-.016.248.003.14.043.279.092.42.135.926.271 1.889.403 2.854.402.628-.001 1.258-.059 1.873-.187.269-.057.536-.127.797-.213.122-.041.241-.089.362-.132.035-.009.035-.009.07-.016.036-.004.07-.006.106-.005z" fill="#fff" fill-rule="nonzero"/></g></g><g><path fill="#69768c" d="M264.905 215h49.856v15.954h-49.856z"/><path d="M288.794 215h-27l1 170.495h20l6-170.495z" fill="#69768c"/><clipPath id="e"><path d="M288.794 215h-27l1 170.495h20l6-170.495z"/></clipPath><g clip-path="url(#e)"><path d="M277.42 215s-6.803 13.028-18.383 13.808c-14.675.987-1.71-13.273-1.71-13.273l6.032-6.305L277.42 215z" fill="#525f75"/></g><path d="M289.403 215h27l-1 170.495h-20l-6-170.495z" fill="#69768c"/><clipPath id="f"><path d="M289.403 215h27l-1 170.495h-20l-6-170.495z"/></clipPath><g clip-path="url(#f)"><path d="M300.777 215s6.804 13.028 18.383 13.808c14.675.987 1.71-13.273 1.71-13.273l-6.031-6.305-14.062 5.77z" fill="#525f75"/></g></g><path d="M311.763 115.258C323.352 119.422 339 155.835 339 155.835c10.071 7.483 18.668 18.725 20.346 32.03l-6.237-1.113c-1.739-6.164-29.463-8.131-26.269-26.489-6.247-14.086-11.345-19.32-22.64-25.58l7.563-19.425z" fill="#fee3c8"/><path d="M257.903 132.411c-.298-5.484 1.673-10.85 5.45-14.838 3.777-3.988 9.028-6.247 14.52-6.247h22.504c5.484 0 10.727 2.252 14.503 6.229 3.776 3.977 5.754 9.33 5.47 14.806-1.588 30.633-4.349 83.905-4.349 83.905H262.46s-2.892-53.215-4.557-83.855z" fill="#fee3c8"/><path d="M298.729 111.326s-1.384 4.326-9.462 4.367c-7.909.041-9.515-4.367-9.515-4.367-4.715-.367-15.51.794-22.682 5.765-5.626 3.9-17.071 30.704-17.071 30.704l16.726 10.663 1.49-3.099 2.259 62.972c20.719 3.402 34.47 3.696 57.541.012l2.168-63.47 15.104-8.251s-9.582-26.167-13.98-29.572c-4.262-3.3-15.009-6.564-22.578-5.724z" fill="#cad2e0"/><clipPath id="g"><path d="M298.729 111.326s-1.384 4.326-9.462 4.367c-7.909.041-9.515-4.367-9.515-4.367-4.715-.367-15.51.794-22.682 5.765-5.626 3.9-17.071 30.704-17.071 30.704l16.726 10.663 1.49-3.099 2.259 62.972c20.719 3.402 34.47 3.696 57.541.012l2.168-63.47 15.104-8.251s-9.582-26.167-13.98-29.572c-4.262-3.3-15.009-6.564-22.578-5.724z"/></clipPath><g clip-path="url(#g)"><path d="M290.988 179.592c-5.662-2.03-13.933-5.125-32.225-8.96l-.459 4.02 32.684 4.94z" fill="#181e26" fill-opacity="0.15"/></g><path d="M259.742 119.712c-10.888 5.754-26.081 45.669-23.106 58.705 2.982 13.065 53.889 11.383 53.889 11.383l.463-10.208c-6.569-1.401-25.353-4.104-39.151-8.329 4.201-14.825 7.827-25.596 18.127-33.384l-10.222-18.167z" fill="#fee3c8"/><path d="M258.215 155.359l17.334-9.968 4.203-34.065c-4.715-.367-15.51.794-22.682 5.765-5.626 3.9-17.071 30.704-17.071 30.704l16.726 10.663 1.49-3.099z" fill="#cad2e0"/><clipPath id="h"><path d="M258.215 155.359l17.334-9.968 4.203-34.065c-4.715-.367-15.51.794-22.682 5.765-5.626 3.9-17.071 30.704-17.071 30.704l16.726 10.663 1.49-3.099z"/></clipPath><g clip-path="url(#h)"><path d="M291.015 179.598c-5.662-2.03-13.941-5.101-32.233-8.937l.077 2.079 32.156 6.858z" fill="#181e26" fill-opacity="0.1"/></g><path d="M288.837 182.291s4.897 9.18 11.002 10.066c3.698.536 8.189-.221 11.038-1.903 5.282-3.119 5.932-6.738 2.111-7.815-7.003-1.975-11.868 1.117-12.773-2.016-.448-1.552 3.956-2.688 7.073-2.801 1.646-.06 2.129-2.083-3.128-2.522-1.78-.148-6.251.544-7.991 1.382-3.624 1.747-7.332 5.609-7.332 5.609z" fill="#f9cc9f"/><g><g fill="#d63717"><path d="M316.384 140.432c.006-.066.065-.114.131-.108l27.632 2.655c.066.006.115.065.108.131l-.55 5.733c-.007.066-.065.115-.131.108l-27.633-2.654c-.066-.007-.114-.065-.108-.131l.551-5.734z"/><path d="M325.827 141.616c-.214-.654-.29-1.346-.224-2.031.263-2.747 2.708-4.763 5.455-4.499 2.747.264 4.763 2.708 4.499 5.455-.066.686-.273 1.35-.607 1.951l-9.123-.876z"/></g><path d="M303.543 138.154c.057-.594.585-1.029 1.178-.972l51.602 4.957c.594.057 1.029.585.972 1.179l-7.157 74.497c-.057.593-.585 1.028-1.178.971l-51.602-4.957c-.594-.057-1.029-.585-.972-1.178l7.157-74.497z" fill="#ff6243"/></g><path d="M290.453 189.802s3.281 1.669 9.386 2.555c3.698.536 8.189-.221 11.038-1.903 5.282-3.119 5.932-6.738 2.111-7.815-7.003-1.975-11.868 1.117-12.773-2.016-.448-1.552-2.306-4.779-4.046-3.941-3.624 1.747-7.631 4.502-7.631 4.502l1.915 8.618zM353.892 182.737c3.264-.625 10.563 9.82 2.32 13.102-1.584.631-3.565.78-6.834-.232-3.707-1.147-4.634-8.089-1.476-8.655 6.191-1.108 5.908-2.426 5.99-4.215z" fill="#fee3c8"/><path d="M293.466 131.358l5.815 4.225-4.225 5.816 6.836 2.221-2.221 6.837-6.836-2.222v7.189h-7.189v-7.189l-6.836 2.222-2.221-6.837 6.836-2.221-4.225-5.816 5.815-4.225 4.225 5.816 4.226-5.816z" fill="#1bc47e"/></g></g></svg>