<svg viewBox="0 0 360 400" xmlns="http://www.w3.org/2000/svg" fill-rule="evenodd" clip-rule="evenodd" stroke-linejoin="round" stroke-miterlimit="1.41421"><path fill="none" d="M0 0h360v400H0z"/><clipPath id="a"><path d="M0 0h360v400H0z"/></clipPath><g clip-path="url(#a)"><path fill="#b9f6dd" d="M195 37h80v358h-80z"/><clipPath id="b"><path d="M195 37h80v358h-80z"/></clipPath><g clip-path="url(#b)" fill="#1bc47e"><path d="M287.285 64.654l-109.218 56.702 9.405 22.081L296.69 86.734l-9.405-22.08zM286.285 151.101l-109.218 56.702 15.676 36.801 109.218-56.703-15.676-36.8z"/></g><path d="M239.225 138.07l5.816 4.225-4.226 5.815 6.837 2.222-2.221 6.836-6.837-2.221v7.188h-7.188v-7.188l-6.837 2.221-2.221-6.836 6.837-2.222-4.226-5.815 5.816-4.225 4.225 5.815 4.225-5.815z" fill="#1bc47e"/><path d="M277 33h-84l2 4h80l2-4zM275 395h-80l-2 8h84l-2-8z" fill="#9da9bd"/><path fill="#0e8754" d="M207 50h42v4h-42zM207 260h56v4h-56zM207 270h56v4h-56zM207 280h56v4h-56zM207 290h56v4h-56zM207 60h28v4h-28zM207 300h28v4h-28z"/><g><path d="M109.185 237.094c.742.2 1.474.454 2.145.834.417.236.808.522 1.139.87.214.226.402.477.553.751.108.195.197.4.265.612.042.132.076.266.102.401.183.95-.03 1.924-.382 2.808-.068.171-.141.341-.22.507-.081.171-.165.341-.253.509-.125.234-.256.465-.393.693-.182.302-.373.599-.571.891-.255.376-.521.745-.794 1.108-.396.527-.807 1.042-1.225 1.551-.515.625-1.043 1.24-1.577 1.849-.78.887-1.572 1.764-2.368 2.637-1.01 1.109-2.026 2.213-3.036 3.321-.454.499-.907.999-1.359 1.5-1.403 1.566-2.79 3.146-4.133 4.764-.996 1.2-1.969 2.42-2.907 3.667-.725.963-1.43 1.942-2.108 2.939-.541.794-1.064 1.6-1.567 2.418-.374.61-.737 1.227-1.087 1.851-2.057 3.673-3.678 7.646-4.322 11.825-.095.615-.168 1.233-.219 1.853-.073.906-.098 1.816-.072 2.724.04 1.336.192 2.669.454 3.979.378 1.891.987 3.732 1.781 5.489.248.549.514 1.089.796 1.621.214.402.438.798.653 1.199.115.216.227.432.339.649 1.125 2.217 2.056 4.544 2.6 6.976.367 1.643.554 3.33.499 5.015-.036 1.124-.179 2.244-.432 3.339-.172.744-.394 1.475-.662 2.189-.209.557-.446 1.103-.709 1.636-1.565 3.18-3.989 5.851-6.652 8.153-.438.379-.884.749-1.336 1.111-.586.469-1.183.926-1.787 1.372-.81.598-1.634 1.177-2.467 1.743-1.107.753-2.23 1.481-3.358 2.203-1.512.962-3.031 1.911-4.542 2.874-1.996 1.278-3.986 2.578-5.846 4.05-.757.6-1.493 1.229-2.182 1.906-.572.562-1.114 1.158-1.594 1.8-.709.949-1.253 2.014-1.69 3.113-.61 1.538-.983 3.162-1.15 4.807-.162 1.603-.132 3.222.043 4.823.102.927.253 1.849.445 2.762.226 1.067.508 2.122.839 3.161.277.867.589 1.723.936 2.564.247.599.51 1.192.806 1.769l.017.032c.027.07.062.137.081.209.057.218.038.452-.053.659-.06.137-.151.259-.266.356-.056.049-.119.091-.185.126-.337.176-.756.143-1.061-.085-.06-.044-.115-.096-.163-.153-.088-.103-.146-.223-.206-.342-.031-.062-.062-.123-.092-.185-.123-.249-.239-.5-.352-.752-.378-.844-.719-1.704-1.026-2.576-.705-1.998-1.239-4.061-1.555-6.156-.307-2.035-.406-4.105-.222-6.156.193-2.149.704-4.271 1.577-6.248.379-.858.818-1.695 1.349-2.47.693-1.01 1.522-1.922 2.409-2.764 1.026-.973 2.132-1.857 3.269-2.694 1.425-1.05 2.903-2.027 4.392-2.983 1.503-.966 3.02-1.911 4.529-2.868.417-.265.834-.532 1.25-.8 1.79-1.158 3.564-2.344 5.27-3.625 1.268-.951 2.499-1.953 3.658-3.033 1.524-1.42 2.931-2.981 4.065-4.732.733-1.13 1.348-2.337 1.795-3.608.297-.843.521-1.712.666-2.594.164-1.005.226-2.025.193-3.043-.063-1.958-.47-3.895-1.089-5.75-.431-1.29-.963-2.546-1.564-3.765-.203-.413-.415-.823-.634-1.228-.154-.286-.313-.57-.468-.856-.103-.192-.205-.385-.305-.579-.384-.756-.743-1.524-1.064-2.309-.607-1.482-1.09-3.015-1.428-4.581-.319-1.481-.508-2.991-.564-4.505-.038-1.044-.013-2.09.072-3.131.059-.729.148-1.454.263-2.176.679-4.228 2.288-8.256 4.346-11.993.358-.65.73-1.292 1.115-1.927.513-.848 1.048-1.683 1.602-2.506.691-1.028 1.409-2.037 2.15-3.029.953-1.277 1.942-2.528 2.956-3.757 1.285-1.558 2.61-3.083 3.956-4.589 1.74-1.948 3.517-3.864 5.275-5.797.396-.437.791-.875 1.185-1.314.936-1.053 1.866-2.114 2.746-3.215.7-.876 1.379-1.778 1.958-2.74.118-.196.232-.395.339-.598.085-.161.166-.324.242-.489.059-.13.114-.26.165-.393.039-.101.075-.203.108-.306.025-.076.047-.153.068-.23.115-.44.17-.927-.003-1.36-.03-.076-.068-.149-.11-.218-.103-.166-.236-.31-.384-.436-.261-.223-.564-.394-.876-.537-.421-.194-.865-.335-1.312-.456l-.208-.082c-.163-.112-.218-.129-.337-.291-.044-.06-.082-.126-.112-.194-.151-.349-.088-.764.161-1.052.048-.057.104-.108.164-.152.121-.089.261-.15.408-.177.074-.014.149-.011.224-.017.073.012.147.023.221.034z" fill="#cad2e0" fill-rule="nonzero"/><path d="M47.852 387c0-3.863 3.137-7 7-7h58c3.864 0 7 3.137 7 7v13h-72v-13z" fill="#444f61"/><path d="M55.852 373.998c0-2.208 1.79-3.998 3.998-3.998h.004c2.208 0 3.998 1.79 3.998 3.998V380h-8v-6.002z" fill="#9da9bd"/></g><g><path fill="#dde3ed" d="M352 256h8v144h-8zM0 256h8v144H0z"/><path d="M0 247c0-2.209 1.791-4 4-4h352c2.209 0 4 1.791 4 4v12H0v-12z" fill="#69768c"/></g><g><path d="M80.993 155.895h25.824l9.72 87.105H70.463l10.53-87.105z" fill="#edf0f5"/><path d="M81.125 155.895h25.687l7.272 65.123H73.121l8.004-65.123z" fill="#181e26" fill-opacity="0.15"/><path d="M171 115.298c0-2.362-1.918-4.28-4.28-4.28H20.28c-2.362 0-4.28 1.918-4.28 4.28v98.44c0 2.362 1.918 4.28 4.28 4.28h146.44c2.362 0 4.28-1.918 4.28-4.28v-98.44z" fill="#edf0f5"/><path fill="#181e26" d="M24 119.018h139v78H24z"/><g fill="#8eedc6"><path d="M28 123.018h6v6h-6zM28 132.018h6v6h-6zM28 141.018h6v6h-6zM28 150.018h6v6h-6zM28 159.018h6v12h-6z"/><path d="M28 123.018h6v6h-6zM28 132.018h6v6h-6zM28 141.018h6v6h-6zM28 150.018h6v6h-6zM28 159.018h6v12h-6z"/></g><g fill="#76ffc7"><path d="M154 123.018h6v6h-6zM154 132.018h6v6h-6zM154 141.018h6v6h-6zM154 150.018h6v6h-6zM154 159.018h6v12h-6z"/><path d="M154 123.018h6v6h-6zM154 132.018h6v6h-6zM154 141.018h6v6h-6zM154 150.018h6v6h-6zM154 159.018h6v12h-6z"/></g><g fill="#43e8a3"><path d="M46 123.018h6v6h-6zM46 132.018h6v6h-6z"/></g><g fill="#76ffc7"><path d="M64 123.018h6v6h-6zM64 132.018h6v6h-6zM64 141.018h6v6h-6z"/></g><g fill="#bcf5dd"><path d="M55 123.018h6v6h-6zM55 132.018h6v6h-6zM55 141.018h6v6h-6zM55 150.018h6v6h-6zM55 159.018h6v6h-6zM55 168.018h6v16h-6z"/></g><g fill="#1bc47e"><path d="M91 123.018h6v6h-6zM91 132.018h6v6h-6zM91 141.018h6v6h-6zM91 150.018h6v6h-6zM91 159.018h6v6h-6zM91 168.018h6v12h-6z"/></g><g fill="#25e595"><path d="M73 123.018h6v6h-6zM73 132.018h6v6h-6z"/></g><g fill="#43e8a3"><path d="M100 123.018h6v6h-6zM100 132.018h6v6h-6zM100 141.018h6v6h-6z"/></g><g fill="#25e595"><path d="M127 123.018h6v6h-6zM127 132.018h6v6h-6zM127 141.018h6v6h-6zM127 150.018h6v6h-6zM127 159.018h6v6h-6zM127 168.018h6v8h-6z"/></g><g fill="#8eedc6"><path d="M136 123.018h6v6h-6zM136 132.018h6v6h-6zM136 141.018h6v6h-6z"/></g><g fill="#76ffc7"><path d="M118 123.018h6v6h-6zM118 132.018h6v6h-6zM118 141.018h6v12h-6z"/></g><g fill="#bcf5dd"><path d="M109 123.018h6v6h-6zM109 132.018h6v6h-6z"/></g><g fill="#1bc47e"><path d="M145 123.018h6v6h-6zM145 132.018h6v6h-6z"/></g><g fill="#1bc47e"><path d="M37 123.018h6v6h-6zM37 132.018h6v6h-6zM37 141.018h6v6h-6zM37 150.018h6v12h-6z"/></g><g fill="#8eedc6"><path d="M82 123.018h6v6h-6zM82 132.018h6v6h-6zM82 141.018h6v6h-6zM82 150.018h6v12h-6z"/></g></g><g><path d="M139 241c0-3.314-2.686-6-6-6H30c-3.314 0-6 2.686-6 6v2h115v-2z" fill="#43e8a3"/><path d="M36 233c0-.552-.448-1-1-1h-4c-.552 0-1 .448-1 1v2h6v-2zM45 233c0-.552-.448-1-1-1h-4c-.552 0-1 .448-1 1v2h6v-2zM54 233c0-.552-.448-1-1-1h-4c-.552 0-1 .448-1 1v2h6v-2zM106 233c0-.552-.448-1-1-1h-4c-.552 0-1 .448-1 1v2h6v-2zM115 233c0-.552-.448-1-1-1h-4c-.552 0-1 .448-1 1v2h6v-2zM124 233c0-.552-.448-1-1-1h-4c-.552 0-1 .448-1 1v2h6v-2zM133 233c0-.552-.448-1-1-1h-4c-.552 0-1 .448-1 1v2h6v-2zM97 233c0-.552-.448-1-1-1H58c-.552 0-1 .448-1 1v2h40v-2z" fill="#8eedc6"/></g><g><path d="M293.788 196.211h19.098c-.02 4.221-1.587 7.943-4.775 11.14h-9.549c-3.187-3.197-4.754-6.919-4.774-11.14z" fill="#f8cd61"/><clipPath id="c"><path d="M293.788 196.211h19.098c-.02 4.221-1.587 7.943-4.775 11.14h-9.549c-3.187-3.197-4.754-6.919-4.774-11.14z"/></clipPath><g clip-path="url(#c)"><path d="M293.788 196.211h19.098c5.311 6.342-23.658 7.229-19.098 0z" fill="#181e26" fill-opacity="0.15"/></g><path d="M287.422 240.454h31.829c-.02-4.221-8.43-5.555-11.617-8.753h-8.594c-3.188 3.197-11.598 4.532-11.618 8.753z" fill="#f8cd61"/><path d="M349.252 158.089c.285.003.571.011.855.029.244.016.487.037.73.065 1.539.179 3.095.64 4.324 1.616.175.139.342.287.501.445.223.223.428.464.612.72.262.366.479.762.649 1.178.231.563.375 1.16.446 1.763.05.425.065.853.052 1.28-.01.361-.04.721-.095 1.078-.152 1.003-.508 1.976-1.118 2.793-.157.211-.33.411-.515.598-.155.155-.319.302-.49.44-1.109.892-2.481 1.368-3.832 1.755-.261.075-.523.147-.785.217-.459.125-.919.247-1.378.374-.196.055-.391.111-.586.169-.387.117-.77.24-1.151.374-.055.021-.109.042-.163.064-.353.157-.675.388-.88.722-.259.422-.303.979-.052 1.415.037.065.081.126.13.182.064.073.137.137.217.192.376.257.866.29 1.305.245.075-.007.15-.018.225-.029l.104-.012c.105-.006.207-.007.312.004.241.028.476.112.68.243.147.094.277.212.385.348.108.136.194.29.252.453.154.428.115.912-.106 1.309-.067.122-.15.234-.247.334-.193.2-.439.348-.706.425-.187.053-.387.073-.58.092-.616.063-1.243.037-1.847-.102-.56-.13-1.098-.357-1.572-.682-.361-.245-.683-.545-.954-.887-.218-.276-.402-.578-.547-.898-.43-.944-.514-2.028-.252-3.03.143-.552.39-1.076.721-1.541.493-.69 1.167-1.235 1.928-1.603.327-.159.67-.278 1.014-.393.499-.167 1.005-.316 1.511-.459.654-.182 1.311-.353 1.965-.535.662-.187 1.326-.383 1.953-.668.452-.206.896-.463 1.236-.833.098-.107.187-.223.263-.346.302-.485.419-1.062.46-1.624.009-.126.014-.251.016-.377.013-.728-.1-1.496-.513-2.112-.071-.106-.15-.206-.235-.3-.18-.195-.388-.36-.613-.499-.298-.185-.623-.324-.956-.433-.472-.153-.962-.246-1.454-.303-1.025-.119-2.066-.087-3.09.021-.457.049-.913.114-1.365.195-.259.046-.518.096-.774.159l-.102.021c-.091.013-.114.019-.207.023-.173.007-.348-.014-.514-.063-.201-.058-.389-.156-.551-.287-.162-.131-.299-.293-.399-.476-.083-.152-.141-.318-.171-.489-.098-.555.113-1.134.545-1.495.2-.168.433-.275.685-.336.165-.039.33-.074.496-.109 1.212-.24 2.441-.383 3.676-.416.184-.004.368-.005.552-.004zM257.694 158.088c.937.011 1.871.088 2.798.222.553.081 1.104.181 1.649.308l.039.009c.09.025.113.029.199.063.162.063.313.152.446.264.16.134.293.299.389.484.081.154.136.321.162.492.021.138.025.278.01.416-.061.56-.425 1.057-.941 1.284-.19.084-.397.13-.606.135-.105.002-.207-.009-.311-.024-.173-.036-.345-.076-.518-.112-.809-.161-1.629-.272-2.452-.325-.711-.046-1.427-.049-2.137.018-.501.046-1.001.128-1.486.268-.332.096-.658.219-.963.384-.25.135-.486.299-.69.497-.119.115-.227.242-.322.378-.416.601-.538 1.355-.534 2.073 0 .119.004.238.011.356.037.64.168 1.306.546 1.837.145.202.323.379.519.532.256.199.542.358.836.495.374.175.763.315 1.155.441.469.152.945.283 1.421.411.468.127.937.251 1.405.381.213.06.425.121.637.184.368.111.734.225 1.097.351.269.093.535.193.792.317.827.4 1.549 1.01 2.05 1.784.327.505.556 1.074.668 1.666.179.949.056 1.948-.365 2.818-.154.317-.346.616-.571.887-.256.307-.556.579-.886.804-.508.347-1.086.582-1.687.707-.569.117-1.156.136-1.733.077-.193-.019-.392-.039-.58-.092-.267-.077-.513-.225-.706-.425-.096-.1-.18-.212-.247-.334-.221-.397-.26-.881-.106-1.309.059-.163.144-.317.252-.453.108-.136.239-.254.385-.348.204-.131.439-.215.681-.243.104-.011.207-.01.312-.004.109.012.218.029.328.041.433.04.904.014 1.28-.228.09-.058.172-.128.242-.209.062-.07.115-.148.157-.232.161-.313.18-.689.077-1.024-.059-.189-.156-.365-.282-.518-.188-.228-.436-.4-.704-.522-.19-.088-.392-.151-.59-.217-.513-.172-1.033-.322-1.555-.467-.59-.161-1.182-.317-1.772-.481-1.485-.422-3.008-.924-4.195-1.951-.196-.169-.381-.351-.552-.545-.493-.559-.864-1.215-1.107-1.919-.21-.609-.324-1.248-.371-1.89-.087-1.198.037-2.431.513-3.543.095-.222.203-.438.325-.647.147-.253.315-.495.5-.722.266-.329.57-.626.901-.889 1.19-.945 2.688-1.408 4.177-1.598.243-.031.487-.055.732-.073.286-.021.573-.032.86-.038.139-.001.279-.002.418-.002z" fill="#f0b938" fill-rule="nonzero"/><path d="M260.368 150.696c-.057-1.422 8.586-3.058 42.969-3.126 39.321-.077 43.027 1.671 42.969 3.126-.923 23.062-2.919 47.649-42.969 47.649-40.05 0-42.046-24.587-42.969-47.649zM309.225 208.623c0-.702-.569-1.272-1.272-1.272h-9.233c-.702 0-1.272.57-1.272 1.272v.003c0 .702.57 1.272 1.272 1.272h9.233c.703 0 1.272-.57 1.272-1.272v-.003zM308.748 230.426c0-.702-.57-1.272-1.272-1.272h-8.278c-.703 0-1.272.57-1.272 1.272v.003c0 .702.569 1.272 1.272 1.272h8.278c.702 0 1.272-.57 1.272-1.272v-.003zM320.525 241.726c0-.703-.57-1.272-1.272-1.272h-31.832c-.702 0-1.272.569-1.272 1.272v.002c0 .703.57 1.272 1.272 1.272h31.832c.702 0 1.272-.569 1.272-1.272v-.002z" fill="#f0b938"/><path d="M299.676 229.154c-1.148-8.448-1.977-15.394-.795-19.256h8.912c1.182 3.862.352 10.808-.796 19.256h-7.321zM260.368 150.696s-.021 5.251 42.969 5.251 42.969-5.251 42.969-5.251c-.923 23.062-2.919 47.649-42.969 47.649-40.05 0-42.046-24.587-42.969-47.649z" fill="#f8cd61"/></g><g><path d="M264.432 191.7c0-1.49-1.21-2.7-2.7-2.7h-74.6c-1.49 0-2.7 1.21-2.7 2.7v48.6c0 1.49 1.21 2.7 2.7 2.7h74.6c1.49 0 2.7-1.21 2.7-2.7v-48.6z" fill="#edf0f5"/><path d="M215.628 227.248c-.637-.816 5.074-13.642 9.625-11.35.304.153 1.312 1.17 1.431 1.437 1.879 4.185-10.422 10.726-11.056 9.913zm11.756-11.133c1.081-.067 2.305-.397 2.966-1.054 0 0 3.032 1.231 2.933-.889-.071-1.527-4.608-1.169-5.899 1.943zm-1.299-1.042c.137-1.091.576-1.995 1.241-2.758-.369-.615.091-1.751.85-1.795 0 0-1.258-2.71-.247-3.446 3.112-2.265 3.088 5.947-1.844 7.999z" fill="#cad2e0"/></g><path d="M149.59 243s-.124-8.342 7.277-8.404c8.976-.076 9.554 8.404 9.554 8.404H149.59z" fill="#1bc47e"/></g></svg>