<svg viewBox="0 0 925 400" xmlns="http://www.w3.org/2000/svg" fill-rule="evenodd" clip-rule="evenodd" stroke-linejoin="round" stroke-miterlimit="1.41421"><path fill="none" d="M0 0h925v400H0z"/><clipPath id="a"><path d="M0 0h925v400H0z"/></clipPath><g clip-path="url(#a)"><path d="M47.802 297c-6.142-.068-16-9.271-15.923-19.446.08-10.711 10.155-17.591 14.528-17.227 32.612 2.71 91.111 10.5 94.706 19.127 4.852 11.644 12.583 61.346 18.331 92.371l-13.398 2.651c-11.864-25.292-26.449-52.256-21.947-76.514L47.802 297z" fill="#fdd1a5"/><path d="M125.246 377.231l1.967 4.624 5.866 2.667 6.312-2.651-.747-7.292-6.716-1.128-6.682 3.78z" fill="#dde3ed"/><path d="M139.185 380.116l24.973 6.806c7.116 1.279 9.379 7.683 8.011 10.23l-13.892.075-33.965-1.839s-.545-3.852-.357-7.49c.153-2.968 2.714-7.266 2.714-7.266 2.189.623 3.522 1.948 6.53 1.822 3.562-.149 4.452-1.701 5.986-2.338z" fill="#ff6243"/><path d="M172.069 397c.587.8.609 2.336 0 3h-45.832c-.76 0-1.479-.348-1.951-.945-.471-.597-.643-1.377-.467-2.117.255-1.069.478-2.007.478-2.007L172.069 397z" fill="#ffb5a6"/><path d="M140.392 380.445s-2.589 11.53.533 14.127c3.092 2.572 19.427 5.428 19.427 5.428h11.717c.15-.13.337-.573.327-.596 0 0 .677-1.004.975-1.561l-28.715-16.236-4.264-1.162z" fill="#181e26" fill-opacity="0.15"/><path d="M144.056 370.265l3.956 8.836 12.179.016-.747-7.292-6.716-1.128-8.672-.432z" fill="#dde3ed"/><path d="M160.169 375.102c-.03-.097 16.867 12.046 16.867 12.046 9.86.365 12.888 6.219 12.678 9.964l-14.097.693-34.101-7.858s-.312-5.951.921-8.873c1.131-2.683 3.219-5.714 3.73-6.058.502-.339 2.842 3.896 8.09 3.328 2.915-.316 5.012-3.014 5.912-3.242z" fill="#ff6243"/><path d="M189.71 396.302c.957.261.798 3.501-.106 3.698H177.33c-3.334-.01-12.482-1.805-16.068-2.363-5.493-.854-13.176-2.762-17.087-3.774-1.486-.385-2.55-1.693-2.624-3.227-.055-1.097-.105-2.13-.105-2.13s12.547 3.74 18.931 5.12c2.741.593 16.255 2.77 16.524 2.868 2.146-.131 12.809-.192 12.809-.192z" fill="#ffb5a6"/><path d="M172.582 383.042c.119.004.238.008.354.034.11.023.215.065.31.124.353.215.539.639.46 1.044-.021.11-.061.216-.117.312-.057.097-.129.184-.214.257-.16.136-.361.22-.571.237-.087.007-.172-.006-.258-.008-.056-.001-.11.002-.165.007-.441.048-.858.231-1.228.469-.654.421-1.183 1.015-1.626 1.648-.096.137-.188.276-.276.417-.063.1-.12.204-.187.301-.025.034-.051.066-.079.097-.118.122-.257.216-.419.269-.106.035-.217.053-.329.051-.413-.006-.789-.276-.928-.666-.042-.118-.061-.244-.056-.37.005-.156.049-.303.12-.441.075-.132.156-.261.238-.39.158-.246.324-.488.501-.723.16-.212.329-.419.507-.617.86-.96 1.978-1.766 3.27-1.995.161-.028.323-.046.486-.054.104-.004.103-.004.207-.003zM169.375 380.735c.119.004.238.008.354.034.123.026.24.076.345.146.093.062.175.14.242.229.067.09.119.19.154.297.126.393-.01.836-.335 1.091-.154.121-.343.195-.538.211-.087.007-.172-.005-.259-.009-.055 0-.11.003-.166.008-.53.057-1.025.31-1.449.623-.553.408-1.011.934-1.404 1.494-.095.137-.187.276-.275.417-.055.088-.108.178-.163.267-.024.034-.049.068-.076.1-.103.116-.225.21-.368.271-.09.038-.185.063-.282.074-.367.04-.734-.13-.94-.436-.07-.104-.12-.222-.147-.345-.027-.123-.03-.25-.01-.374.013-.083.037-.164.071-.241.031-.07.071-.134.11-.199.037-.062.071-.118.11-.178.19-.304.393-.6.612-.884.143-.187.294-.369.451-.544.843-.941 1.931-1.732 3.19-1.98.187-.037.375-.059.565-.069.104-.004.104-.004.208-.003zM166.057 378.334c.117.004.235.009.35.033.123.026.241.076.345.145.093.062.176.14.243.229.068.089.12.189.155.295.128.393-.006.836-.33 1.093-.153.122-.342.196-.537.213-.089.007-.175-.005-.263-.008-.056 0-.111.002-.166.007-.53.058-1.026.311-1.45.623-.574.424-1.046.975-1.449 1.56-.138.202-.263.411-.393.618-.023.035-.048.068-.075.1-.103.116-.225.21-.368.271-.339.145-.74.088-1.026-.145-.075-.062-.142-.135-.196-.216-.071-.105-.121-.222-.148-.345-.026-.123-.03-.25-.01-.375.014-.082.038-.163.071-.24.031-.07.071-.134.11-.199.038-.062.072-.118.11-.179.191-.304.394-.6.612-.884.144-.187.294-.368.452-.544.843-.94 1.931-1.732 3.191-1.98.186-.036.374-.058.564-.069.104-.003.103-.003.208-.003zM162.616 375.866c.117.004.235.009.35.033.123.026.24.076.345.145.093.062.176.139.243.228.25.33.27.792.048 1.141-.06.094-.135.178-.223.248-.153.121-.342.196-.537.213-.089.007-.175-.005-.263-.008-.055 0-.11.002-.165.007-.531.059-1.026.31-1.451.623-.574.424-1.046.975-1.449 1.56-.138.202-.263.411-.393.618-.023.035-.048.068-.075.1-.103.116-.225.21-.368.271-.09.038-.185.063-.282.074-.367.041-.735-.13-.94-.436-.071-.104-.121-.221-.148-.344-.027-.123-.03-.251-.01-.375.014-.082.038-.163.071-.24.031-.07.071-.134.11-.2.038-.062.072-.117.11-.178.19-.304.394-.6.612-.884.144-.187.294-.369.451-.544.844-.94 1.932-1.733 3.192-1.98.186-.036.374-.058.563-.069.105-.003.104-.003.209-.003z" fill="#d63717" fill-rule="nonzero"/><path d="M97.992 177.83c2.544.754 3.391 21.816-.695 24.073l-7.374-1.555 2.106-20.91 5.963-1.608z" fill="#333e50"/><g fill="#fee3c8"><path d="M58.125 193.746c9.234 8.147 49.72 9.264 60.861 1.869 11.165-7.411 22.312-60.023 22.312-60.023l-9.714 3.192c-5.749 17.237-20.544 37.56-22.445 44.117-15.723-4.309-25.083-4.235-37.638-5.144l-13.376 15.989z"/><path d="M138.557 141.563s4.334-3.279 6.644-8.998c1.4-3.465 3.819-7.7 2.862-10.867-1.775-5.871-5.568-7.944-7.891-3.861-3.597 6.324-4.217 11.128-7.094 10.859-1.609-.15.143-3.985.773-7.04.333-1.613-1.759-2.579-3.433 2.424-.567 1.693-2.064 6.813-1.663 8.702.836 3.935 3.241 7.363 3.241 7.363l6.561 1.418z"/></g><path d="M47.802 297c-6.142-.068-16-9.271-15.923-19.446.08-10.711 10.155-17.591 14.528-17.227 32.612 2.71 91.111 10.5 94.706 19.127 4.852 11.644-1.116 65.661-2.469 95.129l-13.29 2.902c-11.18-37.093-12.318-64.831-5.99-79.583L47.802 297z" fill="#fdd1a5"/><path d="M46.235 280.16c-5.988-1.37-13.667-12.455-11.433-22.383 2.353-10.449 13.572-14.706 17.855-13.75 12.22 2.729 20.278 14.949 20.278 14.949s69.592 9.816 71.232 21.914c1.68 12.391-1.651 61.836-2.654 93.417-.015.481-.369.882-.844.957-3.012.473-13.467 2.115-16.644 2.614-.52.082-1.014-.253-1.131-.766-6.103-26.869-9.946-51.043-6.562-79.248L46.235 280.16z" fill="#9da9bd"/><clipPath id="b"><path d="M46.235 280.16c-5.988-1.37-13.667-12.455-11.433-22.383 2.353-10.449 13.572-14.706 17.855-13.75 12.22 2.729 20.278 14.949 20.278 14.949s69.592 9.816 71.232 21.914c1.68 12.391-1.651 61.836-2.654 93.417-.015.481-.369.882-.844.957-3.012.473-13.467 2.115-16.644 2.614-.52.082-1.014-.253-1.131-.766-6.103-26.869-9.946-51.043-6.562-79.248L46.235 280.16z"/></clipPath><g clip-path="url(#b)"><path d="M125.162 295.589s.735 21.45 18.131 78.876l-3.205 1.537c-11.193-24.285-19.077-53.093-21.565-81.7l6.639 1.287z" fill="#181e26" fill-opacity="0.15"/></g><path d="M47.802 297c-6.142-.068-16-9.271-15.923-19.446.08-10.711 10.14-17.253 14.528-17.227 33.752.196 93.655 7.968 97.25 16.595 4.798 11.516 12.456 62.603 18.184 93.739.05.271-.014.55-.176.772-.163.222-.409.367-.682.402-3.37.426-13.857 1.75-16.709 2.111-.431.054-.848-.176-1.032-.57-11.666-25.019-17.984-47.083-20.673-75.434L47.802 297z" fill="#9da9bd"/><path d="M20.647 193.822c.384-11.007 8.534-20.19 19.418-21.878.643-.152 1.022-.21 1.022-.21h20.05c8.324 0 15.278 6.339 16.046 14.628 2.87 28.463 1.416 47.424.624 74.042-.023.774-.481 1.468-1.182 1.793-6.297 2.924-36.731 17.057-45.425 21.094-.56.26-1.207.247-1.756-.034-.549-.281-.937-.8-1.052-1.406-5.538-29.2-8.696-57.189-7.745-88.029z" fill="#444f61"/><clipPath id="c"><path d="M20.647 193.822c.384-11.007 8.534-20.19 19.418-21.878.643-.152 1.022-.21 1.022-.21h20.05c8.324 0 15.278 6.339 16.046 14.628 2.87 28.463 1.416 47.424.624 74.042-.023.774-.481 1.468-1.182 1.793-6.297 2.924-36.731 17.057-45.425 21.094-.56.26-1.207.247-1.756-.034-.549-.281-.937-.8-1.052-1.406-5.538-29.2-8.696-57.189-7.745-88.029z"/></clipPath><g clip-path="url(#c)" fill="#181e26" fill-opacity="0.15"><path d="M57.683 222.531c.604.079.74-2.033.74-2.033s-2.425-15.335-6.063-23.911l5.323 25.944zM33.95 226.599c-.508.422-1.661-.511-2.422-.983 0 0-1.723-4.547-3.575-15.749l5.997 16.732z"/></g><path d="M57.683 222.531c-.291 2.638-20.787 7.69-23.733 4.068l.143-8.018 20.952-1.629 2.638 5.579z" fill="#333e50"/><g><path d="M60.482 171.734c12.533 1.069 24.914 2.95 37.529 6.101-3.276 2.722-4.396 19.976-.714 24.068L66.8 200l-6.318-28.266z" fill="#444f61"/></g><g><path d="M58.482 150.641h-15l-2 21.093s4.254 5.035 9.527 5c5.274-.036 9.473-5 9.473-5l-2-21.093z" fill="#fee3c8"/><clipPath id="d"><path d="M58.482 150.641h-15l-2 21.093s4.254 5.035 9.527 5c5.274-.036 9.473-5 9.473-5l-2-21.093z"/></clipPath><g clip-path="url(#d)"><path d="M40.482 153.282c4.984 5.425 16.101 5.752 21.117.186l-10.617-4.5-10.5 4.314z" fill="#181e26" fill-opacity="0.15"/></g><path d="M75.339 114.865s2.006-2.946 4.181-.962c1.953 1.781-.23 3.957-.006 5.833.183 1.534.743 4.45-.924 5.396-1.185.673-2.241.585-3.347-.45-3.781-3.54.096-9.817.096-9.817zM26.624 114.865s-2.006-2.946-4.181-.962c-1.953 1.781.23 3.957.006 5.833-.183 1.534-.743 4.45.924 5.396 1.185.673 2.242.585 3.347-.45 3.781-3.54-.096-9.817-.096-9.817z" fill="#f9cc9f"/><path d="M51 154.135c-3.156.06-12.949-1.283-18.235-10.516-3.677-6.422-7.103-13.905-7.103-22.817 0-18.368 4.58-32.169 25.338-32.334h.001c20.758.165 25.339 13.966 25.339 32.334 0 8.912-3.427 16.395-7.103 22.817-5.287 9.233-15.08 10.576-18.236 10.516H51z" fill="#fee3c8"/><path d="M50.969 144.786c-6.65.141-9.455-3.768-8.818-4.725.242-.365 3.38 3.594 8.836 3.484h.027c5.456.11 8.593-3.849 8.836-3.484.636.957-2.168 4.866-8.818 4.725l-.032-.001-.031.001z" fill="#eb8560"/><path d="M51.901 124.981c-.152-.38-.519-.628-.928-.628-.409 0-.777.248-.929.628-.781 1.955-1.873 4.684-2.523 6.308-.123.308-.085.657.101.932.186.274.496.439.828.439h5.046c.332 0 .642-.165.828-.439.186-.275.223-.624.1-.932-.649-1.624-1.741-4.353-2.523-6.308z" fill="#f9cc9f"/><circle cx="38.201" cy="120.502" r="4.5" fill="#333e50"/><path d="M43.289 111.313c-.95-.595-3.209-.842-5.472-.536-2.536.342-4.663 1.044-4.613 1.657.07.87 3.142.316 5.904.447 2.027.095 3.663.52 4.204.255.764-.374.657-1.396-.023-1.823z" fill="#181e26"/><path d="M34.201 103.087c-5.963 4.143-8.296 10.979-8.296 10.979s-2.943-14.219 1.718-19.639c5.659-6.58 35.165-17.714 47.257-11.735 9.231 4.563 1.213 31.341 1.213 31.341s-3.017-9.238-10.282-12.322c-7.539-3.199-26.405-2.241-31.61 1.376z" fill="#333e50"/><circle cx="63.745" cy="120.502" r="4.5" fill="#333e50"/><path d="M58.655 111.313c.95-.595 3.21-.842 5.472-.536 2.536.342 4.663 1.044 4.613 1.657-.07.87-3.142.316-5.904.447-2.027.095-3.663.52-4.203.255-.765-.374-.658-1.396.022-1.823z" fill="#181e26"/><path d="M50.981 158.571c-15.4.361-22.762-17.146-23.565-20.652-2.005-8.749-1.849-25.826-1.849-25.826l2.341-3.06s.931 19.475 3.791 23.934c1.065 1.66 10.248 2.664 19.302 2.745 9.053-.081 18.236-1.085 19.301-2.745 2.86-4.459 3.791-23.934 3.791-23.934l2.519 3.12s-.022 17.017-2.027 25.766c-.803 3.506-8.164 21.013-23.565 20.652l-.019-.001-.02.001zm-.042-18.427c-5.26-.113-8.583-4.426-11.111-.54-1.874 2.881 3.666 7.366 11.173 7.086l.088.003c7.462.242 12.951-4.219 11.084-7.089-2.538-3.901-5.877.461-11.172.541l-.062-.001z" fill="#333e50"/><g><path d="M47.198 120.833c.094-.849-.177-1.697-.746-2.333-.569-.636-1.382-1-2.236-1H32.627c-.843 0-1.647.355-2.215.977-.568.622-.849 1.455-.773 2.295.145 1.593.317 3.486.455 5 .141 1.545 1.436 2.728 2.988 2.728h10.576c1.528 0 2.812-1.149 2.982-2.667.168-1.505.379-3.399.558-5zM54.749 120.833c-.095-.849.177-1.697.746-2.333.569-.636 1.382-1 2.236-1h11.588c.843 0 1.647.355 2.216.977.568.622.848 1.455.772 2.295-.145 1.593-.317 3.486-.454 5-.141 1.545-1.436 2.728-2.988 2.728H58.288c-1.528 0-2.812-1.149-2.981-2.667-.168-1.505-.379-3.399-.558-5z" fill="#f7f8fa" fill-opacity="0.5"/><path d="M60.49 117.5l2.538 11h-4l-2.482-10.756c.37-.159.773-.244 1.185-.244h2.759zM39.424 128.5h-4l-2.539-11h4l2.539 11z" fill="#f7f8fa" fill-opacity="0.3"/><path d="M51.226 121.209c.873.014 1.743.089 2.605.233.765.127 1.519.31 2.262.531l.159.049c.129.047.237.129.3.254.026.054.044.112.05.171.026.246-.139.48-.379.539-.074.018-.147.016-.222.003-.1-.026-.099-.029-.198-.059-.152-.046-.305-.089-.457-.132-.455-.122-.912-.23-1.374-.316-1.01-.188-2.038-.282-3.065-.274-1.038.009-2.074.121-3.091.328-.579.118-1.151.269-1.716.442l-.044.011c-.12.02-.239.008-.347-.053-.216-.12-.312-.39-.221-.619.022-.056.054-.108.094-.152.052-.057.113-.096.182-.128.122-.043.247-.077.37-.114.705-.202 1.418-.369 2.141-.488.76-.125 1.527-.195 2.296-.221.219-.005.436-.006.655-.005zM76.62 113.151c.081.006.157.026.228.066.192.111.289.342.235.557-.021.079-.06.147-.112.209-1.939 2.033-3.949 4.001-6.023 5.897-.063.051-.132.089-.211.107-.056.013-.113.016-.17.01-.257-.029-.454-.26-.443-.519.005-.117.052-.221.126-.311 1.94-2.033 3.95-4.001 6.023-5.897.074-.059.153-.095.245-.113.035-.005.068-.006.102-.006zM25.588 113.289c.115.009.215.048.305.121 2.011 1.853 3.961 3.775 5.844 5.758.066.078.11.168.123.27.033.264-.155.514-.418.556-.066.01-.134.007-.199-.009-.077-.019-.144-.057-.206-.106-2.011-1.853-3.961-3.775-5.844-5.759-.051-.06-.09-.127-.11-.204-.052-.198.025-.413.191-.533.064-.046.136-.073.214-.088.034-.004.066-.006.1-.006z" fill="#ff4722" fill-rule="nonzero"/></g></g><g fill="#fee3c8"><path d="M105.566 233.903s4.269-4.089 8.944-5.45c2.221-.646 10.2.155 13.223 1.5 4.032 1.794 6.676 4.16 1.497 6.747-6.699 3.345-19.151 5.352-19.151 5.352l-4.513-8.149z"/><path d="M26.774 187.17c-3.977 11.655 10.539 49.466 21.645 56.913 11.131 7.463 63.989-2.449 63.989-2.449l-6.677-7.743c-18.123 1.311-42.569-4.545-49.354-3.783-2.059-16.171-5.722-24.785-9.704-36.728l-19.899-6.21z"/></g><path d="M22.669 190.288c2.809 12.262 6.4 24.259 11.281 36.311 2.238-3.625 19.167-7.142 23.733-4.068l-6.142-29.932-22.885-9.716-5.987 7.405z" fill="#444f61"/><g><path d="M472.566 165.602c-2.911 7.391-3.51 15.285-2.52 23.524l8.577-9.82-6.057-13.704z" fill="#525f75"/><path fill="#cad2e0" d="M569.161 295.5h10.181v3h-10.181zM469.161 295.5h10.181v3h-10.181z"/><path d="M477.312 188c0-2.209 1.791-4 4-4h86c2.209 0 4 1.791 4 4v104h-94V188z" fill="#69768c"/><path d="M483.312 388c0 3.314 2.686 6 6 6h71c3.314 0 6-2.686 6-6v-86h-6v85c0 .552-.448 1-1 1h-69c-.552 0-1-.448-1-1v-85h-6v86z" fill="#cad2e0"/><path d="M574.312 295c0-.796-.316-1.559-.879-2.121-.563-.563-1.326-.879-2.121-.879h-94c-.796 0-1.559.316-2.122.879-.562.562-.878 1.325-.878 2.121v4c0 .796.316 1.559.878 2.121.563.563 1.326.879 2.122.879h94c.795 0 1.558-.316 2.121-.879.563-.562.879-1.325.879-2.121v-4zM583.312 274c-3.314 0-6 2.686-6 6v114c0 3.314 2.686 6 6 6 3.313 0 6-2.686 6-6V280c0-3.314-2.687-6-6-6zM465.312 274c-3.314 0-6 2.686-6 6v114c0 3.314 2.686 6 6 6 3.313 0 6-2.686 6-6V280c0-3.314-2.687-6-6-6z" fill="#525f75"/><path d="M556.279 186.819c.139-5.392-1.906-10.611-5.671-14.474-3.764-3.862-8.929-6.041-14.323-6.041h-23.691c-5.385 0-10.542 2.172-14.305 6.023-3.764 3.852-5.815 9.058-5.689 14.442.709 30.536 1.963 84.475 1.963 84.475h59.542s1.387-53.88 2.174-84.425z" fill="#d4712b"/><path d="M493.695 269.244l-1 22.695h63.541l-1-22.707-61.541.012z" fill="#333e50"/><path d="M530.488 384h20v2c0 .53-.211 1.039-.586 1.414s-.884.586-1.414.586h-16c-.531 0-1.039-.211-1.415-.586-.375-.375-.585-.884-.585-1.414v-2z" fill="#bcf5dd"/><path d="M533.488 379h14l3 5c-6.979 1.333-13.61 1.181-20 0l3-5zM533.488 371h14v8h-14z" fill="#1bc47e"/><path d="M537.196 379.502l.035.004.035.007.035.009.033.012.084.032.08.03.082.029.084.029.084.027.086.027.086.025.088.025.088.023.09.023.09.022.092.021.092.019.093.019.094.018.094.017.096.016.096.015.096.014.098.013.098.012.098.01.099.01.1.009.1.008.1.007.101.006.102.005.102.004.101.002.103.002.103.001h.102l.103-.002.104-.002.103-.004.103-.004.104-.006.104-.006.103-.008.104-.008.103-.01.104-.011.103-.011.103-.013.103-.014.103-.015.103-.016.102-.017.102-.018.102-.019.101-.02.101-.021.101-.022.1-.023.1-.025.099-.025.098-.026.098-.028.098-.028.096-.029.096-.031.096-.031.098-.034.034-.01.035-.008.035-.006.035-.003h.036l.036.002.035.005.035.007.034.01.034.012.033.015.031.017.03.019.029.021.027.023.026.025.023.027.022.028.02.03.017.031.015.032.013.034.01.034.008.035.006.035.003.035v.036l-.002.036-.005.035-.007.035-.01.034-.012.034-.015.033-.017.031-.019.03-.021.029-.023.027-.025.026-.027.023-.028.022-.03.02-.031.017-.032.015-.034.013-.103.035-.107.036-.107.034-.108.032-.108.032-.109.03-.11.03-.11.028-.11.027-.111.025-.111.025-.111.023-.112.022-.112.021-.112.02-.113.019-.113.017-.113.016-.113.016-.113.014-.114.013-.113.011-.113.011-.114.009-.114.009-.113.007-.114.006-.113.005-.113.003-.113.003-.114.002h-.113l-.112-.001-.112-.002-.113-.003-.112-.004-.111-.005-.111-.007-.111-.007-.111-.009-.11-.01-.11-.011-.109-.012-.108-.013-.109-.015-.107-.015-.107-.017-.107-.018-.106-.018-.105-.021-.104-.021-.104-.022-.103-.023-.103-.025-.102-.026-.1-.027-.1-.028-.1-.029-.098-.031-.097-.031-.097-.033-.095-.034-.095-.035-.09-.035-.033-.014-.031-.016-.031-.019-.029-.021-.027-.023-.026-.024-.024-.027-.022-.028-.02-.029-.018-.031-.015-.033-.014-.033-.01-.034-.009-.034-.006-.036-.003-.035-.001-.036.002-.035.004-.036.007-.035.009-.034.012-.034.014-.033.017-.032.018-.03.021-.029.023-.028.025-.025.026-.024.028-.022.03-.02.031-.018.032-.016.033-.013.034-.011.035-.008.035-.006.035-.003.036-.001.036.002zM537.196 377.502l.035.004.035.007.035.009.033.012.084.032.08.03.082.029.084.029.084.027.086.027.086.025.088.025.088.023.09.023.09.022.092.021.092.019.093.019.094.018.094.017.096.016.096.015.096.014.098.013.098.012.098.01.099.01.1.009.1.008.1.007.101.006.102.005.102.004.101.002.103.002.103.001h.102l.103-.002.104-.002.103-.004.103-.004.104-.006.104-.006.103-.008.104-.008.103-.01.104-.011.103-.011.103-.013.103-.014.103-.015.103-.016.102-.017.102-.018.102-.019.101-.02.101-.021.101-.022.1-.023.1-.025.099-.025.098-.026.098-.028.098-.028.096-.029.096-.031.096-.031.098-.034.034-.01.035-.008.035-.006.035-.003h.036l.036.002.035.005.035.007.034.01.034.012.033.015.031.017.03.019.029.021.027.023.026.025.023.027.022.028.02.03.017.031.015.032.013.034.01.034.008.035.006.035.003.035v.036l-.002.036-.005.035-.007.035-.01.034-.012.034-.015.033-.017.031-.019.03-.021.029-.023.027-.025.026-.027.023-.028.022-.03.02-.031.017-.032.015-.034.013-.103.035-.107.036-.107.034-.108.032-.108.032-.109.03-.11.03-.11.028-.11.027-.111.025-.111.025-.111.023-.112.022-.112.021-.112.02-.113.019-.113.017-.113.017-.113.015-.113.014-.114.013-.113.011-.113.011-.114.009-.114.009-.113.007-.114.006-.113.005-.113.003-.113.003-.114.001-.113.001-.112-.001-.112-.002-.113-.003-.112-.004-.111-.005-.111-.007-.111-.007-.111-.009-.11-.01-.11-.011-.109-.012-.109-.013-.108-.015-.107-.015-.107-.017-.107-.018-.106-.018-.105-.021-.104-.021-.104-.022-.103-.023-.103-.025-.102-.026-.1-.027-.1-.028-.1-.029-.098-.031-.097-.031-.097-.033-.095-.034-.095-.035-.09-.035-.033-.014-.031-.016-.031-.019-.029-.021-.027-.023-.026-.024-.024-.027-.022-.028-.02-.029-.018-.031-.015-.033-.014-.033-.01-.034-.009-.034-.006-.036-.003-.035-.001-.036.002-.035.004-.036.007-.035.009-.034.012-.034.014-.033.017-.032.018-.03.021-.029.023-.028.025-.025.026-.024.028-.022.03-.02.031-.018.032-.016.033-.013.034-.011.035-.008.035-.006.035-.003.036-.001.036.002zM537.196 375.502l.035.004.035.007.035.009.033.012.084.032.08.03.082.029.084.029.084.027.086.027.086.025.088.025.088.023.09.023.09.022.092.021.092.019.093.019.094.018.094.017.096.016.096.015.096.014.098.013.098.012.098.01.099.01.1.009.1.008.1.007.101.006.102.005.102.004.101.002.103.002.103.001h.102l.103-.002.104-.002.103-.004.104-.004.103-.006.103-.006.104-.008.104-.008.103-.01.104-.011.103-.011.103-.013.103-.014.103-.015.103-.016.102-.017.102-.018.102-.019.101-.02.101-.021.101-.022.1-.023.1-.025.099-.025.098-.026.098-.028.098-.028.096-.029.096-.031.096-.031.098-.034.034-.01.035-.008.035-.006.035-.003h.036l.036.002.035.005.035.007.034.01.034.012.033.015.031.017.03.019.029.021.027.023.026.025.023.027.022.028.02.03.017.031.015.032.013.034.01.034.008.035.006.035.003.035v.036l-.002.036-.005.035-.007.035-.01.034-.012.034-.015.033-.017.031-.019.03-.021.029-.023.027-.025.026-.027.023-.028.022-.03.02-.031.017-.032.015-.034.013-.103.035-.107.036-.107.034-.108.032-.108.032-.109.03-.11.03-.11.028-.11.027-.111.025-.111.025-.111.023-.112.022-.112.021-.112.02-.113.019-.113.017-.113.017-.113.015-.113.014-.114.013-.113.011-.113.011-.114.009-.114.009-.113.007-.114.006-.113.005-.113.003-.113.003-.114.001-.113.001-.112-.001-.112-.002-.113-.003-.112-.004-.111-.006-.111-.006-.111-.007-.111-.009-.11-.01-.11-.011-.109-.012-.109-.013-.108-.015-.107-.015-.107-.017-.107-.018-.106-.018-.105-.021-.104-.021-.104-.022-.103-.023-.103-.025-.102-.026-.1-.027-.1-.028-.099-.029-.099-.03-.097-.032-.097-.033-.095-.034-.095-.035-.09-.035-.033-.014-.031-.016-.031-.019-.029-.021-.027-.023-.026-.024-.024-.027-.022-.028-.02-.029-.018-.031-.015-.033-.014-.033-.01-.034-.009-.034-.006-.036-.003-.035-.001-.036.002-.035.004-.036.007-.035.009-.034.012-.034.014-.033.017-.032.018-.03.021-.029.023-.028.025-.025.026-.024.028-.022.03-.02.031-.018.032-.016.033-.013.034-.011.035-.008.035-.006.035-.003.036-.001.036.002z" fill="#0e8754"/><path d="M529.024 289.565c0-2.424 1.054-4.749 2.929-6.464 1.875-1.714 4.419-2.677 7.071-2.677h3.483c2.652 0 5.196.963 7.071 2.677 1.876 1.715 2.763 4.046 2.929 6.464 1.534 22.291.797 61.161-2.827 86.125h-18.86c.098-13.506-1.796-63.23-1.796-86.125z" fill="#444f61"/><g><path d="M518.431 384h-20v2c0 .53.211 1.039.586 1.414s.884.586 1.414.586h16c.531 0 1.039-.211 1.414-.586.376-.375.586-.884.586-1.414v-2z" fill="#bcf5dd"/><path d="M515.431 379h-14l-3 5c6.979 1.333 13.61 1.181 20 0l-3-5zM501.431 371h14v8h-14z" fill="#1bc47e"/><path d="M511.795 379.501l.035.003.035.006.035.008.034.011.033.013.032.016.031.018.03.02.028.022.027.024.024.025.023.028.021.029.018.03.017.032.014.033.012.034.009.034.007.035.004.036.002.035-.001.036-.003.035-.006.036-.009.034-.01.034-.014.034-.015.032-.018.031-.02.029-.022.028-.024.027-.026.024-.027.023-.029.021-.031.019-.031.016-.033.014-.09.035-.095.035-.095.034-.097.033-.097.031-.098.031-.1.029-.1.028-.1.027-.102.026-.103.025-.103.023-.104.022-.104.021-.105.021-.106.018-.107.018-.107.017-.107.015-.109.015-.108.013-.109.012-.11.011-.11.01-.111.009-.111.007-.111.007-.111.005-.112.004-.113.003-.112.002-.112.001h-.113l-.114-.002-.113-.003-.113-.003-.113-.005-.114-.006-.113-.007-.114-.009-.114-.009-.113-.011-.113-.011-.114-.013-.113-.014-.113-.016-.113-.016-.113-.017-.113-.019-.112-.02-.112-.021-.112-.022-.111-.023-.111-.025-.111-.025-.11-.027-.11-.028-.11-.03-.109-.03-.108-.032-.108-.032-.107-.034-.107-.036-.103-.035-.034-.013-.032-.015-.031-.017-.03-.02-.028-.022-.027-.023-.025-.026-.023-.027-.021-.029-.019-.03-.017-.031-.015-.033-.012-.034-.01-.034-.007-.035-.005-.035-.002-.036.001-.036.002-.035.006-.035.008-.035.01-.034.013-.034.015-.032.017-.031.02-.03.022-.028.023-.027.026-.025.027-.023.029-.021.03-.019.031-.017.033-.015.034-.012.034-.01.035-.007.035-.005.036-.002h.036l.035.003.035.006.035.008.034.01.098.034.095.031.097.031.096.029.098.028.098.028.098.026.099.025.1.025.1.023.101.022.101.021.101.02.102.019.102.018.102.017.103.016.103.015.103.014.103.013.103.011.104.011.103.01.104.008.103.008.104.006.104.006.103.004.103.004.104.002.103.002h.102l.103-.001.103-.002.101-.002.102-.004.102-.005.101-.006.1-.007.1-.008.1-.009.099-.01.098-.01.098-.012.098-.013.096-.014.096-.015.096-.016.094-.017.094-.018.093-.019.092-.019.092-.021.09-.022.09-.023.088-.023.088-.025.086-.025.086-.027.084-.027.084-.029.082-.029.08-.03.084-.032.033-.012.035-.009.035-.007.035-.004.036-.002.036.001zM511.795 377.501l.035.003.035.006.035.008.034.011.033.013.032.016.031.018.03.02.028.022.027.024.024.025.023.028.021.029.018.03.017.032.014.033.012.034.009.034.007.035.004.036.002.035-.001.036-.003.035-.006.036-.009.034-.01.034-.014.034-.015.032-.018.031-.02.029-.022.028-.024.027-.026.024-.027.023-.029.021-.031.019-.031.016-.033.014-.09.035-.095.035-.095.034-.097.033-.097.031-.098.031-.1.029-.1.028-.1.027-.102.026-.103.025-.103.023-.104.022-.104.021-.105.021-.106.018-.107.018-.107.017-.107.015-.108.015-.109.013-.11.012-.109.011-.11.01-.111.009-.111.007-.111.007-.111.005-.112.004-.113.003-.112.002-.112.001-.113-.001-.114-.001-.113-.003-.113-.003-.113-.005-.114-.006-.113-.007-.114-.009-.114-.009-.113-.011-.113-.011-.114-.013-.113-.014-.113-.015-.113-.017-.113-.017-.113-.019-.112-.02-.112-.021-.112-.022-.111-.023-.111-.025-.111-.025-.11-.027-.11-.028-.11-.03-.109-.03-.108-.032-.108-.032-.107-.034-.107-.036-.103-.035-.034-.013-.032-.015-.031-.017-.03-.02-.028-.022-.027-.023-.025-.026-.023-.027-.021-.029-.019-.03-.017-.031-.015-.033-.012-.034-.01-.034-.007-.035-.005-.035-.002-.036.001-.036.002-.035.006-.035.008-.035.01-.034.013-.034.015-.032.017-.031.02-.03.022-.028.023-.027.026-.025.027-.023.029-.021.03-.019.031-.017.033-.015.034-.012.034-.01.035-.007.035-.005.036-.002h.036l.035.003.035.006.035.008.034.01.098.034.095.031.097.031.096.029.098.028.098.028.098.026.099.025.1.025.1.023.101.022.101.021.101.02.102.019.102.018.102.017.103.016.103.015.103.014.103.013.103.011.104.011.103.01.104.008.103.008.104.006.104.006.103.004.103.004.104.002.103.002h.102l.103-.001.103-.002.101-.002.102-.004.102-.005.101-.006.1-.007.1-.008.1-.009.099-.01.098-.01.098-.012.098-.013.096-.014.096-.015.096-.016.094-.017.094-.018.093-.019.092-.019.092-.021.09-.022.09-.023.088-.023.088-.025.086-.025.086-.027.084-.027.084-.029.082-.029.08-.03.084-.032.033-.012.035-.009.035-.007.035-.004.036-.002.036.001zM511.795 375.501l.035.003.035.006.035.008.034.011.033.013.032.016.031.018.03.02.028.022.027.024.024.025.023.028.021.029.018.03.017.032.014.033.012.034.009.034.007.035.004.036.002.035-.001.036-.003.035-.006.036-.009.034-.01.034-.014.034-.015.032-.018.031-.02.029-.022.028-.024.027-.026.024-.027.023-.029.021-.031.019-.031.016-.033.014-.09.035-.095.035-.095.034-.097.033-.097.032-.099.03-.099.029-.1.028-.1.027-.102.026-.103.025-.103.023-.104.022-.104.021-.105.021-.106.018-.107.018-.107.017-.107.015-.108.015-.109.013-.11.012-.109.011-.11.01-.111.009-.111.007-.111.006-.111.006-.112.004-.113.003-.112.002-.112.001-.113-.001-.114-.001-.113-.003-.113-.003-.113-.005-.114-.006-.114-.007-.113-.009-.114-.009-.113-.011-.113-.011-.114-.013-.113-.014-.113-.015-.113-.017-.113-.017-.113-.019-.112-.02-.112-.021-.112-.022-.111-.023-.111-.025-.111-.025-.11-.027-.11-.028-.11-.03-.109-.03-.108-.032-.108-.032-.107-.034-.107-.036-.103-.035-.034-.013-.032-.015-.031-.017-.03-.02-.028-.022-.027-.023-.025-.026-.023-.027-.021-.029-.019-.03-.017-.031-.015-.033-.012-.034-.01-.034-.007-.035-.005-.035-.002-.036.001-.036.002-.035.006-.035.008-.035.01-.034.013-.034.015-.032.017-.031.02-.03.022-.028.023-.027.026-.025.027-.023.029-.021.03-.019.031-.017.033-.015.034-.012.034-.01.035-.007.035-.005.036-.002h.036l.035.003.035.006.035.008.034.01.098.034.095.031.097.031.096.029.098.028.098.028.098.026.099.025.1.025.1.023.101.022.101.021.101.02.102.019.102.018.102.017.103.016.103.015.103.014.103.013.103.011.104.011.103.01.104.008.104.008.103.006.103.006.104.004.103.004.104.002.103.002h.102l.103-.001.103-.002.101-.002.102-.004.102-.005.101-.006.1-.007.1-.008.1-.009.099-.01.098-.01.098-.012.098-.013.096-.014.096-.015.096-.016.094-.017.094-.018.093-.019.092-.019.092-.021.09-.022.09-.023.088-.023.088-.025.086-.025.086-.027.084-.027.084-.029.082-.029.08-.03.084-.032.033-.012.035-.009.035-.007.035-.004.036-.002.036.001z" fill="#0e8754"/></g><path d="M519.895 289.565c0-2.424-1.054-4.749-2.929-6.464-1.875-1.714-4.419-2.677-7.071-2.677h-3.483c-2.652 0-5.196.963-7.071 2.677-1.876 1.715-2.763 4.046-2.929 6.464-1.534 22.291-.797 61.161 2.827 86.125h18.86c-.098-13.506 1.796-63.23 1.796-86.125z" fill="#444f61"/><g><path d="M500.111 113.896s-2.089-2.798-3.902-1.14c-1.95 1.785.566 4.391.342 6.267-.183 1.534-.743 4.45.923 5.396 1.185.673 1.627.329 2.733-.706 3.781-3.54-.096-9.817-.096-9.817zM548.82 113.896s2.089-2.798 3.902-1.14c1.95 1.785-.566 4.391-.342 6.267.183 1.534.743 4.45-.923 5.396-1.185.673-1.627.329-2.733-.706-3.781-3.54.096-9.817.096-9.817z" fill="#aa5e27"/><path d="M530.959 149.673h-13l-4 21.092h21l-4-21.092z" fill="#d4712b"/><clipPath id="e"><path d="M530.959 149.673h-13l-4 21.092h21l-4-21.092z"/></clipPath><g clip-path="url(#e)"><path d="M513.959 152.314c4.984 5.424 16.101 5.751 21.117.186l-10.617-4.5-10.5 4.314z" fill="#181e26" fill-opacity="0.15"/></g><path d="M524.459 87.5h-.01l-.242.003c-20.535.278-25.078 14.04-25.078 32.331 0 8.911.865 12.887 4.541 19.309 2.447 4.274 4.606 7.168 8.004 9.599 3.463 2.479 8.546 5.39 12.775 5.273l.01-.001.009.001c4.23.117 9.313-2.794 12.776-5.273 3.397-2.431 5.557-5.325 8.003-9.599 3.676-6.422 4.541-10.398 4.541-19.309 0-18.291-4.542-32.053-25.077-32.331l-.243-.003h-.009z" fill="#d4712b"/><circle cx="511.68" cy="120.796" r="4.5" fill="#181e26"/><path d="M516.948 109.505c-.999-.506-5.138-.433-7.363.078-2.494.572-3.339 1.304-2.959 1.787.496.629 9.774.05 10.163-.013.841-.135.876-1.489.159-1.852z" fill="#333e50"/><path d="M525.365 124.718c-.162-.359-.519-.59-.912-.59-.394 0-.751.231-.912.59-.878 1.951-2.183 4.851-2.954 6.563-.139.309-.112.668.073.953.184.285.5.457.839.457h5.907c.339 0 .656-.172.84-.457.184-.285.211-.644.072-.953-.77-1.712-2.075-4.612-2.953-6.563z" fill="#aa5e27"/><circle cx="537.237" cy="120.796" r="4.5" fill="#181e26"/><path d="M531.969 109.505c1-.506 5.138-.433 7.364.078 2.493.572 3.339 1.304 2.958 1.787-.496.629-9.773.05-10.163-.013-.841-.135-.875-1.489-.159-1.852z" fill="#333e50"/><path d="M509.561 101.091c-7.219 2.613-10.409 19.442-10.409 19.442s-11.869-37.274 24.169-37.9c38.119-.661 26.463 37.9 26.463 37.9s-5.036-17.309-10.841-19.472c-8.516-3.172-22.774-2.363-29.382.03z" fill="#181e26"/><path d="M533.922 138c-6.16.91-12.167.968-17.99 0 0 0 .558 7.141 8.55 7.428 6.757.243 9.44-7.428 9.44-7.428z" fill="#fff"/></g><path d="M507.186 191.312c-11.253 5.001-52.02-7.727-60.429-18.124-8.427-10.42-1.464-62.305-1.464-62.305l8.308 5.959c2.044 19.465 1.826 33.958 8.176 48.819 16.29.607 24.857 7.378 37.447 6.386l7.962 19.265z" fill="#d4712b"/><path d="M565.471 217.149c7.969-2.972 13.099-9.015 16.298-17.149l-12.779 2.585-3.519 14.564z" fill="#525f75"/><path d="M514.805 166.304s8.627 9.098 9.592 9.088c.964-.01 9.541-9.29 9.541-9.29 4.715-.367 14.505 1.682 21.624 6.727C566.166 180.345 567.29 184 567.29 184l-10.356 23.371-.829 62.861c-20.719 3.402-40.47 3.696-63.542.012l-1.741-73.782-20.776-7.336c4.228-6.837 5.385-14.58 2.52-23.524 0 0 34.669-.138 42.239.702z" fill="#cad2e0"/><path d="M551.219 173.897c12.08 2.394 38.07 36.284 38.954 49.626.885 13.372-48.371 26.342-48.371 26.342l-3.358-9.657c5.891-3.224 23.106-11.185 35.116-19.185-7.118-5.386-18.12-16.208-26.931-26.792l4.59-20.334z" fill="#d4712b"/><path d="M556.934 207.371L533.087 200l.851-33.898c4.715-.367 15.165 1.746 22.717 6.117C569.426 179.611 581.769 200 581.769 200c-9.066 3.649-13.85 9.735-16.298 17.149l-8.537-9.778z" fill="#cad2e0"/><circle cx="523.512" cy="210.229" r="20.837" fill="#9da9bd"/><clipPath id="f"><circle cx="523.512" cy="210.229" r="20.837"/></clipPath><g clip-path="url(#f)"><g fill="#cad2e0"><ellipse cx="523.7" cy="207.995" rx="9.613" ry="7.69"/><path d="M529.468 217.608c0-3.183-2.584-5.768-5.768-5.768-3.183 0-5.767 2.585-5.767 5.768v17.574h11.535v-17.574zM516.122 199.52c-.005-.437.237-.839.626-1.039.389-.199.857-.162 1.209.096 1.628 1.193 3.735 2.737 3.735 2.737l-5.519 2.836s-.029-2.612-.051-4.63zM531.279 199.52c.005-.437-.237-.839-.626-1.039-.389-.199-.857-.162-1.209.096-1.628 1.193-3.735 2.737-3.735 2.737l5.519 2.836s.029-2.612.051-4.63z"/><path d="M518.779 214.601c-2.239 2.271-3.841 6.205-6.315 4.636-3.124-1.98-.668-7.018-1.598-7.958-.93-.939-1.891.3-2.258 1.628-.366 1.327-1.157 6.989 2.934 8.823 4.405 1.976 8.754-2.284 8.754-2.284l-1.517-4.845z"/></g></g><g><path d="M542.702 249.368s-4.433 2.948-10.411 4.468c-3.622.92-8.168.636-11.178-.739-5.578-2.549-6.603-6.08-2.915-7.551 6.758-2.697 11.92-.13 12.492-3.34.283-1.59-4.216-2.26-7.327-2.047-1.643.113-2.335-1.848 2.847-2.834 1.754-.334 6.274-.113 8.091.539 3.787 1.358 7.879 4.812 7.879 4.812l.522 6.692z" fill="#aa5e27"/><g fill="#edf0f5"><path d="M531.404 230.539l-19.963 1.221.244 3.993 19.963-1.221-.244-3.993z"/><path d="M530.406 230.6c-.102-1.654-1.524-2.912-3.178-2.811-3.324.203-8.657.529-11.98.733-1.652.101-2.91 1.522-2.809 3.175v.002l17.967-1.099z"/></g><path d="M530.65 234.593l-17.967 1.099 3.816 29.822 13.998-.856.153-30.065z" fill="#ff7f65"/><path d="M542.702 249.368s-4.433 2.948-10.411 4.468c-3.622.92-8.168.636-11.178-.739-5.578-2.549-6.603-6.08-2.915-7.551 6.758-2.697 11.92-.13 12.492-3.34.283-1.59 1.794-4.994 3.611-4.342 3.787 1.358 7.879 4.812 7.879 4.812l.522 6.692z" fill="#d4712b"/></g><path d="M446.873 118.092s-4.101-3.564-6.019-9.428c-1.161-3.551-2.493-7.842-1.323-10.937 2.169-5.737 4.539-8.482 7.339-3.416 3.518 6.369 3.453 11.389 6.342 11.315 1.615-.041.127-3.986-.295-7.076-.222-1.632 1.93-2.454 3.262 2.651.45 1.728 1.597 6.937 1.068 8.795-1.1 3.869-3.732 7.126-3.732 7.126l-6.642.97z" fill="#d4712b"/></g><g><path d="M656.103 179.145c-20.384 45.944-27.69 91.327-25.271 138 .508 9.8 35.485 8.58 51.409 8.869 20.317.368 55.796-1.582 55.42-8.869-2.52-48.825-12.93-94.493-32.519-138h-49.039z" fill="#6de8b5"/><path d="M652.342 131.487c-.674-8.538 4.761-16.368 12.996-18.722 3.776-1.08 6.829-1.953 6.829-1.953h16.693s3.086.881 6.893 1.968c8.216 2.347 13.651 10.148 13.005 18.669-1.842 24.295-5.33 70.302-5.33 70.302h-45.541s-3.627-45.959-5.545-70.264z" fill="#aa5822"/><path d="M669.299 8.187c0-5.708 22.321-15.156 41.688.02 12.108 9.486 10.014 25.463 5.07 28.318 14.298-2.382 15.967 18.372 2.189 20.609 14.109 7.116 1.515 31.36-10.825 25.067 2.855 4.944 2.398 10.39-3.722 13.352-5.138 2.487-10.858-1.215-13.712-6.159 0 5.709-17.379 7.333-17.379 1.624-2.854 4.944-10.503 8.812-17.609 4.873-6.026-3.34-6.47-11.897-3.616-16.841-14.985 7.057-26.236-23.241-10.343-30.723-6.422-.118-4.917-9.787.296-9.147-12.089-4.654-1.307-27.636 12.03-21.539-2.445-7.902 12.063-14.289 15.933-9.454z" fill="#333e50"/><path d="M674.026 93.966h13l2 18.093h-17l2-18.093z" fill="#aa5822"/><clipPath id="g"><path d="M674.026 93.966h13l2 18.093h-17l2-18.093z"/></clipPath><g clip-path="url(#g)"><path d="M691.098 95.216c-2.473 2.691-3.995 5.671-10.577 5.642-6.746-.029-8.719-2.782-10.402-5.737l10.407-2.828 10.572 2.923z" fill="#181e26" fill-opacity="0.15"/></g><ellipse cx="680.568" cy="64.532" rx="25.57" ry="33.482" fill="#aa5822"/><path d="M682.466 73.237c-.411-.71-1.173-1.144-1.993-1.134-.821.009-1.572.461-1.966 1.18-.573 1.048-1.169 2.138-1.629 2.978-.17.31-.163.686.017.99.18.304.507.49.86.49h5.58c.358 0 .688-.191.867-.5.178-.31.178-.691-.001-1.001-.491-.849-1.127-1.95-1.735-3.003z" fill="#7d441c"/><circle cx="692.528" cy="66.166" r="4.5" fill="#181e26"/><circle cx="668.608" cy="66.166" r="4.5" fill="#181e26"/><path d="M673.15 55.612c-2.034-1.808-10.756.64-9.91 2.287.22.431 7.769-.047 9.756-.294.604-.075.548-1.642.154-1.993zM687.992 55.612c2.034-1.808 10.755.64 9.91 2.287-.221.431-7.769-.047-9.756-.294-.605-.075-.548-1.642-.154-1.993z" fill="#333e50"/><path d="M674.89 86.496s-.256 4.281 5.678 4.244c6.707-.041 6.306-4.537 6.306-4.537l-11.984.293z" fill="#853c2d"/><path d="M674.899 86.819c.561-2.662 3.747-3.855 5.669-2.561 2.402-1.616 5.573-.347 6.31 2.022l-11.979.539z" fill="#853c2d"/><path d="M669.639 83.357c6.929 5.365 14.711 4.637 21.858-.573 0 0-4.043 5.625-11.28 5.384-6.75-.226-10.578-4.811-10.578-4.811z" fill="#672e23"/><path d="M666.342 28.582l3.996-4.923 35.081-.566 9.422 41.439c-8.028-1.269-18.735-6.734-19.811-16.721-2.331 3.614-12.502 2.6-13.39-1.894-3.018 2.548-6.826.683-7.703-1.249-.152 5.109-7.73 8.083-11.479 4.229-2.206 10.204-14.695 9.07-14.417 4.657l6.068-25.169 12.233.197z" fill="#333e50"/><path d="M708.73 131.818c13.348-.612 48.687-11.251 54.603-23.243 4.172-8.456 7.464-19.739 14.486-43.006l-7.218-2.648c-8.283 13.639-12.31 25.059-18.991 39.214-15.995 5.04-51.848 11.952-56.026 10.597 0 0 1.289 14.662-.265 17.701l13.411 1.385z" fill="#aa5822"/><path d="M770.572 62.969c-.192-2.834-.989-7.137.517-9.894 2.773-5.079 3.972-10.546 5.277-9.607 1.798 1.294-2.231 9.522-1.44 9.849 1.913.791 6.649-9.65 10.438-12.424 1.812-1.327 3.296 9.64 1.721 13.819 0 0-1.117 4.91-9.291 10.94l-4.651 2.227-2.571-4.91z" fill="#aa5822"/><g fill="#aa5822"><path d="M656.621 118.349c-15.006 3.539-24.872 59.181-22.843 72.643 1.984 13.157 11.541 55.414 11.541 55.414l7.589-1.933c-.658-13.336 1.515-29.897-3.386-54.238.11-17.229 18.621-77.446 19.69-76.811l-12.591 4.925z"/><path d="M651.509 246.211c1.837 1.979 4.414 4.262 5.065 7.126 1.198 5.276 3.492 7.499 1.996 7.648-2.06.205-4.088-5.729-4.836-5.444-1.137.435.914 2.575 1.636 6.905.369 2.208-5.01 1.911-5.866.59 0 0-4.869-5.662-4.189-16.657l2.75-.611 3.444.443z"/></g><g><path d="M672.344 191.145c-6.536 2.14-19.138 19.413-21.885 30.897-6.492 27.135-4.06 59.638 7.323 82.103-10.633 13.875 1.938 73.652 1.938 73.652l-3.917 19.641 18.515.305-4.019-19.779 7.499-72.185 2.278-77.972-7.732-36.662z" fill="#aa5822"/><path d="M654.814 400c-.502 0-.971-.251-1.249-.67-.278-.418-.329-.948-.134-1.411 1.359-3.17 4.824-8.847 12.245-8.81 6.6.033 9.668 5.728 10.859 8.868.171.46.107.974-.173 1.377-.28.403-.74.643-1.23.643-4.583.003-15.664.003-20.318.003zM658.938 375.9h12v3h-12z" fill="#00c875"/></g><g><path d="M689.651 191.145c6.535 2.14 19.137 19.413 21.885 30.897 6.491 27.135 4.06 59.638-7.324 82.103 10.633 13.875-1.937 73.652-1.937 73.652l3.917 19.641-18.516.305 4.019-19.779-7.499-72.185-2.278-77.972 7.733-36.662z" fill="#aa5822"/><path d="M707.18 400c.502 0 .972-.251 1.25-.67.278-.418.328-.948.133-1.411-1.359-3.17-4.824-8.847-12.245-8.81-6.6.033-9.668 5.728-10.858 8.868-.172.46-.107.974.173 1.377.28.403.739.643 1.23.643 4.583.003 15.663.003 20.317.003zM691.057 375.9h12v3h-12z" fill="#00c875"/></g><path d="M672.163 110.813s-13.482.975-20.814 8.086c-5.846 5.669-12.518 31.972-12.518 31.972l15.874 10.565.451 5.709h50.895l2.679-35.327c5.135-.172 10.553-.943 16.597-3.033l-3.478-19.474c-11.318 1.457-28.535 2.88-32.96 1.509l-16.726-.007z" fill="#00e686"/><clipPath id="h"><path d="M672.163 110.813s-13.482.975-20.814 8.086c-5.846 5.669-12.518 31.972-12.518 31.972l15.874 10.565.451 5.709h50.895l2.679-35.327c5.135-.172 10.553-.943 16.597-3.033l-3.478-19.474c-11.318 1.457-28.535 2.88-32.96 1.509l-16.726-.007z"/></clipPath><g clip-path="url(#h)"><path d="M654.712 161.516c-1.236 2.806.143 9.271 2.327 5.629-.002-1.908 1.618-14.778 1.356-28.934l-3.683 23.305z" fill="#181e26" fill-opacity="0.15"/></g><path d="M656.103 179.145c-20.384 45.944-27.69 91.327-25.271 138-.444-8.557 15.524-4.648 25.527-1.756 9.138 2.641 41.558 4.428 50.765 2.699 8.703-1.634 27.053-11.681 30.537-.943-2.52-48.825-12.93-94.493-32.519-138h-49.039z" fill="#bcf5dd"/><path d="M706.328 176.683c.011-.139-.037-.276-.132-.378-.094-.102-.227-.16-.366-.16h-50.419c-.139 0-.272.058-.367.161-.095.102-.142.239-.132.378.044.57.113 1.461.155 2 .02.26.237.461.499.461h50.112c.262 0 .479-.201.499-.462.041-.539.108-1.43.151-2z" fill="#6de8b5"/></g><g><path d="M350.484 37.532c31.866-.197 30.819 33.659 26.622 50.205-1.662 6.552-9.741 20.494-14.492 23.011h-24.246c-3.398-3.206-10.012-9.903-12.652-17.422-7.706-21.948-9.29-55.584 24.768-55.794z" fill="#444f61"/><path d="M373.838 69.341s2.089-2.799 3.902-1.14c1.95 1.785-.565 4.391-.342 6.267.183 1.533.744 4.45-.923 5.396-1.185.673-1.627.329-2.732-.706-3.782-3.54.095-9.817.095-9.817z" fill="#f9cc9f"/><path d="M343.991 104.179h13l2 21.093h-17l2-21.093z" fill="#fee3c8"/><clipPath id="i"><path d="M343.991 104.179h13l2 21.093h-17l2-21.093z"/></clipPath><g clip-path="url(#i)"><path d="M361.064 105.429c-2.473 2.691-6.907 5.644-10.577 5.643-3.583-.002-8.72-2.783-10.403-5.738l10.407-2.827 10.573 2.922z" fill="#181e26" fill-opacity="0.15"/></g><path d="M327.129 69.341s-2.089-2.799-3.901-1.14c-1.951 1.785.565 4.391.341 6.267-.183 1.533-.743 4.45.923 5.396 1.186.673 1.627.329 2.733-.706 3.781-3.54-.096-9.817-.096-9.817z" fill="#f9cc9f"/><path d="M350.491 41.42c-13.384.001-24.25 14.937-24.25 33.334 0 18.398 15.203 33.503 24.232 33.335h.037c9.028.168 24.231-14.937 24.231-33.335 0-18.397-10.866-33.333-24.25-33.334z" fill="#fee3c8"/><path d="M349.824 79.132c.093-.291.362-.488.667-.488.305 0 .575.197.667.488.713 2.241 1.821 5.724 2.419 7.6.096.304.042.636-.146.894-.188.257-.488.41-.807.41h-4.265c-.319 0-.619-.153-.807-.41-.189-.258-.243-.59-.146-.894.597-1.876 1.705-5.359 2.418-7.6z" fill="#f9cc9f"/><circle cx="362.772" cy="76.227" r="4" fill="#333e50"/><circle cx="338.21" cy="76.227" r="4" fill="#333e50"/><path d="M356.836 96.414s-1.622 4.123-6.352 4.113c-4.601-.009-6.337-3.904-6.337-3.904l12.689-.209z" fill="#f5af96"/><path d="M356.795 96.479c-.982-.846-4.093-2.397-6.311-.894-2.215-1.403-5.427.218-6.189 1.123l6.237 1.679 6.263-1.908z" fill="#f5af96"/><path d="M359.836 94.414c-5.337 3.577-11.563 4.346-18.689.209 0 0 2.252 3.64 8.841 3.803 7.402.183 9.848-4.012 9.848-4.012z" fill="#eb8560"/><path d="M376.15 62.027l-1.8 6.743-15.328-17.09-32.392 17.103-2.339-6.756s1.955-23.565 26.226-23.569c23.383-.003 24.719 22.917 25.633 23.569z" fill="#444f61"/><path d="M357.653 66.063c.918-.473 3.716-.884 5.812-.698 2.434.215 5.053 2.453 4.855 2.984-.131.351-2.328-1.064-5.113-1.311-1.856-.164-4.155 1.016-4.937 1.24-.958.275-1.483-1.769-.617-2.215zM343.329 66.063c-.918-.473-3.716-.884-5.812-.698-2.433.215-5.053 2.453-4.855 2.984.131.351 2.329-1.064 5.113-1.311 1.857-.164 4.155 1.016 4.937 1.24.958.275 1.483-1.769.617-2.215z" fill="#525f75"/><path d="M322.912 147.222c-.491-6.654 1.811-13.212 6.352-18.099 4.541-4.888 10.911-7.665 17.583-7.665h7.09c6.659 0 13.02 2.767 17.559 7.639 4.54 4.873 6.851 11.413 6.381 18.056-1.905 26.892-4.62 65.244-4.62 65.244h-45.542s-2.821-38.287-4.803-65.175z" fill="#fee3c8"/><path d="M358.207 220c6.535 2.14 19.137 9.413 21.885 20.897 6.491 27.135.063 53.06-7.324 77.103 5.334 12.948-4 77-4 77h-8l-5-77-5.294-71.338L358.207 220zM342.742 220c-6.536 2.14-19.138 9.413-21.885 20.897-6.492 27.135-.063 53.06 7.323 77.103-5.334 12.948 4 77 4 77h8l5-77 5.294-71.338L342.742 220z" fill="#fdd1a5"/><path d="M359.723 212.433l13.535.016c12.083 27.777 15.287 49.959.894 105.442 0 0 1.9 15.439-.384 31.109h-15.987l-7.285-102.039-.01-.039-7.285 102.028h-15.986c-2.284-15.67-.384-31.108-.384-31.108-14.393-55.484-11.189-77.665.894-105.443l32.017-.036-.019.07z" fill="#444f61"/><clipPath id="j"><path d="M359.723 212.433l13.535.016c12.083 27.777 15.287 49.959.894 105.442 0 0 1.9 15.439-.384 31.109h-15.987l-7.285-102.039-.01-.039-7.285 102.028h-15.986c-2.284-15.67-.384-31.108-.384-31.108-14.393-55.484-11.189-77.665.894-105.443l32.017-.036-.019.07z"/></clipPath><g clip-path="url(#j)" fill="#525f75"><path d="M379.527 229.221s-11.142.854-15.853-5.194-3.394-11.654-3.394-11.654l13.003.084c3.375 4.855 6.502 9.85 6.244 16.764zM321.456 229.221s11.142.854 15.853-5.194 3.394-11.654 3.394-11.654l-13.003.084c-3.375 4.855-6.502 9.85-6.244 16.764z"/></g><g><path d="M431.957 214.429c-.124-1.375-1.341-2.389-2.715-2.265l-70.71 6.409c-1.374.124-2.389 1.341-2.264 2.715l4.061 44.817c.125 1.374 1.342 2.388 2.716 2.264l70.71-6.409c1.374-.124 2.389-1.341 2.264-2.715l-4.062-44.816z" fill="#69768c"/><path d="M388.692 250.718c-.672-.718 3.631-13.343 8.133-11.565.301.119 1.342.995 1.478 1.237 2.136 3.799-8.942 11.042-9.611 10.328zm10.168-11.542c1.017-.156 2.147-.573 2.716-1.252 0 0 2.974.905 2.699-1.092-.198-1.438-4.46-.71-5.415 2.344zm-1.318-.874c.036-1.044.374-1.938.937-2.716-.401-.55-.064-1.665.651-1.772 0 0-1.423-2.456-.529-3.238 2.75-2.41 3.431 5.362-1.059 7.726z" fill="#525f75"/></g><g fill="#fee3c8"><path d="M372.838 127.342c11.262 7.189 24.48 54.157 23.808 67.755-.657 13.289-2.633 54.88-2.633 54.88l-6.202 1.051c-.68-13.335-7.89-31.366-3.603-56.52-5.574-14.366-8.083-41.476-19.069-48.262l7.699-18.904z"/><path d="M387.834 250.402c-1.629 2.153-3.965 4.682-4.325 7.597-.664 5.369-2.724 7.811-1.221 7.81 2.07-.003 3.494-6.11 4.266-5.901 1.176.319-.651 2.653-.936 7.034-.146 2.234 5.176 1.4 5.896 0 0 0 4.277-6.121 2.5-16.993l-2.797-.333-3.383.786z"/></g><path d="M327.818 400c-.343 0-.662-.175-.845-.465-.184-.29-.206-.654-.059-.964 1.192-2.43 4.395-7.11 11.438-7.034 4.813.053 6.901 4.816 7.641 7.172.092.303.035.631-.153.885s-.486.404-.802.404c-3.555.002-13.449.002-17.22.002zM373.13 400c.343 0 .662-.175.846-.465.183-.29.205-.654.058-.964-1.191-2.43-4.395-7.11-11.438-7.034-4.812.053-6.901 4.816-7.64 7.172-.092.303-.036.631.152.885.189.254.486.404.802.404 3.555.002 13.45.002 17.22.002z" fill="#ff7f65"/><path d="M341.58 141.38c-9.782 9.101-46.431 22.039-58.722 16.772-8.667-3.713-16.969-33.903-18.666-47.598l5.859-.806c6.378 14.38 11.672 22.808 17.854 37.045 12.868-1.511 30.934-10.546 40.492-17.19 1.809-1.258 4.772 4.434 7.927 5.733l5.256 6.044z" fill="#fee3c8"/><path d="M270.051 109.748c-.741-2.742-2.055-10.042-4.377-12.159-4.276-3.9-7.19-8.678-8.118-7.365-1.278 1.808 5.21 8.276 4.569 8.843-1.551 1.37-9.429-6.96-13.914-8.349-2.146-.665-.148 10.32 3.265 13.445 0 0 3.119 4.086 12.812 7.126l4.264.966 1.499-2.507z" fill="#fee3c8"/><g><path d="M373.263 212.448s6.351-52.917 7.343-75.166c.252-5.649-3.475-10.708-8.945-12.142l-9.17-2.095s-2.144 6.563-12.014 6.563c-9.871 0-11.986-6.649-11.986-6.649l-9.185 2.181c-5.47 1.434-9.197 6.493-8.945 12.142.992 22.249 7.354 75.115 7.354 75.115 15.783 4.915 30.958 4.866 45.548.051z" fill="#1bc47e"/><path d="M374.338 126.616c9.456 2.19 22.036 41.849 24.136 54.733l-18.845 6.605s-6.469-19.128-8.06-24.366c-2.483-8.179 2.769-36.972 2.769-36.972z" fill="#1bc47e"/><clipPath id="k"><path d="M374.338 126.616c9.456 2.19 22.036 41.849 24.136 54.733l-18.845 6.605s-6.469-19.128-8.06-24.366c-2.483-8.179 2.769-36.972 2.769-36.972z"/></clipPath><g clip-path="url(#k)"><path d="M376.893 178.607c-.246 1.541 1.736 9.127 2.322 8.131 0 0 .816-21.909-3.073-35.686l.751 27.555z" fill="#181e26" fill-opacity="0.15"/></g><path d="M338.512 123.02c-13.562 1.62-36.927 14.969-45.93 21.509l3.793 16.019c8.659-1.461 17.081-3.624 25.136-6.868l17.001-30.66z" fill="#1bc47e"/></g><circle cx="350.525" cy="219.278" r="1.5" fill="#6de8b5"/></g><g><path fill="#dde3ed" d="M89.364 308h6v92h-6zM12.364 308h6v92h-6zM12.364 238h6v62h-6z"/><path d="M8.364 303c0-1.591.632-3.117 1.757-4.243 1.125-1.125 2.651-1.757 4.243-1.757h80c1.591 0 3.117.632 4.242 1.757 1.125 1.126 1.758 2.652 1.758 4.243v6h-92v-6zM9.542 214.392c1.578-.202 3.172.231 4.431 1.204s2.08 2.407 2.282 3.985c1.46 11.403 4.637 36.209 6.097 47.611.202 1.579-.231 3.173-1.205 4.432-.973 1.259-2.406 2.08-3.985 2.282-2.424.31-5.061.648-6.808.872-.526.067-1.057-.077-1.477-.402-.42-.324-.693-.802-.761-1.328-1.16-9.064-5.952-46.483-7.112-55.547-.068-.526.077-1.057.401-1.477.325-.419.802-.693 1.329-.76 1.747-.224 4.384-.562 6.808-.872z" fill="#69768c"/></g><g><path d="M218.13 219c0-.53-.21-1.039-.585-1.414s-.884-.586-1.415-.586h-18c-.53 0-1.039.211-1.414.586s-.586.884-.586 1.414v23c0 .552.448 1 1 1h20c.553 0 1-.448 1-1v-23z" fill="#dde3ed"/><path d="M219.208 222l.077.002.077.002.077.004.077.004.076.006.076.006.076.007.075.008.075.009.075.01.075.011.074.012.074.013.074.013.073.015.073.015.073.017.072.017.072.018.072.019.071.02.071.02.071.022.07.022.07.023.069.024.07.025.068.026.069.026.067.028.068.028.067.029.067.029.066.031.066.031.065.032.065.033.064.033.064.035.064.035.063.035.063.037.062.037.061.038.061.039.061.039.06.04.06.041.059.042.058.042.058.043.058.043.057.044.056.045.056.046.055.046.055.047.054.047.054.048.053.049.052.05.052.05.051.05.051.051.05.052.049.053.049.053.048.053.048.054.046.055.047.055.045.056.045.057.044.057.044.057.043.058.042.059.041.059.041.059.04.06.04.061.038.061.038.062.038.062.036.062.036.064.035.063.034.064.034.064.032.065.032.066.032.066.03.066.03.066.029.067.028.068.027.068.026.068.026.069.025.069.024.069.023.07.023.071.021.07.021.071.019.072.019.071.018.072.018.073.016.072.015.073.015.074.014.073.012.074.012.075.011.074.01.075.009.075.008.076.008.076.006.076.005.076.005.076.003.077.002.077.002.078v2.154l-.002.078-.002.077-.003.077-.005.076-.005.076-.006.076-.008.076-.008.076-.009.075-.01.075-.011.074-.012.075-.012.074-.014.073-.015.074-.015.073-.016.072-.018.073-.018.072-.019.071-.019.072-.021.071-.021.07-.023.071-.023.07-.024.069-.025.069-.026.069-.026.068-.027.068-.028.068-.029.067-.03.066-.03.066-.032.066-.032.066-.032.065-.034.064-.034.064-.035.063-.036.064-.036.062-.038.062-.038.062-.038.061-.04.061-.04.06-.041.059-.041.059-.042.059-.043.058-.044.057-.044.057-.045.057-.045.056-.047.055-.046.055-.048.054-.048.053-.049.053-.049.053-.05.052-.051.051-.051.05-.052.05-.052.05-.053.049-.054.048-.054.047-.055.047-.055.046-.056.046-.056.045-.057.044-.058.043-.058.043-.058.042-.059.042-.06.041-.06.04-.061.039-.061.039-.061.038-.062.037-.063.037-.063.035-.064.035-.064.035-.064.033-.065.033-.065.032-.066.031-.066.031-.067.029-.067.029-.068.028-.067.028-.069.026-.068.026-.07.025-.069.024-.07.023-.07.022-.071.022-.071.02-.071.02-.072.019-.072.018-.072.017-.073.017-.073.015-.073.015-.074.013-.074.013-.074.012-.075.011-.075.01-.075.009-.075.008-.076.007-.076.006-.076.006-.077.004-.077.004-.077.002-.077.002h-.155l-.077-.002-.077-.002-.077-.004-.077-.004-.076-.006-.076-.006-.076-.007-.075-.008-.075-.009-.075-.01-.075-.011-.074-.012-.074-.013-.074-.013-.073-.015-.073-.015-.073-.017-.072-.017-.072-.018-.072-.019-.071-.02-.071-.02-.071-.022-.07-.022-.07-.023-.07-.024-.069-.025-.068-.026-.069-.026-.068-.028-.067-.028-.067-.029-.067-.029-.066-.031-.066-.031-.065-.032-.065-.033-.065-.033-.064-.035-.063-.035-.063-.035-.063-.037-.062-.037-.061-.038-.062-.039-.06-.039-.06-.04-.06-.041-.059-.042-.058-.042-.058-.043-.058-.043-.057-.044-.056-.045-.056-.046-.055-.046-.055-.047-.054-.047-.054-.048-.053-.049-.052-.05-.052-.05-.051-.05-.051-.051-.05-.052-.049-.053-.049-.053-.048-.053-.048-.054-.047-.055-.046-.055-.045-.056-.045-.057-.044-.057-.044-.057-.043-.058-.042-.059-.041-.059-.041-.059-.04-.06-.04-.061-.038-.061-.038-.062-.038-.062-.036-.062-.036-.064-.035-.063-.034-.064-.034-.064-.033-.065-.032-.066-.031-.066-.03-.066-.03-.066-.029-.067-.028-.068-.027-.068-.027-.068-.025-.069-.025-.069-.024-.069-.023-.07-.023-.071-.021-.07-.021-.071-.02-.072-.019-.071-.018-.072-.017-.073-.016-.072-.016-.073-.014-.074-.014-.073-.013-.074-.011-.075-.011-.074-.01-.075-.009-.075-.009-.076-.007-.076-.006-.076-.005-.076-.005-.076-.003-.077-.003-.077-.001-.078-.001-.077v-2l.001-.077.001-.078.003-.077.003-.077.005-.076.005-.076.006-.076.007-.076.009-.076.009-.075.01-.075.011-.074.011-.075.013-.074.014-.073.014-.074.016-.073.016-.072.017-.073.018-.072.019-.071.02-.072.021-.071.021-.07.023-.071.023-.07.024-.069.025-.069.025-.069.027-.068.027-.068.028-.068.029-.067.03-.066.03-.066.031-.066.032-.066.033-.065.034-.064.034-.064.035-.063.036-.064.036-.062.038-.062.038-.062.038-.061.04-.061.04-.06.041-.059.041-.059.042-.059.043-.058.044-.057.044-.057.045-.057.045-.056.046-.055.047-.055.048-.054.048-.053.049-.053.049-.053.05-.052.051-.051.051-.05.052-.05.052-.05.053-.049.054-.048.054-.047.055-.047.055-.046.056-.046.056-.045.057-.044.058-.043.058-.043.058-.042.059-.042.06-.041.06-.04.06-.039.062-.039.061-.038.062-.037.063-.037.063-.035.063-.035.064-.035.065-.033.065-.033.065-.032.066-.031.066-.031.067-.029.067-.029.067-.028.068-.028.069-.026.068-.026.069-.025.07-.024.07-.023.07-.022.071-.022.071-.02.071-.02.072-.019.072-.018.072-.017.073-.017.073-.015.073-.015.074-.013.074-.013.074-.012.075-.011.075-.01.075-.009.075-.008.076-.007.076-.006.076-.006.077-.004.077-.004.077-.002.077-.002h.155zm-.118 3l-.038.001-.039.001-.039.002-.038.002-.04.003-.038.003-.037.004-.038.004-.038.004-.037.005-.036.006-.038.006-.038.006-.034.007-.038.007-.036.008-.037.008-.036.008-.035.009-.035.01-.035.009-.036.011-.036.011-.035.011-.034.011-.035.012-.032.012-.035.013-.035.013-.033.013-.034.015-.033.014-.033.015-.033.015-.032.015-.034.016-.033.017-.031.016-.032.018-.032.017-.031.018-.031.018-.031.018-.031.02-.031.019-.031.02-.029.02-.03.02-.03.022-.029.021-.03.021-.028.022-.028.021-.03.024-.028.023-.027.023-.028.023-.027.024-.027.025-.026.023-.027.026-.027.026-.025.024-.025.026-.026.027-.025.026-.024.026-.024.028-.024.027-.023.027-.024.028-.023.028-.022.028-.023.029-.022.03-.021.029-.022.029-.02.029-.021.03-.02.03-.02.031-.019.03-.019.031-.019.032-.018.03-.017.032-.018.032-.017.032-.017.031-.016.033-.016.033-.016.033-.015.032-.015.033-.014.034-.014.033-.014.034-.013.034-.012.034-.013.034-.012.035-.011.035-.011.034-.011.035-.01.036-.01.035-.009.035-.009.036-.009.036-.008.036-.008.037-.007.036-.007.036-.006.038-.006.036-.005.037-.005.038-.005.038-.004.037-.004.038-.003.039-.002.038-.003.038-.001.04-.001.038-.001.04-.001.049v1.98l.001.049.001.04.001.038.001.04.003.038.002.038.003.038.004.039.004.038.005.037.005.037.005.037.006.037.006.038.007.036.007.036.008.037.008.036.009.036.009.036.009.035.01.036.01.035.011.035.011.034.011.035.012.035.013.034.012.034.013.034.014.034.014.033.014.033.015.034.015.033.016.033.016.031.016.033.017.032.017.032.018.032.017.032.019.031.018.031.019.03.019.031.02.031.02.03.021.029.021.031.021.029.021.029.022.029.022.028.022.028.024.029.024.028.023.028.024.026.024.028.025.026.024.026.025.026.026.026.026.026.026.026.026.024.027.024.027.025.027.024.028.023.028.024.027.022.029.023.029.022.028.022.03.021.03.022.029.021.029.02.031.021.031.02.029.018.031.019.032.019.031.018.031.018.032.017.032.018.033.017.031.016.032.015.034.016.033.015.033.015.033.014.034.015.035.013.033.013.033.013.034.012.035.012.036.012.033.011.034.01.038.011.035.009.035.01.035.009.036.008.037.008.036.008.038.007.035.007.037.006.036.006.038.006.037.005.038.004.038.004.039.004.036.003.038.003.04.002.039.002.039.001.04.001h.077l.04-.001.039-.001.039-.002.04-.002.038-.003.036-.003.039-.004.038-.004.038-.004.037-.005.037-.006.037-.006.037-.006.035-.007.038-.007.036-.008.037-.008.036-.008.035-.009.035-.01.035-.009.038-.011.033-.01.034-.011.036-.012.035-.012.034-.012.033-.013.033-.013.035-.013.034-.015.033-.014.033-.015.033-.015.034-.016.032-.016.031-.015.033-.017.032-.018.032-.017.031-.018.031-.018.032-.019.032-.02.028-.017.03-.02.032-.021.029-.02.029-.021.03-.021.03-.022.028-.022.029-.022.029-.023.027-.022.029-.024.027-.023.026-.024.028-.025.027-.025.026-.023.026-.026.027-.026.025-.026.025-.025.024-.027.025-.027.024-.027.024-.026.023-.028.024-.028.023-.029.023-.028.022-.028.022-.029.021-.029.021-.029.021-.031.021-.029.019-.03.02-.031.02-.031.018-.03.019-.031.019-.031.017-.032.018-.032.017-.031.017-.033.016-.033.016-.032.016-.032.015-.033.015-.034.014-.033.014-.033.013-.034.013-.034.013-.034.012-.034.013-.035.011-.035.011-.034.011-.035.01-.036.01-.035.009-.035.009-.036.009-.036.008-.036.007-.037.008-.036.007-.037.006-.036.006-.038.005-.037.005-.037.005-.037.004-.038.003-.038.004-.038.002-.039.002-.039.002-.038.001-.039.001-.04v-2.078l-.001-.04-.001-.039-.002-.038-.002-.039-.002-.039-.004-.038-.003-.038-.004-.037-.005-.038-.005-.037-.005-.038-.006-.037-.006-.036-.007-.037-.008-.036-.007-.037-.008-.036-.009-.036-.009-.036-.009-.035-.01-.035-.01-.036-.011-.035-.011-.034-.012-.036-.012-.034-.012-.034-.013-.034-.013-.034-.013-.033-.014-.034-.015-.034-.014-.033-.015-.032-.016-.033-.016-.033-.017-.033-.016-.032-.017-.031-.018-.032-.017-.032-.018-.03-.02-.032-.018-.031-.02-.03-.02-.031-.019-.03-.021-.03-.021-.029-.021-.029-.021-.03-.022-.029-.023-.029-.022-.028-.023-.028-.024-.028-.023-.027-.024-.027-.024-.027-.024-.027-.025-.027-.026-.026-.025-.026-.025-.024-.027-.026-.027-.025-.026-.024-.028-.025-.026-.024-.027-.023-.028-.023-.028-.023-.03-.024-.028-.021-.028-.022-.03-.022-.029-.02-.03-.022-.03-.02-.029-.02-.031-.02-.031-.019-.031-.02-.031-.018-.031-.018-.031-.018-.032-.017-.032-.018-.031-.016-.033-.016-.034-.017-.032-.015-.033-.015-.033-.015-.033-.014-.034-.015-.033-.013-.035-.013-.035-.013-.032-.012-.035-.012-.035-.011-.035-.011-.035-.011-.036-.011-.035-.009-.035-.01-.035-.009-.036-.008-.037-.008-.036-.008-.038-.007-.034-.007-.038-.006-.038-.006-.036-.006-.037-.005-.038-.004-.038-.004-.038-.004-.037-.003-.04-.003-.038-.002-.039-.002-.039-.001-.038-.001h-.081z" fill="#dde3ed"/><circle cx="207.13" cy="229" r="7" fill="#00c875"/><clipPath id="l"><circle cx="207.13" cy="229" r="7"/></clipPath><g fill="#dde3ed" clip-path="url(#l)"><ellipse cx="207.194" cy="228.25" rx="3.229" ry="2.583"/><path d="M209.131 231.479c0-1.069-.868-1.938-1.937-1.938-1.07 0-1.938.869-1.938 1.938v5.904h3.875v-5.904zM204.648 225.403c-.002-.147.08-.282.21-.349.131-.067.288-.055.406.032.547.401 1.255.919 1.255.919l-1.854.953s-.01-.877-.017-1.555zM209.74 225.403c.001-.147-.08-.282-.211-.349-.13-.067-.287-.055-.406.032-.547.401-1.255.919-1.255.919l1.855.953s.009-.877.017-1.555z"/><path d="M205.541 230.469c-.753.763-1.291 2.084-2.122 1.557-1.049-.665-.225-2.357-.537-2.673-.312-.316-.635.101-.758.547-.123.446-.389 2.348.985 2.964 1.48.663 2.941-.767 2.941-.767l-.509-1.628z"/></g><g><path fill="#dde3ed" d="M259.364 256h8v144h-8zM111.364 256h8v144h-8z"/><path d="M101.364 249c0-3.314 2.686-6 6-6h164c3.313 0 6 2.686 6 6v10h-176v-10z" fill="#69768c"/></g><g><path d="M168.76 238l13.302-50.645s.001 0 .002.001c3.2.857 5.098 4.146 4.241 7.346-3.167 11.818-10.249 38.249-12.346 46.074-.351 1.312-1.54 2.224-2.897 2.224h-47.7c-3.313 0-5.998-1.685-5.998-4.998 0-.001 51.396-.002 51.396-.002z" fill="#444f61"/><g fill="#69768c"><path d="M166.364 237c0-.552-.448-1-1-1h-2c-.553 0-1 .448-1 1v1h4v-1zM160.364 237c0-.265-.106-.52-.293-.707-.188-.188-.442-.293-.707-.293h-4c-.266 0-.52.105-.708.293-.187.187-.292.442-.292.707v1h6v-1zM152.364 237c0-.265-.106-.52-.293-.707-.188-.188-.442-.293-.707-.293h-4c-.266 0-.52.105-.708.293-.187.187-.292.442-.292.707v1h6v-1zM144.364 237c0-.265-.106-.52-.293-.707-.188-.188-.442-.293-.707-.293h-4c-.266 0-.52.105-.708.293-.187.187-.292.442-.292.707v1h6v-1zM136.364 237c0-.265-.106-.52-.293-.707-.188-.188-.442-.293-.707-.293h-4c-.266 0-.52.105-.708.293-.187.187-.292.442-.292.707v1h6v-1z"/></g></g></g><g><path d="M786.408 237.077c.189.057.246.058.408.177.06.044.116.095.165.152.248.288.312.703.16 1.052-.03.068-.067.134-.111.194-.089.121-.205.22-.337.291-.12.063-.193.077-.309.109-.092.025-.184.052-.276.08-.115.035-.229.073-.343.112-.441.157-.878.343-1.263.614-.199.141-.385.305-.528.503-.056.078-.105.161-.145.248-.205.446-.15.961-.029 1.423.025.097.054.194.086.29.035.104.073.207.114.31.053.133.109.265.171.394.091.193.187.383.29.57.142.26.295.515.454.765.176.278.361.552.551.821.251.357.512.708.779 1.054.344.445.697.882 1.056 1.315.451.542.911 1.077 1.377 1.607.637.726 1.284 1.444 1.932 2.159 1.298 1.426 2.603 2.844 3.9 4.27 1.41 1.558 2.809 3.125 4.168 4.727 1.103 1.299 2.182 2.619 3.224 3.968.832 1.076 1.639 2.17 2.415 3.286.567.814 1.117 1.64 1.646 2.479.397.628.782 1.263 1.154 1.906 2.29 3.959 4.107 8.252 4.863 12.783.121.72.214 1.445.278 2.172.092 1.04.124 2.085.093 3.128-.044 1.512-.222 3.021-.53 4.502-.425 2.042-1.097 4.029-1.969 5.923-.24.521-.495 1.035-.764 1.542-.214.404-.439.802-.656 1.204-.135.255-.268.511-.398.769-1.054 2.1-1.925 4.305-2.409 6.609-.301 1.435-.45 2.904-.392 4.369.036.92.154 1.837.354 2.735.14.625.319 1.24.536 1.842.156.432.33.856.522 1.273 1.365 2.961 3.572 5.45 5.994 7.595.413.366.834.723 1.261 1.072.559.457 1.129.901 1.706 1.334.783.588 1.58 1.156 2.386 1.711 1.087.747 2.191 1.47 3.301 2.182 1.512.97 3.037 1.921 4.554 2.883.404.258.807.516 1.209.775 1.957 1.269 3.9 2.572 5.705 4.053 1.381 1.132 2.696 2.377 3.749 3.826.218.299.424.607.614.923.212.351.405.714.588 1.08.293.588.555 1.192.783 1.808.771 2.076 1.161 4.281 1.235 6.492.078 2.309-.179 4.622-.67 6.876-.231 1.06-.515 2.108-.845 3.142-.294.919-.624 1.826-.992 2.718-.269.652-.557 1.297-.878 1.925l-.022.042c-.042.062-.077.128-.126.185-.098.114-.22.205-.357.265-.069.03-.141.053-.214.067-.374.071-.765-.081-.992-.387-.044-.06-.082-.125-.112-.193-.091-.207-.109-.441-.051-.659.034-.127.091-.225.148-.337.068-.137.076-.153.134-.273.092-.193.182-.388.27-.583 1.017-2.288 1.784-4.694 2.249-7.155.361-1.908.537-3.857.45-5.799-.097-2.167-.53-4.323-1.377-6.324-.165-.388-.344-.77-.538-1.144-.197-.379-.407-.749-.644-1.104-.629-.947-1.401-1.793-2.224-2.574-.965-.916-2.008-1.746-3.078-2.535-1.391-1.024-2.833-1.977-4.286-2.91-1.501-.964-3.015-1.907-4.521-2.863-.421-.268-.842-.537-1.262-.807-2.04-1.32-4.059-2.677-5.985-4.161-1.177-.907-2.32-1.862-3.401-2.883-1.574-1.486-3.022-3.12-4.201-4.939-.818-1.262-1.504-2.612-2.004-4.032-.405-1.149-.688-2.341-.841-3.55-.146-1.153-.175-2.32-.097-3.479.14-2.085.619-4.137 1.312-6.104.47-1.332 1.037-2.628 1.673-3.888.192-.382.392-.761.596-1.137.159-.29.321-.579.477-.872.094-.18.188-.36.28-.542.324-.647.627-1.304.902-1.975.562-1.372 1.01-2.793 1.323-4.243.282-1.311.455-2.646.513-3.986.04-.909.028-1.821-.034-2.729-.042-.62-.107-1.239-.194-1.855-.59-4.182-2.171-8.167-4.199-11.85-.345-.626-.703-1.244-1.073-1.855-.497-.822-1.016-1.63-1.551-2.426-.673-1.001-1.373-1.983-2.094-2.949-.933-1.251-1.903-2.476-2.896-3.681-1.268-1.538-2.576-3.042-3.904-4.528-1.737-1.945-3.509-3.857-5.264-5.785-.4-.441-.799-.884-1.197-1.327-.617-.695-1.232-1.392-1.831-2.102-.44-.521-.872-1.047-1.291-1.584-.337-.43-.666-.868-.981-1.315-.248-.353-.488-.712-.715-1.079-.142-.229-.278-.461-.408-.697-.093-.169-.182-.341-.266-.514-.068-.139-.134-.28-.195-.422-.392-.905-.659-1.906-.514-2.897.024-.164.059-.326.105-.484.063-.214.146-.421.249-.618.144-.276.325-.532.535-.762.321-.354.705-.646 1.116-.887.66-.386 1.384-.646 2.118-.851l.108-.029.222-.034c.074.006.149.011.223.017z" fill="#cad2e0" fill-rule="nonzero"/><path d="M895.296 387c0-3.863-3.137-7-7-7h-58c-3.863 0-7 3.137-7 7v13h72v-13z" fill="#444f61"/><path d="M839.296 373.998c0-2.208-1.79-3.998-3.998-3.998h-.004c-2.208 0-3.998 1.79-3.998 3.998V380h8v-6.002z" fill="#9da9bd"/><g><path fill="#dde3ed" d="M906.25 256h8v144h-8zM764.25 256h8v144h-8z"/><path d="M754.25 249c0-1.591.632-3.117 1.758-4.243 1.125-1.125 2.651-1.757 4.242-1.757h158c1.591 0 3.118.632 4.243 1.757 1.125 1.126 1.757 2.652 1.757 4.243v10h-170v-10z" fill="#69768c"/><g><path d="M862.25 195.5c0-1.38-1.12-2.5-2.5-2.5h-71c-1.38 0-2.5 1.12-2.5 2.5v45c0 1.38 1.12 2.5 2.5 2.5h71c1.38 0 2.5-1.12 2.5-2.5v-45z" fill="#fbeae7"/><path d="M815.886 227.736c-.605-.776 4.821-12.96 9.144-10.783.289.145 1.246 1.112 1.36 1.365 1.784 3.976-9.902 10.19-10.504 9.418zm11.168-10.577c1.027-.063 2.19-.377 2.818-1.001 0 0 2.881 1.169 2.787-.845-.068-1.45-4.378-1.11-5.605 1.846zm-1.234-.99c.13-1.036.547-1.895 1.179-2.619-.35-.585.086-1.664.808-1.706 0 0-1.195-2.575-.235-3.274 2.957-2.151 2.933 5.65-1.752 7.599z" fill="#ffc7bc"/></g></g></g><g><path d="M209.129 92.257c-7.608 2.782-26.19 3.352-32.82 1.156-3.165-1.048-6.331-2.078-9.226-3.637-5.407 5.971-11.152 8.573-17.063 9.521 5.378-4.113 8.502-9.224 8.544-15.699-7.723-7.449-10.606-15.681-8.679-24.678 2.635-12.297 19.624-23.12 38.738-23.215 22.096-.109 42.921 20.285 38.326 39.506-1.151 4.817-4.292 8.896-8.493 12.062.043 6.476 3.261 11.82 8.639 15.933-5.911-.949-12.266-5.087-17.673-11.057-.213.114-.304.145-.293.108z" fill="#edf0f5"/><g fill="#9da9bd"><path d="M168.365 66.077c1.936-2.492 4.289 6.92 19.009 8.269 10.659.976 16.145-8.094 18.085-5.365 1.198 1.684-7.082 9.485-18.004 8.995-9.929-.446-21.63-8.631-19.09-11.899z"/><path d="M193.727 53.257c2.237.228 3.231 2.697 2.949 6.762-.282 4.065-1.512 6.984-3.497 7.068-2.127.09-2.931-2.79-2.85-6.869.08-4.075 1.247-7.18 3.398-6.961zM182.532 52.955c-2.248.074-3.41 2.468-3.408 6.543.002 4.075 1.028 7.071 3.002 7.291 2.115.237 3.116-2.581 3.317-6.656.2-4.07-.751-7.249-2.911-7.178z"/></g></g><g><path d="M604.389 85.508c2.483 0 3.719 1.638 3.982 4.145.259 2.47-1.499 4.849-3.982 4.849-2.484 0-4.697-2.409-4.352-4.869.352-2.508 1.868-4.125 4.352-4.125zM207.961 313.797c2.483 0 3.719 1.638 3.982 4.146.259 2.47-1.499 4.848-3.982 4.848-2.484 0-4.697-2.409-4.352-4.869.352-2.507 1.868-4.125 4.352-4.125z" fill="#21d98c"/><path d="M279.564 52.284c2.484 0 3.908 1.482 3.934 3.891.026 2.484-1.251 4.438-4.222 4.302-2.856-.131-4.182-1.839-4.113-4.322.077-2.738 1.918-3.871 4.401-3.871zM420.12 312.174c2.484 0 3.908 1.482 3.934 3.891.027 2.483-1.25 4.438-4.221 4.302-2.857-.131-4.183-1.84-4.114-4.322.077-2.738 1.918-3.871 4.401-3.871zM833.034 67.153c2.484 0 3.908 1.482 3.934 3.891.026 2.484-1.25 4.438-4.222 4.302-2.856-.131-4.182-1.839-4.113-4.322.077-2.738 1.918-3.871 4.401-3.871z" fill="#17b272"/><path d="M707.789 14.143c1.676 0 2.752 1.759 3.108 3.747.35 1.956-1.14 3.352-3.127 3.352-1.986 0-3.198-1.46-3.126-3.578.069-2.025 1.572-3.52 3.145-3.521zM610.328 240.44c2.095-.001 3.44 2.198 3.885 4.683.437 2.445-1.424 4.191-3.908 4.191s-3.998-1.826-3.908-4.474c.087-2.53 1.965-4.4 3.931-4.4z" fill="#8eedc6"/><path d="M281.471 194.17l7.291 9.064-12.464 2.596 5.173-11.66zM866.834 310.752l7.291 9.063-12.464 2.596 5.173-11.659z" fill="#17b272"/><path d="M210.936 167.586l7.48 9.419-13.635-3.454 6.155-5.965zM759.092 301.927l7.48 9.419-13.635-3.454 6.155-5.965z" fill="#8eedc6"/><path d="M100.777 122.607l7.269-.184 1.006 7.572-8.5.506.225-7.894zM759.281 144.136l9.152-.184-1.251 7.551-6.403-.264-1.498-7.103zM448.944 45.393l9.152-.184-1.251 7.552-6.403-.265-1.498-7.103zM492.832 304.347l9.152-.184-1.25 7.552-6.404-.265-1.498-7.103zM371.966 151.149l7.649-.702-2.477 6.435-7.004.83 1.832-6.563z" fill="#25e595"/><path d="M879.853 141.897c-.942 1.236-2.138 1.944-3.411 2.277-1.096.288-2.25.298-3.347.13 3.428 4.256 5.891 7.15 7.492 11.813 1.73 5.042-.393 10.49.919 15.629 1.374 5.382 4.313 11.195 4.744 15.592 2.24-2.638 4.432-2.918 6.455-1.973-.265-4.912-4.241-9.837-5.853-14.805-1.837-5.662.698-10.385-.943-16.366-1.077-3.928-3.859-8.727-6.056-12.297z" fill="#43e8a3"/><clipPath id="m"><path d="M879.853 141.897c-.942 1.236-2.138 1.944-3.411 2.277-1.096.288-2.25.298-3.347.13 3.428 4.256 5.891 7.15 7.492 11.813 1.73 5.042-.393 10.49.919 15.629 1.374 5.382 4.313 11.195 4.744 15.592 2.24-2.638 4.432-2.918 6.455-1.973-.265-4.912-4.241-9.837-5.853-14.805-1.837-5.662.698-10.385-.943-16.366-1.077-3.928-3.859-8.727-6.056-12.297z"/></clipPath><g clip-path="url(#m)"><path d="M879.473 141.043s4.16 10.262 5.102 13.954c1.295 5.078-.614 10.084.639 14.736 1.079 4.007 4.987 10.528 5.701 15.898l2.693-.504-4.406-28.996-7.959-14.82-1.77-.268z" fill="#21d98c"/></g><path d="M154.928 226.578c-.942 1.237-2.138 1.944-3.41 2.278-1.097.287-2.251.297-3.347.13 3.427 4.255 5.891 7.149 7.491 11.813 1.73 5.041-.393 10.489.919 15.628 1.375 5.382 4.314 11.196 4.745 15.593 2.24-2.638 4.431-2.919 6.455-1.974-.266-4.912-4.242-9.836-5.854-14.805-1.836-5.661.698-10.384-.942-16.366-1.078-3.927-3.86-8.727-6.057-12.297z" fill="#43e8a3"/><clipPath id="n"><path d="M154.928 226.578c-.942 1.237-2.138 1.944-3.41 2.278-1.097.287-2.251.297-3.347.13 3.427 4.255 5.891 7.149 7.491 11.813 1.73 5.041-.393 10.489.919 15.628 1.375 5.382 4.314 11.196 4.745 15.593 2.24-2.638 4.431-2.919 6.455-1.974-.266-4.912-4.242-9.836-5.854-14.805-1.836-5.661.698-10.384-.942-16.366-1.078-3.927-3.86-8.727-6.057-12.297z"/></clipPath><g clip-path="url(#n)"><path d="M154.549 225.724s4.16 10.262 5.102 13.955c1.295 5.078-.615 10.083.638 14.735 1.08 4.007 4.987 10.528 5.701 15.899l2.693-.505-4.406-28.996-7.959-14.819-1.769-.269z" fill="#181e26" fill-opacity="0.15"/></g><path d="M300.493 323.653l-4.465-1.761c-2.087 10.893-5.961 20.837-11.741 29.768l4.465 1.761c5.681-9.182 9.689-19.065 11.741-29.768z" fill="#00c875"/></g></g></svg>