<svg viewBox="0 0 1088 400" xmlns="http://www.w3.org/2000/svg" fill-rule="evenodd" clip-rule="evenodd" stroke-linejoin="round" stroke-miterlimit="1.41421"><path fill="none" d="M0 0h1088v400H0z"/><clipPath id="a"><path d="M0 0h1088v400H0z"/></clipPath><g clip-path="url(#a)"><path fill="#dde3ed" d="M413 308h8v92h-8zM338 308h8v92h-8z"/><path d="M330 303c0-3.314 2.686-6 6-6h88c3.314 0 6 2.686 6 6v6H330v-6z" fill="#69768c"/><path fill="#dde3ed" d="M922 308h8v92h-8zM847 308h8v92h-8z"/><path d="M839 303c0-3.314 2.686-6 6-6h88c3.314 0 6 2.686 6 6v6H839v-6z" fill="#69768c"/><path fill="#dde3ed" d="M532 308h8v92h-8zM457 308h8v92h-8z"/><path d="M449 303c0-3.314 2.686-6 6-6h88c3.314 0 6 2.686 6 6v6H449v-6z" fill="#69768c"/><path fill="#dde3ed" d="M1033.48 308h8v92h-8zM958.483 308h8v92h-8z"/><path d="M950.483 303c0-3.314 2.687-6 6-6h88c3.314 0 6 2.686 6 6v6h-100v-6z" fill="#69768c"/><path d="M1041 209h1c0-1.657 1.343-3 3-3h12c1.657 0 3 1.343 3 3h1v4h-20v-4z" fill="#edf0f5"/><path d="M1060 213h-18l1.988 30h14.024l1.988-30z" fill="#ff7f65"/><path d="M1051.25 222.683c1.852-.137 3.89-.065 5.566.541-1.555.597-2.587 1.304-2.732 2.196 1.238-.389 2.575.379 3.964 1.667-1.547.058-2.825.674-3.867 1.781.622.424 1.323.486 2.304.894-1.587 1.104-3.906 2.531-5.844 2.212.329-.236.63-.512.897-.814.658-.742 1.122-1.647 1.378-2.603.224-.837.291-1.718.172-2.577-.17-1.221-.73-2.42-1.708-3.198-.043-.034-.086-.067-.13-.099zm-1.516.362c1.866.5 2.859 2.854 2.216 5.253-.642 2.399-2.679 3.941-4.545 3.441s-2.859-2.854-2.216-5.253c.643-2.399 2.679-3.941 4.545-3.441zm-.504 1.883c.933.25 1.351 1.717 1.03 2.917-.321 1.2-1.443 2.354-2.376 2.104-.932-.25-1.326-1.81-1.005-3.01.322-1.199 1.418-2.261 2.351-2.011z" fill="#fbeae7"/><path d="M447.969 200.706c-1.371 2.007 13.026 18.243 14.426 16.999l4.487-7.917-13.598-13.145-5.315 4.063zM549.537 200c1.37 2.007-13.187 18.761-14.587 17.517l-4.663-7.457 13.593-13.625 5.657 3.565z" fill="#f4421e"/><path d="M521.496 175.159c11.589 4.164 36.325 35.71 34.094 48.894-2.22 13.119-41.734 21.952-41.734 21.952L507.584 243c10.367-11.18 18.821-11.318 32.16-20.529-6.248-14.086-14.516-21.627-25.81-27.887l7.562-19.425z" fill="#fdd1a5"/><path d="M467.033 191.819c-.139-5.392 1.906-10.611 5.671-14.474 3.764-3.862 8.929-6.041 14.323-6.041h23.691c5.385 0 10.542 2.172 14.305 6.023 3.764 3.852 5.815 9.058 5.689 14.442-.71 30.536-1.964 84.475-1.964 84.475h-59.541s-1.387-53.88-2.174-84.425z" fill="#fdd1a5"/><path d="M528.748 276.244l1 20.695h-61.541l1-20.707 59.541.012z" fill="#333e50"/><path d="M505 396h20v2c0 .53-.211 1.039-.586 1.414S523.53 400 523 400h-16c-.53 0-1.039-.211-1.414-.586S505 398.53 505 398v-2z" fill="#edf0f5"/><path d="M522 391l3 5c-6.979 1.333-13.61 1.181-20 0l3-5v-8h14v8z" fill="#181e26"/><path d="M511.708 391.502c.048.006.093.016.139.032.081.032.163.062.246.092.788.267 1.616.396 2.446.423.792.025 1.589-.041 2.367-.199.267-.054.532-.12.794-.198.141-.042.279-.093.42-.135.035-.008.035-.008.07-.014.085-.006.166.001.245.033.056.023.107.055.151.095.171.157.211.419.095.62-.056.095-.138.163-.237.209-.08.031-.162.057-.243.084-1.505.477-3.121.625-4.688.426-.458-.059-.913-.148-1.357-.276-.238-.068-.477-.144-.704-.242-.032-.016-.031-.016-.062-.035-.069-.049-.127-.108-.166-.183-.115-.217-.051-.494.147-.638.069-.05.147-.078.23-.092.036-.003.071-.004.107-.002zm0-2c.048.006.093.016.139.032.081.032.163.062.246.092.788.267 1.616.396 2.446.423.792.025 1.589-.04 2.366-.199.268-.054.533-.12.795-.198.141-.042.279-.093.42-.135.035-.008.035-.008.07-.014.085-.006.166.001.245.033.056.023.107.055.151.095.171.157.211.419.095.62-.056.095-.138.163-.237.209-.08.031-.162.057-.243.084-1.505.477-3.121.625-4.688.426-.458-.059-.913-.148-1.357-.276-.238-.068-.477-.144-.704-.242-.032-.016-.031-.016-.062-.035-.069-.049-.127-.108-.166-.183-.115-.217-.051-.494.147-.638.069-.05.147-.078.23-.092.036-.003.071-.004.107-.002zm0-2c.048.006.093.016.139.032.081.032.163.062.246.092.756.256 1.548.385 2.344.419.826.035 1.658-.03 2.468-.195.268-.054.533-.12.795-.198.141-.042.279-.093.42-.135.035-.008.035-.008.07-.014.085-.006.166.001.245.033.056.023.107.055.151.095.171.157.211.419.095.62-.056.095-.138.163-.237.209-.08.031-.162.057-.243.084-1.505.477-3.121.625-4.688.426-.458-.059-.913-.148-1.357-.276-.238-.068-.477-.144-.704-.242-.032-.016-.031-.016-.062-.035-.069-.049-.127-.108-.166-.183-.115-.217-.051-.494.147-.638.069-.05.147-.078.23-.092.036-.003.071-.004.107-.002z" fill="#f7f8fa"/><path d="M504.536 295.424c0-2.652 1.054-5.196 2.929-7.071 1.876-1.875 4.419-2.929 7.071-2.929h1.484c2.652 0 5.195 1.054 7.071 2.929 1.875 1.875 2.762 4.426 2.929 7.071 1.533 24.386.624 63.169-3 90.479h-16.793c.098-14.776-1.691-65.432-1.691-90.479z" fill="#444f61"/><path d="M492.956 396h-20v2c0 .53.21 1.039.585 1.414s.884.586 1.415.586h16c.53 0 1.039-.211 1.414-.586s.586-.884.586-1.414v-2z" fill="#edf0f5"/><path d="M475.956 391v-8h14v8l3 5c-6.391 1.181-13.022 1.333-20 0l3-5z" fill="#181e26"/><path d="M486.319 391.501c.108.01.209.046.293.117.208.175.236.496.06.704-.055.065-.123.111-.201.144-.093.036-.186.071-.28.104-.848.288-1.736.436-2.63.474-.68.029-1.362-.005-2.036-.099-.451-.062-.898-.153-1.337-.273-.228-.062-.456-.127-.676-.212-.033-.015-.033-.015-.064-.032-.091-.06-.163-.139-.204-.241-.023-.055-.035-.114-.037-.174-.006-.232.155-.443.381-.499.083-.02.165-.016.247.003.141.042.28.092.421.135.926.27 1.889.404 2.854.402.659-.002 1.321-.065 1.966-.207.237-.053.472-.117.703-.193.123-.041.242-.089.364-.132.034-.009.034-.009.069-.016.036-.004.071-.006.107-.005zm0-2c.084.008.163.03.236.075.231.144.303.458.159.689-.058.093-.143.158-.243.201-.093.036-.186.071-.28.104-.955.324-1.96.471-2.967.483-1.248.015-2.498-.175-3.679-.58-.033-.013-.033-.013-.066-.028-.106-.059-.19-.144-.235-.258-.023-.055-.035-.114-.037-.174-.006-.245.174-.465.416-.506.084-.014.166-.004.247.02.096.033.192.065.289.096.955.29 1.952.433 2.951.431.659-.002 1.321-.065 1.966-.207.237-.053.472-.117.703-.193.123-.041.242-.089.364-.132.034-.009.034-.009.069-.016.036-.004.071-.006.107-.005zm0-2c.084.008.163.03.236.075.231.144.303.458.159.689-.058.093-.143.158-.243.201-.093.036-.186.071-.28.104-.955.324-1.96.471-2.967.483-1.248.015-2.498-.175-3.679-.58-.033-.013-.033-.013-.066-.028-.106-.059-.19-.144-.235-.258-.023-.055-.035-.114-.037-.174-.006-.245.174-.465.416-.506.084-.014.166-.004.247.02.096.033.192.065.289.096.955.29 1.952.433 2.951.431.659-.002 1.321-.065 1.966-.207.237-.053.472-.117.703-.193.123-.041.242-.089.364-.132.034-.009.034-.009.069-.016.036-.004.071-.006.107-.005z" fill="#f7f8fa"/><path d="M493.419 295.424c0-2.652-1.054-5.196-2.929-7.071-1.875-1.875-4.419-2.929-7.071-2.929h-1.483c-2.652 0-5.196 1.054-7.071 2.929-1.876 1.875-2.763 4.426-2.929 7.071-1.534 24.386-.624 63.169 3 90.479h16.792c-.098-14.776 1.691-65.432 1.691-90.479z" fill="#444f61"/><g><path d="M523.502 118.896s2.089-2.798 3.902-1.14c1.95 1.785-.566 4.391-.342 6.267.183 1.534.743 4.45-.923 5.396-1.185.673-1.627.329-2.732-.706-3.782-3.54.095-9.817.095-9.817zM474.793 118.896s-2.089-2.798-3.902-1.14c-1.95 1.785.566 4.391.342 6.267-.183 1.534-.743 4.45.923 5.396 1.185.673 1.627.329 2.733-.706 3.781-3.54-.096-9.817-.096-9.817z" fill="#f4ba80"/><path d="M492.645 154.673h13l2 21.092h-17l2-21.092z" fill="#fdd1a5"/><clipPath id="b"><path d="M492.645 154.673h13l2 21.092h-17l2-21.092z"/></clipPath><g clip-path="url(#b)"><path d="M509.645 157.314c-4.985 5.424-16.102 5.751-21.117.186l10.617-4.5 10.5 4.314z" fill="#181e26" fill-opacity="0.15"/></g><path d="M499.343 159.02c4.153.101 7.951-.261 9.437-1.831 0 0 7.023-7.595 10.144-13.046 3.677-6.421 5.541-10.398 5.541-19.309 0-18.363-4.578-32.161-25.32-32.334l-.242.003c-20.536.278-25.078 14.04-25.078 32.331 0 8.911 1.864 12.888 5.541 19.309 3.121 5.451 10.144 13.046 10.144 13.046 1.509 1.595 5.405 1.943 9.635 1.826l.198.005z" fill="#fdd1a5"/><circle cx="511.926" cy="125.533" r="4.5" fill="#444f61"/><path d="M506.633 113.539c1.032-.436 5.156-.077 7.341.586 2.448.743 3.241 1.533 2.828 1.987-.539.594-9.754-.625-10.138-.714-.83-.193-.771-1.546-.031-1.859z" fill="#333e50"/><path d="M498.194 129.983c.124-.427.515-.72.96-.72.444 0 .835.293.96.72.715 2.453 1.654 5.672 2.166 7.428.088.302.029.628-.16.88s-.485.4-.8.4h-4.333c-.315 0-.611-.148-.8-.4-.189-.252-.248-.578-.16-.88.512-1.756 1.451-4.975 2.167-7.428z" fill="#f4ba80"/><circle cx="486.369" cy="125.533" r="4.5" fill="#444f61"/><path d="M491.662 113.539c-1.032-.436-5.156-.077-7.34.586-2.449.743-3.242 1.533-2.829 1.987.539.594 9.754-.625 10.139-.714.829-.193.77-1.546.03-1.859z" fill="#333e50"/><path d="M517.149 106.988c3.084 1.481 7.312 18.545 7.312 18.545s.86-22.828-3.494-28.451c-6.454-8.339-28.398-14.497-42.331-7.882-9.254 4.394-4.807 36.333-4.807 36.333s3.198-17.858 11.746-19.926c8.005-1.937 25.239-1.662 31.574 1.381z" fill="#333e50"/><path d="M499.157 149.817c6.65.141 9.405-2.877 8.769-3.834-.243-.365-3.328 2.701-8.781 2.594h-.032c-5.433.095-8.507-2.958-8.749-2.594-.637.957 2.118 3.975 8.768 3.834h.025z" fill="#e46e44"/><g><path d="M503.621 125.864c-.018-.807.29-1.588.854-2.165.565-.578 1.338-.903 2.145-.903h10.728c.995 0 1.926.493 2.484 1.318.558.824.671 1.872.301 2.796-.555 1.388-1.148 2.87-1.6 4-.455 1.139-1.559 1.886-2.785 1.886h-9.037c-1.63 0-2.962-1.302-2.999-2.932-.028-1.258-.062-2.728-.091-4z" fill="#edf0f5" fill-opacity="0.5"/><path d="M511.682 122.796l2.5 10h-4l-2.465-9.861c.289-.091.594-.139.903-.139h3.062z" fill="#edf0f5" fill-opacity="0.2"/><path d="M494.674 125.864c.018-.807-.29-1.588-.854-2.165-.564-.578-1.338-.903-2.145-.903h-10.728c-.995 0-1.926.493-2.484 1.318-.558.824-.671 1.872-.301 2.796.555 1.388 1.148 2.87 1.6 4 .456 1.139 1.559 1.886 2.785 1.886h9.037c1.63 0 2.962-1.302 2.999-2.932.029-1.258.062-2.728.091-4z" fill="#edf0f5" fill-opacity="0.5"/><path d="M486.077 122.796l2.5 10h-4l-2.47-9.88c.27-.079.553-.12.84-.12h3.13z" fill="#edf0f5" fill-opacity="0.2"/><path d="M499.4 125.505c.818.013 1.634.079 2.443.206.821.129 1.628.321 2.424.558l.159.049c.072.025.136.059.193.111.044.041.08.089.107.143.111.221.039.497-.165.637-.116.079-.25.098-.386.076-.1-.026-.099-.029-.198-.059-.135-.041-.169-.05-.305-.089-.554-.155-1.113-.287-1.679-.387-1.011-.179-2.039-.262-3.066-.244-1.039.019-2.075.141-3.092.358-.527.112-1.046.252-1.561.41l-.043.011c-.121.02-.239.008-.348-.053-.215-.121-.311-.39-.221-.62.022-.055.054-.107.095-.152.051-.057.113-.095.182-.127.121-.044.246-.078.37-.114.757-.218 1.525-.394 2.304-.515.707-.109 1.418-.171 2.133-.194.218-.005.436-.007.654-.005zm-26.938-9.714c.04.004.079.01.118.022.079.025.145.069.205.125 2.417 2.643 4.619 5.475 6.929 8.214.05.064.088.134.106.214.011.053.014.107.009.16-.028.264-.266.464-.53.447-.124-.008-.232-.063-.322-.147-2.418-2.643-4.62-5.475-6.93-8.214-.05-.064-.088-.133-.106-.214-.044-.201.043-.414.215-.526.057-.038.119-.059.185-.074.041-.006.08-.008.121-.007zm52.034.841c.076.006.147.023.214.059.179.096.284.298.26.5-.01.076-.037.144-.076.21-1.75 2.524-3.686 4.916-5.53 7.373-.048.059-.102.109-.17.144-.229.119-.52.038-.656-.181-.033-.053-.055-.112-.066-.174-.023-.126.006-.249.07-.358 1.751-2.525 3.687-4.916 5.531-7.374.024-.029.048-.057.077-.081.068-.058.148-.092.234-.111.038-.005.074-.008.112-.007z" fill="#9da9bd"/></g></g><path d="M475.819 175.159c-11.589 4.164-36.325 35.71-34.094 48.894 2.22 13.119 41.735 21.952 41.735 21.952l6.272-3.005c-10.367-11.18-18.822-11.318-32.16-20.529 6.247-14.086 14.515-21.627 25.81-27.887l-7.563-19.425z" fill="#fdd1a5"/><path d="M508.392 171.32s-1.314 7.233-9.392 7.274c-7.909.041-9.541-7.29-9.541-7.29-16.702-3.024-36.909 22.729-41.54 29.499 1.902-.121 14.579 16.039 14.212 16.967l5.335-9.155-1.259 67.617c20.719 3.402 42.47 3.696 65.541.012l-1.461-66.184 4.663 7.457c-.366-.928 12.684-17.638 14.587-17.517-8.049-9.324-22.16-30.787-41.145-28.68z" fill="#ff6243"/><g><path d="M382.092 30.542c45.156.069 36.135 65.326 22.104 72.835-10.776 5.767-38.9 7.997-50.278.581-12.589-8.206-20.608-73.491 28.174-73.416z" fill="#333e50"/><path d="M375.32 100.152h13l2 21.092h-17l2-21.092z" fill="#feecc8"/><clipPath id="c"><path d="M375.32 100.152h13l2 21.092h-17l2-21.092z"/></clipPath><g clip-path="url(#c)"><path d="M392.393 101.402c-2.473 2.691-6.906 5.644-10.577 5.642-3.582-.001-8.72-2.783-10.403-5.737l10.407-2.828 10.573 2.923z" fill="#181e26" fill-opacity="0.15"/></g><path d="M381.82 37.392c-14.039.002-25.438 14.938-25.438 33.335 0 18.398 15.948 33.503 25.419 33.335l.019-.001.02.001c9.471.168 25.419-14.937 25.419-33.335 0-18.397-11.399-33.333-25.439-33.335z" fill="#feecc8"/><path d="M382.89 76.405c.149-.385.52-.638.932-.638.412 0 .783.253.932.638.652 1.676 1.499 3.854 2.038 5.241.12.308.08.654-.106.927-.187.272-.496.435-.826.435h-4.076c-.33 0-.639-.163-.825-.435-.187-.273-.227-.619-.107-.927.539-1.387 1.386-3.565 2.038-5.241z" fill="#f9db9f"/><circle cx="396.103" cy="69.85" r="4.5" fill="#333e50"/><path d="M392.591 59.396c1.992-1.226 9.794.64 9.473 2.174-.05.238-7.114-.155-9.241-.316-1.205-.092-.618-1.62-.232-1.858z" fill="#444f61"/><circle cx="371.541" cy="69.85" r="4.5" fill="#333e50"/><path d="M375.053 59.396c-1.992-1.226-9.793.64-9.473 2.174.05.238 7.114-.155 9.241-.316 1.205-.092.618-1.62.232-1.858z" fill="#444f61"/><path d="M389.693 92.353s-1.187 3.826-5.922 3.777c-4.601-.048-5.972-4.148-5.972-4.148l11.894.371z" fill="#ffa391"/><path d="M389.353 92.342c-1.593-1.243-4.758-2.411-5.526-.77-.695-1.673-4.291-.662-5.761.419l5.685 2.369 5.602-2.018z" fill="#ffa391"/><path d="M393.739 89.387c-5.438 4.345-11.69 5.31-18.689.208 0 0 2.131 4.116 8.72 4.279 7.403.183 9.969-4.487 9.969-4.487z" fill="#ff7f65"/><path d="M401.765 210c-6.535 2.14-20.927 19.128-21.885 30.897-2.062 25.352 4.172 51.709 11.559 75.752-5.334 12.947-.235 78.351-.235 78.351h8l9.235-78.351-1.252-70.303L401.765 210z" fill="#feecc8"/><path d="M372.468 210c-6.536 2.14-19.138 19.413-21.885 30.897-6.492 27.135 1.618 47.124 9.004 71.167-11.789 9.357-29.746 36.787-40.198 53.19l7.611 8.115 49-57.759 4.201-68.948L372.468 210zM360.52 122.442c-11.589 6.649-27.013 52.939-26.985 66.553.027 13.305.034 54.943.034 54.943l6.145 1.344c1.311-13.288 9.365-30.958 6.272-56.287 6.247-14.086 10.036-41.047 21.33-47.306l-6.796-19.247z" fill="#feecc8"/><path d="M354.241 143.194c-.49-6.653 1.811-13.211 6.352-18.099s10.911-7.665 17.583-7.665h7.09c6.66 0 13.02 2.767 17.56 7.64 4.539 4.873 6.85 11.412 6.38 18.056-1.904 26.891-4.62 65.244-4.62 65.244h-45.541s-2.822-38.287-4.804-65.176zM339.694 245.079c.898 2.546 2.354 5.665 1.812 8.552-.998 5.317-.485 10.524-1.917 10.066-1.972-.631-.767-9.111-1.564-9.173-1.929-.15-.225 9.742-1.284 14.002-.54 2.173-5.308-6.352-5.568-7.904 0 0-2.601-6.902 2.396-16.719l3.141-.601 2.984 1.777z" fill="#feecc8"/><path d="M391.12 123.472c5.159 17.98 22.516 50.164 29.402 58.508 8.469 10.263 51.455 26.388 51.455 26.388l2.39-5.096c-9.658-9.22-34.233-25.896-41.895-27.689-7.245-13.6-17.914-40.902-27.091-50.383l-14.261-1.728z" fill="#feecc8"/><path d="M348.762 81.831c3.826-31.922 14.943-45.758 33.084-47.4C405.134 32.322 406.565 57.348 407.48 58h-18.144l-3.02-10.038L386.029 58h-23.666c-3.22 13.698-2.912 27.993 1.287 42.944l-14.888-19.113z" fill="#333e50"/><path d="M405.439 210.37c4.441 32.391 6.901 71.327 5.175 107.256l-4.227 47.379-19.183.295 1.782-49.501c-5.53-21.497-5.172-24.301-9.383-48.264 0 0-.675 42.602-1.69 48.957-1.148 7.183-23.558 27.988-33.723 39.215l-15.047-9.766c9.675-16.353 19.235-25.932 27.313-34.567-9.674-35.407-15.969-62.862 1.69-101.004h47.293z" fill="#9da9bd"/><clipPath id="d"><path d="M405.439 210.37c4.441 32.391 6.901 71.327 5.175 107.256l-4.227 47.379-19.183.295 1.782-49.501c-5.53-21.497-5.172-24.301-9.383-48.264 0 0-.675 42.602-1.69 48.957-1.148 7.183-23.558 27.988-33.723 39.215l-15.047-9.766c9.675-16.353 19.235-25.932 27.313-34.567-9.674-35.407-15.969-62.862 1.69-101.004h47.293z"/></clipPath><g clip-path="url(#d)"><path d="M370.592 210.37c-5.025 18.106-12.479 22.433-20.662 22.63-.064-7.553 2.816-15.096 8.218-22.63h12.444zM390.956 210.37c4.193 15.131 10.221 21.597 17.401 22.63.258-7.555-.553-15.1-3.325-22.63h-14.076z" fill="#69768c" fill-opacity="0.5"/><path d="M375.103 291.882c-.314 14.915.652 31.02 2.894 30.363 1.44 2.188 2.001-73.847 1.201-89.414 0 0-3.82 46.015-4.095 59.051z" fill="#181e26" fill-opacity="0.15"/></g><path d="M359.056 121.646c-10.459 2.924-28.345 49.413-28.759 66.28-.335 13.617.529 16.086 2 26.086h15.273c.909-7.97 1.356-15.981.464-24.17 0 0 9.172-23.083 12.04-31.134 2.867-8.052-1.018-37.062-1.018-37.062z" fill="#00c875"/><path d="M406.666 213.37c1.073 0 1.954-.847 1.998-1.919.417-10.201 2.387-58.358 3.271-78.196.252-5.649-3.474-10.708-8.944-12.142l-10.171-3.404h-22l-10.185 3.404c-5.47 1.434-9.196 6.493-8.944 12.142.884 19.838 2.854 67.995 3.271 78.196.044 1.072.925 1.919 1.998 1.919h49.706z" fill="#00c875"/><clipPath id="e"><path d="M406.666 213.37c1.073 0 1.954-.847 1.998-1.919.417-10.201 2.387-58.358 3.271-78.196.252-5.649-3.474-10.708-8.944-12.142l-10.171-3.404h-22l-10.185 3.404c-5.47 1.434-9.196 6.493-8.944 12.142.884 19.838 2.854 67.995 3.271 78.196.044 1.072.925 1.919 1.998 1.919h49.706z"/></clipPath><g clip-path="url(#e)"><path d="M353.55 175.831c-.658 1.415-.489 8.824.347 8.026 0 0 7.533-25.471 7.556-39.787l-7.903 31.761z" fill="#181e26" fill-opacity="0.15"/></g><path d="M405.814 122.251c8.844 3.837 19.912 31.089 27.328 50.905 5.256 2.039 9.91 5.59 14.765 9.257l-7.273 13.429s-15.213-5.93-20.779-11.434c-6.174-6.106-12.481-17.649-15.348-25.7-2.867-8.052 1.307-36.457 1.307-36.457z" fill="#00c875"/><clipPath id="f"><path d="M405.814 122.251c8.844 3.837 19.912 31.089 27.328 50.905 5.256 2.039 9.91 5.59 14.765 9.257l-7.273 13.429s-15.213-5.93-20.779-11.434c-6.174-6.106-12.481-17.649-15.348-25.7-2.867-8.052 1.307-36.457 1.307-36.457z"/></clipPath><g clip-path="url(#f)"><path d="M410.28 171.13c-.268 1.538 3.121 7.022 3.721 6.034 0 0-1.176-25.077-4.803-34.571l1.082 28.537z" fill="#181e26" fill-opacity="0.15"/></g><path fill="#17b272" d="M370.82 114.709h22v3h-22zM440.634 195.842l7.273-13.429 2.638 1.428-7.273 13.43-2.638-1.429zM332.297 214.012h15.273v3h-15.273zM372.465 163.087c2.051.846 4.188 1.475 6.369 1.88 1.966.365 3.966.549 5.965.531 3.965-.035 7.919-.846 11.594-2.326l.205-.085.181-.076c-.021.105-.044.206-.068.31-.141.599-.32 1.187-.546 1.759-.388.984-.903 1.919-1.527 2.773-.918 1.256-2.065 2.336-3.374 3.177-1.152.741-2.428 1.288-3.759 1.613-1.129.276-2.296.391-3.457.347-1.249-.047-2.49-.282-3.668-.698-1.095-.386-2.135-.926-3.081-1.599-1.306-.93-2.433-2.11-3.298-3.459-.545-.852-.989-1.769-1.312-2.727-.165-.488-.296-.985-.403-1.489l-.002-.007c.06.025.121.051.181.076zM384.694 148c.478.009.956.039 1.431.1.971.123 1.929.362 2.845.711 1.272.485 2.461 1.179 3.511 2.044 1.628 1.342 2.91 3.1 3.684 5.063.456 1.157.732 2.377.83 3.617l.005.074c-1.905.942-3.922 1.647-5.99 2.13-2.121.496-4.299.76-6.478.76-2.179 0-4.357-.264-6.478-.76-2.069-.484-4.086-1.188-5.991-2.13.009-.13.021-.26.033-.389.045-.416.106-.83.19-1.24.195-.952.503-1.88.914-2.761.826-1.774 2.079-3.344 3.617-4.553 1.071-.841 2.278-1.507 3.563-1.96.928-.327 1.894-.543 2.873-.642.479-.049.959-.067 1.441-.064zm-5.162 5.499c-1.656 0-3 1.345-3 3 0 1.656 1.344 3 3 3 1.655 0 3-1.344 3-3 0-1.655-1.345-3-3-3z"/><g><path d="M331.428 369.842c.036-.094 3.851 17.08 3.851 17.08 7.116 1.279 9.379 7.683 8.011 10.23l-13.892.075-21.869-27.366s3.518-4.854 6.301-6.375c2.555-1.397 6.076-2.471 6.689-2.422.604.047-.199 4.819 4.264 7.638 2.479 1.566 5.798.759 6.645 1.14z" fill="#21d98c"/><path d="M343.19 397c.587.8.609 2.336 0 3h-11.15c-1.694 0-3.306-.731-4.422-2.005-2.542-2.923-7.175-8.215-9.068-10.159-3.856-3.962-8.752-10.065-11.245-13.244-.963-1.228-.999-2.944-.088-4.212.628-.877 1.214-1.692 1.214-1.692s7.495 10.734 11.635 15.786c1.301 1.588 6.59 7.429 9.392 10.544.889 1.241 2.325 1.974 3.852 1.965 3.682.002 9.88.017 9.88.017z" fill="#edf0f5"/><path d="M331.199 382.846c.955.016 1.904.129 2.841.317.522.105 1.04.231 1.549.385.055.017.055.017.11.036.135.054.257.129.361.233.089.09.16.197.21.313.042.1.068.206.076.314.007.09.002.181-.016.27-.067.341-.314.629-.641.747-.191.069-.39.073-.586.029-.155-.044-.309-.091-.464-.134-1.083-.285-2.199-.481-3.321-.508-.755-.017-1.538.038-2.257.29-.124.043-.247.093-.365.15-.084.04-.164.087-.247.13-.049.022-.049.022-.099.042-.191.064-.39.08-.587.03-.105-.026-.205-.07-.296-.128-.076-.049-.146-.108-.206-.176-.244-.273-.318-.669-.191-1.013.044-.119.111-.229.195-.322.113-.126.255-.207.403-.284.158-.083.32-.158.485-.224.861-.347 1.788-.47 2.71-.495.168-.002.168-.002.336-.002zm-.987-3.664c.955.016 1.904.129 2.841.317.522.105 1.04.231 1.549.385.055.017.055.016.109.035.187.076.349.193.466.358.052.073.095.154.125.239.118.327.055.701-.164.971-.068.084-.15.156-.242.214-.107.068-.226.115-.351.138-.144.027-.287.018-.429-.014-.155-.043-.309-.091-.464-.133-1.083-.285-2.199-.482-3.321-.508-.756-.018-1.538.038-2.257.289-.124.044-.247.093-.365.15-.084.041-.165.087-.247.13-.049.023-.049.023-.1.043-.191.064-.389.079-.586.03-.087-.022-.172-.056-.25-.101-.319-.181-.516-.533-.505-.899.003-.108.024-.216.062-.318.044-.118.111-.228.195-.322.113-.125.255-.206.403-.284.157-.083.32-.157.485-.224.861-.346 1.788-.469 2.71-.495.168-.002.168-.002.336-.001zm-.916-3.578c.913.015 1.819.119 2.715.292.565.109 1.125.243 1.676.41.055.017.054.017.109.035.186.076.348.193.465.358.202.283.241.661.102.979-.036.083-.084.161-.141.231-.068.084-.15.157-.242.215-.106.067-.226.114-.35.137-.145.027-.288.019-.43-.013-.155-.044-.309-.091-.464-.134-1.039-.273-2.107-.464-3.182-.504-.454-.016-.911-.005-1.363.052-.35.045-.699.117-1.033.233-.124.044-.246.094-.365.151-.084.04-.164.086-.247.13-.049.022-.049.022-.099.042-.191.064-.39.08-.587.03-.105-.026-.205-.07-.296-.129-.309-.198-.486-.56-.456-.925.008-.09.028-.179.059-.263.044-.119.111-.229.196-.323.113-.125.254-.206.402-.284.158-.083.32-.157.485-.224.861-.346 1.788-.469 2.71-.494.168-.002.168-.002.336-.002zm-1.059-3.91c.955.016 1.904.129 2.841.317.522.105 1.04.231 1.549.385.056.017.055.017.11.036.135.055.258.129.361.233.089.09.16.197.21.314.042.099.068.206.076.314.026.347-.135.69-.418.891-.074.052-.154.095-.239.125-.191.069-.39.073-.587.029-.154-.044-.308-.091-.463-.134-1.083-.285-2.199-.481-3.321-.507-.755-.018-1.538.037-2.257.289-.124.043-.247.093-.366.15-.083.04-.163.087-.246.13-.049.022-.048.022-.099.042-.191.064-.39.08-.586.03-.356-.089-.64-.375-.727-.731-.022-.087-.032-.178-.029-.268.003-.108.024-.216.062-.318.044-.118.11-.228.195-.322.113-.125.255-.207.403-.284.157-.083.32-.158.485-.224.861-.347 1.788-.469 2.71-.495.168-.002.168-.002.336-.002z" fill="#17b272"/></g><g><path d="M401.914 380.116l24.973 6.806c7.116 1.279 9.379 7.683 8.011 10.23l-13.892.075-33.965-1.839s-.545-3.852-.357-7.49c.153-2.968 2.714-7.266 2.714-7.266 2.189.623 3.522 1.948 6.529 1.822 3.563-.149 4.453-1.701 5.987-2.338z" fill="#21d98c"/><path d="M434.798 397c.587.8.609 2.336 0 3h-44.535c-1.074 0-2.089-.492-2.755-1.335-.665-.842-.908-1.944-.659-2.988.107-.449.177-.746.177-.746L434.798 397z" fill="#edf0f5"/></g><circle cx="381.813" cy="216.378" r="1.93" fill="#edf0f5"/><path d="M407.387 365.005s.851-3.779 1.303-5.785c.067-.297-.004-.607-.194-.845-.19-.237-.477-.375-.781-.375h-21.177c-.284 0-.555.121-.745.333-.19.211-.28.494-.249.776.224 2.042.679 6.19.679 6.19l21.164-.294zM345.665 356.69s2.854-2.658 4.365-4.065c.222-.207.338-.504.315-.807-.022-.303-.181-.579-.432-.75-3.401-2.329-14.236-9.745-17.474-11.962-.235-.16-.527-.213-.804-.146-.276.068-.51.251-.644.502-.992 1.864-3.042 5.717-3.042 5.717l17.716 11.511z" fill="#cad2e0"/></g><g><path d="M458.992 238.998c.299.004.597.014.895.034.172.011.355.013.521.065.143.045.275.122.384.224.055.051.104.109.146.171.212.315.226.735.034 1.063-.037.065-.083.125-.134.18-.102.109-.228.194-.369.249-.069.027-.142.046-.216.057-.139.02-.232.006-.364-.004-.119-.009-.147-.011-.266-.018-.13-.007-.261-.012-.391-.016-.991-.022-1.986.057-2.943.325-.533.149-1.05.355-1.534.622-.299.165-.586.353-.856.562-.196.152-.384.315-.563.488-1.134 1.093-1.867 2.534-2.359 4.014-.09.269-.171.541-.247.815-.09.328-.17.658-.242.99-.095.439-.176.88-.245 1.323-.088.566-.156 1.134-.21 1.704-.076.817-.121 1.636-.142 2.456-.03 1.111-.016 2.223.028 3.334.053 1.323.149 2.644.274 3.962.173 1.81.403 3.614.67 5.411.326 2.197.709 4.384 1.128 6.565.549 2.864 1.162 5.715 1.809 8.558.792 3.479 1.639 6.945 2.501 10.407.909 3.636 1.835 7.269 2.748 10.904.704 2.823 1.401 5.649 2.048 8.485.515 2.257 1.002 4.52 1.412 6.798.144.803.279 1.608.399 2.415.161 1.083.3 2.17.425 3.258.151 1.304.274 2.611.366 3.921.072 1.026.119 2.054.136 3.083.012.672.01 1.344-.008 2.016-.013.503-.036 1.006-.07 1.508-.202 3.008-.798 6.064-2.309 8.707-.262.459-.55.902-.862 1.327-.538.731-1.148 1.406-1.814 2.02-1.67 1.542-3.664 2.688-5.711 3.65-1.016.478-2.05.912-3.093 1.327-1.14.453-2.291.881-3.443 1.303-.446.163-.893.325-1.34.487-.313.113-.627.224-.939.342-.163.063-.325.128-.487.196-.533.228-1.053.483-1.554.775-.776.453-1.504.99-2.161 1.604-.407.379-.785.789-1.133 1.222-.232.289-.449.588-.653.896-1.379 2.088-2.091 4.555-2.348 7.028-.043.417-.073.835-.092 1.254-.03.698-.027 1.397.01 2.094.028.529.074 1.058.153 1.583l.006.032c.004.075.016.15.011.224-.014.225-.105.442-.256.609-.05.055-.106.106-.168.148-.311.219-.73.24-1.062.055-.065-.037-.127-.081-.182-.131-.112-.101-.199-.225-.256-.364-.052-.127-.068-.256-.088-.39-.016-.11-.03-.221-.043-.331-.052-.442-.089-.885-.112-1.329-.088-1.653-.007-3.319.263-4.952.27-1.64.736-3.252 1.444-4.757.523-1.111 1.178-2.16 1.964-3.105.777-.935 1.678-1.764 2.673-2.462.677-.475 1.395-.891 2.141-1.247.399-.19.805-.361 1.217-.521.323-.121.647-.236.971-.354.661-.239 1.321-.48 1.98-.722 1.3-.483 2.598-.972 3.878-1.507.956-.4 1.903-.824 2.827-1.296 1.841-.94 3.614-2.082 5.013-3.622.373-.411.718-.849 1.03-1.309.213-.314.411-.638.593-.97 1.035-1.893 1.546-4.027 1.799-6.157.046-.382.083-.765.113-1.149.041-.528.069-1.057.086-1.586.022-.704.025-1.408.013-2.112-.017-.994-.063-1.987-.132-2.978-.09-1.28-.211-2.557-.358-3.831-.133-1.161-.282-2.321-.459-3.476-.122-.795-.258-1.589-.403-2.38-.393-2.143-.852-4.274-1.337-6.399-.644-2.823-1.337-5.634-2.038-8.444-.841-3.349-1.692-6.696-2.533-10.044-.941-3.762-1.865-7.528-2.726-11.309-.652-2.865-1.269-5.739-1.823-8.625-.45-2.342-.859-4.692-1.202-7.052-.265-1.825-.491-3.655-.658-5.491-.133-1.465-.229-2.934-.27-4.405-.029-1.029-.031-2.058.004-3.087.026-.753.071-1.506.141-2.256.057-.61.131-1.219.225-1.825.067-.435.146-.869.236-1.299.068-.324.144-.647.227-.968.535-2.061 1.411-4.091 2.879-5.664.219-.235.451-.458.694-.669.365-.316.756-.602 1.169-.853.6-.365 1.244-.655 1.912-.87.711-.23 1.449-.374 2.192-.45.374-.037.749-.056 1.125-.063.146-.001.145-.001.291-.001z" fill="#25e595" fill-rule="nonzero"/><path d="M427.151 360.935c2.12.014 4.233.219 6.324.565.408.067.815.139 1.221.217.447.085.891.174 1.332.284.749.187 1.486.422 2.205.702.518.201 1.028.425 1.527.67 3.366 1.652 6.2 4.217 8.601 7.066.374.445.739.897 1.095 1.357.493.636.97 1.285 1.432 1.944.549.783 1.078 1.58 1.589 2.388.707 1.116 1.381 2.252 2.032 3.401.849 1.497 1.657 3.017 2.444 4.548 1.03 2.003 2.023 4.025 3.033 6.038.27.534.54 1.067.813 1.599.71 1.369 1.434 2.736 2.263 4.038.303.475.62.942.966 1.386.337.433.703.845 1.127 1.194l.104.098c.029.038.062.073.088.112.081.118.135.254.159.395.016.094.019.189.008.284-.045.385-.317.717-.686.836-.091.029-.185.045-.281.048-.191.005-.381-.046-.544-.145-.041-.024-.079-.054-.117-.082-.029-.022-.136-.113-.161-.135-.084-.073-.166-.147-.247-.224-.313-.297-.601-.62-.872-.956-.759-.937-1.399-1.969-2.001-3.011-.734-1.269-1.411-2.572-2.073-3.88-.817-1.612-1.616-3.233-2.426-4.847-.309-.612-.619-1.224-.932-1.834-.711-1.379-1.436-2.75-2.194-4.103-1.048-1.869-2.157-3.706-3.366-5.476-1.062-1.553-2.203-3.055-3.456-4.46-1.779-1.997-3.8-3.813-6.12-5.162-1.08-.628-2.221-1.151-3.41-1.537-.677-.22-1.367-.389-2.066-.525-1.343-.262-2.698-.472-4.06-.61-1.116-.114-2.237-.179-3.358-.183-.534-.002-1.068.01-1.6.038-.388.021-.776.05-1.163.088-2.601.257-5.204.942-7.446 2.321-.335.206-.66.427-.975.662-.449.337-.875.704-1.274 1.099-.497.493-.949 1.031-1.347 1.607-.327.472-.617.97-.862 1.489-.171.362-.322.735-.435 1.119-.01.035-.019.07-.028.105-.039.12-.043.154-.107.264-.096.165-.239.3-.409.387-.085.043-.176.074-.27.092-.093.017-.189.022-.284.012-.336-.034-.638-.24-.791-.541-.044-.085-.075-.175-.092-.269-.018-.094-.022-.19-.013-.285.014-.138.058-.276.099-.408.097-.319.214-.631.345-.938.621-1.457 1.542-2.786 2.649-3.916.477-.487.99-.939 1.533-1.352.453-.345.927-.663 1.416-.953 1.965-1.168 4.17-1.883 6.417-2.262 1.342-.227 2.7-.332 4.06-.356.195-.002.389-.003.584-.003z" fill="#525f75" fill-rule="nonzero"/><path d="M471 387c0-3.863-3.137-7-7-7h-58c-3.863 0-7 3.137-7 7v13h72v-13z" fill="#444f61"/><path d="M415 373.998c0-2.208-1.79-3.998-3.998-3.998h-.004c-2.208 0-3.998 1.79-3.998 3.998V381h8v-7.002z" fill="#444f61"/><path d="M439 373.998c0-2.208-1.79-3.998-3.998-3.998h-.004c-2.208 0-3.998 1.79-3.998 3.998V380h8v-6.002z" fill="#9da9bd"/></g><g><path fill="#dde3ed" d="M597 256h8v144h-8zM279 256h8v144h-8z"/><path d="M269 249c0-3.314 2.686-6 6-6h334c3.314 0 6 2.686 6 6v10H269v-10z" fill="#69768c"/></g><path d="M544 189.8c0-1.545-1.255-2.8-2.8-2.8h-78.4c-1.545 0-2.8 1.255-2.8 2.8V243h84v-53.2z" fill="#444f61"/><g><path d="M392 191.7c0-1.49-1.21-2.7-2.7-2.7h-74.6c-1.49 0-2.7 1.21-2.7 2.7v48.6c0 1.49 1.21 2.7 2.7 2.7h74.6c1.49 0 2.7-1.21 2.7-2.7v-48.6z" fill="#edf0f5"/><path d="M343.196 227.248c-.637-.816 5.074-13.642 9.625-11.35.304.153 1.311 1.17 1.431 1.437 1.878 4.185-10.423 10.726-11.056 9.913zm11.755-11.133c1.082-.067 2.305-.397 2.967-1.054 0 0 3.032 1.231 2.933-.889-.071-1.527-4.608-1.169-5.9 1.943zm-1.298-1.042c.136-1.091.576-1.995 1.241-2.758-.369-.615.09-1.751.85-1.795 0 0-1.258-2.71-.247-3.446 3.112-2.265 3.087 5.947-1.844 7.999z" fill="#cad2e0"/></g><g><path d="M392 191.7c0-1.49-1.21-2.7-2.7-2.7h-74.6c-1.49 0-2.7 1.21-2.7 2.7v48.6c0 1.49 1.21 2.7 2.7 2.7h74.6c1.49 0 2.7-1.21 2.7-2.7v-48.6z" fill="#edf0f5"/><path d="M343.196 227.248c-.637-.816 5.074-13.642 9.625-11.35.304.153 1.311 1.17 1.431 1.437 1.878 4.185-10.423 10.726-11.056 9.913zm11.755-11.133c1.082-.067 2.305-.397 2.967-1.054 0 0 3.032 1.231 2.933-.889-.071-1.527-4.608-1.169-5.9 1.943zm-1.298-1.042c.136-1.091.576-1.995 1.241-2.758-.369-.615.09-1.751.85-1.795 0 0-1.258-2.71-.247-3.446 3.112-2.265 3.087 5.947-1.844 7.999z" fill="#cad2e0"/></g><g><path fill="#fdd1a5" d="M998.53 369.679h13v19.268h-13zM978.53 369.679h13v19.268h-13z"/><path d="M977.991 377.818s-12.307 8.066-27.305 12.214c-4.461 2.129-2.044 7.243-2.044 7.243l46.414-1.214s1.092-5.895.276-8.96c-.748-2.814-2.397-6.105-2.855-6.516-.451-.405-2.678 1.318-7.917.67-1.304-.162-2.366-.456-3.226-.807.862-1.827-.329-4.281-.329-4.281-.11-.277-.407-.357-.649-.171l-2.365 1.822z" fill="#1bc47e"/><path d="M963.021 385.642c-.024 1.299 3.155 3.567 18.313-5.194.862-1.827-.329-4.281-.329-4.281-.11-.277-.407-.357-.649-.171l-2.365 1.822s-6.112 4.006-14.97 7.824zM948.606 397.279c-1.069.933-.057 2.289.769 2.648 3.2 1.392 17.025-1.876 23.931-1.797 7.755.089 18.271 3.129 21.102 1.089 2.073-1.494.971-5.055.971-5.055s-6.635.725-13.149 1.208c-2.796.207-8.413.375-9.171.396-7.738.215-23.405.596-24.453 1.511z" fill="#8eedc6"/><path d="M970.691 223.005h21.373s16.311 11.162 15.576 29.363c-.735 18.201-13.297 64.382-13.297 64.382l-1.51 62.326-17.894-.661-6.064-60.7c-6.208-32.36-6.574-64.043 1.816-94.71z" fill="#444f61"/><path d="M968.784 398.388l.883-6.077 15.363-6.367 7.696-5.036c-.21-.287-.252-.47-.706-.354-.578.147-4.545 2.268-6.99 3.273-3.96 1.627-13.998 4.319-16.326 5.812-1.644 1.054-2.936 4.847-1.875 7.16-.625.179-.862 1.399-.502 1.868l2.457-.279z" fill="#181e26" fill-opacity="0.15"/><path d="M997.991 377.818s-12.307 8.066-27.305 12.214c-4.461 2.129-2.044 7.243-2.044 7.243l46.414-1.214s1.092-5.895.276-8.96c-.748-2.814-2.397-6.105-2.855-6.516-.451-.405-2.678 1.318-7.917.67-1.304-.162-2.366-.456-3.226-.807.862-1.827-.329-4.281-.329-4.281-.11-.277-.407-.357-.649-.171l-2.365 1.822z" fill="#1bc47e"/><path d="M983.021 385.642c-.024 1.299 3.155 3.567 18.313-5.194.862-1.827-.329-4.281-.329-4.281-.11-.277-.407-.357-.649-.171l-2.365 1.822s-6.112 4.006-14.97 7.824zM968.606 397.279c-1.069.933-.057 2.289.769 2.648 3.2 1.392 17.025-1.876 23.931-1.797 7.755.089 18.271 3.129 21.102 1.089 2.073-1.494.971-5.055.971-5.055s-6.635.725-13.149 1.208c-2.796.207-8.413.375-9.171.396-7.738.215-23.405.596-24.453 1.511z" fill="#8eedc6"/><path d="M985.176 223.005h26.888s14.769 11.465 14.034 29.666c-.735 18.201-11.755 64.079-11.755 64.079l-1.473 61.078-16.409-.532s-6.052-35.532-7.586-59.581c-1.494-23.425.897-70.411.897-70.411l-4.596-24.299z" fill="#444f61"/><clipPath id="g"><path d="M985.176 223.005h26.888s14.769 11.465 14.034 29.666c-.735 18.201-11.755 64.079-11.755 64.079l-1.473 61.078-16.409-.532s-6.052-35.532-7.586-59.581c-1.494-23.425.897-70.411.897-70.411l-4.596-24.299z"/></clipPath><g clip-path="url(#g)"><path d="M989.694 246.893c1.823 22.582 2.291 71.394 2.291 71.394s6.73 42.805 7.172 60.789c-1.862 2.088-3.897.328-3.897.328l-7.341-60.539s1.064-55.917 1.676-67.823l.099-4.149z" fill="#181e26" fill-opacity="0.15"/></g><path d="M973.868 147.644c-3.551 12.881-27.864 43.964-41.188 45.089-13.258 1.119-39.928-30.807-39.928-30.807l3.628-3.68c13.411 7.254 22.392 11.547 34.636 22.169 12.085-9.56 23.027-23.058 26.274-35.556l16.578 2.785zM1013.85 138.099c11.589 6.649 35.634 37.941 33.403 51.125-2.22 13.119-42.501 32.961-42.501 32.961l-5.148-3.664c10.367-11.181 21.966-21.544 35.305-30.755-6.247-14.086-16.561-24.161-27.855-30.42l6.796-19.247z" fill="#fdd1a5"/><path d="M959.654 71.749c6.048-14.962 16.954-23.933 31.45-24.209 14.042-.268 27.124 6.538 32.686 25.314 4.144 13.992 10.155 14.66 3.817 30.821-3.609 9.2-2.263 18.662-1.659 20.782 1.049 3.68 3.524 10.931-.326 15.995-4.575 6.017-7.664 13.246-7.664 13.246l-21.971-1.438s.134-18.203-4.457-18.194c-13.923.027-18.008 2.153-24.225 7.002-5.169 4.033-4.482 13.467-4.482 13.467s-6.558-7.089-6.426-15.438c.072-4.494 4.805-6.15 4.919-13.531.091-5.849-9.513-14.086-9.691-26.652-.105-7.376 4.187-17.66 8.029-27.165z" fill="#ff8c76"/><path d="M1020.37 161.197c.901-6.852-1.195-13.76-5.752-18.956-4.556-5.196-11.132-8.175-18.043-8.175h-10.034c-6.899 0-13.464 2.969-18.021 8.149-4.556 5.18-6.663 12.07-5.783 18.913 3.365 26.165 7.959 61.877 7.959 61.877h41.541s4.691-35.649 8.133-61.808z" fill="#fdd1a5"/><path d="M991.523 156.359l11.468-21.379c19.428.41 31.856 19.943 33.083 26.716-5.122 1.072-9.642 6.539-10.69 10.745-1.943-.042-3.882-.74-5.195-1.86l-8.125 52.424h-41.373l-7.499-51.814c-1.575 1.475-4.614 2.737-6.234 3.384.936-2.753-2.77-10.096-8.945-11.564 3.459-13.123 12.53-28.475 32.164-27.993l11.346 21.341z" fill="#8eedc6"/><path d="M959.654 71.749c6.048-14.962 16.954-23.933 31.45-24.209 14.042-.268 4.495 86.517-.096 86.526-13.923.027-17.204 2.657-23.42 7.506-5.17 4.033-4.765 12.963-4.765 12.963s-6.558-7.089-6.426-15.438c.072-4.494 4.805-6.15 4.919-13.531.091-5.849-9.513-14.086-9.691-26.652-.105-7.376 4.187-17.66 8.029-27.165z" fill="#ff8c76"/><g><path d="M985.042 118.374l-2.546 16.202 8.618 9.007 8.744-9.169-2.454-16.04h-12.362z" fill="#fdd1a5"/><clipPath id="h"><path d="M985.042 118.374l-2.546 16.202 8.618 9.007 8.744-9.169-2.454-16.04h-12.362z"/></clipPath><g clip-path="url(#h)"><path d="M982.897 119.869s-.551 4.674 8.428 4.571c7.992-.091 7.036-4.179 7.036-4.179l-15.464-.392z" fill="#181e26" fill-opacity="0.15"/></g><path d="M966.23 82.897s-2.376-2.656-4.271-.404c-1.703 2.022.747 3.892.772 5.781.02 1.545-.152 4.51 1.624 5.229 1.263.511 2.299.285 3.259-.886 3.284-4.006-1.384-9.72-1.384-9.72zM1016.22 82.897s2.377-2.656 4.272-.404c1.702 2.022-.748 3.892-.772 5.781-.021 1.545.152 4.51-1.624 5.229-1.264.511-2.3.285-3.26-.886-3.283-4.006 1.384-9.72 1.384-9.72z" fill="#f4ba80"/><ellipse cx="991.196" cy="88.605" rx="25.44" ry="33.335" fill="#fdd1a5"/><path d="M992.127 95.276c-.149-.384-.519-.637-.931-.637-.412 0-.782.253-.932.637-.654 1.676-1.504 3.858-2.046 5.247-.12.307-.08.654.106.927.187.273.496.436.826.436h4.091c.331 0 .64-.163.826-.436.186-.273.226-.62.106-.927-.541-1.389-1.392-3.571-2.046-5.247z" fill="#f4ba80"/><circle cx="978.915" cy="88.991" r="4" fill="#444f61"/><path d="M982.672 78.197c-1.013-.478-3.548-.892-5.773-.382-2.494.572-4.694 2.59-4.46 3.158.155.376 2.445-1.051 5.02-1.511 1.991-.356 4.204.069 5.06.283 1.05.262 1.109-1.096.153-1.548z" fill="#ff7f65"/><circle cx="1003.48" cy="88.991" r="4" fill="#444f61"/><path d="M1006.99 53.063c-7.64-5.511-27.818-4.579-35.703 5.292-7.428 9.298-5.142 24.449-5.142 24.449 6.131-4.54 13.928-10.888 20.113-18.195 12.755 2.901 24.511 9.07 30.003 18.245 0 0 5.988-18.784-9.271-29.791z" fill="#ff8c76"/><path d="M982.158 106.785c.754 3.741 4.544 6.778 9.038 6.778 4.494 0 8.284-3.037 9.037-6.778-2.259 1.247-5.531 2.259-9.037 2.259-3.507 0-6.778-1.012-9.038-2.259z" fill="#fff"/><path d="M999.743 78.197c1.013-.478 3.548-.892 5.773-.382 2.494.572 4.694 2.59 4.46 3.158-.155.376-2.445-1.051-5.02-1.511-1.99-.356-4.204.069-5.06.283-1.049.262-1.108-1.096-.153-1.548z" fill="#ff7f65"/></g><path d="M897.104 158.637c-1.275-2.538-3.646-8.163-6.344-9.772-4.971-2.965-8.782-7.064-9.428-5.591-.891 2.028 6.761 7.066 6.246 7.75-1.245 1.653-7.969-6.719-12.135-8.886-2.125-1.106 1.334 8.753 2.394 10.061 0 0 3.692 6.972 15.102 9.918l2.705-2.092 1.46-1.388z" fill="#fdd1a5"/></g><g><path d="M173.901 400c-.604 0-1.176-.273-1.555-.743-.38-.469-.527-1.085-.401-1.676.859-4.006 2.482-11.581 2.482-11.581h15.3s1.623 7.575 2.482 11.581c.126.591-.021 1.207-.401 1.676-.379.47-.951.743-1.555.743h-16.352z" fill="#181e26"/><path d="M182.077 391c3.817-.597 7.11 2.024 7.137 3.957.037 2.654-3.274 3.043-7.137 3.043-3.863 0-7.666-.333-7.65-1.787.021-1.931 3.813-4.613 7.65-5.213z" fill="#333e50"/><path d="M152.683 235.285s-3.046 5.437-3.77 11.563c-.439 3.711.048 8.032 1.676 10.912 1.402 2.48 6.283 7.962 7.868 1.903 1.842-7.039.209-11.116 2.593-11.836 1.546-.467 1.877 2.899 2.072 6.012.103 1.643 2.138 2.073 2.438-3.194.102-1.783-.228-6.412-.978-8.195-1.559-3.709-3.941-7.252-3.941-7.252l-7.958.087z" fill="#fee3c8"/><path d="M223.856 400c.604 0 1.176-.273 1.555-.743.38-.469.527-1.085.401-1.676-.859-4.006-2.482-11.581-2.482-11.581h-15.3s-1.623 7.575-2.482 11.581c-.126.591.021 1.207.401 1.676.379.47.951.743 1.555.743h16.352z" fill="#181e26"/><path d="M215.68 391c-3.817-.597-7.11 2.024-7.137 3.957-.037 2.654 3.274 3.043 7.137 3.043 3.863 0 7.666-.333 7.65-1.787-.021-1.931-3.813-4.613-7.65-5.213z" fill="#333e50"/><path d="M206.481 63.173h-15l-2 21.092h19l-2-21.092z" fill="#fee3c8"/><clipPath id="i"><path d="M206.481 63.173h-15l-2 21.092h19l-2-21.092z"/></clipPath><g clip-path="url(#i)"><path d="M188.481 65.814c4.985 5.424 16.102 5.752 21.117.186l-10.617-4.5-10.5 4.314z" fill="#181e26" fill-opacity="0.15"/></g><path d="M223.338 27.397s2.007-2.946 4.182-.963c1.953 1.782-.23 3.957-.007 5.833.183 1.534.744 4.451-.923 5.397-1.185.672-2.242.584-3.347-.451-3.782-3.539.095-9.816.095-9.816zM174.624 27.397s-2.007-2.946-4.181-.963c-1.954 1.782.23 3.957.006 5.833-.183 1.534-.743 4.451.923 5.397 1.186.672 2.242.584 3.348-.451 3.781-3.539-.096-9.816-.096-9.816z" fill="#f9cc9f"/><path d="M199.243.003c20.551.278 25.096 15.034 25.096 33.331 0 8.911-3.352 16.572-7.028 22.994-5.204 9.089-13.315 10.21-18.086 10.333l-.225.005c-4.737-.094-13.024-1.105-18.311-10.338-3.676-6.422-7.028-14.083-7.028-22.994C173.661 14.966 178.242.165 199 0l.243.003z" fill="#fee3c8"/><path d="M198.969 58.317c-6.65.141-11.455-4.768-10.819-5.724.243-.365 5.38 4.593 10.837 4.484h.026c5.457.109 10.594-4.849 10.837-4.484.636.956-4.169 5.865-10.819 5.724l-.031-.001-.031.001z" fill="#eb8560"/><path d="M199.884 39.218c-.161-.359-.518-.59-.912-.59-.393 0-.75.231-.911.59-.878 1.951-2.183 4.851-2.954 6.563-.139.31-.112.668.072.953.185.285.501.457.84.457h5.907c.339 0 .655-.172.84-.457.184-.285.211-.643.072-.953-.771-1.712-2.076-4.612-2.954-6.563z" fill="#f9cc9f"/><circle cx="186.2" cy="34.033" r="4.5" fill="#333e50"/><path d="M191.592 23.523c-.985-.535-3.584-.909-5.823-.463-2.51.5-4.65 1.423-4.549 2.029.046.279 3.196-.022 5.968-.009 2.03.009 3.984.47 4.191.289.642-.559.918-1.463.213-1.846z" fill="#525f75"/><circle cx="211.745" cy="34.033" r="4.5" fill="#333e50"/><path d="M206.332 23.523c.984-.535 3.584-.909 5.823-.463 2.509.5 4.649 1.423 4.549 2.029-.047.279-3.197-.022-5.969-.009-2.03.009-3.984.47-4.191.289-.642-.559-.918-1.463-.212-1.846z" fill="#525f75"/><path d="M231.723 212.265h-65.446l-2 27.91h-16.436s-2-95.036-2-132.909c0-8.062 5.36-15.14 13.119-17.326 11.892-3.327 29.171-7.584 40.04-7.675l.256.003c10.883.155 27.985 4.371 39.784 7.672 7.759 2.186 13.119 9.264 13.119 17.326 0 37.873-2 132.909-2 132.909h-16.436l-2-27.91z" fill="#bcf5dd"/><path d="M245.479 235.869s2.859 2.546 3.583 8.672c.44 3.711.283 7.838-1.474 10.642-2.498 3.987-11.5 3.529-10.876.122.471-2.573 7.008.978 6.754-3.215-.171-2.812-.536-5.082-3.213-5.069-1.51.008-2.209 2.478-2.405 5.59-.103 1.644-2.138 2.074-2.438-3.193-.101-1.783.094-6.479.978-8.195 1.842-3.577 2.388-5.712 2.388-5.712l6.703.358z" fill="#fee3c8"/><path d="M163.677 131.369l5.014 80.896h-2.414l-2.6-80.896zM234.325 131.371l-5.016 80.894 2.416.002 2.6-80.896z" fill="#181e26" fill-opacity="0.15"/><path d="M143.259 230.393h23.057l-.039 9.782h-19.436l-3.582-9.782zm107.843 9.781h-19.435l-.039-9.781h23.057l-3.583 9.781zM190.28 75.845l8.729 6.42-7.27 12.455-7.84-10.721 6.381-8.154zm17.458 0l-8.729 6.42 7.27 12.455 7.84-10.721-6.381-8.154z" fill="#8eedc6"/><path d="M199 197.337c1.104 0 2 .897 2 2 0 1.104-.896 2-2 2s-2-.896-2-2c0-1.103.896-2 2-2zm0-24c1.104 0 2 .897 2 2 0 1.104-.896 2-2 2s-2-.896-2-2c0-1.103.896-2 2-2zm0-24c1.104 0 2 .897 2 2 0 1.104-.896 2-2 2s-2-.896-2-2c0-1.103.896-2 2-2zm0-24c1.104 0 2 .897 2 2 0 1.104-.896 2-2 2s-2-.896-2-2c0-1.103.896-2 2-2zm0-24c1.104 0 2 .897 2 2 0 1.104-.896 2-2 2s-2-.896-2-2c0-1.103.896-2 2-2z" fill="#6de8b5"/><g><path fill="#333e50" d="M174.687 212.265h49.856v15.954h-49.856z"/><path d="M198.576 212.265h-30l3 174.495h21l6-174.495z" fill="#333e50"/><clipPath id="j"><path d="M198.576 212.265h-30l3 174.495h21l6-174.495z"/></clipPath><g clip-path="url(#j)"><path d="M187.202 212.265s-6.803 13.028-18.383 13.808c-14.675.987-1.71-13.273-1.71-13.273l6.032-6.305 14.061 5.77z" fill="#444f61"/></g><path d="M199.185 212.265h30l-3 174.495h-21l-6-174.495z" fill="#333e50"/><clipPath id="k"><path d="M199.185 212.265h30l-3 174.495h-21l-6-174.495z"/></clipPath><g clip-path="url(#k)"><path d="M210.559 212.265s6.804 13.028 18.383 13.808c14.675.987 1.71-13.273 1.71-13.273l-6.031-6.305-14.062 5.77z" fill="#444f61"/></g></g><g><path d="M249 263c0-2.208-1.792-4-4-4h-8c-2.208 0-4 1.792-4 4v52c0 2.208 1.792 4 4 4h8c2.208 0 4-1.792 4-4v-52z" fill="#9da9bd"/><path d="M242 259v60h-2v-60h2zm1 0h-4v-7c0-1.104.896-2 2-2s2 .896 2 2v7z" fill="#69768c"/></g></g><g><path d="M45.209 200c-6.535 2.14-19.137 19.413-21.885 30.897-6.491 27.135-.063 53.06 7.324 77.103-5.334 12.948 4 87 4 87h8l5-87 5.294-71.338L45.209 200zm15.465 0c6.536 2.14 19.138 19.413 21.885 30.897 6.492 27.135.063 53.06-7.323 77.103 5.334 12.948-4 87-4 87h-8l-5-87-5.294-71.338L60.674 200z" fill="#fdd1a5"/><path d="M30.286 400c-.343 0-.662-.175-.846-.465-.183-.29-.205-.654-.058-.964 1.191-2.43 4.395-7.11 11.438-7.034 4.812.053 6.901 4.816 7.64 7.172.092.303.036.631-.152.885-.189.254-.486.404-.802.404-3.556.002-13.45.002-17.22.002zm45.312 0c.343 0 .662-.175.845-.465.184-.29.206-.654.059-.964-1.192-2.43-4.395-7.11-11.438-7.034-4.813.053-6.901 4.816-7.641 7.172-.092.303-.035.631.153.885s.486.404.802.404c3.555.002 13.449.002 17.22.002z" fill="#ff6243"/><path d="M23.648 290c-6.492-41.583-7.885-65.213 6.383-95.571h45.822c14.268 30.358 12.875 53.988 6.383 95.571H23.648z" fill="#525f75"/><path d="M74.096 100.501c11.59 6.649 27.014 52.94 26.986 66.553-.027 13.305-.035 54.944-.035 54.944l-6.144 1.343c-1.311-13.288-9.365-30.958-6.272-56.287-6.248-14.086-10.036-41.047-21.331-47.306l6.796-19.247z" fill="#fdd1a5"/><path d="M82.691 121.832c.661-6.741-1.557-13.447-6.106-18.464-4.549-5.017-11.007-7.879-17.779-7.879H46.99c-6.762 0-13.21 2.853-17.758 7.856-4.549 5.003-6.776 11.693-6.134 18.424 2.797 29.311 6.933 72.66 6.933 72.66h45.541s4.245-43.287 7.119-72.597z" fill="#fdd1a5"/><path d="M30.031 194.429l-5.177-48.933s-16.484-7.175-13.971-15.469c8.728-28.804 17.834-29.903 26.304-32.444 6.658 3.386 11.196 5.374 15.755 5.976l.213-.029c4.486-.635 8.925-2.603 15.478-5.936 10.909 3.273 22.978 4.134 33.77 64.905 2.405 13.543-1.343 25.859-1.343 25.859l-12.565.725c-2.843-6.943-8.126-43.569-8.126-43.569L75.648 194.5l-22.706-.035-22.911-.036z" fill="#ff8c76"/><path d="M55.276 183.154c2.546-.899 5.666-2.355 8.552-1.813 5.317.999 10.525.485 10.066 1.917-.631 1.972-9.11.767-9.172 1.565-.151 1.929 9.741.224 14.001 1.283 2.173.54-6.351 5.308-7.904 5.569 0 0-7.89 2.109-19.063-3.681l-.728-3.729 4.248-1.111z" fill="#f4ba80"/><path d="M95.04 227.647c-.208 2.692.462 5.403.613 8.724.246 5.405.663 9.686 1.063 9.689 1.9.017.822-9.761 3.019-9.872 3.102-.155 3.112 3.715 3.25 7.545.078 2.204-6.612 2.216-5.836 3.619.677 1.221 8.675.179 9.437-2.799.46-1.798 2.509-12.732-5.539-22.6l-6.147 1.361.14 4.333z" fill="#fdd1a5"/><path d="M133.947 166.233c.252-.54.018-1.183-.522-1.435L86.442 142.89c-.541-.252-1.184-.018-1.436.522L53.378 211.24c-.252.54-.018 1.183.522 1.435l46.983 21.909c.54.252 1.183.018 1.435-.523l31.629-67.828z" fill="#9da9bd"/><path d="M129.088 167.189l-41.69-19.44-29.161 62.535 41.69 19.441 29.161-62.536z" fill="#f7f8fa"/><path d="M105.765 154.107c.013-.535.133-1.076.374-1.591.933-2.001 3.315-2.868 5.316-1.935 2 .933 2.867 3.315 1.934 5.316-.24.515-.577.956-.978 1.309l8.006 3.733c.75.35 1.075 1.243.725 1.994l-1.268 2.719c-.349.75-1.243 1.075-1.993.725l-22.658-10.565c-.75-.35-1.075-1.243-.725-1.994l1.268-2.719c.35-.75 1.243-1.075 1.993-.725l8.006 3.733z" fill="#69768c"/><path d="M97.268 194.499c.08.008.155.022.233.044.355.125.703.269 1.054.404.207.08.414.161.621.242.207.084.413.169.612.269.245.13.483.273.727.406.212.113.425.224.639.333.31.157.622.311.933.466.38.189.757.382 1.137.569.532.256 1.068.498 1.632.677.275.084.55.165.827.245.119.034.239.067.36.099.019-.002.039-.002.059-.003.08.001.157.006.236.023.099.022.193.061.284.107.204.105.378.26.484.466.181.35.137.787-.113 1.093-.075.093-.167.172-.27.233-.068.04-.142.074-.219.096-.132.037-.27.054-.408.04-.119-.011-.237-.038-.353-.067-.205-.049-.408-.106-.61-.164-.478-.137-.958-.273-1.424-.449-.602-.227-1.181-.507-1.756-.793-.636-.32-1.275-.635-1.908-.959-.238-.123-.474-.247-.708-.377-.156-.087-.309-.18-.466-.264-.059-.029-.118-.056-.178-.082-.085-.036-.171-.071-.256-.105-.532-.21-1.065-.413-1.598-.618-.148-.062-.279-.147-.387-.267-.066-.074-.12-.157-.162-.247-.143-.308-.117-.677.068-.963.065-.099.147-.187.242-.258.162-.121.35-.182.55-.197.06-.001.059-.001.118.001zm-9.523-4.528c.151.01.289.048.424.115.205.115.407.237.611.353.578.324 1.163.632 1.756.928.433.216.871.424 1.304.639.274.138.546.279.819.419.154.08.313.152.466.235.13.074.243.169.332.291.078.108.134.231.165.361.026.116.033.236.017.354-.046.358-.289.67-.625.803-.096.038-.199.061-.302.067-.165.011-.325-.022-.477-.087-.056-.025-.11-.054-.165-.082-.115-.057-.209-.103-.322-.162-.32-.164-.639-.329-.961-.489-.381-.187-.764-.371-1.144-.56-.276-.138-.55-.278-.824-.42-.411-.217-.821-.439-1.224-.67-.147-.084-.295-.168-.439-.258-.037-.025-.037-.024-.072-.051-.127-.104-.23-.229-.297-.38-.159-.356-.092-.784.169-1.075.069-.077.149-.143.239-.195.129-.075.27-.117.418-.133.044-.003.088-.004.132-.003zm-6.672-12.47l.103.021c.211.054.21.054.42.11.48.135.955.282 1.425.448.825.292 1.631.637 2.419 1.019 1.731.84 3.365 1.859 5.021 2.833.336.196.673.391 1.011.583.698.392 1.405.764 2.113 1.139 1.425.753 2.853 1.501 4.285 2.241 3.928 2.031 7.889 3.999 11.895 5.873l.092.049c.029.02.059.038.087.059.111.084.205.192.272.314.051.092.087.191.107.294.02.103.023.209.01.313-.048.388-.327.72-.701.834-.167.05-.347.057-.517.017-.091-.021-.112-.033-.198-.068-.552-.258-1.103-.518-1.654-.779-3.649-1.737-7.262-3.547-10.849-5.408-1.258-.652-2.512-1.31-3.764-1.971-.482-.255-.964-.509-1.444-.768-.24-.131-.48-.264-.719-.398-.232-.132-.464-.265-.696-.399-.883-.515-1.76-1.043-2.643-1.561-1.111-.644-2.235-1.266-3.412-1.782-.628-.275-1.27-.521-1.924-.731-.375-.12-.754-.226-1.136-.325l-.1-.031c-.085-.037-.108-.043-.187-.093-.118-.075-.219-.175-.297-.292-.057-.087-.101-.183-.13-.284-.028-.101-.04-.207-.035-.311.015-.354.223-.68.537-.844.124-.064.261-.103.4-.111.035-.002.07-.001.105-.001.035.003.069.006.104.01zm2.279-7.294c.897.018 1.781.188 2.642.438.654.19 1.295.425 1.925.686 1.992.826 3.871 1.9 5.72 3.003.859.517 1.712 1.042 2.569 1.561 2.607 1.562 5.264 3.037 7.969 4.422 3.276 1.677 6.616 3.226 9.951 4.782l.095.051c.03.02.061.039.09.061.115.088.21.201.277.329.051.095.085.199.103.306.058.362-.093.736-.385.957-.087.065-.184.117-.286.151-.172.057-.358.067-.535.027-.094-.021-.115-.034-.204-.07-1.174-.547-2.347-1.095-3.519-1.645-1.641-.774-3.278-1.555-4.903-2.364-1.621-.807-3.229-1.64-4.819-2.507-1.531-.835-3.046-1.7-4.543-2.594-.967-.577-1.923-1.171-2.888-1.751-.337-.202-.675-.402-1.014-.6-.971-.562-1.954-1.107-2.963-1.6-.687-.335-1.386-.647-2.101-.916-.545-.205-1.101-.385-1.668-.519-.581-.136-1.174-.221-1.772-.205l-.108-.003c-.036-.005-.072-.008-.108-.015-.142-.027-.277-.085-.395-.17-.088-.063-.165-.141-.228-.229-.064-.088-.112-.186-.144-.289-.108-.351-.01-.742.249-1.001.128-.128.29-.22.466-.263.093-.024.118-.022.214-.03.104-.002.208-.003.313-.003zm4.393-6.161c.092.012.116.011.206.037.089.026.109.04.193.079.101.062.199.129.301.189.46.258.965.425 1.47.572.624.182 1.257.331 1.885.496.195.053.195.053.389.107.482.139.958.293 1.418.495.695.317 1.387.644 2.081.966.996.462 1.992.924 2.988 1.388 2.493 1.167 4.981 2.347 7.433 3.601.82.42 1.637.847 2.448 1.284.634.342 1.263.692 1.896 1.036.308.166.617.331.926.496 1.025.539 2.057 1.062 3.106 1.553.095.044.202.082.296.12.125.051.159.066.286.12.107.047.214.094.32.143.082.04.165.08.246.122.317.165.634.361.833.666.053.081.093.172.124.264.018.052.033.108.04.162.012.087.019.173.012.261-.003.029-.007.058-.011.087l-.002.013c-.019.088-.019.088-.046.175l-.005.012c-.036.086-.042.109-.091.188-.074.119-.172.222-.288.3-.355.24-.837.224-1.175-.039-.099-.077-.179-.17-.243-.277-.08-.044-.163-.084-.245-.124-.264-.122-.534-.23-.803-.339-.137-.059-.271-.125-.406-.189-1.078-.515-2.144-1.055-3.198-1.618-.844-.45-1.68-.915-2.521-1.371-.32-.171-.64-.342-.961-.512-1.125-.59-2.257-1.168-3.397-1.731-2.122-1.049-4.266-2.055-6.413-3.053-.996-.463-1.992-.924-2.988-1.386-.371-.173-.746-.355-1.123-.521-.092-.038-.184-.075-.277-.11-.441-.161-.894-.286-1.348-.405-.384-.1-.77-.196-1.155-.296-.197-.053-.197-.053-.394-.107-.658-.188-1.314-.397-1.922-.716-.152-.08-.301-.167-.445-.262-.084-.055-.165-.113-.235-.186-.073-.076-.133-.163-.179-.257-.154-.319-.126-.705.073-.998.059-.086.132-.163.215-.228.11-.085.238-.147.374-.181.091-.022.115-.02.207-.028.035.001.07.002.105.002zm26.899 14v.008c.001-.006.001-.014 0-.008zm.027-.163l-.008.049.004-.022.031-.1c-.009.024-.018.048-.027.073z" fill="#dde3ed"/><path d="M51.756 187.994c-.127-.042-45.178-14.831-49.471-27.404-4.321-12.654 13.691-48.937 24.751-55.829l9.802 17.904c-8.334 8.171-13.86 21.09-19.944 35.782 14.646 6.947 26.353 15.338 38.382 24.707 2.546-.899 5.666-2.355 8.552-1.813 1.776.334.935 2.95.894 3.482-.151 1.929 9.741.224 14.001 1.283 2.173.54-6.351 5.308-7.904 5.569 0 0-7.89 2.109-19.063-3.681z" fill="#fdd1a5"/><path d="M52.874 103.562c-4.559-.602-9.033-2.579-15.691-5.965-10.191 2.377-31.816 13.857-37.114 60.23-1.179 10.328 13.016 14.763 16.266 15.08l8.244-10.548c-1.368-1.615-2.871-3.238-5.062-4.899l5.93-11.943 27.427-41.955z" fill="#ff8c76"/><path d="M51.605 134.645c-1.213-5.024-2.378-10.059-3.465-15.111-.505-2.348-.993-4.699-1.454-7.056-.375-1.916-.732-3.836-1.056-5.762-.325-1.924-.622-3.855-.835-5.795-.085-.776-.156-1.553-.197-2.331-.033-.618-.049-1.239-.015-1.857.012-.213.03-.427.059-.639.021-.155.048-.309.085-.461.097-.396.271-.824.642-1.036.052-.03.107-.054.164-.074.072-.024.146-.039.221-.044.071-.006.145-.006.214.01.091.02.174.066.241.131.044.043.079.094.105.151.091.201.036.445-.133.587-.071.061-.157.099-.249.113-.025.004-.05.003-.075.004-.012.015-.022.031-.032.047-.071.127-.11.27-.141.411-.047.216-.072.436-.089.655-.055.696-.031 1.399.01 2.095.062 1.083.18 2.163.316 3.239.176 1.397.389 2.788.619 4.177.343 2.068.725 4.13 1.127 6.188.46 2.35.947 4.695 1.451 7.037 1.072 4.983 2.222 9.949 3.415 14.904.156-.033.317-.051.48-.051.082 0 .163.005.244.013.041-.185.083-.371.124-.556.18-.79.361-1.58.543-2.37.805-3.473 1.63-6.942 2.441-10.414.279-1.198.556-2.395.83-3.594.744-3.266 1.471-6.536 2.112-9.824.243-1.244.473-2.49.68-3.74.193-1.168.368-2.34.497-3.517.039-.362.074-.725.103-1.089.019-.246.035-.493.047-.74.021-.421.03-.843.014-1.265-.012-.313-.036-.629-.097-.937-.035-.174-.079-.353-.163-.511-.023-.042-.048-.084-.082-.118-.016-.017-.034-.032-.057-.037-.018-.003-.035-.002-.053-.002-.031-.002-.062-.001-.092-.005-.061-.01-.12-.031-.173-.062-.221-.128-.31-.411-.203-.642.025-.056.061-.107.106-.15.066-.064.151-.109.241-.129.03-.006.061-.007.092-.011.067-.002.066-.002.134.001.1.01.197.026.293.06.071.025.138.057.202.096.381.233.574.667.682 1.082.021.078.038.156.054.234.022.111.039.224.054.336.016.121.029.242.038.364.013.165.022.33.026.496.007.218.007.436.003.654-.005.282-.017.563-.033.844-.057.956-.164 1.91-.292 2.859-.153 1.149-.339 2.294-.54 3.436-.477 2.718-1.04 5.42-1.628 8.115-.322 1.477-.653 2.951-.99 4.425-.479 2.098-.969 4.193-1.461 6.288-.541 2.301-1.085 4.602-1.621 6.905-.187.803-.372 1.606-.556 2.409-.108.476-.215.952-.321 1.428 1.06.617 1.802 2.028 1.802 3.668 0 2.208-1.344 4-3 4s-3-1.792-3-4c0-1.529.645-2.859 1.592-3.532z" fill="#dde3ed"/><g><path d="M60.306 95.756l-7.079 5.062-.194-.131-.193.131-7.079-5.062 1.509-15.79h11.527l1.509 15.79z" fill="#fdd1a5"/><path d="M59.441 86.706c-5.313 1.659-9.886-.542-12.582-2.442l.283-2.965 4.942-1.333h6.713l.644 6.74z" fill="#181e26" fill-opacity="0.15"/><path d="M76.392 61.599c-.703 2.455-1.621 4.774-2.724 6.916-4.471-.962-9.886-2.343-13.272-3.965 0 0 1.572 7.034 7.864 9.192.587.201 1.169.339 1.744.424-4.556 5.626-10.693 9.075-17.441 9.075-14.04 0-25.439-14.936-25.439-33.334 0-18.398 11.399-33.335 25.439-33.335 14.041 0 25.44 14.937 25.44 33.335 0 .37-.005.738-.014 1.106 0 0 2.516 5.314 3.586 7.576.121.255.128.55.02.811-.109.261-.322.464-.589.559l-4.614 1.64z" fill="#fdd1a5"/><path d="M69.083 38.797c-1.013-.479-3.547-.417-5.773.093-2.493.572-4.694 2.59-4.459 3.158.155.376 2.362-.631 4.937-1.091 1.991-.356 4.287-.351 5.143-.137 1.049.262 1.108-1.571.152-2.023z" fill="#17b272"/><circle cx="65.252" cy="50.026" r="4.5" fill="#525f75"/><path d="M51.181 31.825c-2.478 19.318-1.13 43.149 3.19 61.864-2.83-.161-8.489-2.846-8.489-2.846-1.973-9.157-1.408-15.731-1.795-24.327-1.675 8.268-2.848 14.664-2.884 23.201-7.157-2.506-21.195-11.934-28.859-20.713 0 0-5.263-17.878-3.228-30.994 2.59-16.7 17.455-30.765 45.984-27.421 10.014 1.174 22.242 12.713 22.081 21.236h-26z" fill="#1bc47e"/></g><g><path d="M108.648 253c0-2.208-1.793-4-4-4h-8c-2.208 0-4 1.792-4 4v52c0 2.208 1.792 4 4 4h8c2.207 0 4-1.792 4-4v-52z" fill="#9da9bd"/><path d="M99.648 249h-1v-7c0-1.104.896-2 2-2s2 .896 2 2v7h-1v60h-2v-60z" fill="#69768c"/></g></g><g><g fill="#333e50"><path d="M667.583 207.226c-6.535 2.139-9.831 17.366-12.578 28.85-6.491 27.134-4.957 62.881 2.429 86.924-5.334 12.948 4 77 4 77h8l5-77 5.294-81.338-12.145-34.436zM687.461 205c6.535 2.14 14.636 19.666 17.383 31.149 6.491 27.135 4.565 62.808-2.822 86.851 5.334 12.948-4 77-4 77h-8l-5-77-5.294-81.338L687.461 205z"/></g><path d="M655.55 372h18.068l-2.459 24.457-12.077-.016L655.55 372z" fill="#d63717"/><path d="M655.308 400c-.298 0-.581-.133-.772-.363-.19-.231-.267-.534-.21-.827.573-2.675 2.78-8.931 11.004-8.91 7.476.019 9.871 6.178 10.561 8.868.071.296.002.609-.186.849-.189.24-.478.38-.783.38-3.869.003-15.824.003-19.614.003zM674.589 372h-20.027s.362 2.538.508 3.57c.036.247.247.43.496.43h18.194c.259 0 .474-.197.498-.454.098-1.047.331-3.546.331-3.546z" fill="#bf2a0c"/><path d="M703.875 372h-18.067l2.459 24.457 12.077-.016L703.875 372z" fill="#d63717"/><path d="M704.117 400c.299 0 .582-.133.772-.363.19-.231.267-.534.211-.827-.573-2.675-2.78-8.931-11.004-8.91-7.477.019-9.872 6.178-10.561 8.868-.072.296-.003.609.186.849s.477.38.783.38c3.869.003 15.823.003 19.613.003zM684.836 372h20.027s-.361 2.538-.508 3.57c-.035.247-.246.43-.495.43h-18.195c-.258 0-.474-.197-.498-.454-.097-1.047-.331-3.546-.331-3.546z" fill="#bf2a0c"/><path d="M703.964 127.863c11.589 6.649 22.031 53.525 22.003 67.139-.027 13.305-.826 54.416-.826 54.416l-6.145.284c-1.31-13.288-8.573-29.372-5.48-54.7-3.665-9.682-4.396-30.357-16.348-47.892l6.796-19.247zM674.889 104.331l-3.234 14.554 7.983 8.32 8.187-8.32-3.234-14.554h-9.702z" fill="#d4712b"/><clipPath id="l"><path d="M674.889 104.331l-3.234 14.554 7.983 8.32 8.187-8.32-3.234-14.554h-9.702z"/></clipPath><g clip-path="url(#l)"><path d="M668.896 103.482s1.99 7.622 11.471 7.388c6.497-.16 10.12-7.744 10.12-7.744l-21.591.356z" fill="#181e26" fill-opacity="0.15"/></g><path d="M656.729 71.58s-2.19-2.449-3.937-.373c-1.569 1.864.689 3.588.712 5.329.018 1.424-.14 4.156 1.497 4.819 1.164.471 2.119.263 3.004-.817 3.026-3.692-1.276-8.958-1.276-8.958zM702.802 71.58s2.19-2.449 3.937-.373c1.569 1.864-.69 3.588-.712 5.329-.019 1.424.14 4.156-1.497 4.819-1.165.471-2.119.263-3.004-.817-3.027-3.692 1.276-8.958 1.276-8.958z" fill="#aa5e27"/><ellipse cx="679.74" cy="76.841" rx="23.448" ry="30.725" fill="#d4712b"/><path d="M680.581 83.469c-.184-.287-.501-.46-.841-.46-.34 0-.657.173-.841.46-.757 1.177-1.869 2.907-2.669 4.15-.197.308-.211.699-.036 1.02.175.321.512.521.878.521h5.336c.366 0 .703-.2.878-.521.175-.321.161-.712-.037-1.02-.799-1.243-1.911-2.973-2.668-4.15z" fill="#aa5e27"/><circle cx="668.42" cy="76.032" r="4" fill="#181e26"/><path d="M672.659 67.424c-.918-.473-3.077-1.245-5.143-.845-2.315.448-4.785 2.753-4.587 3.283.131.352 2.665-1.406 5.051-1.749 1.845-.264 3.491.712 4.273.936.958.275 1.272-1.179.406-1.625z" fill="#333e50"/><circle cx="691.06" cy="76.032" r="4" fill="#181e26"/><path d="M674.374 96.638s1.371 3.86 5.295 3.833c4.804-.034 5.702-3.869 5.702-3.869l-10.997.036z" fill="#853c2d"/><path d="M674.412 96.638c1.599-1.738 2.892-2.274 5.325-1.08 2.593-1.325 3.486-.612 5.634 1.044l-4.599 1.488-6.36-1.452z" fill="#853c2d"/><path d="M670.615 93.938c5.842 4.287 12.17 4.417 18.143-.043 0 0-2.892 4.466-9.028 4.454-6.118-.012-9.115-4.411-9.115-4.411z" fill="#672e23"/><path d="M686.815 67.424c.918-.473 3.078-1.245 5.144-.845 2.315.448 4.785 2.753 4.587 3.283-.131.352-2.665-1.406-5.051-1.749-1.845-.264-3.491.712-4.273.936-.958.275-1.273-1.179-.407-1.625z" fill="#333e50"/><path d="M709.502 145.102c.661-6.74-1.557-13.446-6.106-18.463-4.549-5.017-11.007-7.879-17.779-7.879h-11.816c-6.762 0-13.21 2.852-17.758 7.856-4.549 5.003-6.776 11.692-6.134 18.424 2.797 29.311 6.933 72.66 6.933 72.66h45.541s4.245-43.287 7.119-72.598z" fill="#d4712b"/><path d="M655.776 127.863c-11.287 7.149-21.219 54.093-20.595 67.692.609 13.291-.672 55.014-.672 55.014l6.24-.196c.728-13.332 11.069-30.194 6.871-55.363 5.625-14.345 4.778-41.469 15.788-48.216l-7.632-18.931z" fill="#d4712b"/><path d="M640.755 250.266c1.21 2.414 2.385 7.254 2.208 10.186-.325 5.4.837 10.502-.641 10.227-2.035-.38-1.902-8.943-2.701-8.905-1.933.092.998 9.693.48 14.053-.264 2.223-6.062-5.638-6.515-7.145 0 0-3.421-6.348.925-18.158l3.948-2.405 2.296 2.147z" fill="#d4712b"/><path d="M709.938 132.759s16.618 30.039 17.404 56.424c.597 20.043-.169 58.503-.169 58.503l-9.006.631c-5.037-19.307-6.935-33.049-7.388-53.798l-7.747-27.226 6.906-34.534zM650.903 132.782s-16.857 30.016-17.643 56.401c-.597 20.043.169 58.503.169 58.503l9.006.631c5.037-19.307 6.935-33.049 7.388-53.798l7.746-27.226-6.666-34.511z" fill="#ffa391"/><path d="M656.538 125.758c-19.567 12.544-.558 79.388.304 91.942-14.486 59.699-16.023 97.231-14.387 123.259.165 2.365 1.968 4.289 4.318 4.606 21.959 2.889 43.908 2.872 65.847.006 2.392-.32 4.214-2.304 4.329-4.714 1.33-29.849-1.312-61.678-14.566-123.157 0 0 11.151-68.183 10.286-79.114-1.033-13.067-56.131-12.828-56.131-12.828z" fill="#ffa391"/><clipPath id="m"><path d="M656.538 125.758c-19.567 12.544-.558 79.388.304 91.942-14.486 59.699-16.023 97.231-14.387 123.259.165 2.365 1.968 4.289 4.318 4.606 21.959 2.889 43.908 2.872 65.847.006 2.392-.32 4.214-2.304 4.329-4.714 1.33-29.849-1.312-61.678-14.566-123.157 0 0 11.151-68.183 10.286-79.114-1.033-13.067-56.131-12.828-56.131-12.828z"/></clipPath><g clip-path="url(#m)" fill="#181e26" fill-opacity="0.15"><path d="M651.413 188.929c.409-.723 1.027 4.362 1.027 4.362s6.498-30.449 4.257-37.163l-5.284 32.801zM708.517 187.856c-.432-.71-.883 4.393-.883 4.393s-7.491-30.221-5.471-37.004l6.354 32.611z"/></g><path d="M679.827 43.249c12.855.013 28.646 8.052 28.396 32.783-.242 23.989-12.042 28.767-18.898 33.174 1.908.459 3.619 5.216 3.171 7.234 1.957-.327 21.71 10.542 20.342 21.235-1.324 10.35-49.787-6.162-57.527-10.696-2.132-1.249 3.971-8.651 7.204-8.219-.168-2.855 2.501-5.487 5.146-5.508-.925-1.649 1.153-4.739 2.908-4.408 0 0-20.14-9.526-19.766-32.812.28-17.449 11.584-32.801 29.024-32.783zm-.736 13.348c6.892.343 18.664.503 21.135 16.541 2.934 19.042-8.55 34.671-20.305 34.426-11.755-.244-22.48-18.133-21.001-31.532 1.479-13.399 10.797-19.902 20.171-19.435z" fill="#ffc7bc"/><clipPath id="n"><path d="M679.827 43.249c12.855.013 28.646 8.052 28.396 32.783-.242 23.989-12.042 28.767-18.898 33.174 1.908.459 3.619 5.216 3.171 7.234 1.957-.327 21.71 10.542 20.342 21.235-1.324 10.35-49.787-6.162-57.527-10.696-2.132-1.249 3.971-8.651 7.204-8.219-.168-2.855 2.501-5.487 5.146-5.508-.925-1.649 1.153-4.739 2.908-4.408 0 0-20.14-9.526-19.766-32.812.28-17.449 11.584-32.801 29.024-32.783zm-.736 13.348c6.892.343 18.664.503 21.135 16.541 2.934 19.042-8.55 34.671-20.305 34.426-11.755-.244-22.48-18.133-21.001-31.532 1.479-13.399 10.797-19.902 20.171-19.435z"/></clipPath><g clip-path="url(#n)"><path d="M671.547 125.544c-2.63.088-10.81-3.885-12.031-5.716-.146-1.018 1.562-2.134 2.996-1.068.217 1.044 5.703 5.905 9.035 6.784zm21.011-9.11c-1.869 1.383-2.811 2.234-5.929 2.926 3.954.374 5.979-.033 9.46-1.563.622-.114-1.04-1.56-3.531-1.363zm-14.875 2.419c-2.564.628-11.456-2.896-12.677-4.727-.146-1.019 1.213-1.954 2.647-.888.217 1.044 6.656 5.023 10.03 5.615zm-7.17-10.036c2.822 1.464 4.767 2.191 7.885 2.883-3.98.932-6.701.982-10.44-1.032-.622-.113.064-2.048 2.555-1.851zm18.812.389c-1.869 1.383-2.666 1.802-5.784 2.494 3.98.932 5.785.597 9.524-1.417.622-.114-1.249-1.274-3.74-1.077z" fill="#181e26" fill-opacity="0.15"/></g><g><path d="M724.549 231.13c-.184-1.044-.774-1.973-1.642-2.582-.868-.609-1.943-.848-2.987-.665-.629.111-1.078.19-1.078.19l6.221 35.458s.032-.006.091-.016c1.306-.229 2.468-.968 3.229-2.053.762-1.086 1.061-2.43.832-3.736-1.247-7.104-3.525-20.088-4.666-26.596z" fill="#c93214"/><path d="M709.448 229.721s-57.157-84.897-61.531-91.395c-.166-.247-.202-.559-.097-.838 1.111-2.892 2.967-6.467 4.913-9.066.1-.129.257-.202.421-.194.163.007.313.095.399.234 5.241 8.339 62.86 100.037 62.86 100.037l3.505-.615s7.303 41.623 9.85 56.142c.229 1.306-.07 2.65-.832 3.736-.761 1.085-1.923 1.824-3.229 2.053-2.692.472-5.876 1.031-7.88 1.383-.522.091-1.059-.028-1.494-.333-.434-.305-.729-.769-.821-1.292-1.615-9.205-8.408-47.922-10.023-57.127-.091-.523.028-1.06.333-1.494.304-.435.769-.73 1.292-.822l2.334-.409z" fill="#bf2a0c"/></g></g><g><path d="M809.498 396h20v2c0 .53-.211 1.039-.586 1.414s-.884.586-1.414.586h-16c-.531 0-1.039-.211-1.414-.586s-.586-.884-.586-1.414v-2z" fill="#edf0f5"/><path d="M826.498 391l3 5c-6.979 1.333-13.61 1.181-20 0l3-5v-8h14v8z" fill="#9da9bd"/><path d="M816.206 391.502c.048.006.092.016.138.032.082.032.164.062.247.092.788.267 1.615.396 2.446.423.792.025 1.589-.041 2.366-.199.268-.054.533-.12.795-.198.141-.042.279-.092.42-.135.035-.008.035-.008.07-.014.084-.006.166.001.245.033.216.087.345.319.306.548-.01.059-.031.116-.06.167-.056.095-.138.163-.237.209-.08.031-.162.057-.243.084-1.505.477-3.122.625-4.688.426-.458-.059-.913-.148-1.357-.276-.238-.068-.477-.144-.704-.242-.032-.016-.032-.016-.063-.035-.068-.049-.126-.108-.166-.183-.114-.217-.05-.494.148-.638.069-.05.146-.078.23-.092.036-.003.07-.004.107-.002zm0-2c.048.006.092.016.138.032.082.032.164.062.247.092.788.267 1.615.396 2.446.423.792.025 1.589-.04 2.366-.199.268-.054.533-.12.795-.198.141-.042.279-.092.42-.135.035-.008.035-.008.07-.014.084-.006.166.001.245.033.216.087.345.319.306.548-.01.059-.031.116-.06.167-.056.095-.138.163-.237.209-.08.031-.162.057-.243.084-1.505.477-3.122.625-4.688.426-.458-.059-.913-.148-1.357-.276-.238-.068-.477-.144-.704-.242-.032-.016-.032-.016-.063-.035-.068-.049-.126-.108-.166-.183-.114-.217-.05-.494.148-.638.069-.05.146-.078.23-.092.036-.003.07-.004.107-.002zm0-2c.048.006.092.016.138.032.082.032.164.062.247.092.755.256 1.548.385 2.344.419.826.035 1.658-.03 2.468-.195.268-.054.533-.12.795-.198.141-.042.279-.092.42-.135.035-.008.035-.008.07-.014.109-.008.214.009.309.065.201.116.296.364.225.585-.018.057-.047.11-.084.157-.052.067-.12.114-.196.15-.08.031-.162.057-.243.084-1.505.477-3.122.625-4.688.426-.458-.059-.913-.148-1.357-.276-.238-.068-.477-.144-.704-.242-.032-.016-.032-.016-.063-.035-.068-.049-.126-.108-.166-.183-.114-.217-.05-.494.148-.638.069-.05.146-.078.23-.092.036-.003.07-.004.107-.002z" fill="#f7f8fa"/><path d="M797.453 396h-20v2c0 .53.211 1.039.586 1.414s.884.586 1.414.586h16c.531 0 1.04-.211 1.415-.586s.585-.884.585-1.414v-2z" fill="#edf0f5"/><path d="M780.453 391v-8h14v8l3 5c-6.39 1.181-13.021 1.333-20 0l3-5z" fill="#9da9bd"/><path d="M790.817 391.501c.084.008.163.03.235.075.232.144.304.458.16.689-.058.093-.143.158-.243.201-.093.036-.186.071-.28.104-.848.288-1.736.436-2.63.474-.68.029-1.363-.005-2.036-.099-.451-.062-.898-.153-1.338-.273-.227-.062-.456-.127-.676-.212-.032-.015-.031-.015-.063-.032-.071-.047-.131-.103-.173-.177-.03-.051-.051-.108-.061-.167-.039-.229.091-.461.306-.548.102-.041.209-.043.315-.019.141.043.28.092.42.135.927.27 1.889.404 2.854.402.66-.002 1.322-.065 1.967-.207.237-.053.472-.117.703-.193.123-.041.242-.089.364-.132.035-.009.034-.009.069-.016.036-.004.07-.006.107-.005zm0-2c.108.01.209.046.293.117.208.175.236.496.06.704-.055.065-.123.111-.201.144-.093.036-.186.071-.28.104-.955.324-1.96.471-2.967.483-1.248.015-2.498-.174-3.679-.58-.034-.013-.033-.013-.066-.028-.106-.059-.19-.144-.236-.258-.022-.055-.034-.114-.036-.174-.006-.245.174-.465.416-.506.084-.014.166-.004.246.02.097.033.193.065.29.096.955.29 1.952.433 2.95.431.66-.002 1.322-.065 1.966-.207.238-.053.473-.117.704-.193.123-.041.242-.089.364-.132.035-.009.034-.009.069-.016.036-.004.07-.006.107-.005zm0-2c.108.01.209.046.293.117.208.175.236.496.06.704-.055.065-.123.111-.201.144-.093.036-.186.071-.28.104-.955.324-1.96.471-2.967.483-1.248.015-2.498-.174-3.679-.58-.034-.013-.033-.013-.066-.028-.074-.041-.137-.093-.185-.164-.034-.049-.058-.104-.073-.162-.058-.238.071-.491.299-.583.114-.046.234-.044.349-.009.097.033.193.065.29.096.955.29 1.952.433 2.95.431.66-.002 1.322-.065 1.966-.207.238-.053.473-.117.704-.193.123-.041.242-.089.364-.132.035-.009.034-.009.069-.016.036-.004.07-.006.107-.005z" fill="#f7f8fa"/><g><path fill="#17b272" d="M779.282 215h49.856v15.954h-49.856z"/><path d="M803.171 215h-27l-1 170.495h23l5-170.495z" fill="#17b272"/><clipPath id="o"><path d="M803.171 215h-27l-1 170.495h23l5-170.495z"/></clipPath><g clip-path="url(#o)"><path d="M791.797 215s-6.803 13.028-18.383 13.808c-14.675.987-1.71-13.273-1.71-13.273l6.032-6.305 14.061 5.77z" fill="#1bc47e"/></g><path d="M803.78 215h27l1 170.495h-23l-5-170.495z" fill="#17b272"/><clipPath id="p"><path d="M803.78 215h27l1 170.495h-23l-5-170.495z"/></clipPath><g clip-path="url(#p)"><path d="M815.154 215s6.804 13.028 18.383 13.808c14.675.987 1.71-13.273 1.71-13.273l-6.031-6.305-14.062 5.77z" fill="#1bc47e"/></g></g><g><path d="M827.85 56.457s2.719-2.221 4.053-.678c1.912 2.211-.151 4.899-.219 6.787-.087 2.427.761 3.913-.518 4.521-1.23.586-2.306.222-3.412-.813-3.781-3.54.096-9.817.096-9.817z" fill="#7d441c"/><path d="M810.959 92.234h-15l-2 19.092 9.641 4.134 9.359-4.134-2-19.092z" fill="#aa5822"/><clipPath id="q"><path d="M810.959 92.234h-15l-2 19.092 9.641 4.134 9.359-4.134-2-19.092z"/></clipPath><g clip-path="url(#q)"><path d="M792.959 94.875c4.984 5.424 16.101 5.751 21.117.186l-10.617-4.5-10.5 4.314z" fill="#181e26" fill-opacity="0.15"/></g><path d="M779.102 56.457s-2.719-2.221-4.054-.678c-1.912 2.211.151 4.899.219 6.787.087 2.427-.761 3.913.518 4.521 1.231.586 2.307.222 3.412-.813 3.781-3.54-.095-9.817-.095-9.817z" fill="#7d441c"/><path d="M803.598 29.062l.121-.001c20.758.165 25.865 14.973 25.338 33.334-.298 10.41-4.659 22.713-11.167 28.147-3.344 2.791-12.335 6.406-14.123 6.38-.049 0-.106-.003-.169-.007-.063.004-.12.007-.169.007-1.787.026-10.779-3.589-14.122-6.38-6.509-5.434-10.87-17.737-11.168-28.147-.527-18.361 4.58-33.169 25.338-33.334l.121.001z" fill="#aa5822"/><path d="M803.454 84.366l.026-.021c5.371-.012 9.54-3.771 10.409-2.657.671.86-4.818 4.502-10.409 4.505l-.026-.027v.027c-5.592-.003-11.081-3.645-10.409-4.505.869-1.114 5.038 2.645 10.409 2.657v.021z" fill="#672e23"/><path d="M783.265 44.401c8.965-7.393 32.201-7.635 41.928.293l3.431 22.707c7.092-24.272-7.877-40.908-25.117-41.02-15.194-.099-27.91 10.36-26.159 32.097.174 2.161 1.156 8.423 1.156 8.423l4.761-22.5z" fill="#333e50"/><path d="M805.228 71.413c-.361-.642-1.041-1.04-1.778-1.04-.737 0-1.417.398-1.778 1.04-.65 1.155-1.354 2.408-1.884 3.349-.174.31-.171.688.009.995.179.307.508.495.863.495h5.58c.355 0 .684-.188.863-.495.18-.307.183-.685.009-.995-.53-.941-1.234-2.194-1.884-3.349z" fill="#7d441c"/><circle cx="790.678" cy="63.094" r="4.5" fill="#181e26"/><path d="M795.309 52.582c-.984-.535-2.724-.692-5.03-.457-2.546.26-4.654 1.109-4.582 1.719.062.522 3.089.366 5.861.379 2.03.01 3.674.468 4.188.166.734-.431.269-1.424-.437-1.807z" fill="#181e26"/><circle cx="816.222" cy="63.094" r="4.5" fill="#181e26"/><path d="M811.591 52.582c.984-.535 2.724-.692 5.03-.457 2.546.26 4.654 1.109 4.582 1.719-.062.522-3.089.366-5.86.379-2.03.01-3.675.468-4.189.166-.734-.431-.269-1.424.437-1.807z" fill="#181e26"/></g><g><path d="M826.14 115.258c11.589 4.164 32.251 41.541 31.141 54.866-1.112 13.355-4.803 42.95-4.803 42.95l-7.021-.291c-1.739-6.164-5.992-23.128-2.797-41.486-6.247-14.085-12.788-30.354-24.083-36.614l7.563-19.425zM774.119 119.712c-10.888 5.754-26.081 45.669-23.106 58.705 2.982 13.065 53.889 11.383 53.889 11.383l.451-10.215c-6.568-1.401-25.341-4.097-39.139-8.322 4.201-14.825 7.827-25.596 18.127-33.384l-10.222-18.167z" fill="#aa5822"/><path d="M772.28 132.411c-.298-5.484 1.672-10.85 5.45-14.838 3.777-3.988 9.028-6.247 14.52-6.247h22.504c5.484 0 10.727 2.252 14.503 6.229 3.776 3.977 5.754 9.33 5.47 14.806-1.588 30.633-4.349 83.905-4.349 83.905h-53.542s-2.891-53.215-4.556-83.855z" fill="#aa5822"/><path d="M813.035 111.419s-1.314 7.233-9.391 7.274c-7.909.041-9.542-7.29-9.542-7.29-4.715-.367-15.536.642-22.655 5.688-10.603 7.516-25.434 54.101-21.454 63.491 2.664 6.286 16.106 8.051 16.106 8.051s.208-12.125.856-17.741l5.637-15.533 2.259 60.972c20.719 3.402 34.47 3.696 57.541.012l2.168-61.47 6.259 16.891 1.977 41.522 9.683-.217s7.932-41.384 6.493-47.16c-2.769-11.116-19.325-45.871-23.288-48.859-4.304-3.246-15.08-6.471-22.649-5.631z" fill="#cad2e0"/><clipPath id="r"><path d="M813.035 111.419s-1.314 7.233-9.391 7.274c-7.909.041-9.542-7.29-9.542-7.29-4.715-.367-15.536.642-22.655 5.688-10.603 7.516-25.434 54.101-21.454 63.491 2.664 6.286 16.106 8.051 16.106 8.051s.208-12.125.856-17.741l5.637-15.533 2.259 60.972c20.719 3.402 34.47 3.696 57.541.012l2.168-61.47 6.259 16.891 1.977 41.522 9.683-.217s7.932-41.384 6.493-47.16c-2.769-11.116-19.325-45.871-23.288-48.859-4.304-3.246-15.08-6.471-22.649-5.631z"/></clipPath><g clip-path="url(#r)"><path d="M805.943 182.397c1.786-.634 3.111-1.613 3.976-2.939.864-1.325 1.296-2.909 1.296-4.753h-1.772c-1.933 0-3.5-1.567-3.5-3.5v-3.226c0-1.933 1.567-3.5 3.5-3.5h3.803c1.933 0 3.5 1.567 3.5 3.5v6.726c0 1.671-.288 3.183-.864 4.537-.577 1.354-1.354 2.564-2.334 3.63-.979 1.066-2.117 1.988-3.413 2.765-1.297.778-2.694 1.369-4.192 1.772v-5.012zm-17.197 0c1.786-.634 3.111-1.613 3.975-2.939.864-1.325 1.296-2.909 1.296-4.753h-1.771c-1.933 0-3.5-1.567-3.5-3.5v-3.226c0-1.933 1.567-3.5 3.5-3.5h3.802c1.933 0 3.5 1.567 3.5 3.5v6.726c0 1.671-.288 3.183-.864 4.537-.576 1.354-1.354 2.564-2.333 3.63-.98 1.066-2.118 1.988-3.414 2.765-1.296.778-2.693 1.369-4.191 1.772v-5.012zm7.302-35.686c1.933 0 3.5 1.567 3.5 3.5v3.226c0 1.933-1.567 3.5-3.5 3.5h-3.802c-1.933 0-3.5-1.567-3.5-3.5v-6.726c0-1.671.288-3.184.864-4.537.576-1.354 1.354-2.564 2.333-3.63.98-1.066 2.118-1.988 3.414-2.765 1.296-.778 2.693-1.369 4.191-1.772v5.012c-1.786.634-3.111 1.613-3.975 2.939-.864 1.325-1.296 2.909-1.296 4.753h1.771zm17.198 0c1.933 0 3.5 1.567 3.5 3.5v3.226c0 1.933-1.567 3.5-3.5 3.5h-3.803c-1.933 0-3.5-1.567-3.5-3.5v-6.726c0-1.671.288-3.184.864-4.537.577-1.354 1.354-2.564 2.334-3.63.979-1.066 2.117-1.988 3.413-2.765 1.297-.778 2.694-1.369 4.192-1.772v5.012c-1.786.634-3.111 1.613-3.976 2.939-.864 1.325-1.296 2.909-1.296 4.753h1.772z" fill="#9da9bd"/><path d="M805.392 179.598c-2.162-1.814-7.813-4.349-32.267-9.338l-.064 2.51 32.331 6.828z" fill="#181e26" fill-opacity="0.15"/></g><path d="M803.394 189.002s4.717 2.469 10.822 3.355c3.698.536 8.189-.221 11.038-1.903 5.282-3.119 5.932-6.738 2.111-7.815-7.003-1.975-11.868 1.117-12.773-2.016-.448-1.552 3.956-2.688 7.073-2.801 1.646-.06 2.129-2.083-3.128-2.522-1.78-.148-6.251.544-7.991 1.382-3.624 1.747-7.332 5.609-7.332 5.609l.18 6.711z" fill="#7d441c"/><path d="M812.6 164.019h1c0-1.657 1.343-3 3-3h12c1.657 0 3 1.343 3 3h1v4h-20v-4z" fill="#edf0f5"/><path d="M831.6 168.019h-18l1.988 30h14.024l1.988-30z" fill="#ff7f65"/><path d="M822.853 177.702c1.852-.137 3.89-.065 5.566.541-1.555.597-2.587 1.304-2.732 2.196 1.238-.389 2.575.379 3.964 1.667-1.547.057-2.825.674-3.867 1.781.622.424 1.323.486 2.304.893-1.587 1.105-3.906 2.531-5.844 2.213.329-.236.63-.512.898-.814.687-.777 1.163-1.73 1.411-2.735.197-.797.251-1.632.138-2.446-.171-1.221-.73-2.419-1.708-3.197-.043-.034-.086-.067-.13-.099zm-1.516.362c1.866.5 2.859 2.854 2.216 5.253-.642 2.399-2.679 3.941-4.545 3.441s-2.859-2.854-2.216-5.253c.643-2.399 2.679-3.941 4.545-3.441zm-.504 1.882c.933.25 1.351 1.718 1.03 2.918-.321 1.199-1.443 2.354-2.376 2.104-.932-.25-1.326-1.811-1.005-3.01.322-1.2 1.418-2.262 2.351-2.012z" fill="#fbeae7"/><path d="M803.394 189.002s4.717 2.469 10.822 3.355c3.698.536 8.189-.221 11.038-1.903 5.282-3.119 5.932-6.738 2.111-7.815-7.003-1.975-11.868 1.117-12.773-2.016-.448-1.552-2.306-4.779-4.046-3.941-3.624 1.747-7.332 5.609-7.332 5.609l.18 6.711z" fill="#aa5822"/><path d="M762.096 179.102l4.854-8.167 38.403 8.65-.451 10.215c-12.689 1.235-25.63.796-38.803-1.167l-4.003-9.531z" fill="#cad2e0"/></g></g><g><path d="M555.579 107.61c2.634-12.297 18.712-19.975 37.586-16.951 21.151 3.39 34.073 14.021 29.478 33.242-3.592 15.025-26.536 22.873-40.64 18.202-3.166-1.048-6.331-2.078-9.226-3.637-5.407 5.97-11.152 8.573-17.063 9.521 5.378-4.113 8.502-9.224 8.544-15.7-7.723-7.448-10.607-15.68-8.679-24.677z" fill="#edf0f5"/><path d="M595.232 125.739c-.543-.057-1.631.049-2.191 1.805-.451 1.413.367 2.174 1.093 2.344.806.189 1.723-.288 2.117-1.859.387-1.542-.125-2.196-1.019-2.29zm-14.882-.802c-1.402-.393-3.547-1.639-3.827-.369-.383 1.737 6.729 3.555 7.243 1.968.331-1.024-1.565-1.081-3.416-1.599zm.721-2.99c-1.403-.393-4.198-1.938-4.478-.668-.383 1.738 8.186 3.89 8.7 2.302.332-1.023-2.371-1.115-4.222-1.634zm23.658-14.436c-4.35-2.761-9.889 15.871-8.682 16.287.938.322 11.215-14.679 8.682-16.287zm-27.315 11.423c-.176-.76.482-.901-.262-5.634-.745-4.733-.405-14.316 9.99-11.495 10.053 2.729 4.788 11.655 2.273 14.097s-3.286 4.008-3.592 5.256c-.207.843-8.176-1.222-8.409-2.224z" fill="#9da9bd"/></g><g><path fill="#dde3ed" d="M1070 256h8v144h-8zM818 256h8v144h-8z"/><path d="M808 249c0-3.314 2.686-6 6-6h268c3.314 0 6 2.686 6 6v10H808v-10z" fill="#69768c"/></g><g><path d="M912 195.5c0-1.38-1.12-2.5-2.5-2.5h-71c-1.38 0-2.5 1.12-2.5 2.5v45c0 1.38 1.12 2.5 2.5 2.5h71c1.38 0 2.5-1.12 2.5-2.5v-45z" fill="#fbeae7"/><path d="M865.636 227.736c-.605-.776 4.82-12.96 9.144-10.783.288.145 1.246 1.112 1.359 1.365 1.785 3.976-9.901 10.19-10.503 9.418zm11.168-10.577c1.027-.063 2.19-.377 2.818-1.001 0 0 2.88 1.169 2.786-.845-.067-1.45-4.377-1.11-5.604 1.846zm-1.234-.99c.13-1.036.547-1.895 1.179-2.619-.35-.585.086-1.664.808-1.706 0 0-1.195-2.575-.235-3.274 2.957-2.151 2.933 5.65-1.752 7.599z" fill="#ffc7bc"/></g><g><path d="M1027 191.7c0-1.49-1.21-2.7-2.7-2.7h-74.6c-1.49 0-2.7 1.21-2.7 2.7v48.6c0 1.49 1.21 2.7 2.7 2.7h74.6c1.49 0 2.7-1.21 2.7-2.7v-48.6z" fill="#edf0f5"/><path d="M978.196 227.248c-.637-.816 5.074-13.642 9.625-11.35.304.153 1.311 1.17 1.431 1.437 1.878 4.185-10.423 10.726-11.056 9.913zm11.755-11.133c1.082-.067 2.305-.397 2.967-1.054 0 0 3.032 1.231 2.933-.889-.071-1.527-4.608-1.169-5.9 1.943zm-1.298-1.042c.136-1.091.576-1.995 1.241-2.758-.369-.615.09-1.751.85-1.795 0 0-1.258-2.71-.247-3.446 3.112-2.265 3.087 5.947-1.844 7.999z" fill="#cad2e0"/></g></g></svg>