<svg viewBox="0 0 800 800" xmlns="http://www.w3.org/2000/svg" fill-rule="evenodd" clip-rule="evenodd" stroke-linejoin="round" stroke-miterlimit="1.41421"><path id="_404" fill="none" d="M0 0h800v800H0z"/><path id="js-animate-hole" d="M316.312 90.233c57.928-1.989 138.581 11.987 198.685 35.019-33.201-39.268-160.353-54.591-158.73-67.618 1.953-15.678 174.848-5.852 236.818 55.462 93.631 92.64 71.329 212.01 74.434 228.733 31.508-42.516 8.676-160.738 24.455-164.154 11.117-2.407 40.51 75.773 26.316 163.335-18.878 116.463-64.778 171.924-74.182 187.795-21.291 35.933-47.137 65.043-76.231 94.564 75.606-20.648 122.907-136.399 133.405-135.39 10.273.986-10.085 121.12-78.6 164.212-67.457 42.427-243.557 74.917-360.367 19.188 48.943 55.512 192.614 37.878 193.13 61.445.446 20.37-175.783 32.26-240.743-28.731-41.521-38.983-83.334-105.615-99.477-202.854 0 0-7.164-36.185-7.89-55.118-28.886 71.664 16.239 184.442 6.518 188.81-20.432 9.182-66.229-87.282-60.452-166.071 6.245-85.163 29.387-158.171 77.609-221.776 15.205-20.054 62.995-59.537 86.656-77.484-54.383-2.628-129.489 94.903-140.73 89.531-13.654-6.527 39.918-162.052 239.376-168.898z" fill="#181e26"/><g id="hacker"><path d="M515.922 497.411l8.315 1.136 3.234 12.25-10.084 1.406-2.764-7.491 1.299-7.301z" fill="#fee3c8"/><path id="sleeve" d="M470.201 329.862c1.003 2.833-20.054 16.996-21.334 15.066l-5.247-10.132 22.682-11.84 3.899 6.906z" fill="#ff6243"/><path id="sleeve1" d="M354.314 294.111c-2.274 1.966 9.017 24.693 11.085 23.649l9.572-6.208-13.851-21.513-6.806 4.072z" fill="#ff6243"/><path id="arm" d="M395.424 281.084c-16.442 1.65-59.396 24.826-63.539 40.836-4.123 15.931 31.324 58.683 31.324 58.683l7.662-1.535c-6.054-17.86-13.911-35.42-24.315-52.557 14.17-12.745 30.903-18.907 46.815-20.266l2.053-25.161z" fill="#fee3c8"/><path id="arm1" d="M447.263 295.826c11.752 11.617 30.594 56.641 23.754 71.698-6.807 14.982-61.247 25.955-61.247 25.955l-4.995-6.01c15.934-10.086 33.082-18.805 51.945-25.596-3.01-18.819-12.152-34.128-23.675-45.187l14.218-20.86z" fill="#fee3c8"/><path id="torso" d="M450.978 319.168c2.45-6.363 2.077-13.468-1.024-19.54-3.102-6.072-8.64-10.538-15.231-12.283-8.266-2.188-17.412-4.609-25.673-6.796-6.579-1.742-13.589-.609-19.284 3.118-5.695 3.727-9.54 9.696-10.578 16.423-4.99 32.351-12.797 82.954-12.797 82.954l54.449 14.416s18.374-47.731 30.138-78.292z" fill="#fee3c8"/><g id="shirt"><path d="M417.95 298.633c15.537 4.032 17.605-11.047 17.605-11.047 23.099 6.638 32.217 33.427 34.646 42.276-2.236-.747-21.479 13.84-21.334 15.065l-3.488-6.733-20.189 54.21-29.966-7.933-29.965-7.933 9.578-64.053-9.438 5.275c.732-.993-8.772-23.191-11.085-23.649 12.575-8.599 30.479-20.581 53.802-13.79 0 0-5.663 14.128 9.834 18.312z" fill="#ff8c76"/><path d="M397.473 333.731c.485-3.59-4.766-7.157-8.113-4.095-6.076 5.56-2.753 11.994 3.658 14.551 5.427 2.165 10.43 2.585 12.886-6.013 1.613-5.643-6.516-7.111-8.431-4.443zM418.701 338.198c-.826-2.816-5.887-3.722-7.353-.352-2.66 6.118 1.921 9.781 7.507 9.557 4.73-.189 8.569-1.529 7.549-8.7-.669-4.707-7.167-3.111-7.703-.505z" fill="#ff6243"/><path d="M417.505 313.673c.127.02.245.049.359.109.282.148.479.428.525.743.018.127.006.249-.017.375-.031.105-.067.208-.101.313-.048.145-.093.291-.137.437-.301 1.026-.505 2.076-.592 3.141-.101 1.237-.048 2.481.12 3.709.312 2.285 1.016 4.486 1.661 6.692.1.347.198.695.294 1.043.487 1.809.881 3.681.713 5.563-.029.324-.074.646-.137.966-.094.477-.227.946-.399 1.402-.044.117-.091.233-.14.348-.049.116-.103.226-.185.324-.06.074-.132.138-.211.191-.35.235-.823.222-1.16-.033-.101-.076-.187-.172-.253-.281-.115-.19-.164-.418-.136-.639.01-.085.019-.105.041-.186.054-.145.117-.286.173-.43.155-.417.272-.847.345-1.286.149-.902.119-1.822-.003-2.724-.123-.909-.336-1.806-.577-2.69-.124-.452-.253-.904-.386-1.354-.174-.591-.35-1.182-.523-1.774-.105-.369-.209-.738-.31-1.108-.206-.77-.396-1.544-.55-2.326-.189-.96-.326-1.93-.389-2.906-.062-.964-.052-1.932.039-2.893.056-.589.144-1.172.258-1.753l.013-.06c-1.107.584-2.198 1.199-3.269 1.846-.877.53-1.74 1.082-2.586 1.661-.637.436-1.264.887-1.879 1.354-.447.34-.889.689-1.322 1.047-2.958 2.444-5.602 5.364-7.295 8.835-.411.842-.76 1.712-1.053 2.602l-.034.089c-.037.076-.044.096-.092.166-.109.157-.262.282-.438.355-.117.049-.243.076-.37.077-.388.006-.753-.22-.919-.57-.041-.086-.069-.178-.084-.272-.02-.125-.016-.255.012-.378.007-.031.017-.062.026-.092.061-.186.124-.371.188-.555.337-.938.731-1.854 1.187-2.74.235-.455.484-.901.747-1.339 2-3.329 4.778-6.131 7.829-8.504.555-.431 1.119-.849 1.692-1.255.688-.487 1.388-.957 2.098-1.411.937-.598 1.891-1.17 2.858-1.717 1.253-.709 2.529-1.376 3.82-2.014l.086-.038c.079-.026.099-.035.181-.05.083-.015.105-.013.188-.015.032.001.063.003.094.005z" fill="#525f75" fill-rule="nonzero"/></g><path id="leg" d="M364.855 571.136l2.045 5.269-9.798 9.57-5.121-6.46 4.525-6.179 8.349-2.2z" fill="#fee3c8"/><g id="shoe"><path d="M352.305 585.109s-1.386 18.145-8.643 35.971c-1.28 5.978 5.554 7.469 5.554 7.469l33.843-46.392s-4.952-5.519-8.57-7.033c-3.322-1.39-7.791-2.259-8.54-2.12-.737.136-.73 3.618-5.319 8.261-1.142 1.156-2.232 1.975-3.225 2.553-1.139-2.224-4.443-2.909-4.443-2.909-.354-.102-.658.13-.657.507v3.693z" fill="#00e686"/><path d="M348.671 605.681c1.255 1.003 5.877-.399 8.734-21.863-1.139-2.224-4.443-2.909-4.443-2.909-.354-.102-.658.13-.657.507v3.693s-.689 9.011-3.634 20.572zM349.193 628.587c.107 1.752 2.2 1.784 3.175 1.246 3.78-2.085 11.011-18.097 16.302-24.804 5.94-7.531 16.857-15.54 16.994-19.854.101-3.158-4.22-4.766-4.22-4.766s-4.297 7.049-8.741 13.795c-1.907 2.896-5.982 8.526-6.533 9.284-5.63 7.745-17.082 23.382-16.977 25.099z" fill="#f7f8fa"/><path d="M350.001 597.482c.035.003.068.007.102.015.102.026.187.082.257.159.063.079.123.16.186.239.509.609 1.139 1.102 1.829 1.491.697.392 1.451.682 2.226.874.311.077.626.139.943.184.153.021.308.034.461.054.033.007.033.007.066.016.076.027.145.065.203.123.04.04.074.087.098.138.101.211.039.472-.148.614-.093.071-.203.102-.319.102-.089-.006-.177-.017-.266-.027-1.313-.162-2.6-.556-3.755-1.207-.672-.379-1.3-.845-1.83-1.408-.169-.18-.326-.37-.473-.568-.02-.028-.02-.028-.037-.057-.032-.062-.054-.125-.061-.194-.017-.184.071-.368.227-.468.058-.038.122-.06.189-.073.035-.005.068-.007.102-.007zm1.131-5.859c.098.012.182.044.263.102.078.064.153.132.231.197.621.495 1.338.85 2.092 1.092.762.244 1.559.376 2.357.408.32.012.641.009.96-.011.155-.01.309-.029.464-.039.036 0 .036 0 .071.002.084.013.162.039.232.088.19.133.264.388.174.602-.023.055-.055.106-.096.149-.076.081-.171.128-.278.151-.089.012-.179.019-.268.027-1.613.13-3.274-.086-4.761-.743-.465-.205-.912-.455-1.323-.755-.18-.13-.357-.269-.518-.422-.024-.027-.024-.027-.046-.055-.04-.06-.071-.123-.086-.194-.044-.215.062-.44.256-.542.064-.035.133-.051.205-.058.035-.001.035-.001.071.001zm.77-5.423c.099.011.183.044.263.101.078.064.153.133.232.197.141.113.286.22.437.318.539.354 1.136.616 1.752.805.732.224 1.495.347 2.26.377.32.013.64.009.96-.011.155-.009.309-.028.464-.039.036 0 .036 0 .071.003.108.016.207.057.287.132.043.041.079.089.106.143.103.208.046.467-.136.612-.066.054-.142.085-.225.102-.089.013-.179.02-.268.028-1.319.106-2.658-.021-3.921-.425-.769-.247-1.509-.597-2.163-1.073-.171-.124-.334-.258-.492-.398-.026-.025-.025-.025-.049-.051-.045-.057-.08-.117-.1-.188-.06-.211.03-.442.215-.559.062-.038.129-.06.2-.072.037-.003.071-.004.107-.002z" fill="#0e8754"/></g><g id="shoe1"><path d="M522.434 515.593s14.143 11.453 24.687 27.554c4.19 4.451 9.302-.325 9.302-.325l-18.939-54.211s-7.355.937-10.658 3.054c-3.031 1.944-6.286 5.127-6.598 5.822-.306.683 2.563 2.657 3.775 9.072.302 1.597.357 2.959.268 4.104-2.477-.326-4.918 2.003-4.918 2.003-.286.234-.268.614.043.829l3.038 2.098z" fill="#00e686"/><path d="M537.296 530.275c1.539-.463 3.012-5.063-13.025-19.612-2.477-.326-4.918 2.003-4.918 2.003-.286.234-.268.614.043.829l3.038 2.098s7.024 5.688 14.862 14.682zM556.441 542.863c1.502.907 2.718-.796 2.829-1.905.433-4.294-8.632-19.344-11.144-27.509-2.821-9.168-3.207-22.702-6.679-25.267-2.541-1.877-6.319.764-6.319.764s3.357 7.542 6.383 15.032c1.299 3.216 3.615 9.768 3.926 10.652 3.173 9.034 9.531 27.344 11.004 28.233z" fill="#f7f8fa"/><path d="M537.603 521.146c.08.01.155.032.224.076.176.113.265.33.218.534-.018.079-.056.148-.106.211-.076.09-.153.178-.231.266-.738.809-1.589 1.51-2.543 2.05-.586.331-1.209.602-1.857.786-.381.108-.771.185-1.165.225-.105.01-.211.018-.317.023-.08.004-.158.009-.237-.01-.066-.016-.129-.045-.184-.086-.187-.141-.251-.401-.151-.613.024-.052.057-.099.098-.139.082-.083.187-.129.302-.145.1-.007.201-.01.301-.017.791-.073 1.554-.311 2.267-.658.719-.35 1.386-.805 1.985-1.334.24-.212.469-.437.686-.672.105-.114.203-.234.307-.348.025-.024.025-.024.051-.046.076-.055.156-.088.25-.102.034-.003.067-.003.102-.001zm-4.967-5.359c.074.007.144.025.21.06.168.093.27.278.259.47-.005.074-.027.143-.061.209-.056.103-.114.205-.173.307-.559.941-1.252 1.799-2.078 2.52-.507.443-1.062.834-1.66 1.144-.351.183-.717.337-1.095.456-.102.031-.204.06-.307.087-.073.018-.146.039-.222.038-.063-.001-.126-.014-.184-.037-.058-.024-.112-.059-.157-.102-.188-.181-.204-.485-.035-.684.062-.074.142-.123.232-.154.096-.027.193-.05.29-.077.76-.231 1.459-.618 2.087-1.101.634-.488 1.195-1.069 1.675-1.707.192-.257.372-.523.537-.797.08-.132.151-.268.229-.4.018-.027.018-.026.037-.051.086-.098.193-.157.322-.178.032-.003.063-.004.094-.003zm-4.025-3.717c.074.007.145.025.21.061.168.092.271.277.259.469-.004.074-.027.143-.06.209-.057.103-.114.206-.173.308-.807 1.357-1.906 2.562-3.258 3.392-.434.266-.893.492-1.373.66-.209.073-.422.139-.638.185-.031.004-.031.004-.062.007-.075.001-.146-.009-.215-.037-.059-.024-.112-.059-.158-.102-.187-.181-.203-.485-.035-.684.063-.073.143-.123.233-.154.096-.027.193-.049.289-.077.76-.23 1.46-.617 2.088-1.101.661-.509 1.244-1.12 1.738-1.793.169-.229.327-.466.474-.71.079-.132.15-.268.228-.401.018-.026.018-.025.037-.05.086-.099.193-.158.322-.179.032-.003.063-.004.094-.003z" fill="#0e8754"/></g><path id="pants" d="M366.391 383.044c-19.615 12.416-75.409 93.791-70.527 106.104 5.23 13.188 36.398 60.864 56.117 90.367l12.874-8.379c-10.293-29.686-18.094-64.423-40.76-80.432l58.703-59.503s9.717 83.132 25.887 88.245c32.889 10.4 72.027-4.52 108.703-7.228l-1.465-14.807c-30.542-3.951-70.034-13.258-88.094-3.572.743-30.341 2.526-80.994-6.994-96.378l-54.444-14.417z" fill="#9da9bd"/><clipPath id="_clip1"><path d="M366.391 383.044c-19.615 12.416-75.409 93.791-70.527 106.104 5.23 13.188 36.398 60.864 56.117 90.367l12.874-8.379c-10.293-29.686-18.094-64.423-40.76-80.432l58.703-59.503s9.717 83.132 25.887 88.245c32.889 10.4 72.027-4.52 108.703-7.228l-1.465-14.807c-30.542-3.951-70.034-13.258-88.094-3.572.743-30.341 2.526-80.994-6.994-96.378l-54.444-14.417z"/></clipPath><g clip-path="url(#_clip1)" fill="#181e26" fill-opacity="0.15"><path d="M324.098 490.706c9.163 12.533 25.231 39.281 38.512 83.927l5.285-3.673c-6.481-26.832-18.698-53.746-32.889-80.689l-10.908.435zM427.829 493.839c15.438-1.648 46.667-2.163 91.956 8.722l-.529-6.415c-26.466-7.84-55.879-10.757-86.306-11.981l-5.121 9.674z"/></g><g><path id="hair" d="M439.61 190.045s-6.899-20.637 15.97-20.177c30.49.615 33.405 39.333 24.713 64.142-8.874 25.331-4.124 49.15 4.89 59.659-5.212-.486-17.059-5.89-21.209-13.491-.61 2.64-.704 7.122 1.669 10.411 0 0-9.041-3.729-12.837-7.743-4.703-4.972-11.347-17.139-10.48-26.457l9.96-56.002-12.676-10.342z" fill="#1bc47e"/><path id="neck" d="M420.647 264.999l-8.473 16.377 6.911 12.474 12.423-7.356.74-18.424-11.601-3.071z" fill="#fee3c8"/><clipPath id="_clip2"><path d="M420.647 264.999l-8.473 16.377 6.911 12.474 12.423-7.356.74-18.424-11.601-3.071z"/></clipPath><g clip-path="url(#_clip2)"><path d="M416.737 266.447s6.535 12.981 20.996 5.589c14.462-7.392-9.527-5.643-9.527-5.643l-11.469.054z" fill="#181e26" fill-opacity="0.15"/></g><path id="ear" d="M409.302 220.094s-1.843-3.621-4.589-1.693c-2.466 1.732-.311 4.508-.836 6.597-.428 1.708-1.483 4.925.265 6.235 1.243.932 2.45.985 3.85-.025 4.787-3.456 1.31-11.114 1.31-11.114z" fill="#f9cc9f"/><path id="ear1" d="M464.387 234.677s3.393-2.234 4.825.8c1.286 2.725-1.96 4.071-2.538 6.146-.473 1.696-1.148 5.014-3.315 5.288-1.541.195-2.617-.357-3.333-1.927-2.45-5.372 4.361-10.307 4.361-10.307z" fill="#f9cc9f"/><path id="hair-shadow" d="M470.156 209.21c-5.188-19.273-23.743-18.36-23.743-18.36l18.031 43.791s9.617-10.925 5.712-25.431z" fill="#181e26" fill-opacity="0.15"/><path id="face" d="M444.874 196.932c15.473 4.097 23.677 23.882 18.309 44.157-5.367 20.274-22.287 33.408-37.759 29.312-15.473-4.096-23.677-23.882-18.309-44.156 5.367-20.275 22.287-33.409 37.759-29.313z" fill="#fee3c8"/><path d="M434.826 238.594c-.027-.429-.326-.794-.742-.904-.416-.11-.856.059-1.092.419-1.434 2.185-3.448 5.256-4.532 6.908-.176.268-.212.606-.097.906.115.3.367.527.677.609 1.416.375 3.636.962 5.052 1.337.31.082.642.01.89-.194.249-.204.384-.515.364-.836-.125-1.971-.356-5.636-.52-8.245z" fill="#f9cc9f"/><path id="eye" d="M423.023 224.767c2.401.635 3.834 3.101 3.198 5.502-.635 2.401-3.101 3.834-5.501 3.198-2.401-.636-3.835-3.101-3.199-5.502.636-2.401 3.101-3.834 5.502-3.198z" fill="#333e50"/><path id="brow" d="M428.585 215.771c-1.177-.496-4.084-.843-6.594-.152-2.812.774-5.218 3.181-4.924 3.816.196.421 2.733-1.318 5.643-1.968 2.25-.503 4.792-.127 5.777.074 1.208.247 1.208-1.303.098-1.77z" fill="#0e8754"/><path id="eye1" d="M450.09 231.933c2.401.635 3.834 3.101 3.199 5.502-.636 2.401-3.101 3.834-5.502 3.198-2.401-.636-3.834-3.101-3.198-5.502.635-2.401 3.1-3.834 5.501-3.198z" fill="#333e50"/><path id="hair-tie" d="M436.528 191.542c-3.233-3.37-1.382-6.852 2.108-6.011-.584-3.808 4.535-4.702 5.254-1.409 1.527-2.81 6.195-1.782 5.508 1.299 2.218-1.98 5.945-.413 4.927 2.862 3.998.372 4.685 4.714.931 6.393l-18.728-3.134z" fill="#dde3ed"/><path id="front-hair" d="M462.919 199.107c-6.812-8.302-29.32-13.162-40.889-4.585-10.897 8.079-12.799 25.443-12.799 25.443 10.083-3.733 12.432-7.144 20.79-14.304 0 0 7.742 8.672 14.284 14.289 8.076 6.934 20.14 14.691 20.14 14.691s12.078-18.952-1.526-35.534z" fill="#1bc47e"/><path id="brow1" d="M449.698 221.36c1.268.152 3.966 1.289 5.805 3.131 2.061 2.065 2.961 5.347 2.391 5.753-.378.269-1.723-2.498-3.93-4.502-1.706-1.55-4.101-2.482-5.057-2.795-1.171-.383-.405-1.73.791-1.587z" fill="#0e8754"/><path id="mouth" d="M430.03 253.001c2.935.776 4.616 4.056 3.91 6.724-.707 2.668-3.534 3.719-6.469 2.943-2.934-.777-4.871-3.091-4.165-5.758.706-2.668 3.79-4.686 6.724-3.909z" fill="#eb8560"/></g><g id="laptop"><path d="M455.651 356.08c.48-1.814-.603-3.677-2.417-4.157l-90.096-23.853c-1.814-.48-3.677.603-4.157 2.417l-15.663 59.162c-.48 1.814.603 3.677 2.417 4.157l90.096 23.852c1.814.481 3.677-.602 4.157-2.416l15.663-59.162z" fill="#edf0f5"/><path d="M385.567 382.431c-.508-1.19 10.496-14.861 15.262-10.636.318.282 1.21 1.834 1.27 2.194.93 5.659-16.026 9.627-16.532 8.442zm17.767-9.692c1.328.265 2.912.258 3.922-.325 0 0 3.27 2.458 3.828-.136.403-1.867-5.194-2.886-7.75.461zm-1.236-1.674c.514-1.275 1.334-2.227 2.382-2.936-.249-.861.67-2.087 1.602-1.898 0 0-.654-3.677.803-4.242 4.486-1.741 1.829 8.174-4.787 9.076z" fill="#cad2e0"/></g></g><g id="stars"><path d="M296.799 182.574l-7.257 13.068 7.995-1.602-7.832 4.141 8.569 7.325-10.145-4.916-.655 8.835-1.737-7.967-9.064 11.886 7.257-13.068-7.995 1.602 7.832-4.141-8.57-7.325 10.146 4.916.655-8.835 1.737 7.967 9.064-11.886z" fill="#dde3ed"/><path d="M604.241 384.222c1.395 3.252 3.363 6.788 6.149 7.895-2.893.894-4.905 4.798-6.396 7.883-1.507-3.481-3.449-7.256-6.339-7.883 2.897-.909 5.273-4.488 6.586-7.895z" fill="#bcf5dd"/><path d="M209.873 509.081c2.169 2.797 4.807 4.962 7.783 5.332-2.691 2.46-3.908 5.789-4.488 8.498-1.902-1.893-4.413-4.221-7.838-5.293 1.97-1.837 3.528-5.136 4.543-8.537z" fill="#dde3ed"/><circle cx="496.922" cy="613.773" r="4" fill="#bcf5dd"/><circle cx="553.311" cy="219.556" r="3" fill="#dde3ed"/><circle cx="556.529" cy="342.021" r="2" fill="#dde3ed"/><circle cx="391.89" cy="552.422" r="2" fill="#dde3ed"/><circle cx="201.344" cy="303.432" r="2" fill="#bcf5dd"/><circle cx="256.678" cy="400" r="3" fill="#dde3ed"/></g></svg>