<svg viewBox="0 0 360 400" xmlns="http://www.w3.org/2000/svg" fill-rule="evenodd" clip-rule="evenodd" stroke-linejoin="round" stroke-miterlimit="1.41421"><path fill="none" d="M0 0h360v400H0z"/><clipPath id="a"><path d="M0 0h360v400H0z"/></clipPath><g clip-path="url(#a)"><path fill="#f7f8fa" d="M50 20h260v186H50z"/><path d="M315 17c0 .796-.316 1.559-.879 2.121-.562.563-1.325.879-2.121.879H48c-.796 0-1.559-.316-2.121-.879C45.316 18.559 45 17.796 45 17s.316-1.559.879-2.121C46.441 14.316 47.204 14 48 14h264c.796 0 1.559.316 2.121.879.563.562.879 1.325.879 2.121zM315 209c0 .796-.316 1.559-.879 2.121-.562.563-1.325.879-2.121.879H48c-.796 0-1.559-.316-2.121-.879-.563-.562-.879-1.325-.879-2.121s.316-1.559.879-2.121c.562-.563 1.325-.879 2.121-.879h264c.796 0 1.559.316 2.121.879.563.562.879 1.325.879 2.121z" fill="#9da9bd"/><path fill="#ffc7bc" d="M136 166h10v12h-10zM150 158h10v20h-10zM164 152h10v26h-10z"/><path fill="#b9f6dd" d="M178 144h10v34h-10zM192 140h10v38h-10zM206 136h10v42h-10zM220 134h10v44h-10zM234 134h10v44h-10z"/><path fill="#dde3ed" d="M130 178h120v2H130z"/><path fill="#dde3ed" d="M130 120h2v60h-2z"/><g><g fill="#dde3ed"><path d="M185.5 50h32v10h-32zM185.5 64h37v10h-37zM185.5 78h60v10h-60z"/></g><path fill="#1bc47e" d="M209.531 48h2v42h-2z"/></g><g><path d="M171.5 49c0-.552-.448-1-1-1h-55c-.552 0-1 .448-1 1v40c0 .552.448 1 1 1h55c.552 0 1-.448 1-1V49z" fill="#b9f6dd"/><path d="M162.963 48h-7.5l-7.5 42h7.5l7.5-42z" fill="#8eedc6"/><ellipse cx="152" cy="76.5" rx="15" ry="9" fill="#43e8a3"/></g><path d="M250 343c0-1.657-1.343-3-3-3H113c-1.657 0-3 1.343-3 3v57h140v-57z" fill="#9da9bd"/><g><path d="M307.413 222.266c6.535 2.14 18.253 12.421 19.21 24.19 2.063 25.351-8.324 46.51-15.71 70.552 6.95 14.271 3 77.769 3 77.769l-10.765.583-9.235-78.352 1.252-70.302 12.248-24.44z" fill="#fdd1a5"/><path d="M314.378 385.622s2.904 3.19 2.676 8.517c-.111 2.592-1.387 5.763-4.937 5.85-4.257.104-6.875-1.426-9.386-1.413-4.369.022-8.666 1.249-15.896 1.413-5.938.135-11.263-.996-11.306-2.065-.185-4.601 2.841-2.59 5.621-3.08 3.203-.565 7.468-3.027 10.067-4.642 5.23-3.251 10.57-6.396 10.57-6.396l12.591 1.816z" fill="#fdd1a5"/><path d="M314.378 385.622s-4.577 6.311-16.209 8.352c-8.142 1.429-11.355.92-12.824-.885-.542-.667-11.254.174-10.712 5.025.172 1.549 9.847 1.875 9.847 1.875h7.283s8.588-1.093 10.695-1.11c2.206-.018 5.78 1.107 9.14 1.11 5.143.004 6.033-3.195 6.144-6.534.144-4.319-3.364-7.833-3.364-7.833z" fill="#21d98c"/><clipPath id="b"><path d="M314.378 385.622s-4.577 6.311-16.209 8.352c-8.142 1.429-11.355.92-12.824-.885-.542-.667-11.254.174-10.712 5.025.172 1.549 9.847 1.875 9.847 1.875h7.283s8.588-1.093 10.695-1.11c2.206-.018 5.78 1.107 9.14 1.11 5.143.004 6.033-3.195 6.144-6.534.144-4.319-3.364-7.833-3.364-7.833z"/></clipPath><g clip-path="url(#b)"><path d="M318.38 389.84l-12.749 9.203s-11.823 2.169-13.378-1.086c-1.011-2.118 7.055-5.307 12.435-7.977 7.071-3.509 10.637-6.657 10.637-6.657l3.055 6.517z" fill="#181e26" fill-opacity="0.15"/></g><path d="M331.413 222.266c6.535 2.14 15.918 17.508 16.875 29.276 2.063 25.352-5.989 41.424-13.375 65.466 6.95 14.271 3 77.769 3 77.769l-10.765.583-9.235-78.352 1.252-70.302 12.248-24.44z" fill="#fdd1a5"/><path d="M338.378 385.633s2.904 3.19 2.676 8.517c-.111 2.592-1.387 5.763-4.937 5.85-4.257.104-6.875-1.426-9.386-1.413-4.369.022-8.666 1.249-15.896 1.413-5.938.135-11.263-.996-11.306-2.065-.185-4.601 2.841-2.59 5.621-3.08 3.203-.565 7.468-3.027 10.067-4.642 5.23-3.251 10.57-6.396 10.57-6.396l12.591 1.816z" fill="#fdd1a5"/><path d="M338.378 385.633s-4.577 6.311-16.209 8.352c-8.142 1.429-11.355.92-12.824-.885-.542-.667-11.254.174-10.712 5.025.172 1.549 9.847 1.875 9.847 1.875h7.283s8.588-1.093 10.695-1.11c2.206-.018 5.78 1.107 9.14 1.11 5.143.004 6.033-3.195 6.144-6.534.144-4.319-3.364-7.833-3.364-7.833z" fill="#21d98c"/><path d="M299.251 147.862c-3.551 12.88-27.864 43.964-41.188 45.088-13.258 1.12-39.928-30.806-39.928-30.806l3.628-3.681c13.411 7.254 22.392 11.547 34.636 22.169 10.161-8.038 19.515-18.861 24.165-29.532.881-2.02 7.675-5.076 11.043-5.626l7.644 2.388z" fill="#fdd1a5"/><path d="M285.037 71.966c6.048-14.962 16.954-23.932 31.45-24.209 14.042-.268 27.124 6.539 32.686 25.315 4.144 13.991 3.16 16.414 1.359 32.794-1.08 9.824 2.46 15.477 1.958 23.094-1.227 18.642-9.149 24.956-9.149 24.956l-59.375.279s1.996-14.743 1.923-23.093c-.052-6.002-3.755-17.277-4.495-29.823-.434-7.376-.199-19.808 3.643-29.313z" fill="#ff8c76"/><path d="M345.748 161.414c.901-6.852-1.195-13.76-5.752-18.956-4.556-5.195-11.132-8.175-18.043-8.175h-10.034c-6.899 0-13.464 2.969-18.021 8.149-4.556 5.18-6.663 12.071-5.783 18.913 3.366 26.165 7.959 61.878 7.959 61.878h41.541s4.691-35.65 8.133-61.809z" fill="#fdd1a5"/><g><path d="M310.425 118.592l-2.454 16.039 8.526 9.17 8.744-9.17-2.454-16.039h-12.362z" fill="#fdd1a5"/><clipPath id="c"><path d="M310.425 118.592l-2.454 16.039 8.526 9.17 8.744-9.17-2.454-16.039h-12.362z"/></clipPath><g clip-path="url(#c)"><path d="M308.28 120.087s-.551 4.673 8.428 4.571c7.992-.091 7.036-4.18 7.036-4.18l-15.464-.391z" fill="#181e26" fill-opacity="0.15"/></g><path d="M291.613 83.115s-2.376-2.657-4.271-.405c-1.703 2.023.747 3.893.772 5.782.02 1.544-.152 4.509 1.624 5.228 1.263.511 2.299.285 3.259-.886 3.284-4.005-1.384-9.719-1.384-9.719zM341.599 83.115s2.377-2.657 4.272-.405c1.702 2.023-.748 3.893-.772 5.782-.02 1.544.152 4.509-1.624 5.228-1.264.511-2.3.285-3.26-.886-3.283-4.005 1.384-9.719 1.384-9.719z" fill="#f4ba80"/><ellipse cx="316.579" cy="88.822" rx="25.44" ry="33.335" fill="#fdd1a5"/><path d="M317.51 95.493c-.149-.384-.519-.637-.931-.637-.412 0-.782.253-.932.637-.654 1.677-1.504 3.858-2.046 5.247-.12.308-.08.655.106.928.187.272.496.435.826.435h4.091c.331 0 .64-.163.826-.435.186-.273.226-.62.106-.928-.541-1.389-1.392-3.57-2.046-5.247z" fill="#f4ba80"/><circle cx="304.298" cy="89.208" r="4" fill="#444f61"/><path d="M308.055 78.415c-1.013-.479-3.548-.893-5.773-.382-2.494.572-4.694 2.59-4.46 3.158.156.376 2.445-1.052 5.02-1.512 1.991-.355 4.204.07 5.06.284 1.05.262 1.109-1.097.153-1.548z" fill="#ff7f65"/><circle cx="328.86" cy="89.208" r="4" fill="#444f61"/><path d="M332.369 53.281c-7.64-5.511-27.818-4.58-35.703 5.291-7.428 9.298-5.142 24.45-5.142 24.45 6.131-4.54 13.928-10.888 20.113-18.195 12.755 2.901 24.511 9.07 30.003 18.244 0 0 5.988-18.783-9.271-29.79z" fill="#ff8c76"/><path d="M306.541 107.003c.754 3.741 5.544 6.778 10.038 6.778 4.494 0 9.284-3.037 10.037-6.778-2.36.962-17.915.964-20.075 0z" fill="#fff"/><path d="M325.126 78.415c1.013-.479 3.548-.893 5.773-.382 2.494.572 4.694 2.59 4.46 3.158-.155.376-2.445-1.052-5.02-1.512-1.99-.355-4.204.07-5.06.284-1.049.262-1.108-1.097-.153-1.548z" fill="#ff7f65"/></g><path d="M296.074 223.223l41.543-.012s14.07 16.446 14.698 32.162c.595 14.925-11.79 62.601-11.79 62.601l-49.759.01c-2.607-22.479-8.572-53.508 5.308-94.761z" fill="#cad2e0"/><g fill="#fdd1a5"><path d="M349.206 145.335c9.405 9.49 13.047 55.784 9.402 68.901-3.563 12.819-14.636 50.958-14.636 50.958l-6.281-.338c2.268-13.159-.8-30.334 8.913-53.929.2-9.946.944-41.791-7.991-51.274l10.593-14.318z"/><path d="M337.851 264.25c-2.063 1.742-4.898 3.696-5.89 6.46-1.829 5.092-4.906 9.324-3.439 9.653 2.02.453 5.27-7.471 5.99-7.121 1.74.846-4.735 8.517-5.977 12.727-.633 2.148 7.792-2.793 8.803-4 0 0 6.349-5.629 6.587-16.778l-2.601-.964-3.473.023z"/></g><path d="M307.977 134.594l17.245-.087c19.428.409 32.671 12.622 32.256 34.503-3.622-1.818-12.071 2.022-12.635 6.731-.336-.84-.449-.961-.587-2.991l-6.639 50.461c-23.828.903-17.485.522-41.543.012l-7.278-56.581c-.662 1.772-2.656 4.231-3.819 4.982-.737-5.991-4.41-9.655-9.62-11.169 3.459-13.123 13.373-24.798 32.62-25.861z" fill="#cad2e0"/><path d="M295.402 218l42.907-.051-.682 5.274-41.553-.003-.672-5.22z" fill="#9da9bd"/><path d="M221.763 158.464c-2.07-1.946-7.019-7.471-10.106-8.055-5.686-1.076-10.674-3.615-10.775-2.011-.139 2.211 8.778 4.313 8.529 5.132-.601 1.98-9.793-3.571-14.449-4.175-2.375-.308 4.26 7.762 5.706 8.626 0 0 5.74 5.317 17.467 4.163l3.667-.76-.039-2.92z" fill="#fdd1a5"/></g><g><path fill="#cad2e0" d="M31.168 377.611h15.3v21.657h-15.3zM64.771 377.611h15.3v21.657h-15.3z"/><path d="M8.206 235.869s-2.344 4.78-3.069 10.906c-.439 3.711.437 8.181 2.193 10.985 3.257 5.197 5.906 8.91 7.868 1.903 1.962-7.006-1.43-11.834 1.678-12.821 1.54-.489 2.792 3.884 2.987 6.997.104 1.643 2.138 2.073 2.438-3.194.102-1.783-.094-6.478-.978-8.195-1.841-3.577-6.414-6.938-6.414-6.938l-6.703.357z" fill="#fee3c8"/><path d="M8.206 235.869s-2.344 4.78-3.069 10.906c-.439 3.711.437 8.181 2.193 10.985 3.257 5.197 5.906 8.91 7.868 1.903 1.962-7.006-1.43-11.834 1.678-12.821 1.54-.489 2.792 3.884 2.987 6.997.104 1.643 2.138 2.073 2.438-3.194.102-1.783-.094-6.478-.978-8.195-1.841-3.577-6.414-6.938-6.414-6.938l-6.703.357zM103.145 235.869s2.344 4.78 3.069 10.906c.439 3.711-.437 8.181-2.194 10.985-3.256 5.197-5.906 8.91-7.868 1.903-1.962-7.006 1.43-11.834-1.678-12.821-1.539-.489-2.791 3.884-2.987 6.997-.103 1.643-2.138 2.073-2.438-3.194-.101-1.783.094-6.478.978-8.195 1.842-3.577 6.415-6.938 6.415-6.938l6.703.357zM63.222 63.173h-15l-2 21.092h19l-2-21.092z" fill="#fee3c8"/><clipPath id="d"><path d="M63.222 63.173h-15l-2 21.092h19l-2-21.092z"/></clipPath><g clip-path="url(#d)"><path d="M45.222 65.814c4.985 5.424 16.102 5.752 21.118.186l-10.618-4.5-10.5 4.314z" fill="#181e26" fill-opacity="0.15"/></g><path d="M80.079 27.397s2.007-2.946 4.182-.963c1.953 1.782-.23 3.957-.007 5.833.183 1.534.744 4.451-.923 5.397-1.185.672-2.242.584-3.347-.451-3.781-3.539.095-9.816.095-9.816zM31.365 27.397s-2.007-2.946-4.181-.963c-1.953 1.782.23 3.957.006 5.833-.183 1.534-.743 4.451.923 5.397 1.186.672 2.242.584 3.348-.451 3.781-3.539-.096-9.816-.096-9.816z" fill="#f9cc9f"/><path d="M55.984.003C76.535.281 81.08 15.037 81.08 33.334c0 8.911-3.352 16.572-7.028 22.994-5.204 9.089-13.315 10.21-18.086 10.333l-.225.005c-4.737-.094-13.024-1.105-18.31-10.338-3.677-6.422-7.029-14.083-7.029-22.994C30.402 14.966 34.983.165 55.741 0l.243.003z" fill="#fee3c8"/><path d="M55.71 58.317c-6.65.141-11.455-4.768-10.819-5.724.243-.365 5.38 4.593 10.837 4.484h.026c5.457.109 10.594-4.849 10.837-4.484.636.956-4.169 5.865-10.819 5.724l-.031-.001-.031.001z" fill="#eb8560"/><path d="M56.626 39.218c-.162-.359-.519-.59-.912-.59-.394 0-.751.231-.912.59-.878 1.951-2.183 4.851-2.954 6.563-.139.31-.112.668.072.953.185.285.501.457.84.457h5.907c.339 0 .655-.172.84-.457.184-.285.211-.643.072-.953-.771-1.712-2.075-4.612-2.953-6.563z" fill="#f9cc9f"/><circle cx="42.941" cy="34.033" r="4.5" fill="#333e50"/><path d="M48.333 23.523c-.985-.535-3.584-.909-5.823-.463-2.509.5-4.65 1.423-4.549 2.029.046.279 3.196-.022 5.968-.009 2.03.009 3.984.47 4.191.289.642-.559.918-1.463.213-1.846z" fill="#525f75"/><circle cx="68.486" cy="34.033" r="4.5" fill="#333e50"/><path d="M63.073 23.523c.984-.535 3.584-.909 5.823-.463 2.509.5 4.649 1.423 4.549 2.029-.047.279-3.197-.022-5.968-.009-2.03.009-3.985.47-4.192.289-.642-.559-.918-1.463-.212-1.846z" fill="#525f75"/><path d="M88.464 212.265H23.018l-2 27.91H4.583s-2-95.036-2-132.909c0-8.062 5.359-15.14 13.118-17.326 11.892-3.327 29.171-7.584 40.04-7.675l.256.003c10.883.155 27.985 4.371 39.784 7.672 7.759 2.186 13.119 9.264 13.119 17.326 0 37.873-2 132.909-2 132.909H90.464l-2-27.91z" fill="#edf0f5"/><path d="M23.057 230.393H2l1.583 9.782h19.435l.039-9.782zM88.369 230.393h21.057l-1.583 9.781H88.408l-.039-9.781z" fill="#cad2e0"/><path d="M20.418 131.369l5.014 80.896h-2.414l-2.6-80.896zM91.066 131.371l-5.016 80.894 2.416.002 2.6-80.896z" fill="#181e26" fill-opacity="0.15"/><path d="M47.021 75.845l8.729 6.42-7.269 12.455-7.841-10.721 6.381-8.154zM64.479 75.845l-8.729 6.42 7.27 12.455 7.84-10.721-6.381-8.154z" fill="#dde3ed"/><g fill="#cad2e0"><circle cx="55.741" cy="103.337" r="2"/><circle cx="55.741" cy="127.337" r="2"/><circle cx="55.741" cy="151.337" r="2"/><circle cx="55.741" cy="175.337" r="2"/><circle cx="55.741" cy="199.337" r="2"/></g><g fill="#ff6243"><path d="M51.236 90l4.514 6.265L60.265 90l-4.515-7.735L51.236 90z"/><path d="M55.75 82.265l11 97.155-11 10.845-11-10.845 11-97.155z"/></g><g><path fill="#181e26" d="M31.428 212.265h49.856v15.954H31.428z"/><path d="M55.317 212.265h-30l3 170.495h21l6-170.495z" fill="#181e26"/><clipPath id="e"><path d="M55.317 212.265h-30l3 170.495h21l6-170.495z"/></clipPath><g clip-path="url(#e)"><path d="M43.943 212.265s-6.803 13.028-18.383 13.808c-14.674.987-1.71-13.273-1.71-13.273l6.032-6.305 14.061 5.77z" fill="#333e50"/></g><path d="M55.926 212.265h30l-3 170.495h-21l-6-170.495z" fill="#181e26"/><clipPath id="f"><path d="M55.926 212.265h30l-3 170.495h-21l-6-170.495z"/></clipPath><g clip-path="url(#f)"><path d="M67.3 212.265s6.804 13.028 18.383 13.808c14.675.987 1.71-13.273 1.71-13.273l-6.031-6.305-14.062 5.77z" fill="#333e50"/></g></g></g><g><path d="M199 257c0-.552-.448-1-1-1h-36c-.552 0-1 .448-1 1v26c0 .552.448 1 1 1h36c.552 0 1-.448 1-1v-26z" fill="#b9f6dd"/><path d="M193.309 256h-5l-5 28h5l5-28z" fill="#8eedc6"/><ellipse cx="186" cy="275" rx="10" ry="6" fill="#43e8a3"/></g><g><path d="M199 313c0-.552-.448-1-1-1h-36c-.552 0-1 .448-1 1v26c0 .552.448 1 1 1h36c.552 0 1-.448 1-1v-26z" fill="#b9f6dd"/><path d="M193.309 312h-5l-5 28h5l5-28z" fill="#8eedc6"/><ellipse cx="186" cy="331" rx="10" ry="6" fill="#43e8a3"/><g><path d="M239 313c0-.552-.448-1-1-1h-36c-.552 0-1 .448-1 1v26c0 .552.448 1 1 1h36c.552 0 1-.448 1-1v-26z" fill="#b9f6dd"/><path d="M233.309 312h-5l-5 28h5l5-28z" fill="#8eedc6"/><ellipse cx="226" cy="331" rx="10" ry="6" fill="#43e8a3"/></g><g><path d="M159 313c0-.552-.448-1-1-1h-36c-.552 0-1 .448-1 1v26c0 .552.448 1 1 1h36c.552 0 1-.448 1-1v-26z" fill="#b9f6dd"/><path d="M153.309 312h-5l-5 28h5l5-28z" fill="#8eedc6"/><ellipse cx="146" cy="331" rx="10" ry="6" fill="#43e8a3"/></g></g><g><path d="M179 285c0-.552-.448-1-1-1h-36c-.552 0-1 .448-1 1v26c0 .552.448 1 1 1h36c.552 0 1-.448 1-1v-26z" fill="#ffc7bc"/><path d="M173.309 284h-5l-5 28h5l5-28z" fill="#ffa391"/><ellipse cx="166" cy="303" rx="10" ry="6" fill="#ff7f65"/><g><path d="M219 285c0-.552-.448-1-1-1h-36c-.552 0-1 .448-1 1v26c0 .552.448 1 1 1h36c.552 0 1-.448 1-1v-26z" fill="#ffc7bc"/><path d="M213.309 284h-5l-5 28h5l5-28z" fill="#ffa391"/><ellipse cx="206" cy="303" rx="10" ry="6" fill="#ff7f65"/></g></g><g><path d="M30.646 400c-.604 0-1.176-.273-1.556-.743-.379-.469-.526-1.085-.4-1.676.859-4.006 2.482-11.581 2.482-11.581h15.3s1.623 7.575 2.481 11.581c.127.591-.02 1.207-.4 1.676-.38.47-.951.743-1.555.743H30.646z" fill="#181e26"/><path d="M38.822 391c3.817-.597 7.11 2.024 7.137 3.957.036 2.654-3.274 3.043-7.137 3.043-3.864 0-7.666-.333-7.65-1.787.021-1.931 3.813-4.613 7.65-5.213z" fill="#333e50"/><g><path d="M80.601 400c.604 0 1.176-.273 1.555-.743.38-.469.527-1.085.401-1.676-.859-4.006-2.482-11.581-2.482-11.581h-15.3s-1.623 7.575-2.482 11.581c-.126.591.021 1.207.401 1.676.379.47.951.743 1.555.743h16.352z" fill="#181e26"/><path d="M72.425 391c-3.817-.597-7.11 2.024-7.137 3.957-.037 2.654 3.274 3.043 7.137 3.043 3.863 0 7.666-.333 7.65-1.787-.021-1.931-3.813-4.613-7.65-5.213z" fill="#333e50"/></g></g></g></svg>