<svg viewBox="0 0 360 400" xmlns="http://www.w3.org/2000/svg" fill-rule="evenodd" clip-rule="evenodd" stroke-linejoin="round" stroke-miterlimit="1.41421"><path fill="none" d="M0 0h360v400H0z"/><clipPath id="a"><path d="M0 0h360v400H0z"/></clipPath><g clip-path="url(#a)"><path d="M360 22c0-1.656-1.344-3-3-3H143c-1.656 0-3 1.344-3 3v150c0 1.656 1.344 3 3 3h214c1.656 0 3-1.344 3-3V22z" fill="#f7f8fa"/><g fill="#b9f6dd"><path d="M235.25 116h10v12h-10zM249.25 108h10v20h-10zM263.25 102h10v26h-10zM277.25 94h10v34h-10zM291.25 90h10v38h-10zM305.25 86h10v42h-10zM319.25 84h10v44h-10zM333.25 84h10v44h-10z"/></g><path fill="#dde3ed" d="M229.25 128h120v2h-120z"/><path d="M206.237 44.172h-18c-.991 6.261-.331 12.262 2 18h18c-1.885-6.089-2.682-12.099-2-18z" fill="#6de8b5"/><path d="M200.128 49.999c.855.006 1.708.033 2.559.109l.181.018c.065.009.129.019.192.038.125.039.243.102.344.185.067.055.127.119.178.19.206.288.244.673.097.996-.045.099-.106.191-.181.27-.09.096-.198.173-.317.227-.142.065-.291.089-.446.089-.192-.013-.384-.035-.576-.051-1.205-.084-2.412-.081-3.619-.051-1.281.033-2.56.099-3.841.149-.228.008-.457.016-.687.023-.635.015-1.273.03-1.908-.012-.122-.008-.243-.018-.365-.032-.115-.013-.233-.025-.345-.057-.105-.03-.205-.077-.294-.139-.108-.075-.201-.171-.272-.281-.192-.297-.211-.684-.049-.998.04-.078.09-.15.148-.215.074-.081.16-.15.256-.203.114-.063.241-.104.371-.119.066-.008.13-.007.196-.003.1.011.199.026.3.037.338.029.676.036 1.015.036.407 0 .814-.01 1.22-.024.996-.032 1.99-.082 2.986-.121.406-.015.812-.029 1.218-.04.342-.008.684-.015 1.026-.019.204-.001.408-.002.613-.002z" fill="#1bc47e" fill-rule="nonzero"/><g><path d="M178.16 44.172h-18c-.99 6.261-.33 12.262 2 18h18c-1.884-6.089-2.681-12.099-2-18z" fill="#6de8b5"/><path d="M172.052 48.999c.854.006 1.707.033 2.559.109l.18.018c.154.02.298.064.43.146.112.07.209.161.285.267.206.288.243.673.097.996-.036.079-.083.154-.138.221-.069.085-.152.157-.245.215-.111.069-.236.116-.365.137-.066.011-.13.013-.196.013-.192-.013-.384-.035-.576-.051-1.205-.084-2.413-.081-3.619-.051-1.281.033-2.561.099-3.841.149-.229.008-.458.016-.687.023-.635.015-1.273.03-1.908-.012-.122-.008-.243-.018-.364-.032-.116-.013-.234-.025-.346-.057-.105-.03-.205-.077-.295-.139-.107-.075-.2-.171-.271-.281-.047-.073-.085-.152-.112-.236-.108-.336-.026-.715.211-.977.073-.081.16-.15.255-.203.115-.063.242-.104.372-.119.065-.008.13-.007.196-.003.1.011.199.026.299.036.384.034.769.039 1.154.037.361-.002.721-.012 1.082-.024.995-.032 1.99-.082 2.985-.121.406-.015.812-.028 1.219-.04.341-.008.683-.015 1.025-.019.205-.001.409-.002.614-.002zM170.663 53.525c.721.009 1.439.051 2.157.124.054.007.053.007.107.016.196.048.373.139.513.286.294.306.362.778.166 1.154-.05.097-.116.184-.194.259-.091.088-.199.158-.316.206-.136.055-.278.075-.424.072-.235-.017-.47-.043-.705-.062-.746-.052-1.494-.071-2.242-.044-.825.029-1.646.104-2.469.163-.204.013-.408.024-.612.033-.444.014-.887.011-1.329-.038-.136-.015-.276-.028-.409-.063-.158-.042-.304-.123-.423-.234-.093-.086-.169-.189-.223-.303-.046-.098-.077-.204-.09-.311-.047-.402.16-.804.516-.997.162-.088.339-.124.521-.12.135.009.269.034.403.048.568.05 1.138.018 1.706-.024.439-.034.878-.07 1.317-.101.166-.01.332-.02.497-.03.412-.019.823-.033 1.235-.035.099 0 .198 0 .298.001z" fill="#1bc47e" fill-rule="nonzero"/></g><g><path fill="#dde3ed" d="M270 308h8v92h-8zM195 308h8v92h-8z"/><path d="M187 303c0-3.314 2.686-6 6-6h88c3.314 0 6 2.686 6 6v6H187v-6z" fill="#69768c"/><g><path d="M243.527 307.206s24.386-24.043 17 0c4.457 9.76-2.079 70.19-2.079 70.19l3.297 20.803-17.323-.211 3.118-20.942-4.013-69.84z" fill="#fdd1a5"/><g fill="#17b272"><path d="M262 400c.507 0 .98-.256 1.257-.681.277-.424.321-.961.116-1.425-1.29-2.886-4.414-7.719-10.907-7.686-5.779.029-8.546 4.885-9.676 7.747-.18.461-.12.981.159 1.39.279.409.742.653 1.237.653 4.167.002 13.581.002 17.814.002zM247.13 375.9h12v3h-12z"/></g><path d="M265.595 178.887c.679-8.607-4.849-16.484-13.173-18.773-4.291-1.179-7.876-2.165-7.876-2.165l-14.535.107s-3.448.944-7.61 2.083c-8.315 2.275-13.849 10.126-13.197 18.722 1.845 24.338 5.317 70.136 5.317 70.136h45.541s3.612-45.766 5.533-70.11z" fill="#fdd1a5"/><path d="M214.691 247.839c-4.465 11.953-10.315 37.578-10.166 49.187l66.254-.026c.427-10.478-5.964-37.902-10.541-49.25l-45.547.089z" fill="#17b272"/><path d="M232.077 307.206s-24.387-24.043-17 0c-4.457 9.76 2.078 70.19 2.078 70.19l-3.297 20.803 17.323-.211-3.118-20.942 4.014-69.84z" fill="#fdd1a5"/><g fill="#17b272"><path d="M213.604 400c-.508 0-.981-.256-1.258-.681-.277-.424-.321-.961-.116-1.425 1.29-2.886 4.414-7.719 10.907-7.686 5.779.029 8.546 4.885 9.676 7.747.18.461.121.981-.158 1.39-.28.409-.743.653-1.238.653-4.167.002-13.581.002-17.813.002zM216.474 375.9h12v3h-12z"/></g><path d="M222.076 241.444c-2.175 1.827-10.144 1.556-10.144 1.556s-13.434 1.688-14.961-1.216c-1.429-2.717 8.257-9.169 13.123-9.564 0 0 .197-1.233 9.888 1.81l4.542 2.441-2.448 4.973z" fill="#fdd1a5"/><clipPath id="b"><path d="M222.076 241.444c-2.175 1.827-10.144 1.556-10.144 1.556s-13.434 1.688-14.961-1.216c-1.429-2.717 8.257-9.169 13.123-9.564 0 0 .197-1.233 9.888 1.81l4.542 2.441-2.448 4.973z"/></clipPath><g clip-path="url(#b)"><path d="M201.14 234.722c3.286 2.944 7.041 4.691 11.707 4.111l-3.989-4.996-7.718.885z" fill="#181e26" fill-opacity="0.15"/></g><path d="M265.163 171.317c9.018 9.407 17.523 49.012 10.214 60.209-7.272 11.142-54.702 14.353-54.702 14.353l-2.218-5.558c13.969-6.112 27.384-11.355 43.291-14.476-2.271-15.738-4.44-29.621-10.5-39.595l13.915-14.933z" fill="#fdd1a5"/><path d="M253.837 243.13c2.426 1.476 5.877 4.167 9.018 4.101 5.786-.121 11.191 1.334 10.958-.257-.32-2.191-9.479-2.408-9.405-3.26.18-2.062 11.629-1.454 15.837-3.538 2.013-.997-7.037-7.368-11.471-7.896 0 0-4.872-1.272-13.991 3.204l-4.12 3.102 3.174 4.544z" fill="#fdd1a5"/><path d="M210.695 171.349c-9.018 9.407-17.524 49.012-10.215 60.209 7.273 11.142 54.703 14.354 54.703 14.354l2.217-5.559c-13.968-6.112-27.384-11.355-43.29-14.475 2.271-15.739 4.44-29.621 10.5-39.596l-13.915-14.933z" fill="#fdd1a5"/><path d="M237.427 166.289h.005c6.29-.01 12.888-3.725 15.716-5.96 0 0 9.413-.145 18.777 18.805 2.687 5.436 3.925 18.334 3.925 18.334l-14.967 9.33 5.944 59.204-29.4-.001-29.4.001 5.944-59.204-14.967-9.33s1.238-12.898 3.925-18.334c9.364-18.95 18.777-18.805 18.777-18.805 2.828 2.235 9.426 5.95 15.716 5.96h.005z" fill="#9da9bd"/><g><path d="M230.011 158.056l7.079 5.063.194-.132.193.132 7.079-5.063-1.509-15.79H231.52l-1.509 15.79z" fill="#fdd1a5"/><clipPath id="c"><path d="M230.011 158.056l7.079 5.063.194-.132.193.132 7.079-5.063-1.509-15.79H231.52l-1.509 15.79z"/></clipPath><g clip-path="url(#c)"><path d="M246.037 144.373s-9.302 10.248-20.059 2.025c-11.319-8.653 10.346-4.647 10.346-4.647l9.713 2.622z" fill="#181e26" fill-opacity="0.15"/></g><circle cx="250.065" cy="101.851" r="25" fill="#fee3c8"/><ellipse cx="237.753" cy="112.207" rx="25.44" ry="33.335" fill="#fdd1a5"/><clipPath id="d"><ellipse cx="237.753" cy="112.207" rx="25.44" ry="33.335"/></clipPath><g clip-path="url(#d)"><path d="M229.921 126.851c-6.599 3.16-19.364 7.914-19.364 7.914s3.296 4.457 10.103 2.122c6.292-2.157 9.261-10.036 9.261-10.036z" fill="#f7f8fa"/></g><path d="M222.475 100.477c1.067-.341 3.572.056 5.71.857 2.396.897 4.309 3.189 4.002 3.721-.204.352-2.258-.939-4.75-1.736-1.926-.616-4.202-.915-5.079-.817-1.074.121-.89-1.704.117-2.025z" fill="#17b272"/><circle cx="225.065" cy="112.327" r="4.5" fill="#525f75"/><path d="M212.328 113.313l2.809 11.017s-3.905-1.388-5.826-2.071c-.267-.094-.481-.297-.589-.558-.108-.262-.101-.556.02-.812 1.07-2.261 3.586-7.576 3.586-7.576z" fill="#fdd1a5"/><path d="M239.136 94.125c2.478 19.319 1.13 43.15-3.19 61.865 2.83-.161 31.363-10.907 39.027-19.685 0 0 8.263-22.879 6.228-35.994-2.59-16.7-17.456-30.766-45.985-27.421-10.013 1.174-22.241 12.712-22.08 21.235h26z" fill="#1bc47e"/></g><path d="M267.264 297c-1.023-11.901-16.432-15.094-29.427-15.492-11.906-.365-30.428 2.277-30.135 15.492.424 19.106 3.386 25 3.386 25h54.409s2.174-20.265 1.767-25z" fill="#1bc47e"/></g><path d="M290 189.8c0-1.545-1.255-2.8-2.8-2.8h-78.4c-1.545 0-2.8 1.255-2.8 2.8V243h84v-53.2z" fill="#444f61"/></g><g><path fill="#dde3ed" d="M112 308h8v92h-8zM37 308h8v92h-8z"/><path d="M29 303c0-3.314 2.686-6 6-6h88c3.314 0 6 2.686 6 6v6H29v-6z" fill="#69768c"/><g><path d="M70.095 135.085c.475 3.902 37.041-18.062 31.574-23.256 16.662 5.32 21.54-21.429 7.593-21.983 9.82-8.129-2.661-26.839-12.113-20.434 2.236-5.253.535-12.426-5.899-14.625-5.627-1.923-11.707 1.201-13.942 6.454-.691-5.666-14.793-13.928-28.475-6.863-10.823 5.588-12.557 16.726-11.191 22.384-15.048-.296-18.251 21.388-6.582 25-10.399 1.874-8.524 19.88-.522 19.422-6.861 11.026 8.803 23.509 19.098 15.713-1.472 8.139 17.202 3.457 20.459-1.812z" fill="#333e50"/><path d="M87.595 158.039l-8.404 6.371-8.391-6.318 1.873-16.745 13.056-.112 1.866 16.804z" fill="#aa5822"/><clipPath id="e"><path d="M87.595 158.039l-8.404 6.371-8.391-6.318 1.873-16.745 13.056-.112 1.866 16.804z"/></clipPath><g clip-path="url(#e)"><path d="M70.551 144.283s9.303 10.248 20.06 2.025c11.318-8.652-10.346-4.646-10.346-4.646l-9.714 2.621z" fill="#181e26" fill-opacity="0.15"/></g><circle cx="66.524" cy="101.762" r="25" fill="#aa5822"/><ellipse cx="78.835" cy="112.118" rx="25.44" ry="33.335" fill="#aa5822"/><clipPath id="f"><ellipse cx="78.835" cy="112.118" rx="25.44" ry="33.335"/></clipPath><g clip-path="url(#f)"><path d="M86.355 128.152c6.598 3.16 21.222 4.019 21.222 4.019s-6.044 8.305-12.85 5.971c-6.292-2.158-8.372-9.99-8.372-9.99z" fill="#fff"/></g><path d="M104.152 115.406l-2.7 9.835s2.119-.469 3.881-.86c.578-.128 1.069-.504 1.342-1.029.273-.525.3-1.144.073-1.69-1.04-2.506-2.596-6.256-2.596-6.256z" fill="#aa5822"/><circle cx="91.25" cy="112.14" r="4.5" fill="#181e26"/><path d="M95.786 101.586c-2.033-1.809-10.755.639-9.91 2.287.221.43 7.77-.048 9.757-.294.604-.075.547-1.643.153-1.993z" fill="#333e50"/><path d="M86.116 71.763l-39.17 2.275-10.342 37.791 13.032 25.068c-1.5 9.086 17.067 13.539 18.154.422 8.811 3.601 11.834-9.029 5.115-10.557 6.917-3.22 8.361-16.836-1.655-18.468 4.37 1.075 10.596-4.211 7.246-10.733 4.18 3.977 14.79.865 15.41-4.249 6.337 9.227 16.741 4.314 13.919.91l-4.7-14.4-17.009-8.059z" fill="#333e50"/><g><path d="M50.987 178.733c-.674-8.538 4.761-16.368 12.996-18.723 3.776-1.08 6.829-1.953 6.829-1.953h16.693s3.086.882 6.893 1.969c8.217 2.347 13.651 10.148 13.005 18.669-1.842 24.294-5.33 70.302-5.33 70.302H56.532s-3.627-45.96-5.545-70.264z" fill="#aa5822"/><path d="M94.573 243.098c2.426 1.476 5.877 4.166 9.018 4.101 5.786-.121 11.191 1.334 10.958-.257-.32-2.192-9.479-2.408-9.404-3.26.179-2.062 11.628-1.454 15.836-3.538 2.013-.997-7.036-7.369-11.471-7.897 0 0-4.872-1.271-13.991 3.205l-4.119 3.102 3.173 4.544z" fill="#aa5822"/><path d="M103.903 247.839c4.465 11.953 8.315 37.578 8.166 49.187L45.815 297c-.427-10.478 3.964-37.902 8.541-49.25l49.547.089z" fill="#444f61"/><path d="M71.197 308.065s-25.439-22.927-16.983.761c-4.749 13.174 7.89 86.734 7.89 86.734l7.992-.358 1.101-87.137zM86.83 307.154s26.645-21.513 16.917 1.681c4.027 13.412-12.585 86.178-12.585 86.178l-7.961-.791 3.629-87.068z" fill="#fdd1a5"/><path d="M83.711 381.59c.401-19.308-6.637-100.589 15.631-99.442 21.805 1.124 2.12 74.25-4.036 99.878l-11.595-.436zM70.268 381.564c1.548-19.25 12.762-98.549-9.508-99.652-21.807-1.081-5.946 74.149-1.968 99.936l11.476-.284z" fill="#525f75"/><path d="M96.882 400c.343 0 .662-.175.845-.465.184-.29.206-.654.059-.964-1.191-2.43-4.395-7.11-11.438-7.034-4.813.053-6.901 4.816-7.64 7.172-.093.303-.036.631.152.885.189.254.486.404.802.404 3.555.002 13.449.002 17.22.002zM57.57 400c-.343 0-.662-.175-.845-.465-.184-.29-.206-.654-.059-.964 1.191-2.43 4.395-7.11 11.438-7.034 4.813.053 6.901 4.816 7.641 7.172.092.303.035.631-.153.885s-.486.404-.802.404c-3.555.002-13.449.002-17.22.002z" fill="#f4421e"/><path d="M51.431 171.317c-9.018 9.407-17.523 49.012-10.214 60.209 7.272 11.142 54.702 14.353 54.702 14.353l2.218-5.558c-13.969-6.112-27.384-11.355-43.291-14.476 2.272-15.738 4.44-29.621 10.5-39.595l-13.915-14.933zM89.069 169.643c-4.267 12.313 4.538 51.852 15.855 58.976 11.26 7.088 55.699-9.794 55.699-9.794l-.305-5.977c-15.245.277-29.624 1.114-45.381 4.919 2.498-17.955-7.688-52.204-13.646-53.155l-12.222 5.031z" fill="#aa5822"/><path d="M156.487 220.22s4.717 2.469 10.822 3.355c3.698.537 8.189-.22 11.038-1.902 5.282-3.119 5.932-6.738 2.111-7.815-7.003-1.976-9.603-1.251-12.773-2.016-2.176-.526-2.306-4.779-4.046-3.941-3.624 1.747-7.332 5.609-7.332 5.609l.18 6.71z" fill="#7d441c"/><g fill="#edf0f5"><path d="M187.127 199.552l-19.891-2.091-.418 3.978 19.89 2.091.419-3.978z"/><path d="M186.132 199.445c.173-1.646-1.021-3.122-2.668-3.295-3.312-.348-8.627-.906-11.938-1.254-1.647-.173-3.122 1.021-3.295 2.668v.002l17.901 1.881v-.002z"/></g><path d="M185.714 203.425l-17.902-1.881-1.159 30.043 13.948 1.466 5.113-29.628z" fill="#ff7f65"/><path d="M70.809 158.058s-13.021.685-20.761 8.766c-4.153 4.336-9.015 19.284-11.283 26.843-.786 2.63.238 5.465 2.523 6.986 4.697 3.126 12.062 8.028 12.062 8.028l-6.549 58.71h64.895l-9.073-60.593 14.967-9.33s-6.139-25.197-11.212-31.317c-5.939-7.165-18.844-8.085-18.844-8.085-5.781 4.568-11.348 4.373-16.725-.008z" fill="#ffa391"/><clipPath id="g"><path d="M70.809 158.058s-13.021.685-20.761 8.766c-4.153 4.336-9.015 19.284-11.283 26.843-.786 2.63.238 5.465 2.523 6.986 4.697 3.126 12.062 8.028 12.062 8.028l-6.549 58.71h64.895l-9.073-60.593 14.967-9.33s-6.139-25.197-11.212-31.317c-5.939-7.165-18.844-8.085-18.844-8.085-5.781 4.568-11.348 4.373-16.725-.008z"/></clipPath><g clip-path="url(#g)" fill="#181e26" fill-opacity="0.15"><path d="M53.357 206.761c-1.236 2.806.143 9.272 2.327 5.63-.002-1.909 1.618-14.778 1.356-28.934l-3.683 23.304zM103.603 206.761c1.236 2.806-.143 9.272-2.327 5.63.002-1.909-1.618-14.778-1.356-28.934l3.683 23.304z"/></g><g fill="#ff7f65"><circle cx="54.012" cy="171.81" r="1.35"/><circle cx="67.012" cy="171.81" r="1.35"/><circle cx="80.012" cy="171.81" r="1.35"/><circle cx="93.012" cy="171.81" r="1.35"/><circle cx="106.012" cy="171.81" r="1.35"/></g><g fill="#ff7f65"><circle cx="53.012" cy="262.81" r="1.35"/><circle cx="66.012" cy="262.81" r="1.35"/><circle cx="79.012" cy="262.81" r="1.35"/><circle cx="92.012" cy="262.81" r="1.35"/><circle cx="105.012" cy="262.81" r="1.35"/></g><circle cx="64.012" cy="161.81" r="1.35" fill="#ff7f65"/><circle cx="90.012" cy="161.81" r="1.35" fill="#ff7f65"/><g fill="#ff7f65"><circle cx="64.012" cy="184.81" r="1.35"/><circle cx="77.012" cy="184.81" r="1.35"/><circle cx="90.012" cy="184.81" r="1.35"/><circle cx="103.012" cy="184.81" r="1.35"/><circle cx="47.012" cy="184.81" r="1.35"/><circle cx="112.97" cy="192.493" r="1.35"/><circle cx="46.118" cy="196.838" r="1.35"/></g><path d="M155.295 220.22c3.248 1.3 5.964 2.298 9.581 2.91 0 0 1.203-8.819 1.617-11.288.268-1.593 3.957-2.688 7.073-2.801 1.646-.06 2.13-2.083-3.128-2.522-1.779-.148-6.251.544-7.99 1.382-3.625 1.747-7.333 5.609-7.333 5.609l.18 6.71z" fill="#aa5822"/></g></g><g><path d="M123 195.5c0-1.38-1.12-2.5-2.5-2.5h-71c-1.38 0-2.5 1.12-2.5 2.5v45c0 1.38 1.12 2.5 2.5 2.5h71c1.38 0 2.5-1.12 2.5-2.5v-45z" fill="#fbeae7"/><path d="M76.636 227.736c-.605-.776 4.82-12.96 9.144-10.783.288.145 1.246 1.112 1.359 1.365 1.785 3.976-9.901 10.19-10.503 9.418zm11.168-10.577c1.027-.063 2.19-.377 2.818-1.001 0 0 2.88 1.169 2.786-.845-.067-1.45-4.377-1.11-5.604 1.846zm-1.234-.99c.13-1.036.547-1.895 1.179-2.619-.35-.585.086-1.664.808-1.706 0 0-1.195-2.575-.235-3.274 2.957-2.151 2.933 5.65-1.752 7.599z" fill="#ffc7bc"/></g></g><g><path fill="#dde3ed" d="M328 256h8v144h-8zM10 256h8v144h-8z"/><path d="M0 249c0-3.314 2.686-6 6-6h334c3.314 0 6 2.686 6 6v10H0v-10z" fill="#69768c"/></g><g><g fill="#edf0f5"><path d="M297 209h20v4h-20zM316 209c0-1.657-1.343-3-3-3h-12c-1.657 0-3 1.343-3 3h18z"/></g><path d="M316 213h-18l1.988 30h14.024L316 213z" fill="#ff7f65"/></g></g></svg>