<svg viewBox="0 0 680 680" xmlns="http://www.w3.org/2000/svg" fill-rule="evenodd" clip-rule="evenodd" stroke-linejoin="round" stroke-miterlimit="1.41421"><path fill="none" d="M0 0h680v680H0z"/><path d="M405.268 356.216c-4.281 2.092-11.269 6.787-12.797 6.486 7.878 7.574 13.497 12.693 17.853 21.54 4.708 9.563 1.916 20.894 5.78 30.773 4.779 12.221 16.801 20.73 20.472 32.483 3.947 12.636 4.428 41.66 5.179 44.949 5.067-3.46 9.05-3.584 12.404-3.741-.628-3.431-1.462-32.766-7.744-47.767-5.257-12.556-17.13-23.531-20.006-29.631-5.077-10.766-1.243-20.778-6.012-32.23-3.132-7.519-9.866-16.336-15.129-22.862z" fill="#21d98c"/><clipPath id="a"><path d="M405.268 356.216c-4.281 2.092-11.269 6.787-12.797 6.486 7.878 7.574 13.497 12.693 17.853 21.54 4.708 9.563 1.916 20.894 5.78 30.773 4.779 12.221 16.801 20.73 20.472 32.483 3.947 12.636 4.428 41.66 5.179 44.949 5.067-3.46 9.05-3.584 12.404-3.741-.628-3.431-1.462-32.766-7.744-47.767-5.257-12.556-17.13-23.531-20.006-29.631-5.077-10.766-1.243-20.778-6.012-32.23-3.132-7.519-9.866-16.336-15.129-22.862z"/></clipPath><g clip-path="url(#a)"><path d="M404.079 356.185s11.071 17.738 13.874 24.825c3.855 9.747 1.333 20.161 4.997 29.073 3.156 7.676 16.553 19.989 21.499 34.155 4.947 14.166 5.936 48.712 5.936 48.712l8.273.189-4.37-43.866-22.097-46.625-4.773-20.56-19.54-27.387-3.799 1.484z" fill="#181e26" fill-opacity="0.15"/></g><path d="M280 386h120c-.126 26.523-9.97 49.906-30 70h-60c-20.03-20.094-29.874-43.477-30-70z" fill="#f8cd61"/><clipPath id="b"><path d="M280 386h120c-.126 26.523-9.97 49.906-30 70h-60c-20.03-20.094-29.874-43.477-30-70z"/></clipPath><g clip-path="url(#b)"><path d="M280 386h120c33.376 39.849-148.65 45.424-120 0z" fill="#181e26" fill-opacity="0.15"/></g><path d="M240 664h200c-.126-26.523-52.97-34.906-73-55h-54c-20.03 20.094-72.874 28.477-73 55z" fill="#f8cd61"/><path d="M628.074 146.451l.439.003.44.005.442.006.445.009.444.01.446.012.447.015.448.016.451.018.451.021.452.023.453.025.453.027.455.03.456.032.457.034.457.037.458.039.46.042.46.044.46.047.461.05.461.052.463.055.464.058.462.06.464.064.465.066.465.069.464.073.466.075.465.079.466.081.467.085.465.088.466.092.467.095.466.098.467.102.458.103.24.056.234.055.233.056.232.057.234.057.234.059.232.06.232.06.233.062.233.062.233.064.232.064.234.066.232.066.231.067.231.068.234.07.232.071.229.071.235.073.232.074.23.074.23.076.232.077.232.078.23.079.23.08.231.081.228.082.231.084.233.086.227.085.227.086.232.089.231.09.225.089.229.092.229.093.228.094.228.096.227.096.227.098.227.099.226.1.228.102.225.103.224.103.226.106.225.107.226.109.224.109.221.109.225.113.223.113.223.115.222.116.222.117.222.12.22.12.221.122.221.123.217.123.221.127.218.127.217.129.218.13.216.131.217.134.215.134.217.137.214.137.213.139.216.142.211.141.21.143.216.147.212.148.207.146.208.149.209.152.211.155.207.154.204.154.205.158.207.161.205.161.201.161.203.165.204.167.199.166.199.168.2.171.197.172.198.175.198.177.193.175.195.18.194.18.189.18.194.186.19.186.188.185.189.19.188.191.184.191.182.192.186.197.183.199.179.195.18.201.18.204.178.203.175.205.174.205.172.208.174.212.172.213.168.212.167.213.167.217.168.223.164.219.16.219.161.223.159.224.158.226.156.228.157.231.154.233.151.232.149.231.147.234.149.238.146.24.144.242.142.241.141.244.139.245.137.245.135.248.133.247.134.254.13.251.128.252.127.256.126.258.124.259.12.257.121.261.118.263.114.259.117.269.112.266.11.266.109.268.107.269.106.274.104.274.1.272.1.274.099.282.095.274.093.276.093.285.09.281.089.284.086.284.084.284.082.286.081.286.079.291.077.292.075.29.072.29.072.299.069.292.066.293.066.301.064.298.061.299.059.301.058.301.056.305.053.303.051.304.05.308.048.305.045.307.044.31.043.315.039.309.039.313.035.314.035.315.032.319.03.313.028.317.027.322.025.322.022.32.02.321.019.325.017.326.015.326.012.324.012.329.009.332.007.327.005.331.003.335.001.332v.334l-.003.337-.005.34-.008.441-.012.44-.014.439-.018.439-.021.435-.023.433-.027.431-.029.429-.033.425-.035.422-.039.424-.042.419-.045.42-.048.416-.05.411-.054.414-.057.408-.06.405-.064.41-.066.402-.07.4-.072.399-.076.397-.079.398-.082.39-.085.392-.089.39-.092.385-.094.384-.099.384-.101.38-.105.379-.107.376-.111.372-.115.376-.118.37-.12.367-.124.364-.126.362-.13.361-.135.361-.137.357-.138.352-.144.353-.147.351-.149.346-.153.346-.156.342-.158.34-.164.34-.163.332-.169.334-.172.331-.173.326-.178.326-.18.322-.183.32-.187.318-.189.315-.193.312-.195.31-.197.305-.2.304-.204.302-.205.295-.209.297-.212.294-.213.288-.216.286-.219.285-.222.282-.223.278-.226.275-.228.271-.229.269-.234.268-.236.264-.235.259-.241.26-.242.255-.239.248-.246.251-.249.247-.248.243-.251.24-.252.237-.255.236-.254.23-.256.228-.261.227-.26.224-.262.22-.261.216-.265.215-.268.214-.267.209-.267.205-.27.205-.272.202-.271.198-.274.196-.275.194-.273.19-.277.189-.279.187-.277.183-.279.181-.281.179-.28.177-.283.174-.282.172-.283.169-.286.169-.286.165-.283.162-.286.16-.288.16-.289.158-.288.154-.288.152-.289.151-.292.15-.291.147-.29.145-.293.143-.292.142-.293.139-.293.138-.294.137-.295.135-.294.133-.296.131-.297.131-.296.128-.295.126-.297.126-.299.124-.297.123-.298.121-.299.12-.298.118-.298.117-.301.116-.301.115-.3.113-.301.113-.301.111-.301.11-.301.108-.302.109-.303.106-.301.106-.304.105-.303.104-.304.103-.303.102-.304.101-.304.1-.303.099-.305.099-.306.098-.31.098-.604.19-.612.189-.613.186-.613.183-.614.182-.614.179-.615.177-.616.176-.617.174-.616.172-.618.172-.618.17-.617.168-.619.169-.62.167-1.235.333-1.238.332-1.238.332-1.241.334-.616.167-.618.168-.618.168-.618.17-.617.171-.616.172-.616.173-.615.174-.615.176-.614.178-.612.179-.612.181-.612.183-.609.186-.609.187-.608.19-.612.194-.298.095-.302.098-.301.098-.303.099-.302.1-.301.1-.301.101-.299.102-.301.102-.3.104-.3.104-.297.104-.299.106-.296.106-.09.032-.082.031-.089.033-.075.028-.178.069-.164.066-.164.068-.16.068-.156.068-.156.07-.152.071-.151.072-.147.072-.143.072-.144.075-.14.074-.136.075-.137.076-.133.077-.13.077-.13.078-.126.078-.123.078-.124.081-.118.079-.119.081-.118.083-.111.08-.112.082-.11.083-.108.084-.106.083-.104.084-.103.085-.099.084-.098.085-.097.086-.096.087-.094.087-.091.087-.09.087-.086.086-.088.089-.086.09-.082.088-.082.089-.079.089-.081.092-.076.089-.075.09-.075.092-.071.09-.072.092-.071.093-.068.092-.067.093-.064.091-.064.093-.064.096-.061.092-.059.093-.06.096-.057.094-.056.094-.055.097-.053.094-.053.097-.051.097-.049.095-.048.095-.047.098-.047.098-.045.098-.044.098-.041.095-.04.097-.04.098-.04.102-.036.097-.036.098-.037.103-.032.096-.033.1-.032.099-.029.099-.029.1-.028.1-.028.103-.024.096-.024.099-.024.104-.022.099-.021.103-.02.1-.018.099-.018.103-.015.099-.015.099-.014.099-.013.102-.012.103-.01.098-.009.098-.008.102-.007.102-.006.101-.005.102-.003.096-.003.097-.001.1v.1l.001.1.002.1.003.099.004.098.005.099.007.098.007.093.008.097.01.101.011.096.011.096.013.095.014.095.015.094.016.097.017.093.018.093.019.096.02.091.02.092.022.09.024.093.024.094.025.088.025.087.027.091.029.091.028.085.03.089.031.088.03.084.033.087.034.086.035.085.034.081.036.084.037.083.038.082.039.082.04.08.04.081.042.08.042.077.043.078.044.077.044.076.047.079.045.072.047.074.051.079.048.072.048.07.052.074.052.072.052.07.053.069.053.067.056.071.058.07.055.065.058.068.059.066.059.065.059.063.062.064.062.064.065.064.064.063.064.061.067.061.067.06.068.06.069.059.071.059.072.058.072.057.075.058.074.056.076.055.077.055.08.055.079.053.08.053.083.052.085.053.084.051.087.051.089.05.087.048.094.05.093.049.092.046.096.047.099.046.099.046.1.044.103.044.104.043.108.043.107.041.11.041.114.04.113.039.115.038.118.037.12.036.138.04.048.013.062.017.062.016.065.017.064.016.064.016.068.017.063.014.066.015.069.016.065.014.067.014.07.014.07.014.072.013.072.014.066.012.07.012.078.013.073.012.07.01.075.012.075.01.075.011.077.01.077.009.077.01.077.008.079.009.08.008.078.008.082.008.083.007.078.006.082.006.085.006.086.006.084.004.082.005.086.004.089.004.085.003.088.002.09.003.087.002.091.001.092.001h.272l.098-.001.093-.002.091-.002.098-.003.096-.003.094-.003.101-.005.099-.004.096-.005.101-.006.101-.006.099-.007.1-.008.104-.008.105-.008.103-.01.104-.009.107-.011.106-.011.106-.011.107-.012.109-.013.109-.013.107-.014.111-.015.112-.015.113-.016.111-.017.111-.017.139-.021.65-.081.653-.037.654.005.653.048.648.091.641.132.631.175.618.215.602.255.585.295.564.331.541.368.516.403.488.435.459.466.428.496.394.522.359.547.323.569.285.59.245.606.206.622.164.633.122.643.081.649.037.654-.005.654-.048.653-.091.648-.132.64-.175.631-.215.618-.255.603-.295.584-.331.564-.368.541-.403.516-.435.489-.466.459-.496.427-.522.395-.547.359-.569.322-.59.285-.606.246-.622.205-.633.164-.643.123-.181.028-.209.032-.207.031-.205.029-.205.028-.204.027-.208.027-.205.025-.204.024-.205.023-.204.022-.203.021-.202.02-.204.019-.204.018-.201.017-.2.015-.204.015-.203.014-.2.013-.201.011-.203.011-.2.009-.196.009-.203.007-.2.007-.196.005-.203.004-.199.004-.193.002-.199.001h-.202l-.195-.001-.196-.002-.195-.003-.199-.003-.195-.006-.195-.006-.198-.007-.191-.008-.195-.009-.197-.011-.194-.011-.191-.012-.191-.014-.193-.014-.197-.016-.19-.016-.191-.018-.192-.019-.19-.019-.19-.021-.192-.022-.189-.023-.189-.023-.188-.025-.189-.026-.188-.027-.186-.028-.191-.029-.187-.031-.181-.03-.187-.032-.19-.034-.184-.034-.183-.035-.183-.036-.183-.037-.184-.039-.186-.04-.18-.04-.182-.041-.185-.043-.178-.043-.181-.045-.18-.046-.177-.045-.18-.048-.18-.049-.191-.053-.34-.098-.352-.107-.351-.11-.349-.115-.347-.118-.341-.122-.342-.126-.34-.13-.335-.134-.335-.138-.331-.141-.33-.146-.327-.149-.323-.153-.322-.157-.321-.161-.315-.164-.312-.167-.313-.173-.307-.174-.305-.178-.304-.183-.297-.184-.297-.189-.294-.193-.291-.196-.286-.198-.285-.203-.282-.206-.278-.208-.274-.211-.272-.215-.268-.217-.265-.221-.262-.224-.259-.226-.255-.23-.252-.232-.249-.236-.245-.238-.241-.239-.237-.242-.235-.246-.233-.249-.229-.252-.223-.252-.221-.255-.218-.259-.212-.258-.209-.26-.208-.266-.204-.268-.199-.269-.196-.27-.19-.271-.191-.277-.186-.278-.178-.273-.178-.281-.176-.285-.169-.281-.167-.286-.163-.287-.159-.289-.156-.291-.152-.291-.148-.293-.145-.294-.141-.296-.137-.297-.134-.299-.13-.299-.127-.303-.123-.302-.119-.303-.115-.303-.113-.309-.107-.305-.104-.307-.102-.311-.097-.308-.092-.308-.091-.314-.087-.315-.082-.31-.078-.312-.076-.317-.072-.316-.069-.318-.063-.314-.061-.318-.058-.319-.053-.316-.05-.32-.046-.319-.043-.321-.039-.321-.036-.321-.031-.318-.028-.321-.025-.327-.021-.322-.017-.322-.014-.322-.01-.323-.007-.322-.002-.323v-.322l.005-.323.008-.326.011-.327.016-.322.019-.322.022-.322.026-.322.03-.325.034-.325.037-.321.04-.321.045-.324.048-.324.052-.323.055-.319.059-.323.063-.322.066-.318.07-.32.073-.317.077-.32.082-.323.084-.314.088-.317.092-.317.096-.317.1-.315.102-.314.108-.316.11-.31.114-.312.119-.313.12-.307.125-.308.129-.31.134-.31.136-.305.14-.304.143-.303.146-.301.152-.303.156-.301.158-.298.161-.296.167-.298.169-.293.173-.293.177-.293.18-.289.185-.289.188-.288.19-.283.195-.283.2-.284.202-.28.207-.278.208-.275.212-.273.219-.275.219-.269.224-.268.229-.268.228-.261.235-.263.238-.26.242-.258.245-.255.247-.251.253-.253.256-.248.258-.246.262-.242.264-.24.269-.239.272-.236.276-.234.279-.23.282-.228.285-.225.288-.222.291-.219.294-.216.301-.216.299-.209.303-.208.309-.206.308-.201.315-.2.317-.197.317-.192.323-.19.325-.187.327-.184.332-.181.334-.178.336-.173.341-.172.343-.168.344-.164.347-.161.349-.158.355-.156.356-.151.357-.147.362-.145.354-.138.193-.073.18-.067.188-.069.182-.066.353-.126.351-.124.353-.124.35-.122.348-.12.349-.119.35-.119.349-.117.348-.116.346-.115.346-.113.347-.113.346-.112.35-.112.683-.216.685-.214.684-.21.681-.207.677-.203.675-.2.672-.197.669-.193.666-.191.663-.188.66-.185.656-.183.652-.181.649-.178.645-.176.642-.175.639-.172 1.261-.34 1.246-.334 1.229-.33 1.214-.327.597-.161.593-.161.588-.161.584-.161.577-.16.573-.16.568-.16.561-.16.556-.161.551-.16.545-.161.538-.162.533-.161.525-.163.527-.165.253-.08.255-.082.254-.082.254-.083.25-.082.249-.083.248-.084.246-.083.244-.083.241-.084.243-.085.239-.084.236-.085.237-.085.234-.086.231-.085.23-.086.229-.086.225-.087.223-.086.224-.088.222-.087.218-.088.218-.088.215-.089.212-.088.211-.09.211-.09.208-.09.203-.089.204-.091.202-.091.198-.091.198-.092.196-.092.194-.092.191-.093.189-.093.188-.094.185-.093.182-.093.182-.095.18-.095.178-.096.173-.094.172-.095.172-.097.171-.098.167-.096.163-.096.164-.098.161-.098.158-.098.157-.099.155-.099.153-.099.152-.1.148-.099.145-.1.147-.102.143-.1.141-.102.14-.102.136-.101.135-.102.135-.104.132-.103.128-.103.128-.103.128-.106.125-.105.122-.105.119-.104.121-.108.12-.108.114-.105.115-.109.113-.108.111-.109.109-.108.107-.109.111-.115.104-.11.102-.11.104-.115.101-.113.099-.113.099-.116.098-.117.096-.117.096-.119.093-.118.091-.119.092-.121.091-.124.088-.122.087-.123.089-.129.086-.126.084-.129.085-.131.082-.131.082-.133.081-.135.08-.134.079-.138.078-.141.077-.141.077-.145.075-.144.074-.147.075-.152.072-.149.072-.154.071-.157.069-.157.07-.162.068-.161.067-.165.067-.17.065-.17.064-.171.063-.176.063-.179.062-.182.06-.185.059-.186.057-.186.058-.195.056-.196.055-.198.054-.202.052-.203.052-.21.05-.212.049-.213.047-.217.047-.224.044-.222.043-.227.043-.232.04-.235.04-.24.037-.237.036-.247.035-.251.033-.249.032-.259.03-.26.028-.261.026-.268.025-.269.023-.276.021-.279.02-.282.017-.285.016-.29.014-.293.012-.296.01-.301.008-.306.006-.312.003-.221.002-.219v-.221l-.001-.218-.002-.213-.003-.215-.005-.215-.005-.207-.007-.208-.008-.209-.01-.204-.01-.201-.012-.2-.013-.201-.013-.199-.015-.194-.016-.191-.017-.193-.019-.194-.019-.185-.02-.187-.021-.185-.022-.183-.024-.184-.024-.176-.025-.177-.026-.178-.028-.176-.027-.172-.03-.173-.03-.17-.03-.166-.032-.167-.033-.165-.033-.163-.034-.161-.034-.157-.037-.161-.037-.16-.037-.15-.039-.156-.039-.154-.04-.149-.04-.147-.042-.149-.042-.147-.043-.147-.044-.143-.044-.142-.045-.141-.045-.135-.047-.141-.048-.14-.046-.13-.049-.136-.05-.135-.05-.13-.049-.127-.052-.13-.052-.129-.053-.128-.053-.125-.051-.12-.057-.127-.054-.121-.055-.12-.058-.122-.056-.118-.056-.115-.058-.115-.059-.118-.059-.115-.059-.11-.061-.114-.061-.112-.062-.11-.062-.11-.062-.108-.064-.108-.063-.105-.064-.105-.064-.103-.067-.107-.068-.106-.067-.103-.067-.099-.066-.099-.07-.101-.069-.1-.07-.098-.071-.099-.073-.099-.072-.097-.07-.092-.072-.094-.076-.097-.075-.094-.074-.092-.074-.091-.078-.093-.078-.093-.078-.091-.078-.09-.078-.087-.079-.089-.083-.091-.081-.087-.079-.084-.084-.089-.085-.087-.083-.085-.084-.084-.087-.086-.086-.084-.085-.081-.09-.086-.088-.082-.089-.082-.091-.083-.09-.08-.09-.079-.093-.081-.092-.08-.096-.08-.095-.08-.094-.077-.096-.078-.098-.078-.098-.077-.096-.075-.1-.077-.103-.077-.101-.076-.1-.073-.102-.074-.105-.075-.107-.076-.104-.072-.102-.071-.109-.073-.11-.073-.106-.07-.109-.072-.111-.071-.11-.069-.112-.07-.112-.069-.115-.07-.114-.068-.116-.068-.116-.068-.115-.066-.12-.068-.118-.066-.118-.066-.121-.066-.12-.064-.122-.064-.123-.065-.123-.063-.124-.063-.124-.062-.128-.064-.127-.062-.126-.06-.128-.061-.129-.06-.131-.061-.131-.059-.13-.059-.133-.059-.133-.058-.134-.057-.135-.058-.135-.056-.136-.056-.136-.056-.138-.055-.141-.056-.137-.053-.137-.053-.143-.054-.144-.054-.139-.051-.142-.052-.145-.052-.144-.05-.145-.051-.146-.05-.146-.049-.146-.049-.149-.049-.15-.048-.148-.047-.147-.046-.152-.047-.151-.046-.15-.045-.153-.045-.154-.045-.155-.044-.152-.043-.155-.043-.155-.042-.156-.042-.156-.041-.157-.041-.159-.041-.157-.039-.158-.039-.161-.039-.159-.039-.16-.037-.153-.036-.332-.075-.326-.071-.327-.069-.328-.067-.332-.065-.334-.063-.333-.061-.337-.059-.338-.057-.339-.055-.341-.053-.343-.051-.343-.049-.345-.047-.347-.045-.347-.044-.347-.041-.351-.04-.35-.037-.352-.036-.352-.034-.353-.032-.354-.03-.355-.029-.355-.027-.355-.024-.356-.024-.357-.021-.358-.02-.356-.018-.358-.016-.357-.015-.358-.013-.358-.012-.358-.01-.359-.008-.356-.007-.358-.005-.357-.004-.358-.002-.356-.001-.356.001-.356.002-.356.003-.355.005-.353.006-.352.008-.353.009-.353.01-.35.011-.35.012-.348.014-.349.015-.347.016-.345.017-.344.018-.343.02-.341.02-.34.022-.339.022-.338.023-.335.025-.334.025-.332.026-.33.027-.33.028-.327.028-.324.029-.323.03-.322.031-.318.032-.317.032-.315.033-.312.033-.31.034-.308.035-.305.035-.302.036-.301.036-.298.036-.295.037-.291.037-.284.038-.577.077-.56.077-.547.079-.534.079-.522.079-.508.08-.494.079-.48.08-.466.079-.451.078-.435.077-.42.076-.402.075-.386.073-.369.071-.351.069-.333.066-.315.065-.296.061-.278.058-.256.055-.237.051-.209.046-.377.085-.283.065-.186.044-.168.041-.64.134-.648.092-.653.049-.654.006-.653-.036-.65-.079-.643-.122-.634-.163-.621-.204-.607-.245-.59-.284-.57-.321-.547-.358-.523-.394-.497-.426-.467-.459-.436-.487-.403-.516-.369-.54-.333-.564-.295-.584-.256-.602-.217-.617-.175-.631-.134-.64-.092-.648-.049-.653-.007-.654.037-.653.079-.65.121-.643.164-.634.204-.621.244-.607.284-.59.322-.57.358-.548.393-.523.427-.496.458-.467.488-.436.515-.404.541-.368.563-.333.584-.295.602-.257.618-.216.63-.175.232-.057.305-.072.391-.09.477-.107.283-.063.297-.064.319-.068.338-.071.36-.075.38-.077.4-.08.42-.082.438-.085.456-.086.476-.088.493-.089.51-.091.527-.091.544-.093.561-.092.577-.093.592-.093.607-.093.623-.092.637-.091.65-.09.659-.088.342-.045.343-.044.344-.043.346-.042.35-.042.353-.042.358-.041.359-.04.362-.04.366-.039.368-.039.371-.037.374-.037.377-.037.379-.035.383-.035.385-.033.386-.033.39-.032.393-.03.395-.03.397-.029.399-.028.402-.026.404-.025.407-.025.409-.023.41-.022.414-.02.414-.019.416-.018.42-.016.421-.016.423-.013.424-.012.426-.011.429-.009.43-.007.431-.006.433-.004.434-.003.437-.001.439.001zM52.769 146.451l.433.003.433.004.432.006.43.007.429.009.426.011.424.012.423.013.421.016.419.016.416.018.415.019.413.02.411.022.409.023.407.025.404.025.402.026.398.028.398.029.395.03.393.03.39.032.386.033.385.033.383.035.379.035.376.037.375.036.371.038.368.039.365.039.363.04.36.04.356.041.354.042.35.042.346.042.344.043.342.044.343.045.659.088.65.09.637.091.622.092.608.093.592.093.577.093.561.092.544.093.527.091.51.091.493.089.475.088.457.086.438.085.42.082.4.08.379.077.36.075.339.071.318.068.298.064.283.063.476.107.392.09.305.072.232.057.63.175.618.216.602.257.584.295.563.333.541.368.515.404.488.436.458.467.427.496.393.523.358.548.322.57.283.59.245.607.204.621.163.634.122.643.079.65.036.653-.006.654-.049.653-.092.648-.134.64-.175.631-.217.617-.256.602-.295.584-.333.564-.369.54-.403.516-.436.487-.468.459-.496.426-.523.394-.547.358-.57.321-.59.284-.607.245-.622.204-.633.163-.643.122-.65.079-.653.036-.655-.006-.652-.049-.648-.092-.641-.134-.167-.041-.186-.044-.283-.065-.377-.085-.209-.046-.237-.051-.257-.055-.277-.058-.296-.061-.315-.065-.334-.066-.35-.069-.369-.071-.386-.073-.403-.075-.419-.076-.436-.077-.45-.078-.466-.079-.48-.08-.494-.079-.508-.08-.522-.079-.534-.079-.548-.079-.559-.077-.576-.077-.285-.037-.291-.038-.295-.037-.299-.036-.3-.036-.303-.036-.305-.035-.307-.035-.31-.034-.312-.033-.315-.033-.317-.032-.319-.032-.321-.031-.323-.03-.325-.029-.326-.028-.33-.028-.33-.027-.332-.026-.334-.025-.335-.025-.338-.023-.339-.022-.34-.022-.341-.02-.343-.02-.345-.018-.345-.017-.346-.016-.349-.015-.349-.014-.349-.012-.351-.011-.352-.01-.353-.009-.352-.008-.354-.006-.355-.005-.355-.003-.356-.002-.356-.001-.356.001-.358.002-.358.004-.357.005-.357.007-.358.008-.358.01-.358.012-.358.013-.357.015-.358.016-.357.018-.357.02-.357.021-.356.024-.355.024-.355.027-.356.029-.354.03-.352.032-.352.034-.352.036-.35.037-.351.04-.348.041-.346.044-.347.045-.346.047-.342.049-.343.051-.341.053-.34.055-.338.057-.335.059-.335.061-.333.063-.332.065-.329.067-.327.069-.325.071-.331.075-.153.036-.162.038-.158.038-.161.039-.158.039-.156.039-.16.041-.157.041-.156.041-.156.042-.155.042-.155.043-.153.043-.154.044-.154.045-.153.045-.151.045-.15.046-.151.047-.148.046-.15.048-.15.048-.146.048-.146.048-.148.05-.145.05-.144.05-.145.051-.145.052-.143.052-.138.051-.144.054-.143.054-.137.053-.137.053-.142.056-.137.055-.136.056-.138.057-.133.055-.134.057-.135.058-.133.058-.133.059-.13.059-.131.059-.131.061-.129.06-.128.061-.128.061-.125.061-.127.063-.126.063-.123.063-.123.063-.123.065-.122.064-.122.065-.119.065-.117.065-.121.068-.118.067-.115.066-.119.069-.112.066-.113.068-.117.071-.112.069-.112.07-.11.069-.111.071-.11.072-.108.071-.107.072-.107.072-.104.072-.106.074-.107.075-.101.072-.102.074-.104.077-.101.075-.099.075-.1.076-.098.077-.098.077-.098.078-.096.078-.096.079-.094.078-.093.078-.094.082-.093.081-.09.079-.09.08-.092.083-.088.082-.088.082-.09.086-.085.081-.086.084-.087.086-.084.084-.085.087-.083.085-.082.087-.082.086-.08.087-.083.091-.079.089-.08.09-.076.087-.078.091-.079.093-.075.09-.076.094-.076.094-.073.092-.074.094-.075.097-.071.095-.072.097-.071.096-.071.099-.068.095-.069.1-.072.104-.066.099-.069.102-.067.103-.066.103-.065.104-.064.103-.066.108-.063.105-.064.108-.062.108-.062.11-.062.11-.061.112-.062.114-.058.11-.059.115-.06.118-.057.115-.056.115-.058.121-.056.119-.055.12-.055.121-.054.124-.055.127-.052.121-.053.128-.052.129-.05.126-.051.131-.05.134-.049.131-.047.132-.049.138-.047.136-.046.137-.046.139-.045.141-.045.145-.043.14-.043.147-.043.147-.04.145-.041.151-.04.149-.039.154-.039.156-.038.154-.036.156-.036.158-.035.16-.034.161-.034.163-.032.165-.032.167-.031.169-.03.167-.029.173-.028.175-.026.169-.027.179-.025.18-.025.179-.023.181-.022.183-.021.185-.021.187-.019.188-.018.188-.017.193-.016.194-.015.197-.014.196-.012.198-.012.203-.01.201-.01.207-.008.206-.007.205-.006.213-.004.212-.003.211-.003.217v.439l.002.219.003.221.006.314.008.304.01.299.012.298.014.293.015.29.018.285.02.284.021.277.023.274.025.271.026.268.028.264.03.257.032.256.033.255.034.248.037.244.037.243.039.237.041.232.042.235.044.227.044.222.047.224.048.219.048.211.05.212.052.21.052.203.054.202.055.198.056.196.057.192.057.189.06.189.061.185.061.179.062.176.063.177.066.176.064.167.066.168.068.167.068.161.069.162.071.159.07.155.071.151.074.154.073.15.075.147.075.144.076.143.079.146.077.138.078.135.08.137.082.135.082.133.084.134.082.128.085.129.087.128.086.124.089.126.089.124.088.12.092.121.093.121.095.121.095.118.095.115.096.115.099.116.102.117.099.111.103.113.105.114.105.11.107.111.107.109.11.11.112.109.113.108.115.109.116.107.118.106.119.106.121.106.122.105.126.106.127.105.126.102.13.104.134.104.133.103.133.101.138.102.14.102.142.103.143.1.144.1.147.101.148.099.151.099.155.101.153.098.156.098.16.099.161.098.164.098.164.096.167.097.169.097.171.096.172.095.175.095.178.096.18.095.182.095.182.093.185.093.188.094.189.093.192.093.193.092.194.092.2.092.199.091.201.091.202.09.206.091.208.09.209.089.211.089.213.089.216.089.217.088.218.088.222.088.222.087.223.086.227.087.229.086.23.086.231.085.233.086.238.085.236.085.239.084.243.085.241.084.244.083.245.083.248.083.25.084.25.082.254.083.254.082.255.082.253.08.526.165.526.163.533.162.538.161.545.161.551.16.555.161.563.16.567.16.572.16.579.16.583.161.588.161.593.161.596.161 1.215.327 1.229.33 1.246.334 1.26.339.64.173.642.175.645.176.648.178.653.181.657.183.658.185.663.188.666.191.669.193.673.197.675.2.677.203.681.207.683.21.686.214.682.216.351.112.345.112.347.113.347.114.346.114.348.116.349.117.349.118.349.12.349.12.351.122.352.124.35.123.356.128.18.065.186.068.182.068.193.073.355.138.361.145.357.147.355.151.354.155.351.159.347.161.345.164.343.169.34.171.335.173.334.178.331.181.327.183.327.188.323.19.317.192.317.197.315.2.31.202.307.205.303.208.301.21.297.213.294.217.295.222.288.222.281.222.284.229.28.232.275.232.27.235.269.238.266.242.263.244.259.246.252.245.253.252.251.255.242.253.241.256.24.262.235.263.23.263.226.266.223.266.223.274.216.272.211.271.212.279.204.276.203.28.2.284.193.281.193.287.187.286.183.287.183.294.176.29.172.29.17.296.167.298.163.299.156.295.156.301.151.303.146.298.144.306.141.307.136.305.133.307.128.306.125.309.121.31.119.313.114.312.111.313.106.313.103.314.099.315.096.317.092.317.088.313.086.322.081.319.076.316.074.321.07.32.067.322.062.318.058.319.057.327.051.323.048.32.044.32.041.321.038.329.033.321.029.321.027.326.022.322.019.322.016.327.011.326.008.318.005.323v.326l-.003.323-.006.322-.01.323-.014.322-.017.327-.021.322-.025.318-.028.321-.032.322-.035.321-.04.325-.042.317-.046.315-.05.324-.054.32-.057.315-.061.318-.064.314-.068.318-.072.316-.075.313-.079.316-.083.314-.086.311-.09.31-.094.312-.096.308-.102.311-.104.307-.108.305-.112.309-.116.303-.118.303-.124.305-.126.3-.128.296-.136.302-.137.297-.141.296-.146.297-.147.29-.152.291-.156.291-.159.289-.164.287-.165.283-.172.287-.175.282-.176.278-.181.279-.184.275-.189.275-.192.273-.198.272-.2.27-.2.262-.207.266-.211.263-.212.258-.219.259-.222.257-.224.252-.226.25-.231.247-.235.246-.239.244-.241.239-.245.238-.249.236-.252.232-.256.23-.258.226-.262.224-.266.221-.267.217-.272.215-.274.211-.278.208-.282.206-.285.203-.288.199-.291.196-.291.191-.298.19-.299.185-.301.181-.306.179-.309.175-.31.171-.313.168-.316.164-.321.161-.321.157-.323.153-.327.149-.328.145-.334.142-.334.138-.336.134-.339.13-.343.127-.341.121-.347.118-.349.115-.35.11-.352.106-.339.098-.192.054-.18.049-.18.048-.177.045-.18.046-.181.045-.18.043-.185.043-.18.041-.179.04-.185.04-.186.039-.183.037-.183.036-.183.035-.184.034-.19.034-.187.032-.181.03-.188.031-.191.029-.184.028-.188.027-.19.026-.189.025-.188.023-.189.023-.193.022-.189.021-.19.019-.193.019-.189.018-.191.016-.197.016-.193.014-.191.014-.191.012-.194.011-.198.011-.194.009-.192.008-.197.007-.195.006-.196.006-.198.003-.195.003-.196.002-.195.001h-.202l-.199-.001-.193-.002-.199-.004-.203-.004-.196-.005-.2-.007-.202-.007-.198-.009-.199-.009-.204-.011-.2-.011-.2-.013-.203-.014-.204-.015-.201-.016-.201-.016-.203-.018-.204-.019-.201-.02-.204-.021-.205-.022-.204-.023-.204-.024-.205-.025-.207-.027-.205-.027-.205-.028-.205-.029-.208-.031-.208-.032-.181-.028-.643-.123-.634-.164-.621-.205-.606-.246-.59-.285-.569-.322-.547-.359-.522-.395-.496-.427-.466-.459-.436-.489-.402-.516-.368-.541-.332-.564-.294-.584-.255-.603-.215-.618-.175-.631-.132-.64-.091-.648-.048-.653-.005-.654.037-.654.08-.649.123-.643.164-.633.206-.622.245-.606.285-.59.323-.569.359-.547.394-.522.428-.496.459-.466.488-.435.516-.403.541-.368.564-.331.585-.295.602-.255.618-.215.631-.175.641-.132.648-.091.652-.048.655-.005.653.037.65.081.139.021.112.018.11.016.113.016.112.015.11.015.108.014.109.013.109.013.107.012.106.011.106.011.107.011.104.009.103.01.105.008.103.008.1.008.1.007.102.006.1.006.096.005.099.004.1.005.094.003.096.003.098.003.092.002.093.002.098.001h.272l.092-.001.091-.001.087-.002.089-.003.089-.002.084-.003.09-.004.086-.004.082-.005.084-.005.086-.005.085-.006.082-.006.078-.006.082-.007.082-.008.079-.008.08-.008.08-.009.075-.008.078-.01.077-.009.077-.01.074-.011.074-.01.078-.012.07-.011.072-.011.077-.013.071-.012.066-.012.072-.014.071-.013.071-.014.07-.014.065-.014.065-.014.07-.016.068-.015.063-.015.067-.016.064-.016.063-.016.066-.017.062-.016.061-.017.048-.013.138-.04.121-.036.117-.037.115-.038.114-.039.115-.041.109-.04.107-.041.108-.043.104-.043.101-.043.102-.045.099-.046.099-.046.096-.047.092-.046.093-.049.092-.049.09-.05.088-.049.085-.05.087-.053.084-.052.081-.051.083-.055.08-.053.078-.054.077-.055.075-.055.075-.056.075-.058.072-.057.072-.058.071-.059.069-.059.068-.06.067-.06.067-.061.064-.061.064-.063.064-.064.061-.061.062-.065.061-.065.06-.067.06-.067.056-.065.055-.065.058-.07.054-.068.053-.068.056-.074.052-.07.05-.069.051-.071.049-.073.05-.075.048-.073.049-.077.046-.075.044-.073.046-.079.044-.077.043-.078.042-.077.041-.08.043-.084.038-.077.039-.082.038-.082.035-.079.038-.088.036-.085.033-.081.034-.086.032-.087.031-.084.031-.088.03-.089.028-.085.029-.091.026-.087.026-.091.026-.092.023-.09.023-.089.022-.094.021-.092.02-.091.019-.096.018-.093.017-.097.016-.093.014-.09.015-.099.013-.099.011-.092.011-.096.009-.097.009-.097.007-.101.007-.098.005-.095.004-.098.003-.099.002-.1.001-.1v-.096l-.002-.1-.002-.105-.004-.097-.004-.097-.006-.101-.007-.102-.008-.098-.01-.102-.01-.102-.011-.095-.013-.102-.014-.103-.015-.103-.016-.099-.017-.095-.019-.103-.02-.104-.02-.099-.022-.099-.023-.1-.025-.103-.025-.1-.026-.095-.029-.104-.029-.1-.03-.099-.031-.099-.033-.1-.034-.1-.035-.099-.036-.098-.036-.097-.039-.098-.04-.099-.042-.1-.042-.098-.044-.098-.043-.095-.045-.095-.05-.101-.047-.095-.049-.095-.053-.1-.052-.094-.052-.094-.054-.094-.058-.097-.058-.097-.056-.09-.061-.096-.062-.095-.062-.091-.065-.095-.065-.091-.067-.093-.069-.094-.068-.089-.073-.094-.073-.092-.071-.088-.077-.092-.078-.091-.079-.09-.08-.089-.079-.087-.085-.09-.087-.091-.084-.086-.087-.086-.093-.091-.091-.087-.092-.085-.095-.086-.096-.085-.1-.087-.101-.085-.101-.084-.102-.082-.11-.087-.108-.083-.107-.081-.112-.082-.114-.082-.117-.082-.118-.081-.12-.08-.122-.08-.123-.078-.126-.078-.13-.078-.13-.077-.132-.076-.136-.076-.139-.076-.139-.074-.144-.075-.145-.073-.146-.071-.15-.072-.153-.071-.154-.069-.157-.069-.16-.068-.165-.068-.165-.066-.177-.069-.074-.028-.087-.033-.084-.031-.092-.033-.294-.105-.299-.106-.298-.104-.299-.104-.301-.104-.299-.102-.301-.102-.3-.101-.301-.1-.303-.1-.301-.099-.302-.098-.302-.098-.298-.095-.612-.194-.608-.19-.609-.187-.61-.186-.611-.183-.612-.181-.613-.179-.614-.178-.614-.176-.615-.174-.616-.174-.616-.171-.617-.171-.618-.17-.618-.168-.617-.168-.617-.167-1.241-.334-1.238-.332-1.238-.332-1.235-.333-.62-.167-.619-.169-.618-.169-.618-.17-.617-.171-.617-.172-.616-.174-.616-.176-.615-.177-.614-.179-.614-.181-.614-.184-.612-.186-.612-.189-.604-.19-.31-.098-.306-.098-.305-.099-.303-.099-.304-.1-.304-.101-.304-.102-.304-.103-.303-.104-.304-.105-.3-.106-.303-.106-.302-.109-.3-.108-.302-.11-.302-.111-.3-.113-.3-.113-.3-.114-.301-.117-.3-.118-.297-.117-.3-.12-.298-.122-.296-.122-.298-.124-.297-.125-.297-.127-.296-.129-.295-.129-.297-.132-.295-.134-.295-.134-.292-.136-.295-.139-.293-.14-.291-.141-.293-.143-.29-.145-.292-.147-.291-.15-.289-.151-.288-.152-.288-.154-.288-.157-.288-.16-.287-.161-.285-.163-.285-.165-.286-.168-.282-.169-.282-.172-.281-.174-.283-.177-.281-.18-.277-.179-.279-.184-.278-.187-.276-.188-.276-.192-.275-.194-.272-.195-.271-.198-.27-.201-.273-.206-.268-.207-.265-.207-.266-.212-.267-.217-.263-.217-.26-.219-.261-.224-.259-.226-.257-.229-.255-.231-.255-.235-.251-.237-.251-.24-.248-.243-.247-.246-.246-.25-.243-.251-.242-.256-.238-.256-.237-.261-.236-.266-.231-.264-.23-.269-.229-.273-.228-.277-.223-.278-.22-.28-.218-.283-.216-.286-.216-.292-.21-.292-.208-.294-.208-.301-.202-.299-.2-.304-.199-.308-.194-.307-.192-.312-.189-.315-.185-.316-.185-.322-.182-.325-.175-.321-.175-.328-.171-.331-.169-.334-.165-.335-.161-.335-.16-.342-.156-.344-.152-.344-.149-.346-.147-.351-.143-.35-.14-.355-.138-.359-.132-.356-.13-.361-.128-.365-.124-.367-.12-.367-.117-.367-.115-.374-.111-.374-.108-.376-.104-.379-.101-.38-.099-.384-.094-.384-.092-.385-.089-.393-.085-.389-.082-.39-.079-.398-.076-.397-.072-.396-.07-.403-.067-.405-.063-.404-.06-.408-.057-.41-.054-.41-.051-.413-.048-.419-.044-.417-.042-.419-.039-.421-.035-.425-.033-.427-.029-.427-.027-.431-.024-.433-.02-.435-.018-.437-.015-.441-.011-.443-.009-.438-.004-.34-.003-.337v-.334l.001-.332.003-.332.005-.334.007-.33.009-.326.011-.332.013-.327.015-.323.017-.326.018-.322.021-.324.023-.323.024-.319.026-.318.028-.318.031-.32.032-.315.034-.315.036-.314.038-.313.041-.312.042-.312.043-.307.045-.306.049-.313.05-.304.051-.304.054-.306.055-.302.058-.301.059-.301.061-.299.063-.298.066-.298.067-.296.069-.296.072-.295.072-.29.074-.29.078-.292.078-.287.081-.29.083-.286.084-.284.087-.288.087-.28.091-.281.092-.281.094-.28.096-.278.097-.274.1-.278.102-.275.103-.271.105-.27.108-.273.108-.268.11-.266.115-.27.113-.262.116-.262.118-.263.12-.261.122-.26.122-.256.126-.258.128-.256.128-.252.13-.251.134-.254.133-.247.135-.248.137-.245.139-.245.141-.244.142-.241.144-.242.144-.237.148-.238.15-.237.15-.234.152-.232.152-.23.157-.231.154-.225.157-.226.162-.227.16-.223.163-.222.164-.219.166-.22.165-.214.168-.216.171-.215.17-.21.171-.209.175-.211.173-.205.176-.205.18-.206.177-.201.181-.201.178-.195.183-.199.184-.195.185-.194.187-.193.185-.189.189-.19.187-.185.191-.186.193-.186.19-.18.194-.18.195-.18.193-.175.197-.177.199-.175.197-.172.198-.169.2-.17.203-.168.2-.165.203-.165.202-.161.205-.161.205-.16.205-.157.208-.157.207-.155.206-.151.209-.152.213-.152.207-.146.21-.147.213-.146.213-.144.213-.142.213-.141.214-.139.214-.137.217-.137.215-.134.217-.134.214-.129.218-.131.221-.131.216-.126.22-.127.22-.124.217-.121.222-.123.223-.121.22-.119.222-.117.222-.116.223-.115.223-.113.223-.112.223-.11.225-.11.225-.108.225-.107.225-.106.225-.103.225-.103.228-.102.226-.1.227-.099.225-.097.228-.097.231-.097.225-.093.23-.093.228-.092.226-.089.231-.09.232-.089.227-.086.227-.085.233-.086.231-.084.228-.082.23-.081.231-.08.232-.079.229-.078.231-.077.233-.076.23-.074.231-.074.233-.073.231-.071.234-.071.232-.07.231-.068.231-.067.232-.066.234-.066.232-.064.232-.064.233-.062.234-.062.232-.06.231-.059.235-.06.234-.057.231-.057.235-.056.232-.055.24-.055.459-.104.467-.102.466-.098.467-.095.466-.092.465-.088.467-.085.466-.081.465-.079.466-.075.464-.073.465-.069.465-.066.463-.064.463-.06.464-.058.462-.055.462-.052.461-.05.46-.047.46-.044.46-.042.458-.039.457-.037.457-.034.456-.032.455-.03.453-.027.453-.025.452-.023.451-.021.451-.018.447-.016.448-.015.446-.012.444-.01.445-.009.442-.006.44-.005.439-.003.438-.001.438.001z" fill="#f0b938"/><path d="M70 100c-.357-8.93 53.953-19.215 270-19.638C587.078 79.878 610.366 90.859 610 100c-5.801 144.915-18.342 299.407-270 299.408C88.342 399.407 75.801 244.915 70 100zM377 464c0-2.122-.843-4.157-2.343-5.657S371.122 456 369 456h-58c-2.122 0-4.157.843-5.657 2.343S303 461.878 303 464s.843 4.157 2.343 5.657S308.878 472 311 472h58c2.122 0 4.157-.843 5.657-2.343S377 466.122 377 464zM374 601c0-2.122-.843-4.157-2.343-5.657S368.122 593 366 593h-52c-2.122 0-4.157.843-5.657 2.343S306 598.878 306 601s.843 4.157 2.343 5.657S311.878 609 314 609h52c2.122 0 4.157-.843 5.657-2.343S374 603.122 374 601zM448 672c0-2.122-.843-4.157-2.343-5.657S442.122 664 440 664H240c-2.122 0-4.157.843-5.657 2.343S232 669.878 232 672s.843 4.157 2.343 5.657S237.878 680 240 680h200c2.122 0 4.157-.843 5.657-2.343S448 674.122 448 672z" fill="#f0b938"/><path d="M317 593c-7.214-53.084-12.427-96.73-5-121h56c7.427 24.271 2.214 67.916-5 121h-46z" fill="#f8cd61"/><path d="M472.384 134.611c.105 9.272-.776 18.632-5.293 28.315-1.584-4.242-5.132-3.97-8.559-2.545 2.932-5.345 7.466-10.406 6.092-23.683l7.76-2.087z" fill="#8eedc6"/><clipPath id="c"><path d="M472.384 134.611c.105 9.272-.776 18.632-5.293 28.315-1.584-4.242-5.132-3.97-8.559-2.545 2.932-5.345 7.466-10.406 6.092-23.683l7.76-2.087z"/></clipPath><g clip-path="url(#c)"><path d="M472.657 133.039c-2.171 3.193-5.77 4.123-9.768 4.931l.19 4.282c4.002-1.258 5.647-1.825 10.021-4.273l-.443-4.94z" fill="#181e26" fill-opacity="0.15"/></g><path d="M487.906 89.939l-8.224 5.312s.664 25.382-10.157 30.806c-3.617-5.72-21.768-23.859-36.605-13.757-10.841 7.381-5.808 24.839 7.15 29.102 10.835 3.565 30.346-3.213 38.026-11.299 6.011-6.328 11.025-22.445 9.81-40.164zm-25.933 41.205s-5.96-8.266-12.752-11.457c-5.947-2.794-15.999-1.29-13.474 7.155 3.489 11.666 20.537 7.382 26.226 4.302z" fill="#8eedc6"/><clipPath id="d"><path d="M487.906 89.939l-8.224 5.312s.664 25.382-10.157 30.806c-3.617-5.72-21.768-23.859-36.605-13.757-10.841 7.381-5.808 24.839 7.15 29.102 10.835 3.565 30.346-3.213 38.026-11.299 6.011-6.328 11.025-22.445 9.81-40.164zm-25.933 41.205s-5.96-8.266-12.752-11.457c-5.947-2.794-15.999-1.29-13.474 7.155 3.489 11.666 20.537 7.382 26.226 4.302z"/></clipPath><g clip-path="url(#d)" fill="#181e26" fill-opacity="0.15"><path d="M469.069 121.932c-2.171 3.193-8.014 5.161-12.013 5.969l1.289 4.019c3.812.392 13.007-6.229 12.856-8.369l-2.132-1.619zM488.816 91.163c-4.184 2.71-7.675 6.249-9.782 6.026l-.434 4.871c4.431-1.245 8.053-3.126 11.75-5.571l-1.534-5.326z"/></g><path d="M514.782 16.075c-6.007 3.79-20.446 21.069-22.199 31.703-1.805 10.953 1.276 18.946-5.914 31.752 0 0-2.94-14.015-17.311-21.286-11.79-5.965-24.412 2.845-26.286 12.443-2.805 14.36 8.231 32.574 30.796 28.281 10.187-1.939 18.957-9.374 23.268-21.912 3.226-9.382.677-18.514 2.587-27.171 1.604-7.265 12.751-21.606 19.766-23.67-1.772-3.036-3.999-6.046-4.707-10.14zm-35.887 70.979s2.795-15.244-14.909-20.895c-8.163-2.605-19.195 10.21-7.43 21.719 5.239 5.126 17.504 3.475 22.339-.824z" fill="#8eedc6"/><clipPath id="e"><path d="M514.782 16.075c-6.007 3.79-20.446 21.069-22.199 31.703-1.805 10.953 1.276 18.946-5.914 31.752 0 0-2.94-14.015-17.311-21.286-11.79-5.965-24.412 2.845-26.286 12.443-2.805 14.36 8.231 32.574 30.796 28.281 10.187-1.939 18.957-9.374 23.268-21.912 3.226-9.382.677-18.514 2.587-27.171 1.604-7.265 12.751-21.606 19.766-23.67-1.772-3.036-3.999-6.046-4.707-10.14zm-35.887 70.979s2.795-15.244-14.909-20.895c-8.163-2.605-19.195 10.21-7.43 21.719 5.239 5.126 17.504 3.475 22.339-.824z"/></clipPath><g clip-path="url(#e)"><path d="M486.093 74.652c-3.31 6.335-7.048 7.851-12.656 8.633l2.83 4.702c1.979-.432 4.489-1.759 6.674-3.966 2.911-2.942 4.935-6.155 4.786-6.756l-1.634-2.613z" fill="#181e26" fill-opacity="0.15"/></g><path d="M70 100s-.13 33 270 33 270-33 270-33c-5.801 144.915-18.342 299.407-270 299.408C88.342 399.407 75.801 244.915 70 100z" fill="#f8cd61"/><g><path d="M107.622 515.645c-2.149 10.077-5.388 20.008-12.647 29.401-.682-4.984-4.595-5.555-8.657-4.847 4.483-5.079 10.632-9.458 12.383-24.185l8.921-.369z" fill="#6de8b5"/><clipPath id="f"><path d="M107.622 515.645c-2.149 10.077-5.388 20.008-12.647 29.401-.682-4.984-4.595-5.555-8.657-4.847 4.483-5.079 10.632-9.458 12.383-24.185l8.921-.369z"/></clipPath><g clip-path="url(#f)"><path d="M108.301 514.007c-3.132 2.931-7.26 3.062-11.792 2.962l-.838 4.688c4.644-.387 6.566-.6 11.905-2.187l.725-5.463z" fill="#181e26" fill-opacity="0.15"/></g><path d="M133.334 480.922l-11.425 2.938s-2.699 18.551-15.752 21.79c-2.525-7.083-16.772-34.851-36.322-23.845-12.699 7.149-8.49 26.096 2.764 32.863 10.861 6.531 33.506 4.432 42.181-1.794 4.681-3.359 15.548-12.448 18.554-31.952zm-36.605 28.399s-3.369-12.076-9.953-17.192c-5.765-4.48-15.379-4.955-14.702 4.815.935 13.497 17.736 14.328 24.655 12.377z" fill="#6de8b5"/><clipPath id="g"><path d="M133.334 480.922l-11.425 2.938s-2.699 18.551-15.752 21.79c-2.525-7.083-16.772-34.851-36.322-23.845-12.699 7.149-8.49 26.096 2.764 32.863 10.861 6.531 33.506 4.432 42.181-1.794 4.681-3.359 15.548-12.448 18.554-31.952zm-36.605 28.399s-3.369-12.076-9.953-17.192c-5.765-4.48-15.379-4.955-14.702 4.815.935 13.497 17.736 14.328 24.655 12.377z"/></clipPath><g clip-path="url(#g)" fill="#181e26" fill-opacity="0.15"><path d="M106.669 501.067c-3.132 2.931-9.947 3.639-14.478 3.539l.416 4.672c4.036 1.354 15.62-3.579 15.978-5.935l-1.916-2.276zM134.881 482.889c-5.197 1.916-11.391 2.934-13.621 2.178l-1.595 5.582c5.107-.268 9.366-1.351 13.97-3.099l1.246-4.661z"/></g><path d="M158.886 428.688c-6.434 21.715-15.639 39.434-24.77 42.907 0 0 2.263-19.223-8.445-33.393-9.203-12.179-31.012-12.361-38.519-3.551-11.354 13.327.736 38.622 18.35 46.375 10.714 4.716 31.827 8.004 43.76-6.826 13.495-16.77 20.445-45.175 20.445-45.175s-3.708.535-10.821-.337zm-36.501 45.33c1.658-9.072 6.893-32.302-17.258-35.599-7.933-1.083-19.325 8.981-8.206 23.049 5.927 7.498 16.656 11.909 25.464 12.55z" fill="#6de8b5"/><clipPath id="h"><path d="M158.886 428.688c-6.434 21.715-15.639 39.434-24.77 42.907 0 0 2.263-19.223-8.445-33.393-9.203-12.179-31.012-12.361-38.519-3.551-11.354 13.327.736 38.622 18.35 46.375 10.714 4.716 31.827 8.004 43.76-6.826 13.495-16.77 20.445-45.175 20.445-45.175s-3.708.535-10.821-.337zm-36.501 45.33c1.658-9.072 6.893-32.302-17.258-35.599-7.933-1.083-19.325 8.981-8.206 23.049 5.927 7.498 16.656 11.909 25.464 12.55z"/></clipPath><g clip-path="url(#h)" fill="#181e26" fill-opacity="0.15"><path d="M136.441 466.352c-6.654 3.804-10.388 2.495-16.148 1.194l.239 6.093c2.159.638 5.759.795 9.068-.186 4.409-1.307 7.393-3.544 7.828-4.124l-.987-2.977zM169.859 431.404c-5.051 2.273-11.16 3.718-13.436 3.119l-2.072 5.867c4.05.488 11.936-1.388 14.242-3.588l1.266-5.398z"/></g><path d="M182.603 337.727c1.211 24.618-1.187 63.667-15.131 80.206 0 0-1.971-16.013-12.702-27.713-9.925-10.82-25.427-5.998-30.82 3.672-7.919 14.198.616 35.307 19.109 40.631 11.073 3.188 32.547-1.686 39.898-15.204 13.329-24.512 12.865-78.472 12.865-78.472-3.751 1.158-8.346 1.286-13.219-3.12zm-25.587 86.138s.578-21.821-12.943-28.433c-6.56-3.207-20.307 6.778-10.054 21.921 3.196 4.721 16.599 9.791 22.997 6.512z" fill="#6de8b5"/><clipPath id="i"><path d="M182.603 337.727c1.211 24.618-1.187 63.667-15.131 80.206 0 0-1.971-16.013-12.702-27.713-9.925-10.82-25.427-5.998-30.82 3.672-7.919 14.198.616 35.307 19.109 40.631 11.073 3.188 32.547-1.686 39.898-15.204 13.329-24.512 12.865-78.472 12.865-78.472-3.751 1.158-8.346 1.286-13.219-3.12zm-25.587 86.138s.578-21.821-12.943-28.433c-6.56-3.207-20.307 6.778-10.054 21.921 3.196 4.721 16.599 9.791 22.997 6.512z"/></clipPath><g clip-path="url(#i)"><path d="M168.208 412.525c-5.322 5.894-9.765 6.485-16.015 5.767l1.736 5.845c2.249.086 5.318-.643 8.283-2.41 3.95-2.355 7.02-5.248 7.027-5.936l-1.031-3.266z" fill="#181e26" fill-opacity="0.15"/></g></g><g><path d="M132.367 161.299c.734 9.244 2.457 18.486 7.83 27.72 1.194-4.367 4.753-4.417 8.295-3.308-3.404-5.058-8.376-9.688-8.208-23.035l-7.917-1.377z" fill="#00c875"/><clipPath id="j"><path d="M132.367 161.299c.734 9.244 2.457 18.486 7.83 27.72 1.194-4.367 4.753-4.417 8.295-3.308-3.404-5.058-8.376-9.688-8.208-23.035l-7.917-1.377z"/></clipPath><g clip-path="url(#j)"><path d="M131.954 159.758c2.45 2.983 6.118 3.584 10.173 4.028l.198 4.281c-4.099-.891-5.789-1.307-10.366-3.35l-.005-4.959z" fill="#181e26" fill-opacity="0.15"/></g><path d="M113.097 127.263l9.85 3.964s.228 16.87 11.495 21.295c3.085-6.024 19.06-29.127 35.212-17.01 10.491 7.871 4.509 24.283-6.328 28.999-10.459 4.552-30.418.017-37.427-6.557-3.783-3.547-12.411-12.934-12.802-30.691zm29.326 29.642s4.425-10.38 10.901-14.171c5.671-3.32 14.304-2.615 12.552 6.023-2.42 11.934-17.509 10.701-23.453 8.148z" fill="#00c875"/><clipPath id="k"><path d="M113.097 127.263l9.85 3.964s.228 16.87 11.495 21.295c3.085-6.024 19.06-29.127 35.212-17.01 10.491 7.871 4.509 24.283-6.328 28.999-10.459 4.552-30.418.017-37.427-6.557-3.783-3.547-12.411-12.934-12.802-30.691zm29.326 29.642s4.425-10.38 10.901-14.171c5.671-3.32 14.304-2.615 12.552 6.023-2.42 11.934-17.509 10.701-23.453 8.148z"/></clipPath><g clip-path="url(#k)" fill="#181e26" fill-opacity="0.15"><path d="M134.523 148.372c2.451 2.983 8.448 4.415 12.503 4.859l-.92 4.119c-3.761.735-13.517-5.029-13.56-7.173l1.977-1.805zM113.097 127.263c4.412 2.321 8.208 5.53 10.287 5.118l.767 5.168c-4.525-.84-8.198-2.743-12.101-4.843l1.047-5.443z"/></g><path d="M115.117 64.428c-6.602 21.178-3.943 45.172 2.239 51.423 0 0 5.325-13.508 17.312-21.285 11.085-7.192 25.724.322 27.598 9.92 2.805 14.36-14.795 30.33-32.108 30.803-10.367.284-23.247-8.284-26.607-21.718-6.092-24.362-1.935-45.808-1.935-45.808s4.199 8.667 13.501-3.335zm10.014 58.948s7.383-21.461 17.683-21.859c6.567-.253 15.183 8.413 2.838 19.298-3.848 3.393-15.686 6.859-20.521 2.561z" fill="#00c875"/><clipPath id="l"><path d="M115.117 64.428c-6.602 21.178-3.943 45.172 2.239 51.423 0 0 5.325-13.508 17.312-21.285 11.085-7.192 25.724.322 27.598 9.92 2.805 14.36-14.795 30.33-32.108 30.803-10.367.284-23.247-8.284-26.607-21.718-6.092-24.362-1.935-45.808-1.935-45.808s4.199 8.667 13.501-3.335zm10.014 58.948s7.383-21.461 17.683-21.859c6.567-.253 15.183 8.413 2.838 19.298-3.848 3.393-15.686 6.859-20.521 2.561z"/></clipPath><g clip-path="url(#l)"><path d="M117.933 110.974c3.31 6.334 7.048 7.85 12.655 8.632l-2.829 4.703c-1.979-.432-4.489-1.759-6.674-3.967-2.912-2.942-4.935-6.154-4.786-6.755l1.634-2.613z" fill="#181e26" fill-opacity="0.15"/></g></g><g><path d="M515.983 428.917c-4.916-7.248-10.644-14.032-19.365-19.107 1.057 4.143-1.842 5.845-5.267 6.586 5.155 2.566 11.398 4.047 17.489 15.085l7.143-2.564z" fill="#43e8a3"/><clipPath id="m"><path d="M515.983 428.917c-4.916-7.248-10.644-14.032-19.365-19.107 1.057 4.143-1.842 5.845-5.267 6.586 5.155 2.566 11.398 4.047 17.489 15.085l7.143-2.564z"/></clipPath><g clip-path="url(#m)"><path d="M517.042 429.989c-3.405-1.306-6.697-.088-10.234 1.44l-2.159-3.423c3.781-1.181 5.362-1.628 10.074-2.087l2.319 4.07z" fill="#181e26" fill-opacity="0.15"/></g><path d="M547.689 447.871l-9.938 1.342s-8.06-13.746-19.375-12.121c.277 6.386-2.369 29.84-20.015 25.965-10.666-2.343-13.46-14.531-8.456-22.471 5.743-9.113 24.127-14.069 32.95-11.941 4.761 1.148 16.226 4.829 24.834 19.226zm-37.912-10.654s2.793 6.749-.755 12.884c-3.107 5.373-10.61 8.85-13.118.912-2.804-8.877 7.8-13.118 13.873-13.796z" fill="#43e8a3"/><clipPath id="n"><path d="M547.689 447.871l-9.938 1.342s-8.06-13.746-19.375-12.121c.277 6.386-2.369 29.84-20.015 25.965-10.666-2.343-13.46-14.531-8.456-22.471 5.743-9.113 24.127-14.069 32.95-11.941 4.761 1.148 16.226 4.829 24.834 19.226zm-37.912-10.654s2.793 6.749-.755 12.884c-3.107 5.373-10.61 8.85-13.118.912-2.804-8.877 7.8-13.118 13.873-13.796z"/></clipPath><g clip-path="url(#n)" fill="#181e26" fill-opacity="0.15"><path d="M520.245 440.537c-3.404-1.306-8.997.317-12.534 1.845l-1.167-3.812c2.746-2.358 13.446-2.178 14.482-.438l-.781 2.405zM548.342 446.383c-4.706.154-9.974.778-11.488 2.086l-3.042-3.885c4.108-1.423 7.808-1.932 11.993-2.029l2.537 3.828z"/></g><path d="M578.429 487.398c-6.948-18.028-17.566-31.279-27.827-31.608 0 0 3.879 12.165-2.604 24.513-6.032 11.488-20.685 12.372-27.429 6.062-10.091-9.44-8.772-24.232 4.608-33.642 8.139-5.725 29.136-13.685 45.042 3.737 11.667 12.78 16.626 28.817 16.626 28.817s-2.634.203-8.416 2.121zm-38.009-31.662c2.901 7.282 4.332 17.648-3.585 23.731-4.922 3.781-15.994 1.015-12.701-11.102 2.13-7.84 9.053-10.621 16.286-12.629z" fill="#43e8a3"/><clipPath id="o"><path d="M578.429 487.398c-6.948-18.028-17.566-31.279-27.827-31.608 0 0 3.879 12.165-2.604 24.513-6.032 11.488-20.685 12.372-27.429 6.062-10.091-9.44-8.772-24.232 4.608-33.642 8.139-5.725 29.136-13.685 45.042 3.737 11.667 12.78 16.626 28.817 16.626 28.817s-2.634.203-8.416 2.121zm-38.009-31.662c2.901 7.282 4.332 17.648-3.585 23.731-4.922 3.781-15.994 1.015-12.701-11.102 2.13-7.84 9.053-10.621 16.286-12.629z"/></clipPath><g clip-path="url(#o)" fill="#181e26" fill-opacity="0.15"><path d="M553.418 459.77c-6.183-2.056-9.075-.34-13.658 1.709l-.82-5.118c1.692-.893 4.665-1.626 7.587-1.363 3.893.351 6.755 1.715 7.215 2.126l-.324 2.646zM587.096 483.026c-4.59-1.048-9.923-1.23-11.72-.349l-2.709-4.542c3.294-1.085 10.18-.843 12.469.605l1.96 4.286z"/></g><path d="M608.968 539.619c-1.615-20.888-12.34-41.008-19.95-44.33 0 0 .053 13.713-7.742 24.728-7.21 10.187-22.681 8.715-27.682.95-7.483-11.617 2.371-31.783 17.394-38.253 8.996-3.875 23.293-.864 30.939 9.747 13.865 19.242 17.719 39.51 17.719 39.51s-6.715-6.135-10.678 7.648zm-29.402-48.212s1.028 21.41-7.869 25.361c-5.672 2.519-16.262-2.07-9.239-15.937 2.189-4.323 11.362-11.504 17.108-9.424z" fill="#43e8a3"/><clipPath id="p"><path d="M608.968 539.619c-1.615-20.888-12.34-41.008-19.95-44.33 0 0 .053 13.713-7.742 24.728-7.21 10.187-22.681 8.715-27.682.95-7.483-11.617 2.371-31.783 17.394-38.253 8.996-3.875 23.293-.864 30.939 9.747 13.865 19.242 17.719 39.51 17.719 39.51s-6.715-6.135-10.678 7.648zm-29.402-48.212s1.028 21.41-7.869 25.361c-5.672 2.519-16.262-2.07-9.239-15.937 2.189-4.323 11.362-11.504 17.108-9.424z"/></clipPath><g clip-path="url(#p)"><path d="M590.218 499.77c-5.119-4.4-8.929-4.422-14.122-3.147l.838-5.115c1.887-.314 4.553-.027 7.242 1.145 3.583 1.563 6.482 3.674 6.561 4.253l-.519 2.864z" fill="#181e26" fill-opacity="0.15"/></g></g><g><text x="44.523px" y="382.331px" font-family="Helvetica" font-size="60px" fill="#17b272">🤑</text><text x="183.359px" y="566.409px" font-family="Helvetica" font-size="60px" fill="#17b272">🏅</text><text x="453.166px" y="594.066px" font-family="Helvetica" font-size="60px" fill="#17b272">💸</text><text x="165.041px" y="59.413px" font-family="Helvetica" font-size="60px" fill="#17b272">✨</text><text x="585.467px" y="406.328px" font-family="Helvetica" font-size="60px" fill="#17b272">💰</text></g><text x="127.69px" y="267.112px" font-family="'GothamRounded-Bold', 'Gotham Rounded'" font-size="90px" fill="#0e8754">$100000</text><path d="M582.283 579.479l-9.167-2.849c-2.543 22.037-8.792 42.445-18.992 61.117l9.167 2.849c9.966-19.158 16.49-39.466 18.992-61.117zM168.785 629.654l-5.649-7.762c-11.902 13.745-15.58 14.686-31.755 21.261l5.649 7.762c16.216-7.061 20.058-7.758 31.755-21.261z" fill="#00c875"/><path d="M45.109 582.513l22.878-.459-3.125 18.878-16.009-.662-3.744-17.757z" fill="#25e595"/><path d="M619.729 45.023l14.583 18.127-24.929 5.191 10.346-23.318zM484.584 331.126c4.191-.001 6.882 4.397 7.771 9.367.874 4.89-2.849 8.381-7.816 8.381s-7.996-3.651-7.815-8.947c.172-5.061 3.93-8.8 7.86-8.801z" fill="#17b272"/><path d="M56.733 38.619l-14.762-6.172-8.486 20.298 14.762 6.172 8.486-20.298z" fill="#00c875"/><path d="M638.43 640.596c4.97 0 7.444 3.278 7.97 8.296.518 4.944-3 9.704-7.97 9.704s-9.4-4.822-8.709-9.744c.704-5.019 3.739-8.256 8.709-8.256z" fill="#21d98c"/><path d="M251.303 445.806c4.487-.001 7.367 4.707 8.319 10.028.936 5.234-3.05 8.972-8.368 8.972-5.317 0-8.559-3.909-8.366-9.578.185-5.419 4.207-9.421 8.415-9.422z" fill="#8eedc6"/><path d="M285.714 615.461l14.583 18.127-24.929 5.192 10.346-23.319z" fill="#17b272"/><path d="M266.278 312.172l-14.959 18.838 27.269-6.909-12.31-11.929z" fill="#1bc47e"/><path d="M377.419 23.682c6.075 0 9.098 4.006 9.741 10.14.633 6.042-3.666 11.86-9.741 11.86-6.075 0-11.489-5.893-10.644-11.909.86-6.134 4.569-10.091 10.644-10.091z" fill="#21d98c"/><path d="M635.798 451.463c4.967 0 7.814 2.963 7.866 7.782.054 4.967-2.5 8.876-8.442 8.603-5.712-.261-8.365-3.678-8.226-8.644.153-5.475 3.834-7.741 8.802-7.741z" fill="#17b272"/><path d="M37.838 447.45l19.123-1.755-6.195 16.089-17.509 2.074 4.581-16.408z" fill="#25e595"/></svg>